%TF.GenerationSoftware,KiCad,Pcbnew,9.0.7*%
%TF.CreationDate,2026-02-16T12:42:13+01:00*%
%TF.ProjectId,mjctest,6d6a6374-6573-4742-9e6b-696361645f70,rev?*%
%TF.SameCoordinates,Original*%
%TF.FileFunction,Copper,L4,Bot*%
%TF.FilePolarity,Positive*%
%FSLAX46Y46*%
G04 Gerber Fmt 4.6, Leading zero omitted, Abs format (unit mm)*
G04 Created by KiCad (PCBNEW 9.0.7) date 2026-02-16 12:42:13*
%MOMM*%
%LPD*%
G01*
G04 APERTURE LIST*
G04 Aperture macros list*
%AMRoundRect*
0 Rectangle with rounded corners*
0 $1 Rounding radius*
0 $2 $3 $4 $5 $6 $7 $8 $9 X,Y pos of 4 corners*
0 Add a 4 corners polygon primitive as box body*
4,1,4,$2,$3,$4,$5,$6,$7,$8,$9,$2,$3,0*
0 Add four circle primitives for the rounded corners*
1,1,$1+$1,$2,$3*
1,1,$1+$1,$4,$5*
1,1,$1+$1,$6,$7*
1,1,$1+$1,$8,$9*
0 Add four rect primitives between the rounded corners*
20,1,$1+$1,$2,$3,$4,$5,0*
20,1,$1+$1,$4,$5,$6,$7,0*
20,1,$1+$1,$6,$7,$8,$9,0*
20,1,$1+$1,$8,$9,$2,$3,0*%
G04 Aperture macros list end*
%TA.AperFunction,ComponentPad*%
%ADD10R,0.850000X0.850000*%
%TD*%
%TA.AperFunction,ComponentPad*%
%ADD11C,0.850000*%
%TD*%
%TA.AperFunction,ComponentPad*%
%ADD12C,1.400000*%
%TD*%
%TA.AperFunction,ComponentPad*%
%ADD13RoundRect,0.250001X-0.949999X-0.949999X0.949999X-0.949999X0.949999X0.949999X-0.949999X0.949999X0*%
%TD*%
%TA.AperFunction,ComponentPad*%
%ADD14C,2.400000*%
%TD*%
%TA.AperFunction,ComponentPad*%
%ADD15C,1.905000*%
%TD*%
%TA.AperFunction,ComponentPad*%
%ADD16R,2.000000X2.000000*%
%TD*%
%TA.AperFunction,ComponentPad*%
%ADD17O,2.000000X1.600000*%
%TD*%
%TA.AperFunction,ViaPad*%
%ADD18C,0.600000*%
%TD*%
%TA.AperFunction,Conductor*%
%ADD19C,0.200000*%
%TD*%
G04 APERTURE END LIST*
D10*
%TO.P,J6,1,Pin_1*%
%TO.N,Net-(HV1-hvo11)*%
X123800000Y-82600000D03*
D11*
%TO.P,J6,2,Pin_2*%
%TO.N,Net-(HV1-hvo12)*%
X124800000Y-82600000D03*
%TO.P,J6,3,Pin_3*%
%TO.N,Net-(HV1-hvo13)*%
X125800000Y-82600000D03*
%TO.P,J6,4,Pin_4*%
%TO.N,Net-(HV1-hvo14)*%
X126800000Y-82600000D03*
%TO.P,J6,5,Pin_5*%
%TO.N,Net-(HV1-hvo15)*%
X127800000Y-82600000D03*
%TO.P,J6,6,Pin_6*%
%TO.N,Net-(HV1-hvo16)*%
X128800000Y-82600000D03*
%TO.P,J6,7,Pin_7*%
%TO.N,Net-(HV1-hvo17)*%
X129800000Y-82600000D03*
%TO.P,J6,8,Pin_8*%
%TO.N,Net-(HV1-hvo18)*%
X130800000Y-82600000D03*
%TO.P,J6,9,Pin_9*%
%TO.N,Net-(HV1-hvo19)*%
X131800000Y-82600000D03*
%TO.P,J6,10,Pin_10*%
%TO.N,Net-(HV1-hvo20)*%
X132800000Y-82600000D03*
%TD*%
D10*
%TO.P,J4,1,Pin_1*%
%TO.N,Net-(HV2-hvo9)*%
X158800000Y-63200000D03*
D11*
%TO.P,J4,2,Pin_2*%
%TO.N,Net-(HV2-hvo10)*%
X158800000Y-62200000D03*
%TO.P,J4,3,Pin_3*%
%TO.N,Net-(HV2-hvo11)*%
X158800000Y-61200000D03*
%TO.P,J4,4,Pin_4*%
%TO.N,Net-(HV2-hvo12)*%
X158800000Y-60200000D03*
%TO.P,J4,5,Pin_5*%
%TO.N,Net-(HV2-hvo13)*%
X158800000Y-59200000D03*
%TO.P,J4,6,Pin_6*%
%TO.N,Net-(HV2-hvo14)*%
X158800000Y-58200000D03*
%TO.P,J4,7,Pin_7*%
%TO.N,Net-(HV2-hvo15)*%
X158800000Y-57200000D03*
%TO.P,J4,8,Pin_8*%
%TO.N,Net-(HV2-hvo16)*%
X158800000Y-56200000D03*
%TO.P,J4,9,Pin_9*%
%TO.N,Net-(HV2-hvo17)*%
X158800000Y-55200000D03*
%TO.P,J4,10,Pin_10*%
%TO.N,Net-(HV2-hvo18)*%
X158800000Y-54200000D03*
%TD*%
D12*
%TO.P,R6,1*%
%TO.N,Net-(J3-Pin_1)*%
X83380000Y-81500000D03*
%TO.P,R6,2*%
%TO.N,GND*%
X91000000Y-81500000D03*
%TD*%
D10*
%TO.P,J7,1,Pin_1*%
%TO.N,Net-(HV1-hvo1)*%
X105800000Y-82600000D03*
D11*
%TO.P,J7,2,Pin_2*%
%TO.N,Net-(HV1-hvo2)*%
X106800000Y-82600000D03*
%TO.P,J7,3,Pin_3*%
%TO.N,Net-(HV1-hvo3)*%
X107800000Y-82600000D03*
%TO.P,J7,4,Pin_4*%
%TO.N,Net-(HV1-hvo4)*%
X108800000Y-82600000D03*
%TO.P,J7,5,Pin_5*%
%TO.N,Net-(HV1-hvo5)*%
X109800000Y-82600000D03*
%TO.P,J7,6,Pin_6*%
%TO.N,Net-(HV1-hvo6)*%
X110800000Y-82600000D03*
%TO.P,J7,7,Pin_7*%
%TO.N,Net-(HV1-hvo7)*%
X111800000Y-82600000D03*
%TO.P,J7,8,Pin_8*%
%TO.N,Net-(HV1-hvo8)*%
X112800000Y-82600000D03*
%TO.P,J7,9,Pin_9*%
%TO.N,Net-(HV1-hvo9)*%
X113800000Y-82600000D03*
%TO.P,J7,10,Pin_10*%
%TO.N,Net-(HV1-hvo10)*%
X114800000Y-82600000D03*
%TD*%
D12*
%TO.P,R4,1*%
%TO.N,Net-(J2-Pin_1)*%
X83500000Y-64000000D03*
%TO.P,R4,2*%
%TO.N,GND*%
X91120000Y-64000000D03*
%TD*%
D10*
%TO.P,J3,1,Pin_1*%
%TO.N,Net-(J3-Pin_1)*%
X83625000Y-70000000D03*
D11*
%TO.P,J3,2,Pin_2*%
%TO.N,Net-(J3-Pin_2)*%
X83625000Y-71000000D03*
%TD*%
D13*
%TO.P,C2,1*%
%TO.N,Net-(J2-Pin_2)*%
X42425000Y-58625000D03*
D14*
%TO.P,C2,2*%
%TO.N,Net-(J2-Pin_1)*%
X77425000Y-58625000D03*
%TD*%
D10*
%TO.P,J1,1,Pin_1*%
%TO.N,Net-(J1-Pin_1)*%
X83625000Y-35500000D03*
D11*
%TO.P,J1,2,Pin_2*%
%TO.N,Net-(J1-Pin_2)*%
X83625000Y-36500000D03*
%TD*%
D10*
%TO.P,J5,1,Pin_1*%
%TO.N,Net-(HV1-hvo31)*%
X158800000Y-78600000D03*
D11*
%TO.P,J5,2,Pin_2*%
%TO.N,Net-(HV1-hvo32)*%
X158800000Y-77600000D03*
%TO.P,J5,3,Pin_3*%
%TO.N,Net-(HV2-hvo1)*%
X158800000Y-76600000D03*
%TO.P,J5,4,Pin_4*%
%TO.N,Net-(HV2-hvo2)*%
X158800000Y-75600000D03*
%TO.P,J5,5,Pin_5*%
%TO.N,Net-(HV2-hvo3)*%
X158800000Y-74600000D03*
%TO.P,J5,6,Pin_6*%
%TO.N,Net-(HV2-hvo4)*%
X158800000Y-73600000D03*
%TO.P,J5,7,Pin_7*%
%TO.N,Net-(HV2-hvo5)*%
X158800000Y-72600000D03*
%TO.P,J5,8,Pin_8*%
%TO.N,Net-(HV2-hvo6)*%
X158800000Y-71600000D03*
%TO.P,J5,9,Pin_9*%
%TO.N,Net-(HV2-hvo7)*%
X158800000Y-70600000D03*
%TO.P,J5,10,Pin_10*%
%TO.N,Net-(HV2-hvo8)*%
X158800000Y-69600000D03*
%TD*%
D10*
%TO.P,J2,1,Pin_1*%
%TO.N,Net-(J2-Pin_1)*%
X83625000Y-52500000D03*
D11*
%TO.P,J2,2,Pin_2*%
%TO.N,Net-(J2-Pin_2)*%
X83625000Y-53500000D03*
%TD*%
D13*
%TO.P,C3,1*%
%TO.N,Net-(J3-Pin_2)*%
X42425000Y-76175000D03*
D14*
%TO.P,C3,2*%
%TO.N,Net-(J3-Pin_1)*%
X77425000Y-76175000D03*
%TD*%
D10*
%TO.P,J9,1,Pin_1*%
%TO.N,Net-(HV2-hvo19)*%
X158800000Y-46600000D03*
D11*
%TO.P,J9,2,Pin_2*%
%TO.N,Net-(HV2-hvo20)*%
X158800000Y-45600000D03*
%TO.P,J9,3,Pin_3*%
%TO.N,Net-(HV2-hvo21)*%
X158800000Y-44600000D03*
%TO.P,J9,4,Pin_4*%
%TO.N,Net-(HV2-hvo22)*%
X158800000Y-43600000D03*
%TO.P,J9,5,Pin_5*%
%TO.N,Net-(HV2-hvo23)*%
X158800000Y-42600000D03*
%TO.P,J9,6,Pin_6*%
%TO.N,Net-(HV2-hvo24)*%
X158800000Y-41600000D03*
%TO.P,J9,7,Pin_7*%
%TO.N,Net-(HV2-hvo25)*%
X158800000Y-40600000D03*
%TO.P,J9,8,Pin_8*%
%TO.N,Net-(HV2-hvo26)*%
X158800000Y-39600000D03*
%TO.P,J9,9,Pin_9*%
%TO.N,Net-(HV2-hvo27)*%
X158800000Y-38600000D03*
%TO.P,J9,10,Pin_10*%
%TO.N,Net-(HV2-hvo28)*%
X158800000Y-37600000D03*
%TD*%
D15*
%TO.P,DCF1,1,ANT1*%
%TO.N,unconnected-(DCF1-ANT1-Pad1)*%
X50300000Y-92500000D03*
%TO.P,DCF1,2,ANT2*%
%TO.N,unconnected-(DCF1-ANT2-Pad2)*%
X52800000Y-92500000D03*
%TO.P,DCF1,3,VCC*%
%TO.N,+3V3*%
X55300000Y-92500000D03*
%TO.P,DCF1,4,GND*%
%TO.N,GND*%
X57800000Y-92500000D03*
%TD*%
D12*
%TO.P,R3,1*%
%TO.N,+3V3*%
X91000000Y-59000000D03*
%TO.P,R3,2*%
%TO.N,Net-(J2-Pin_1)*%
X83380000Y-59000000D03*
%TD*%
D13*
%TO.P,C1,1*%
%TO.N,Net-(J1-Pin_2)*%
X42425000Y-41075000D03*
D14*
%TO.P,C1,2*%
%TO.N,Net-(J1-Pin_1)*%
X77425000Y-41075000D03*
%TD*%
D12*
%TO.P,R2,1*%
%TO.N,+3V3*%
X91120000Y-47500000D03*
%TO.P,R2,2*%
%TO.N,Net-(J1-Pin_1)*%
X83500000Y-47500000D03*
%TD*%
%TO.P,R1,1*%
%TO.N,Net-(J1-Pin_1)*%
X83500000Y-42500000D03*
%TO.P,R1,2*%
%TO.N,GND*%
X91120000Y-42500000D03*
%TD*%
%TO.P,R5,1*%
%TO.N,+3V3*%
X91000000Y-76500000D03*
%TO.P,R5,2*%
%TO.N,Net-(J3-Pin_1)*%
X83380000Y-76500000D03*
%TD*%
D10*
%TO.P,J8,1,Pin_1*%
%TO.N,Net-(HV1-hvo21)*%
X142300000Y-82600000D03*
D11*
%TO.P,J8,2,Pin_2*%
%TO.N,Net-(HV1-hvo22)*%
X143300000Y-82600000D03*
%TO.P,J8,3,Pin_3*%
%TO.N,Net-(HV1-hvo23)*%
X144300000Y-82600000D03*
%TO.P,J8,4,Pin_4*%
%TO.N,Net-(HV1-hvo24)*%
X145300000Y-82600000D03*
%TO.P,J8,5,Pin_5*%
%TO.N,Net-(HV1-hvo25)*%
X146300000Y-82600000D03*
%TO.P,J8,6,Pin_6*%
%TO.N,Net-(HV1-hvo26)*%
X147300000Y-82600000D03*
%TO.P,J8,7,Pin_7*%
%TO.N,Net-(HV1-hvo27)*%
X148300000Y-82600000D03*
%TO.P,J8,8,Pin_8*%
%TO.N,Net-(HV1-hvo28)*%
X149300000Y-82600000D03*
%TO.P,J8,9,Pin_9*%
%TO.N,Net-(HV1-hvo29)*%
X150300000Y-82600000D03*
%TO.P,J8,10,Pin_10*%
%TO.N,Net-(HV1-hvo30)*%
X151300000Y-82600000D03*
%TD*%
D16*
%TO.P,esp1,1,VCC*%
%TO.N,+3V3*%
X125100000Y-64000000D03*
D17*
%TO.P,esp1,2,GND*%
%TO.N,GND*%
X125100000Y-61460000D03*
%TO.P,esp1,3,GPIO1*%
%TO.N,Net-(J2-Pin_2)*%
X125100000Y-58920000D03*
%TO.P,esp1,4,GPIO2*%
%TO.N,Net-(J1-Pin_2)*%
X125100000Y-56380000D03*
%TO.P,esp1,5,GPIO3*%
%TO.N,Net-(J3-Pin_2)*%
X125100000Y-53840000D03*
%TO.P,esp1,6,SDA*%
%TO.N,Net-(HV1-DATA_IN)*%
X125100000Y-51300000D03*
%TO.P,esp1,7,SCL*%
%TO.N,Net-(HV1-CLK)*%
X125100000Y-48760000D03*
%TO.P,esp1,8,GPIO4*%
%TO.N,Net-(HV1-OE)*%
X125100000Y-46220000D03*
%TO.P,esp1,9,ADC*%
%TO.N,Net-(DCF1-OUT)*%
X102240000Y-46220000D03*
%TO.P,esp1,10*%
%TO.N,N/C*%
X102240000Y-48760000D03*
%TO.P,esp1,11*%
X102240000Y-51300000D03*
%TO.P,esp1,12*%
X102240000Y-53840000D03*
%TO.P,esp1,13*%
X102240000Y-56380000D03*
%TO.P,esp1,14*%
X102240000Y-58920000D03*
%TO.P,esp1,15*%
X102240000Y-61460000D03*
%TO.P,esp1,16*%
X102240000Y-64000000D03*
%TD*%
D18*
%TO.N,Net-(J2-Pin_2)*%
X106000000Y-57000000D03*
%TO.N,Net-(J3-Pin_2)*%
X113600000Y-53800000D03*
%TO.N,GND*%
X140800000Y-62800000D03*
%TO.N,Net-(HV1-OE)*%
X134750000Y-51250000D03*
%TO.N,Net-(HV1-CLK)*%
X134050000Y-51450000D03*
%TO.N,Net-(HV1-hvo28)*%
X149300000Y-76000000D03*
X144200000Y-66400000D03*
%TO.N,Net-(HV1-hvo29)*%
X150300000Y-76000000D03*
X144900000Y-65500000D03*
%TO.N,Net-(HV1-hvo30)*%
X151300000Y-76000000D03*
X145900000Y-64700000D03*
%TD*%
D19*
%TO.N,Net-(HV1-OE)*%
X134750000Y-50850000D02*
X130120000Y-46220000D01*
X134750000Y-51250000D02*
X134750000Y-50850000D01*
X130120000Y-46220000D02*
X125100000Y-46220000D01*
%TO.N,Net-(HV1-hvo29)*%
X150300000Y-76000000D02*
X150300000Y-70900000D01*
X150300000Y-70900000D02*
X144900000Y-65500000D01*
%TO.N,Net-(HV1-hvo28)*%
X149300000Y-76000000D02*
X149300000Y-71500000D01*
X149300000Y-71500000D02*
X144200000Y-66400000D01*
%TO.N,Net-(HV1-hvo29)*%
X150300000Y-76000000D02*
X150400000Y-75900000D01*
%TO.N,Net-(HV1-hvo30)*%
X151300000Y-76000000D02*
X151300000Y-70100000D01*
X151300000Y-70100000D02*
X145900000Y-64700000D01*
%TO.N,Net-(HV1-CLK)*%
X134050000Y-51450000D02*
X131360000Y-48760000D01*
X131360000Y-48760000D02*
X125100000Y-48760000D01*
%TO.N,Net-(J2-Pin_2)*%
X44950000Y-53500000D02*
X42425000Y-56025000D01*
X42425000Y-56025000D02*
X42425000Y-58625000D01*
%TO.N,Net-(J3-Pin_2)*%
X45000000Y-71000000D02*
X42425000Y-73575000D01*
X42425000Y-73575000D02*
X42425000Y-76175000D01*
X113600000Y-53800000D02*
X109200000Y-53800000D01*
X109200000Y-53800000D02*
X106800000Y-56200000D01*
%TO.N,Net-(J2-Pin_2)*%
X104000000Y-55000000D02*
X100000000Y-55000000D01*
X106000000Y-57000000D02*
X104000000Y-55000000D01*
X100000000Y-55000000D02*
X98800000Y-53800000D01*
X98800000Y-53800000D02*
X98800000Y-53500000D01*
X83625000Y-53500000D02*
X98800000Y-53500000D01*
X83625000Y-53500000D02*
X44950000Y-53500000D01*
%TO.N,Net-(J3-Pin_2)*%
X106800000Y-70800000D02*
X106600000Y-71000000D01*
X106600000Y-71000000D02*
X83625000Y-71000000D01*
X106800000Y-56200000D02*
X106800000Y-70800000D01*
X83625000Y-71000000D02*
X45000000Y-71000000D01*
%TD*%
%TA.AperFunction,Conductor*%
%TO.N,GND*%
G36*
X160159696Y-30509381D02*
G01*
X160190424Y-30516527D01*
X160192977Y-30519154D01*
X160196488Y-30520185D01*
X160217127Y-30544004D01*
X160239119Y-30566633D01*
X160239846Y-30570223D01*
X160242243Y-30572989D01*
X160246730Y-30604198D01*
X160252994Y-30635111D01*
X160251665Y-30638522D01*
X160252187Y-30642147D01*
X160239084Y-30670837D01*
X160227645Y-30700220D01*
X160224086Y-30703678D01*
X160223162Y-30705703D01*
X160202337Y-30724815D01*
X160022490Y-30855483D01*
X160022488Y-30855485D01*
X160022487Y-30855485D01*
X159855485Y-31022487D01*
X159855485Y-31022488D01*
X159855483Y-31022490D01*
X159795862Y-31104550D01*
X159716657Y-31213566D01*
X159609433Y-31424003D01*
X159536446Y-31648631D01*
X159499500Y-31881902D01*
X159499500Y-32118097D01*
X159536446Y-32351368D01*
X159609433Y-32575996D01*
X159700641Y-32755000D01*
X159716657Y-32786433D01*
X159855483Y-32977510D01*
X160022490Y-33144517D01*
X160213567Y-33283343D01*
X160312991Y-33334002D01*
X160424003Y-33390566D01*
X160424005Y-33390566D01*
X160424008Y-33390568D01*
X160544412Y-33429689D01*
X160648631Y-33463553D01*
X160881903Y-33500500D01*
X160881908Y-33500500D01*
X161118097Y-33500500D01*
X161351368Y-33463553D01*
X161575992Y-33390568D01*
X161786433Y-33283343D01*
X161977510Y-33144517D01*
X162144517Y-32977510D01*
X162275183Y-32797664D01*
X162330512Y-32755000D01*
X162400126Y-32749021D01*
X162461920Y-32781627D01*
X162496278Y-32842466D01*
X162499500Y-32870551D01*
X162499500Y-105129448D01*
X162479815Y-105196487D01*
X162427011Y-105242242D01*
X162357853Y-105252186D01*
X162294297Y-105223161D01*
X162275182Y-105202334D01*
X162242632Y-105157533D01*
X162144517Y-105022490D01*
X161977510Y-104855483D01*
X161786433Y-104716657D01*
X161575996Y-104609433D01*
X161351368Y-104536446D01*
X161118097Y-104499500D01*
X161118092Y-104499500D01*
X160881908Y-104499500D01*
X160881903Y-104499500D01*
X160648631Y-104536446D01*
X160424003Y-104609433D01*
X160213566Y-104716657D01*
X160104550Y-104795862D01*
X160022490Y-104855483D01*
X160022488Y-104855485D01*
X160022487Y-104855485D01*
X159855485Y-105022487D01*
X159855485Y-105022488D01*
X159855483Y-105022490D01*
X159795862Y-105104550D01*
X159716657Y-105213566D01*
X159609433Y-105424003D01*
X159536446Y-105648631D01*
X159499500Y-105881902D01*
X159499500Y-106118097D01*
X159536446Y-106351368D01*
X159609433Y-106575996D01*
X159700641Y-106755000D01*
X159716657Y-106786433D01*
X159855483Y-106977510D01*
X160022490Y-107144517D01*
X160202335Y-107275183D01*
X160245000Y-107330512D01*
X160250979Y-107400126D01*
X160218373Y-107461920D01*
X160157534Y-107496278D01*
X160129449Y-107499500D01*
X38870551Y-107499500D01*
X38803512Y-107479815D01*
X38757757Y-107427011D01*
X38747813Y-107357853D01*
X38776838Y-107294297D01*
X38797662Y-107275184D01*
X38977510Y-107144517D01*
X39144517Y-106977510D01*
X39283343Y-106786433D01*
X39390568Y-106575992D01*
X39463553Y-106351368D01*
X39488929Y-106191150D01*
X39500500Y-106118097D01*
X39500500Y-105881902D01*
X39463553Y-105648631D01*
X39390566Y-105424003D01*
X39299358Y-105244999D01*
X39283343Y-105213567D01*
X39144517Y-105022490D01*
X38977510Y-104855483D01*
X38786433Y-104716657D01*
X38575996Y-104609433D01*
X38351368Y-104536446D01*
X38118097Y-104499500D01*
X38118092Y-104499500D01*
X37881908Y-104499500D01*
X37881903Y-104499500D01*
X37648631Y-104536446D01*
X37424003Y-104609433D01*
X37213566Y-104716657D01*
X37104550Y-104795862D01*
X37022490Y-104855483D01*
X37022488Y-104855485D01*
X37022487Y-104855485D01*
X36855485Y-105022487D01*
X36855485Y-105022488D01*
X36855483Y-105022490D01*
X36777773Y-105129448D01*
X36724818Y-105202334D01*
X36669488Y-105244999D01*
X36599874Y-105250978D01*
X36538079Y-105218372D01*
X36503722Y-105157533D01*
X36500500Y-105129448D01*
X36500500Y-92385646D01*
X48847000Y-92385646D01*
X48847000Y-92614353D01*
X48882778Y-92840246D01*
X48882778Y-92840249D01*
X48953450Y-93057755D01*
X49050000Y-93247244D01*
X49057283Y-93261538D01*
X49191714Y-93446566D01*
X49353434Y-93608286D01*
X49538462Y-93742717D01*
X49741327Y-93846082D01*
X49742244Y-93846549D01*
X49959751Y-93917221D01*
X49959752Y-93917221D01*
X49959755Y-93917222D01*
X50185646Y-93953000D01*
X50185647Y-93953000D01*
X50414353Y-93953000D01*
X50414354Y-93953000D01*
X50640245Y-93917222D01*
X50640248Y-93917221D01*
X50640249Y-93917221D01*
X50857755Y-93846549D01*
X50857755Y-93846548D01*
X50857758Y-93846548D01*
X51061538Y-93742717D01*
X51246566Y-93608286D01*
X51408286Y-93446566D01*
X51449682Y-93389588D01*
X51505012Y-93346923D01*
X51574625Y-93340944D01*
X51636420Y-93373549D01*
X51650316Y-93389586D01*
X51691714Y-93446566D01*
X51853434Y-93608286D01*
X52038462Y-93742717D01*
X52241327Y-93846082D01*
X52242244Y-93846549D01*
X52459751Y-93917221D01*
X52459752Y-93917221D01*
X52459755Y-93917222D01*
X52685646Y-93953000D01*
X52685647Y-93953000D01*
X52914353Y-93953000D01*
X52914354Y-93953000D01*
X53140245Y-93917222D01*
X53140248Y-93917221D01*
X53140249Y-93917221D01*
X53357755Y-93846549D01*
X53357755Y-93846548D01*
X53357758Y-93846548D01*
X53561538Y-93742717D01*
X53746566Y-93608286D01*
X53908286Y-93446566D01*
X53949682Y-93389588D01*
X54005012Y-93346923D01*
X54074625Y-93340944D01*
X54136420Y-93373549D01*
X54150316Y-93389586D01*
X54191714Y-93446566D01*
X54353434Y-93608286D01*
X54538462Y-93742717D01*
X54741327Y-93846082D01*
X54742244Y-93846549D01*
X54959751Y-93917221D01*
X54959752Y-93917221D01*
X54959755Y-93917222D01*
X55185646Y-93953000D01*
X55185647Y-93953000D01*
X55414353Y-93953000D01*
X55414354Y-93953000D01*
X55640245Y-93917222D01*
X55640248Y-93917221D01*
X55640249Y-93917221D01*
X55857755Y-93846549D01*
X55857755Y-93846548D01*
X55857758Y-93846548D01*
X56061538Y-93742717D01*
X56246566Y-93608286D01*
X56408286Y-93446566D01*
X56458749Y-93377109D01*
X56462927Y-93372436D01*
X56487488Y-93357182D01*
X56510385Y-93339526D01*
X56517641Y-93338456D01*
X56522282Y-93335574D01*
X56535776Y-93335782D01*
X56565103Y-93331459D01*
X56611348Y-93335098D01*
X57122421Y-92824024D01*
X57135359Y-92855258D01*
X57217437Y-92978097D01*
X57321903Y-93082563D01*
X57444742Y-93164641D01*
X57475973Y-93177577D01*
X56964899Y-93688651D01*
X57038725Y-93742288D01*
X57038731Y-93742292D01*
X57242431Y-93846082D01*
X57459875Y-93916734D01*
X57685687Y-93952500D01*
X57914313Y-93952500D01*
X58140124Y-93916734D01*
X58140125Y-93916734D01*
X58357568Y-93846082D01*
X58561276Y-93742288D01*
X58635098Y-93688651D01*
X58124025Y-93177578D01*
X58155258Y-93164641D01*
X58278097Y-93082563D01*
X58382563Y-92978097D01*
X58464641Y-92855258D01*
X58477578Y-92824025D01*
X58988651Y-93335098D01*
X59042288Y-93261276D01*
X59146082Y-93057568D01*
X59216734Y-92840125D01*
X59216734Y-92840124D01*
X59252500Y-92614313D01*
X59252500Y-92385686D01*
X59216734Y-92159875D01*
X59216734Y-92159874D01*
X59146082Y-91942431D01*
X59042292Y-91738731D01*
X59042288Y-91738725D01*
X58988651Y-91664900D01*
X58988651Y-91664899D01*
X58477577Y-92175973D01*
X58464641Y-92144742D01*
X58382563Y-92021903D01*
X58278097Y-91917437D01*
X58155258Y-91835359D01*
X58124024Y-91822421D01*
X58635099Y-91311347D01*
X58561276Y-91257711D01*
X58357568Y-91153917D01*
X58140124Y-91083265D01*
X57914313Y-91047500D01*
X57685687Y-91047500D01*
X57459875Y-91083265D01*
X57459874Y-91083265D01*
X57242431Y-91153917D01*
X57038719Y-91257713D01*
X56964900Y-91311346D01*
X56964899Y-91311347D01*
X57475974Y-91822421D01*
X57444742Y-91835359D01*
X57321903Y-91917437D01*
X57217437Y-92021903D01*
X57135359Y-92144742D01*
X57122421Y-92175974D01*
X56611347Y-91664899D01*
X56565101Y-91668539D01*
X56561146Y-91667708D01*
X56557289Y-91668906D01*
X56527239Y-91660584D01*
X56496724Y-91654174D01*
X56492729Y-91651028D01*
X56489954Y-91650260D01*
X56480016Y-91641019D01*
X56462926Y-91627562D01*
X56458745Y-91622885D01*
X56408286Y-91553434D01*
X56246566Y-91391714D01*
X56061538Y-91257283D01*
X55857755Y-91153450D01*
X55640248Y-91082778D01*
X55470826Y-91055944D01*
X55414354Y-91047000D01*
X55185646Y-91047000D01*
X55110349Y-91058926D01*
X54959753Y-91082778D01*
X54959750Y-91082778D01*
X54742244Y-91153450D01*
X54538461Y-91257283D01*
X54464051Y-91311346D01*
X54353434Y-91391714D01*
X54353432Y-91391716D01*
X54353431Y-91391716D01*
X54191716Y-91553431D01*
X54191716Y-91553432D01*
X54191714Y-91553434D01*
X54150318Y-91610411D01*
X54094988Y-91653076D01*
X54025374Y-91659055D01*
X53963579Y-91626449D01*
X53949682Y-91610411D01*
X53908286Y-91553434D01*
X53746566Y-91391714D01*
X53561538Y-91257283D01*
X53357755Y-91153450D01*
X53140248Y-91082778D01*
X52970826Y-91055944D01*
X52914354Y-91047000D01*
X52685646Y-91047000D01*
X52610349Y-91058926D01*
X52459753Y-91082778D01*
X52459750Y-91082778D01*
X52242244Y-91153450D01*
X52038461Y-91257283D01*
X51964051Y-91311346D01*
X51853434Y-91391714D01*
X51853432Y-91391716D01*
X51853431Y-91391716D01*
X51691716Y-91553431D01*
X51691716Y-91553432D01*
X51691714Y-91553434D01*
X51650318Y-91610411D01*
X51594988Y-91653076D01*
X51525374Y-91659055D01*
X51463579Y-91626449D01*
X51449682Y-91610411D01*
X51408286Y-91553434D01*
X51246566Y-91391714D01*
X51061538Y-91257283D01*
X50857755Y-91153450D01*
X50640248Y-91082778D01*
X50470826Y-91055944D01*
X50414354Y-91047000D01*
X50185646Y-91047000D01*
X50110349Y-91058926D01*
X49959753Y-91082778D01*
X49959750Y-91082778D01*
X49742244Y-91153450D01*
X49538461Y-91257283D01*
X49464051Y-91311346D01*
X49353434Y-91391714D01*
X49353432Y-91391716D01*
X49353431Y-91391716D01*
X49191716Y-91553431D01*
X49191716Y-91553432D01*
X49191714Y-91553434D01*
X49150318Y-91610411D01*
X49057283Y-91738461D01*
X48953450Y-91942244D01*
X48882778Y-92159750D01*
X48882778Y-92159753D01*
X48847000Y-92385646D01*
X36500500Y-92385646D01*
X36500500Y-81405513D01*
X82179500Y-81405513D01*
X82179500Y-81594486D01*
X82209059Y-81781118D01*
X82267454Y-81960836D01*
X82352179Y-82127116D01*
X82353240Y-82129199D01*
X82464310Y-82282073D01*
X82597927Y-82415690D01*
X82750801Y-82526760D01*
X82830347Y-82567290D01*
X82919163Y-82612545D01*
X82919165Y-82612545D01*
X82919168Y-82612547D01*
X83015497Y-82643846D01*
X83098881Y-82670940D01*
X83285514Y-82700500D01*
X83285519Y-82700500D01*
X83474486Y-82700500D01*
X83661118Y-82670940D01*
X83662623Y-82670451D01*
X83840832Y-82612547D01*
X84009199Y-82526760D01*
X84035182Y-82507882D01*
X90345669Y-82507882D01*
X90345670Y-82507883D01*
X90371059Y-82526329D01*
X90539362Y-82612085D01*
X90718997Y-82670451D01*
X90905553Y-82700000D01*
X91094447Y-82700000D01*
X91281002Y-82670451D01*
X91460637Y-82612085D01*
X91628937Y-82526331D01*
X91654328Y-82507883D01*
X91654328Y-82507882D01*
X91000001Y-81853554D01*
X91000000Y-81853554D01*
X90345669Y-82507882D01*
X84035182Y-82507882D01*
X84162073Y-82415690D01*
X84295690Y-82282073D01*
X84406760Y-82129199D01*
X84492547Y-81960832D01*
X84550940Y-81781118D01*
X84558845Y-81731206D01*
X84580500Y-81594486D01*
X84580500Y-81405552D01*
X89800000Y-81405552D01*
X89800000Y-81594447D01*
X89829548Y-81781002D01*
X89887914Y-81960637D01*
X89973666Y-82128933D01*
X89992116Y-82154328D01*
X90646446Y-81500000D01*
X90646446Y-81499999D01*
X90600369Y-81453922D01*
X90650000Y-81453922D01*
X90650000Y-81546078D01*
X90673852Y-81635095D01*
X90719930Y-81714905D01*
X90785095Y-81780070D01*
X90864905Y-81826148D01*
X90953922Y-81850000D01*
X91046078Y-81850000D01*
X91135095Y-81826148D01*
X91214905Y-81780070D01*
X91280070Y-81714905D01*
X91326148Y-81635095D01*
X91350000Y-81546078D01*
X91350000Y-81499999D01*
X91353554Y-81499999D01*
X91353554Y-81500000D01*
X92007882Y-82154328D01*
X92007883Y-82154328D01*
X92026331Y-82128937D01*
X92027249Y-82127135D01*
X104874500Y-82127135D01*
X104874500Y-83072870D01*
X104874501Y-83072876D01*
X104880908Y-83132483D01*
X104931202Y-83267328D01*
X104931206Y-83267335D01*
X105017452Y-83382544D01*
X105017455Y-83382547D01*
X105132664Y-83468793D01*
X105132671Y-83468797D01*
X105267517Y-83519091D01*
X105267516Y-83519091D01*
X105274444Y-83519835D01*
X105327127Y-83525500D01*
X106272872Y-83525499D01*
X106332483Y-83519091D01*
X106427768Y-83483551D01*
X106497457Y-83478568D01*
X106518551Y-83485173D01*
X106530042Y-83489933D01*
X106530044Y-83489933D01*
X106530046Y-83489934D01*
X106708843Y-83525500D01*
X106708846Y-83525500D01*
X106891156Y-83525500D01*
X107011445Y-83501572D01*
X107069958Y-83489933D01*
X107238389Y-83420167D01*
X107238394Y-83420163D01*
X107241541Y-83418482D01*
X107243386Y-83418097D01*
X107244018Y-83417836D01*
X107244067Y-83417955D01*
X107309943Y-83404236D01*
X107358459Y-83418482D01*
X107361615Y-83420169D01*
X107479005Y-83468793D01*
X107530042Y-83489933D01*
X107530046Y-83489933D01*
X107530047Y-83489934D01*
X107708843Y-83525500D01*
X107708846Y-83525500D01*
X107891156Y-83525500D01*
X108011445Y-83501572D01*
X108069958Y-83489933D01*
X108238389Y-83420167D01*
X108238394Y-83420163D01*
X108241541Y-83418482D01*
X108243386Y-83418097D01*
X108244018Y-83417836D01*
X108244067Y-83417955D01*
X108309943Y-83404236D01*
X108358459Y-83418482D01*
X108361615Y-83420169D01*
X108479005Y-83468793D01*
X108530042Y-83489933D01*
X108530046Y-83489933D01*
X108530047Y-83489934D01*
X108708843Y-83525500D01*
X108708846Y-83525500D01*
X108891156Y-83525500D01*
X109011445Y-83501572D01*
X109069958Y-83489933D01*
X109238389Y-83420167D01*
X109238394Y-83420163D01*
X109241541Y-83418482D01*
X109243386Y-83418097D01*
X109244018Y-83417836D01*
X109244067Y-83417955D01*
X109309943Y-83404236D01*
X109358459Y-83418482D01*
X109361615Y-83420169D01*
X109479005Y-83468793D01*
X109530042Y-83489933D01*
X109530046Y-83489933D01*
X109530047Y-83489934D01*
X109708843Y-83525500D01*
X109708846Y-83525500D01*
X109891156Y-83525500D01*
X110011445Y-83501572D01*
X110069958Y-83489933D01*
X110238389Y-83420167D01*
X110238394Y-83420163D01*
X110241541Y-83418482D01*
X110243386Y-83418097D01*
X110244018Y-83417836D01*
X110244067Y-83417955D01*
X110309943Y-83404236D01*
X110358459Y-83418482D01*
X110361615Y-83420169D01*
X110479005Y-83468793D01*
X110530042Y-83489933D01*
X110530046Y-83489933D01*
X110530047Y-83489934D01*
X110708843Y-83525500D01*
X110708846Y-83525500D01*
X110891156Y-83525500D01*
X111011445Y-83501572D01*
X111069958Y-83489933D01*
X111238389Y-83420167D01*
X111238394Y-83420163D01*
X111241541Y-83418482D01*
X111243386Y-83418097D01*
X111244018Y-83417836D01*
X111244067Y-83417955D01*
X111309943Y-83404236D01*
X111358459Y-83418482D01*
X111361615Y-83420169D01*
X111479005Y-83468793D01*
X111530042Y-83489933D01*
X111530046Y-83489933D01*
X111530047Y-83489934D01*
X111708843Y-83525500D01*
X111708846Y-83525500D01*
X111891156Y-83525500D01*
X112011445Y-83501572D01*
X112069958Y-83489933D01*
X112238389Y-83420167D01*
X112238394Y-83420163D01*
X112241541Y-83418482D01*
X112243386Y-83418097D01*
X112244018Y-83417836D01*
X112244067Y-83417955D01*
X112309943Y-83404236D01*
X112358459Y-83418482D01*
X112361615Y-83420169D01*
X112479005Y-83468793D01*
X112530042Y-83489933D01*
X112530046Y-83489933D01*
X112530047Y-83489934D01*
X112708843Y-83525500D01*
X112708846Y-83525500D01*
X112891156Y-83525500D01*
X113011445Y-83501572D01*
X113069958Y-83489933D01*
X113238389Y-83420167D01*
X113238394Y-83420163D01*
X113241541Y-83418482D01*
X113243386Y-83418097D01*
X113244018Y-83417836D01*
X113244067Y-83417955D01*
X113309943Y-83404236D01*
X113358459Y-83418482D01*
X113361615Y-83420169D01*
X113479005Y-83468793D01*
X113530042Y-83489933D01*
X113530046Y-83489933D01*
X113530047Y-83489934D01*
X113708843Y-83525500D01*
X113708846Y-83525500D01*
X113891156Y-83525500D01*
X114011445Y-83501572D01*
X114069958Y-83489933D01*
X114238389Y-83420167D01*
X114238394Y-83420163D01*
X114241541Y-83418482D01*
X114243386Y-83418097D01*
X114244018Y-83417836D01*
X114244067Y-83417955D01*
X114309943Y-83404236D01*
X114358459Y-83418482D01*
X114361615Y-83420169D01*
X114479005Y-83468793D01*
X114530042Y-83489933D01*
X114530046Y-83489933D01*
X114530047Y-83489934D01*
X114708843Y-83525500D01*
X114708846Y-83525500D01*
X114891156Y-83525500D01*
X115011445Y-83501572D01*
X115069958Y-83489933D01*
X115182245Y-83443422D01*
X115238387Y-83420168D01*
X115238391Y-83420166D01*
X115313672Y-83369864D01*
X115389972Y-83318883D01*
X115518883Y-83189972D01*
X115620167Y-83038389D01*
X115689933Y-82869958D01*
X115723641Y-82700500D01*
X115725500Y-82691156D01*
X115725500Y-82508843D01*
X115689934Y-82330047D01*
X115689933Y-82330046D01*
X115689933Y-82330042D01*
X115624162Y-82171255D01*
X115620168Y-82161612D01*
X115620166Y-82161608D01*
X115597132Y-82127135D01*
X122874500Y-82127135D01*
X122874500Y-83072870D01*
X122874501Y-83072876D01*
X122880908Y-83132483D01*
X122931202Y-83267328D01*
X122931206Y-83267335D01*
X123017452Y-83382544D01*
X123017455Y-83382547D01*
X123132664Y-83468793D01*
X123132671Y-83468797D01*
X123267517Y-83519091D01*
X123267516Y-83519091D01*
X123274444Y-83519835D01*
X123327127Y-83525500D01*
X124272872Y-83525499D01*
X124332483Y-83519091D01*
X124427768Y-83483551D01*
X124497457Y-83478568D01*
X124518551Y-83485173D01*
X124530042Y-83489933D01*
X124530044Y-83489933D01*
X124530046Y-83489934D01*
X124708843Y-83525500D01*
X124708846Y-83525500D01*
X124891156Y-83525500D01*
X125011445Y-83501572D01*
X125069958Y-83489933D01*
X125238389Y-83420167D01*
X125238394Y-83420163D01*
X125241541Y-83418482D01*
X125243386Y-83418097D01*
X125244018Y-83417836D01*
X125244067Y-83417955D01*
X125309943Y-83404236D01*
X125358459Y-83418482D01*
X125361615Y-83420169D01*
X125479005Y-83468793D01*
X125530042Y-83489933D01*
X125530046Y-83489933D01*
X125530047Y-83489934D01*
X125708843Y-83525500D01*
X125708846Y-83525500D01*
X125891156Y-83525500D01*
X126011445Y-83501572D01*
X126069958Y-83489933D01*
X126238389Y-83420167D01*
X126238394Y-83420163D01*
X126241541Y-83418482D01*
X126243386Y-83418097D01*
X126244018Y-83417836D01*
X126244067Y-83417955D01*
X126309943Y-83404236D01*
X126358459Y-83418482D01*
X126361615Y-83420169D01*
X126479005Y-83468793D01*
X126530042Y-83489933D01*
X126530046Y-83489933D01*
X126530047Y-83489934D01*
X126708843Y-83525500D01*
X126708846Y-83525500D01*
X126891156Y-83525500D01*
X127011445Y-83501572D01*
X127069958Y-83489933D01*
X127238389Y-83420167D01*
X127238394Y-83420163D01*
X127241541Y-83418482D01*
X127243386Y-83418097D01*
X127244018Y-83417836D01*
X127244067Y-83417955D01*
X127309943Y-83404236D01*
X127358459Y-83418482D01*
X127361615Y-83420169D01*
X127479005Y-83468793D01*
X127530042Y-83489933D01*
X127530046Y-83489933D01*
X127530047Y-83489934D01*
X127708843Y-83525500D01*
X127708846Y-83525500D01*
X127891156Y-83525500D01*
X128011445Y-83501572D01*
X128069958Y-83489933D01*
X128238389Y-83420167D01*
X128238394Y-83420163D01*
X128241541Y-83418482D01*
X128243386Y-83418097D01*
X128244018Y-83417836D01*
X128244067Y-83417955D01*
X128309943Y-83404236D01*
X128358459Y-83418482D01*
X128361615Y-83420169D01*
X128479005Y-83468793D01*
X128530042Y-83489933D01*
X128530046Y-83489933D01*
X128530047Y-83489934D01*
X128708843Y-83525500D01*
X128708846Y-83525500D01*
X128891156Y-83525500D01*
X129011445Y-83501572D01*
X129069958Y-83489933D01*
X129238389Y-83420167D01*
X129238394Y-83420163D01*
X129241541Y-83418482D01*
X129243386Y-83418097D01*
X129244018Y-83417836D01*
X129244067Y-83417955D01*
X129309943Y-83404236D01*
X129358459Y-83418482D01*
X129361615Y-83420169D01*
X129479005Y-83468793D01*
X129530042Y-83489933D01*
X129530046Y-83489933D01*
X129530047Y-83489934D01*
X129708843Y-83525500D01*
X129708846Y-83525500D01*
X129891156Y-83525500D01*
X130011445Y-83501572D01*
X130069958Y-83489933D01*
X130238389Y-83420167D01*
X130238394Y-83420163D01*
X130241541Y-83418482D01*
X130243386Y-83418097D01*
X130244018Y-83417836D01*
X130244067Y-83417955D01*
X130309943Y-83404236D01*
X130358459Y-83418482D01*
X130361615Y-83420169D01*
X130479005Y-83468793D01*
X130530042Y-83489933D01*
X130530046Y-83489933D01*
X130530047Y-83489934D01*
X130708843Y-83525500D01*
X130708846Y-83525500D01*
X130891156Y-83525500D01*
X131011445Y-83501572D01*
X131069958Y-83489933D01*
X131238389Y-83420167D01*
X131238394Y-83420163D01*
X131241541Y-83418482D01*
X131243386Y-83418097D01*
X131244018Y-83417836D01*
X131244067Y-83417955D01*
X131309943Y-83404236D01*
X131358459Y-83418482D01*
X131361615Y-83420169D01*
X131479005Y-83468793D01*
X131530042Y-83489933D01*
X131530046Y-83489933D01*
X131530047Y-83489934D01*
X131708843Y-83525500D01*
X131708846Y-83525500D01*
X131891156Y-83525500D01*
X132011445Y-83501572D01*
X132069958Y-83489933D01*
X132238389Y-83420167D01*
X132238394Y-83420163D01*
X132241541Y-83418482D01*
X132243386Y-83418097D01*
X132244018Y-83417836D01*
X132244067Y-83417955D01*
X132309943Y-83404236D01*
X132358459Y-83418482D01*
X132361615Y-83420169D01*
X132479005Y-83468793D01*
X132530042Y-83489933D01*
X132530046Y-83489933D01*
X132530047Y-83489934D01*
X132708843Y-83525500D01*
X132708846Y-83525500D01*
X132891156Y-83525500D01*
X133011445Y-83501572D01*
X133069958Y-83489933D01*
X133182245Y-83443422D01*
X133238387Y-83420168D01*
X133238391Y-83420166D01*
X133313672Y-83369864D01*
X133389972Y-83318883D01*
X133518883Y-83189972D01*
X133620167Y-83038389D01*
X133689933Y-82869958D01*
X133723641Y-82700500D01*
X133725500Y-82691156D01*
X133725500Y-82508843D01*
X133689934Y-82330047D01*
X133689933Y-82330046D01*
X133689933Y-82330042D01*
X133624162Y-82171255D01*
X133620168Y-82161612D01*
X133620166Y-82161608D01*
X133597132Y-82127135D01*
X141374500Y-82127135D01*
X141374500Y-83072870D01*
X141374501Y-83072876D01*
X141380908Y-83132483D01*
X141431202Y-83267328D01*
X141431206Y-83267335D01*
X141517452Y-83382544D01*
X141517455Y-83382547D01*
X141632664Y-83468793D01*
X141632671Y-83468797D01*
X141767517Y-83519091D01*
X141767516Y-83519091D01*
X141774444Y-83519835D01*
X141827127Y-83525500D01*
X142772872Y-83525499D01*
X142832483Y-83519091D01*
X142927768Y-83483551D01*
X142997457Y-83478568D01*
X143018551Y-83485173D01*
X143030042Y-83489933D01*
X143030044Y-83489933D01*
X143030046Y-83489934D01*
X143208843Y-83525500D01*
X143208846Y-83525500D01*
X143391156Y-83525500D01*
X143511445Y-83501572D01*
X143569958Y-83489933D01*
X143738389Y-83420167D01*
X143738394Y-83420163D01*
X143741541Y-83418482D01*
X143743386Y-83418097D01*
X143744018Y-83417836D01*
X143744067Y-83417955D01*
X143809943Y-83404236D01*
X143858459Y-83418482D01*
X143861615Y-83420169D01*
X143979005Y-83468793D01*
X144030042Y-83489933D01*
X144030046Y-83489933D01*
X144030047Y-83489934D01*
X144208843Y-83525500D01*
X144208846Y-83525500D01*
X144391156Y-83525500D01*
X144511445Y-83501572D01*
X144569958Y-83489933D01*
X144738389Y-83420167D01*
X144738394Y-83420163D01*
X144741541Y-83418482D01*
X144743386Y-83418097D01*
X144744018Y-83417836D01*
X144744067Y-83417955D01*
X144809943Y-83404236D01*
X144858459Y-83418482D01*
X144861615Y-83420169D01*
X144979005Y-83468793D01*
X145030042Y-83489933D01*
X145030046Y-83489933D01*
X145030047Y-83489934D01*
X145208843Y-83525500D01*
X145208846Y-83525500D01*
X145391156Y-83525500D01*
X145511445Y-83501572D01*
X145569958Y-83489933D01*
X145738389Y-83420167D01*
X145738394Y-83420163D01*
X145741541Y-83418482D01*
X145743386Y-83418097D01*
X145744018Y-83417836D01*
X145744067Y-83417955D01*
X145809943Y-83404236D01*
X145858459Y-83418482D01*
X145861615Y-83420169D01*
X145979005Y-83468793D01*
X146030042Y-83489933D01*
X146030046Y-83489933D01*
X146030047Y-83489934D01*
X146208843Y-83525500D01*
X146208846Y-83525500D01*
X146391156Y-83525500D01*
X146511445Y-83501572D01*
X146569958Y-83489933D01*
X146738389Y-83420167D01*
X146738394Y-83420163D01*
X146741541Y-83418482D01*
X146743386Y-83418097D01*
X146744018Y-83417836D01*
X146744067Y-83417955D01*
X146809943Y-83404236D01*
X146858459Y-83418482D01*
X146861615Y-83420169D01*
X146979005Y-83468793D01*
X147030042Y-83489933D01*
X147030046Y-83489933D01*
X147030047Y-83489934D01*
X147208843Y-83525500D01*
X147208846Y-83525500D01*
X147391156Y-83525500D01*
X147511445Y-83501572D01*
X147569958Y-83489933D01*
X147738389Y-83420167D01*
X147738394Y-83420163D01*
X147741541Y-83418482D01*
X147743386Y-83418097D01*
X147744018Y-83417836D01*
X147744067Y-83417955D01*
X147809943Y-83404236D01*
X147858459Y-83418482D01*
X147861615Y-83420169D01*
X147979005Y-83468793D01*
X148030042Y-83489933D01*
X148030046Y-83489933D01*
X148030047Y-83489934D01*
X148208843Y-83525500D01*
X148208846Y-83525500D01*
X148391156Y-83525500D01*
X148511445Y-83501572D01*
X148569958Y-83489933D01*
X148738389Y-83420167D01*
X148738394Y-83420163D01*
X148741541Y-83418482D01*
X148743386Y-83418097D01*
X148744018Y-83417836D01*
X148744067Y-83417955D01*
X148809943Y-83404236D01*
X148858459Y-83418482D01*
X148861615Y-83420169D01*
X148979005Y-83468793D01*
X149030042Y-83489933D01*
X149030046Y-83489933D01*
X149030047Y-83489934D01*
X149208843Y-83525500D01*
X149208846Y-83525500D01*
X149391156Y-83525500D01*
X149511445Y-83501572D01*
X149569958Y-83489933D01*
X149738389Y-83420167D01*
X149738394Y-83420163D01*
X149741541Y-83418482D01*
X149743386Y-83418097D01*
X149744018Y-83417836D01*
X149744067Y-83417955D01*
X149809943Y-83404236D01*
X149858459Y-83418482D01*
X149861615Y-83420169D01*
X149979005Y-83468793D01*
X150030042Y-83489933D01*
X150030046Y-83489933D01*
X150030047Y-83489934D01*
X150208843Y-83525500D01*
X150208846Y-83525500D01*
X150391156Y-83525500D01*
X150511445Y-83501572D01*
X150569958Y-83489933D01*
X150738389Y-83420167D01*
X150738394Y-83420163D01*
X150741541Y-83418482D01*
X150743386Y-83418097D01*
X150744018Y-83417836D01*
X150744067Y-83417955D01*
X150809943Y-83404236D01*
X150858459Y-83418482D01*
X150861615Y-83420169D01*
X150979005Y-83468793D01*
X151030042Y-83489933D01*
X151030046Y-83489933D01*
X151030047Y-83489934D01*
X151208843Y-83525500D01*
X151208846Y-83525500D01*
X151391156Y-83525500D01*
X151511445Y-83501572D01*
X151569958Y-83489933D01*
X151682245Y-83443422D01*
X151738387Y-83420168D01*
X151738391Y-83420166D01*
X151813672Y-83369864D01*
X151889972Y-83318883D01*
X152018883Y-83189972D01*
X152120167Y-83038389D01*
X152189933Y-82869958D01*
X152223641Y-82700500D01*
X152225500Y-82691156D01*
X152225500Y-82508843D01*
X152189934Y-82330047D01*
X152189933Y-82330046D01*
X152189933Y-82330042D01*
X152170064Y-82282073D01*
X152120168Y-82161612D01*
X152120166Y-82161608D01*
X152018886Y-82010032D01*
X152018880Y-82010024D01*
X151889975Y-81881119D01*
X151889967Y-81881113D01*
X151738391Y-81779833D01*
X151738387Y-81779831D01*
X151569962Y-81710068D01*
X151569952Y-81710065D01*
X151391156Y-81674500D01*
X151391154Y-81674500D01*
X151208846Y-81674500D01*
X151208844Y-81674500D01*
X151030047Y-81710065D01*
X151030041Y-81710067D01*
X150861605Y-81779835D01*
X150858444Y-81781525D01*
X150856600Y-81781908D01*
X150855984Y-81782164D01*
X150855935Y-81782047D01*
X150790040Y-81795761D01*
X150741556Y-81781525D01*
X150738394Y-81779835D01*
X150569958Y-81710067D01*
X150569952Y-81710065D01*
X150391156Y-81674500D01*
X150391154Y-81674500D01*
X150208846Y-81674500D01*
X150208844Y-81674500D01*
X150030047Y-81710065D01*
X150030041Y-81710067D01*
X149861605Y-81779835D01*
X149858444Y-81781525D01*
X149856600Y-81781908D01*
X149855984Y-81782164D01*
X149855935Y-81782047D01*
X149790040Y-81795761D01*
X149741556Y-81781525D01*
X149738394Y-81779835D01*
X149569958Y-81710067D01*
X149569952Y-81710065D01*
X149391156Y-81674500D01*
X149391154Y-81674500D01*
X149208846Y-81674500D01*
X149208844Y-81674500D01*
X149030047Y-81710065D01*
X149030041Y-81710067D01*
X148861605Y-81779835D01*
X148858444Y-81781525D01*
X148856600Y-81781908D01*
X148855984Y-81782164D01*
X148855935Y-81782047D01*
X148790040Y-81795761D01*
X148741556Y-81781525D01*
X148738394Y-81779835D01*
X148569958Y-81710067D01*
X148569952Y-81710065D01*
X148391156Y-81674500D01*
X148391154Y-81674500D01*
X148208846Y-81674500D01*
X148208844Y-81674500D01*
X148030047Y-81710065D01*
X148030041Y-81710067D01*
X147861605Y-81779835D01*
X147858444Y-81781525D01*
X147856600Y-81781908D01*
X147855984Y-81782164D01*
X147855935Y-81782047D01*
X147790040Y-81795761D01*
X147741556Y-81781525D01*
X147738394Y-81779835D01*
X147569958Y-81710067D01*
X147569952Y-81710065D01*
X147391156Y-81674500D01*
X147391154Y-81674500D01*
X147208846Y-81674500D01*
X147208844Y-81674500D01*
X147030047Y-81710065D01*
X147030041Y-81710067D01*
X146861605Y-81779835D01*
X146858444Y-81781525D01*
X146856600Y-81781908D01*
X146855984Y-81782164D01*
X146855935Y-81782047D01*
X146790040Y-81795761D01*
X146741556Y-81781525D01*
X146738394Y-81779835D01*
X146569958Y-81710067D01*
X146569952Y-81710065D01*
X146391156Y-81674500D01*
X146391154Y-81674500D01*
X146208846Y-81674500D01*
X146208844Y-81674500D01*
X146030047Y-81710065D01*
X146030041Y-81710067D01*
X145861605Y-81779835D01*
X145858444Y-81781525D01*
X145856600Y-81781908D01*
X145855984Y-81782164D01*
X145855935Y-81782047D01*
X145790040Y-81795761D01*
X145741556Y-81781525D01*
X145738394Y-81779835D01*
X145569958Y-81710067D01*
X145569952Y-81710065D01*
X145391156Y-81674500D01*
X145391154Y-81674500D01*
X145208846Y-81674500D01*
X145208844Y-81674500D01*
X145030047Y-81710065D01*
X145030041Y-81710067D01*
X144861605Y-81779835D01*
X144858444Y-81781525D01*
X144856600Y-81781908D01*
X144855984Y-81782164D01*
X144855935Y-81782047D01*
X144790040Y-81795761D01*
X144741556Y-81781525D01*
X144738394Y-81779835D01*
X144569958Y-81710067D01*
X144569952Y-81710065D01*
X144391156Y-81674500D01*
X144391154Y-81674500D01*
X144208846Y-81674500D01*
X144208844Y-81674500D01*
X144030047Y-81710065D01*
X144030041Y-81710067D01*
X143861605Y-81779835D01*
X143858444Y-81781525D01*
X143856600Y-81781908D01*
X143855984Y-81782164D01*
X143855935Y-81782047D01*
X143790040Y-81795761D01*
X143741556Y-81781525D01*
X143738394Y-81779835D01*
X143569958Y-81710067D01*
X143569952Y-81710065D01*
X143391156Y-81674500D01*
X143391154Y-81674500D01*
X143208846Y-81674500D01*
X143208844Y-81674500D01*
X143030047Y-81710065D01*
X143030034Y-81710069D01*
X143018545Y-81714828D01*
X142949076Y-81722294D01*
X142927765Y-81716447D01*
X142923424Y-81714828D01*
X142892604Y-81703332D01*
X142832481Y-81680908D01*
X142832483Y-81680908D01*
X142772883Y-81674501D01*
X142772881Y-81674500D01*
X142772873Y-81674500D01*
X142772864Y-81674500D01*
X141827129Y-81674500D01*
X141827123Y-81674501D01*
X141767516Y-81680908D01*
X141632671Y-81731202D01*
X141632664Y-81731206D01*
X141517455Y-81817452D01*
X141517452Y-81817455D01*
X141431206Y-81932664D01*
X141431202Y-81932671D01*
X141380908Y-82067517D01*
X141374501Y-82127116D01*
X141374500Y-82127135D01*
X133597132Y-82127135D01*
X133518886Y-82010032D01*
X133518880Y-82010024D01*
X133389975Y-81881119D01*
X133389967Y-81881113D01*
X133238391Y-81779833D01*
X133238387Y-81779831D01*
X133069962Y-81710068D01*
X133069952Y-81710065D01*
X132891156Y-81674500D01*
X132891154Y-81674500D01*
X132708846Y-81674500D01*
X132708844Y-81674500D01*
X132530047Y-81710065D01*
X132530041Y-81710067D01*
X132361605Y-81779835D01*
X132358444Y-81781525D01*
X132356600Y-81781908D01*
X132355984Y-81782164D01*
X132355935Y-81782047D01*
X132290040Y-81795761D01*
X132241556Y-81781525D01*
X132238394Y-81779835D01*
X132069958Y-81710067D01*
X132069952Y-81710065D01*
X131891156Y-81674500D01*
X131891154Y-81674500D01*
X131708846Y-81674500D01*
X131708844Y-81674500D01*
X131530047Y-81710065D01*
X131530041Y-81710067D01*
X131361605Y-81779835D01*
X131358444Y-81781525D01*
X131356600Y-81781908D01*
X131355984Y-81782164D01*
X131355935Y-81782047D01*
X131290040Y-81795761D01*
X131241556Y-81781525D01*
X131238394Y-81779835D01*
X131069958Y-81710067D01*
X131069952Y-81710065D01*
X130891156Y-81674500D01*
X130891154Y-81674500D01*
X130708846Y-81674500D01*
X130708844Y-81674500D01*
X130530047Y-81710065D01*
X130530041Y-81710067D01*
X130361605Y-81779835D01*
X130358444Y-81781525D01*
X130356600Y-81781908D01*
X130355984Y-81782164D01*
X130355935Y-81782047D01*
X130290040Y-81795761D01*
X130241556Y-81781525D01*
X130238394Y-81779835D01*
X130069958Y-81710067D01*
X130069952Y-81710065D01*
X129891156Y-81674500D01*
X129891154Y-81674500D01*
X129708846Y-81674500D01*
X129708844Y-81674500D01*
X129530047Y-81710065D01*
X129530041Y-81710067D01*
X129361605Y-81779835D01*
X129358444Y-81781525D01*
X129356600Y-81781908D01*
X129355984Y-81782164D01*
X129355935Y-81782047D01*
X129290040Y-81795761D01*
X129241556Y-81781525D01*
X129238394Y-81779835D01*
X129069958Y-81710067D01*
X129069952Y-81710065D01*
X128891156Y-81674500D01*
X128891154Y-81674500D01*
X128708846Y-81674500D01*
X128708844Y-81674500D01*
X128530047Y-81710065D01*
X128530041Y-81710067D01*
X128361605Y-81779835D01*
X128358444Y-81781525D01*
X128356600Y-81781908D01*
X128355984Y-81782164D01*
X128355935Y-81782047D01*
X128290040Y-81795761D01*
X128241556Y-81781525D01*
X128238394Y-81779835D01*
X128069958Y-81710067D01*
X128069952Y-81710065D01*
X127891156Y-81674500D01*
X127891154Y-81674500D01*
X127708846Y-81674500D01*
X127708844Y-81674500D01*
X127530047Y-81710065D01*
X127530041Y-81710067D01*
X127361605Y-81779835D01*
X127358444Y-81781525D01*
X127356600Y-81781908D01*
X127355984Y-81782164D01*
X127355935Y-81782047D01*
X127290040Y-81795761D01*
X127241556Y-81781525D01*
X127238394Y-81779835D01*
X127069958Y-81710067D01*
X127069952Y-81710065D01*
X126891156Y-81674500D01*
X126891154Y-81674500D01*
X126708846Y-81674500D01*
X126708844Y-81674500D01*
X126530047Y-81710065D01*
X126530041Y-81710067D01*
X126361605Y-81779835D01*
X126358444Y-81781525D01*
X126356600Y-81781908D01*
X126355984Y-81782164D01*
X126355935Y-81782047D01*
X126290040Y-81795761D01*
X126241556Y-81781525D01*
X126238394Y-81779835D01*
X126069958Y-81710067D01*
X126069952Y-81710065D01*
X125891156Y-81674500D01*
X125891154Y-81674500D01*
X125708846Y-81674500D01*
X125708844Y-81674500D01*
X125530047Y-81710065D01*
X125530041Y-81710067D01*
X125361605Y-81779835D01*
X125358444Y-81781525D01*
X125356600Y-81781908D01*
X125355984Y-81782164D01*
X125355935Y-81782047D01*
X125290040Y-81795761D01*
X125241556Y-81781525D01*
X125238394Y-81779835D01*
X125069958Y-81710067D01*
X125069952Y-81710065D01*
X124891156Y-81674500D01*
X124891154Y-81674500D01*
X124708846Y-81674500D01*
X124708844Y-81674500D01*
X124530047Y-81710065D01*
X124530034Y-81710069D01*
X124518545Y-81714828D01*
X124449076Y-81722294D01*
X124427765Y-81716447D01*
X124423424Y-81714828D01*
X124392604Y-81703332D01*
X124332481Y-81680908D01*
X124332483Y-81680908D01*
X124272883Y-81674501D01*
X124272881Y-81674500D01*
X124272873Y-81674500D01*
X124272864Y-81674500D01*
X123327129Y-81674500D01*
X123327123Y-81674501D01*
X123267516Y-81680908D01*
X123132671Y-81731202D01*
X123132664Y-81731206D01*
X123017455Y-81817452D01*
X123017452Y-81817455D01*
X122931206Y-81932664D01*
X122931202Y-81932671D01*
X122880908Y-82067517D01*
X122874501Y-82127116D01*
X122874500Y-82127135D01*
X115597132Y-82127135D01*
X115518886Y-82010032D01*
X115518880Y-82010024D01*
X115389975Y-81881119D01*
X115389967Y-81881113D01*
X115238391Y-81779833D01*
X115238387Y-81779831D01*
X115069962Y-81710068D01*
X115069952Y-81710065D01*
X114891156Y-81674500D01*
X114891154Y-81674500D01*
X114708846Y-81674500D01*
X114708844Y-81674500D01*
X114530047Y-81710065D01*
X114530041Y-81710067D01*
X114361605Y-81779835D01*
X114358444Y-81781525D01*
X114356600Y-81781908D01*
X114355984Y-81782164D01*
X114355935Y-81782047D01*
X114290040Y-81795761D01*
X114241556Y-81781525D01*
X114238394Y-81779835D01*
X114069958Y-81710067D01*
X114069952Y-81710065D01*
X113891156Y-81674500D01*
X113891154Y-81674500D01*
X113708846Y-81674500D01*
X113708844Y-81674500D01*
X113530047Y-81710065D01*
X113530041Y-81710067D01*
X113361605Y-81779835D01*
X113358444Y-81781525D01*
X113356600Y-81781908D01*
X113355984Y-81782164D01*
X113355935Y-81782047D01*
X113290040Y-81795761D01*
X113241556Y-81781525D01*
X113238394Y-81779835D01*
X113069958Y-81710067D01*
X113069952Y-81710065D01*
X112891156Y-81674500D01*
X112891154Y-81674500D01*
X112708846Y-81674500D01*
X112708844Y-81674500D01*
X112530047Y-81710065D01*
X112530041Y-81710067D01*
X112361605Y-81779835D01*
X112358444Y-81781525D01*
X112356600Y-81781908D01*
X112355984Y-81782164D01*
X112355935Y-81782047D01*
X112290040Y-81795761D01*
X112241556Y-81781525D01*
X112238394Y-81779835D01*
X112069958Y-81710067D01*
X112069952Y-81710065D01*
X111891156Y-81674500D01*
X111891154Y-81674500D01*
X111708846Y-81674500D01*
X111708844Y-81674500D01*
X111530047Y-81710065D01*
X111530041Y-81710067D01*
X111361605Y-81779835D01*
X111358444Y-81781525D01*
X111356600Y-81781908D01*
X111355984Y-81782164D01*
X111355935Y-81782047D01*
X111290040Y-81795761D01*
X111241556Y-81781525D01*
X111238394Y-81779835D01*
X111069958Y-81710067D01*
X111069952Y-81710065D01*
X110891156Y-81674500D01*
X110891154Y-81674500D01*
X110708846Y-81674500D01*
X110708844Y-81674500D01*
X110530047Y-81710065D01*
X110530041Y-81710067D01*
X110361605Y-81779835D01*
X110358444Y-81781525D01*
X110356600Y-81781908D01*
X110355984Y-81782164D01*
X110355935Y-81782047D01*
X110290040Y-81795761D01*
X110241556Y-81781525D01*
X110238394Y-81779835D01*
X110069958Y-81710067D01*
X110069952Y-81710065D01*
X109891156Y-81674500D01*
X109891154Y-81674500D01*
X109708846Y-81674500D01*
X109708844Y-81674500D01*
X109530047Y-81710065D01*
X109530041Y-81710067D01*
X109361605Y-81779835D01*
X109358444Y-81781525D01*
X109356600Y-81781908D01*
X109355984Y-81782164D01*
X109355935Y-81782047D01*
X109290040Y-81795761D01*
X109241556Y-81781525D01*
X109238394Y-81779835D01*
X109069958Y-81710067D01*
X109069952Y-81710065D01*
X108891156Y-81674500D01*
X108891154Y-81674500D01*
X108708846Y-81674500D01*
X108708844Y-81674500D01*
X108530047Y-81710065D01*
X108530041Y-81710067D01*
X108361605Y-81779835D01*
X108358444Y-81781525D01*
X108356600Y-81781908D01*
X108355984Y-81782164D01*
X108355935Y-81782047D01*
X108290040Y-81795761D01*
X108241556Y-81781525D01*
X108238394Y-81779835D01*
X108069958Y-81710067D01*
X108069952Y-81710065D01*
X107891156Y-81674500D01*
X107891154Y-81674500D01*
X107708846Y-81674500D01*
X107708844Y-81674500D01*
X107530047Y-81710065D01*
X107530041Y-81710067D01*
X107361605Y-81779835D01*
X107358444Y-81781525D01*
X107356600Y-81781908D01*
X107355984Y-81782164D01*
X107355935Y-81782047D01*
X107290040Y-81795761D01*
X107241556Y-81781525D01*
X107238394Y-81779835D01*
X107069958Y-81710067D01*
X107069952Y-81710065D01*
X106891156Y-81674500D01*
X106891154Y-81674500D01*
X106708846Y-81674500D01*
X106708844Y-81674500D01*
X106530047Y-81710065D01*
X106530034Y-81710069D01*
X106518545Y-81714828D01*
X106449076Y-81722294D01*
X106427765Y-81716447D01*
X106423424Y-81714828D01*
X106392604Y-81703332D01*
X106332481Y-81680908D01*
X106332483Y-81680908D01*
X106272883Y-81674501D01*
X106272881Y-81674500D01*
X106272873Y-81674500D01*
X106272864Y-81674500D01*
X105327129Y-81674500D01*
X105327123Y-81674501D01*
X105267516Y-81680908D01*
X105132671Y-81731202D01*
X105132664Y-81731206D01*
X105017455Y-81817452D01*
X105017452Y-81817455D01*
X104931206Y-81932664D01*
X104931202Y-81932671D01*
X104880908Y-82067517D01*
X104874501Y-82127116D01*
X104874500Y-82127135D01*
X92027249Y-82127135D01*
X92057630Y-82067511D01*
X92112085Y-81960637D01*
X92170451Y-81781002D01*
X92200000Y-81594447D01*
X92200000Y-81405552D01*
X92170451Y-81218997D01*
X92112085Y-81039362D01*
X92026329Y-80871059D01*
X92007883Y-80845670D01*
X92007882Y-80845669D01*
X91353554Y-81499999D01*
X91350000Y-81499999D01*
X91350000Y-81453922D01*
X91326148Y-81364905D01*
X91280070Y-81285095D01*
X91214905Y-81219930D01*
X91135095Y-81173852D01*
X91046078Y-81150000D01*
X90953922Y-81150000D01*
X90864905Y-81173852D01*
X90785095Y-81219930D01*
X90719930Y-81285095D01*
X90673852Y-81364905D01*
X90650000Y-81453922D01*
X90600369Y-81453922D01*
X89992116Y-80845669D01*
X89992116Y-80845670D01*
X89973669Y-80871060D01*
X89887914Y-81039362D01*
X89829548Y-81218997D01*
X89800000Y-81405552D01*
X84580500Y-81405552D01*
X84580500Y-81405513D01*
X84550940Y-81218881D01*
X84492545Y-81039163D01*
X84447290Y-80950347D01*
X84406760Y-80870801D01*
X84295690Y-80717927D01*
X84162073Y-80584310D01*
X84035179Y-80492116D01*
X90345669Y-80492116D01*
X91000000Y-81146446D01*
X91000001Y-81146446D01*
X91654328Y-80492116D01*
X91628933Y-80473666D01*
X91460637Y-80387914D01*
X91281002Y-80329548D01*
X91094447Y-80300000D01*
X90905553Y-80300000D01*
X90718997Y-80329548D01*
X90539362Y-80387914D01*
X90371060Y-80473669D01*
X90345670Y-80492116D01*
X90345669Y-80492116D01*
X84035179Y-80492116D01*
X84009199Y-80473240D01*
X83840836Y-80387454D01*
X83661118Y-80329059D01*
X83474486Y-80299500D01*
X83474481Y-80299500D01*
X83285519Y-80299500D01*
X83285514Y-80299500D01*
X83098881Y-80329059D01*
X82919163Y-80387454D01*
X82750800Y-80473240D01*
X82663579Y-80536610D01*
X82597927Y-80584310D01*
X82597925Y-80584312D01*
X82597924Y-80584312D01*
X82464312Y-80717924D01*
X82464312Y-80717925D01*
X82464310Y-80717927D01*
X82416610Y-80783579D01*
X82353240Y-80870800D01*
X82267454Y-81039163D01*
X82209059Y-81218881D01*
X82179500Y-81405513D01*
X36500500Y-81405513D01*
X36500500Y-68301577D01*
X102199500Y-68301577D01*
X102199500Y-68498422D01*
X102230290Y-68692826D01*
X102291117Y-68880029D01*
X102357353Y-69010024D01*
X102380476Y-69055405D01*
X102496172Y-69214646D01*
X102635354Y-69353828D01*
X102794595Y-69469524D01*
X102871763Y-69508843D01*
X102969970Y-69558882D01*
X102969972Y-69558882D01*
X102969975Y-69558884D01*
X103070317Y-69591487D01*
X103157173Y-69619709D01*
X103351578Y-69650500D01*
X103351583Y-69650500D01*
X103548422Y-69650500D01*
X103742826Y-69619709D01*
X103756891Y-69615139D01*
X103930025Y-69558884D01*
X104105405Y-69469524D01*
X104264646Y-69353828D01*
X104403828Y-69214646D01*
X104519524Y-69055405D01*
X104608884Y-68880025D01*
X104669709Y-68692826D01*
X104672612Y-68674500D01*
X104700500Y-68498422D01*
X104700500Y-68301577D01*
X104669709Y-68107173D01*
X104608882Y-67919970D01*
X104519523Y-67744594D01*
X104403828Y-67585354D01*
X104264646Y-67446172D01*
X104105405Y-67330476D01*
X103930029Y-67241117D01*
X103742826Y-67180290D01*
X103548422Y-67149500D01*
X103548417Y-67149500D01*
X103351583Y-67149500D01*
X103351578Y-67149500D01*
X103157173Y-67180290D01*
X102969970Y-67241117D01*
X102794594Y-67330476D01*
X102703741Y-67396485D01*
X102635354Y-67446172D01*
X102635352Y-67446174D01*
X102635351Y-67446174D01*
X102496174Y-67585351D01*
X102496174Y-67585352D01*
X102496172Y-67585354D01*
X102446485Y-67653741D01*
X102380476Y-67744594D01*
X102291117Y-67919970D01*
X102230290Y-68107173D01*
X102199500Y-68301577D01*
X36500500Y-68301577D01*
X36500500Y-63905513D01*
X82299500Y-63905513D01*
X82299500Y-64094486D01*
X82329059Y-64281118D01*
X82387454Y-64460836D01*
X82458205Y-64599692D01*
X82473240Y-64629199D01*
X82584310Y-64782073D01*
X82717927Y-64915690D01*
X82870801Y-65026760D01*
X82950347Y-65067290D01*
X83039163Y-65112545D01*
X83039165Y-65112545D01*
X83039168Y-65112547D01*
X83135497Y-65143846D01*
X83218881Y-65170940D01*
X83405514Y-65200500D01*
X83405519Y-65200500D01*
X83594486Y-65200500D01*
X83781118Y-65170940D01*
X83782623Y-65170451D01*
X83960832Y-65112547D01*
X84129199Y-65026760D01*
X84155182Y-65007882D01*
X90465669Y-65007882D01*
X90465670Y-65007883D01*
X90491059Y-65026329D01*
X90659362Y-65112085D01*
X90838997Y-65170451D01*
X91025553Y-65200000D01*
X91214447Y-65200000D01*
X91401002Y-65170451D01*
X91580637Y-65112085D01*
X91748937Y-65026331D01*
X91774328Y-65007883D01*
X91774328Y-65007882D01*
X91120001Y-64353554D01*
X91120000Y-64353554D01*
X90465669Y-65007882D01*
X84155182Y-65007882D01*
X84282073Y-64915690D01*
X84415690Y-64782073D01*
X84526760Y-64629199D01*
X84612547Y-64460832D01*
X84670940Y-64281118D01*
X84681427Y-64214905D01*
X84700500Y-64094486D01*
X84700500Y-63905552D01*
X89920000Y-63905552D01*
X89920000Y-64094447D01*
X89949548Y-64281002D01*
X90007914Y-64460637D01*
X90093666Y-64628933D01*
X90112116Y-64654328D01*
X90766446Y-64000000D01*
X90766446Y-63999999D01*
X90720369Y-63953922D01*
X90770000Y-63953922D01*
X90770000Y-64046078D01*
X90793852Y-64135095D01*
X90839930Y-64214905D01*
X90905095Y-64280070D01*
X90984905Y-64326148D01*
X91073922Y-64350000D01*
X91166078Y-64350000D01*
X91255095Y-64326148D01*
X91334905Y-64280070D01*
X91400070Y-64214905D01*
X91446148Y-64135095D01*
X91470000Y-64046078D01*
X91470000Y-63999999D01*
X91473554Y-63999999D01*
X91473554Y-64000000D01*
X92127882Y-64654328D01*
X92127883Y-64654328D01*
X92146331Y-64628937D01*
X92232085Y-64460637D01*
X92290451Y-64281002D01*
X92320000Y-64094447D01*
X92320000Y-63905552D01*
X92290451Y-63718997D01*
X92232085Y-63539362D01*
X92146329Y-63371059D01*
X92127883Y-63345670D01*
X92127882Y-63345669D01*
X91473554Y-63999999D01*
X91470000Y-63999999D01*
X91470000Y-63953922D01*
X91446148Y-63864905D01*
X91400070Y-63785095D01*
X91334905Y-63719930D01*
X91255095Y-63673852D01*
X91166078Y-63650000D01*
X91073922Y-63650000D01*
X90984905Y-63673852D01*
X90905095Y-63719930D01*
X90839930Y-63785095D01*
X90793852Y-63864905D01*
X90770000Y-63953922D01*
X90720369Y-63953922D01*
X90112116Y-63345669D01*
X90112116Y-63345670D01*
X90093669Y-63371060D01*
X90007914Y-63539362D01*
X89949548Y-63718997D01*
X89920000Y-63905552D01*
X84700500Y-63905552D01*
X84700500Y-63905513D01*
X84670940Y-63718881D01*
X84612545Y-63539163D01*
X84567290Y-63450347D01*
X84526760Y-63370801D01*
X84415690Y-63217927D01*
X84282073Y-63084310D01*
X84155179Y-62992116D01*
X90465669Y-62992116D01*
X91120000Y-63646446D01*
X91120001Y-63646446D01*
X91774328Y-62992116D01*
X91748933Y-62973666D01*
X91580637Y-62887914D01*
X91401002Y-62829548D01*
X91214447Y-62800000D01*
X91025553Y-62800000D01*
X90838997Y-62829548D01*
X90659362Y-62887914D01*
X90491060Y-62973669D01*
X90465670Y-62992116D01*
X90465669Y-62992116D01*
X84155179Y-62992116D01*
X84129199Y-62973240D01*
X84087778Y-62952135D01*
X83960836Y-62887454D01*
X83781118Y-62829059D01*
X83594486Y-62799500D01*
X83594481Y-62799500D01*
X83405519Y-62799500D01*
X83405514Y-62799500D01*
X83218881Y-62829059D01*
X83039163Y-62887454D01*
X82870800Y-62973240D01*
X82822911Y-63008034D01*
X82717927Y-63084310D01*
X82717925Y-63084312D01*
X82717924Y-63084312D01*
X82584312Y-63217924D01*
X82584312Y-63217925D01*
X82584310Y-63217927D01*
X82536610Y-63283579D01*
X82473240Y-63370800D01*
X82387454Y-63539163D01*
X82329059Y-63718881D01*
X82299500Y-63905513D01*
X36500500Y-63905513D01*
X36500500Y-57624984D01*
X40724500Y-57624984D01*
X40724500Y-59625015D01*
X40735000Y-59727795D01*
X40735001Y-59727797D01*
X40746204Y-59761605D01*
X40790186Y-59894335D01*
X40790187Y-59894337D01*
X40882286Y-60043651D01*
X40882289Y-60043655D01*
X41006344Y-60167710D01*
X41006348Y-60167713D01*
X41155662Y-60259812D01*
X41155664Y-60259813D01*
X41155666Y-60259814D01*
X41322203Y-60314999D01*
X41424992Y-60325500D01*
X41424997Y-60325500D01*
X43425003Y-60325500D01*
X43425008Y-60325500D01*
X43527797Y-60314999D01*
X43694334Y-60259814D01*
X43843655Y-60167711D01*
X43967711Y-60043655D01*
X44059814Y-59894334D01*
X44114999Y-59727797D01*
X44125500Y-59625008D01*
X44125500Y-58513549D01*
X75724500Y-58513549D01*
X75724500Y-58736450D01*
X75724501Y-58736466D01*
X75753594Y-58957452D01*
X75753595Y-58957457D01*
X75753596Y-58957463D01*
X75753597Y-58957465D01*
X75811290Y-59172780D01*
X75811293Y-59172790D01*
X75860322Y-59291156D01*
X75896595Y-59378726D01*
X76008052Y-59571774D01*
X76008057Y-59571780D01*
X76008058Y-59571782D01*
X76143751Y-59748622D01*
X76143757Y-59748629D01*
X76301370Y-59906242D01*
X76301377Y-59906248D01*
X76313682Y-59915690D01*
X76478226Y-60041948D01*
X76671274Y-60153405D01*
X76877219Y-60238710D01*
X77092537Y-60296404D01*
X77313543Y-60325500D01*
X77313550Y-60325500D01*
X77536450Y-60325500D01*
X77536457Y-60325500D01*
X77757463Y-60296404D01*
X77972781Y-60238710D01*
X78178726Y-60153405D01*
X78371774Y-60041948D01*
X78548624Y-59906247D01*
X78706247Y-59748624D01*
X78841948Y-59571774D01*
X78953405Y-59378726D01*
X79038710Y-59172781D01*
X79096404Y-58957463D01*
X79103243Y-58905513D01*
X82179500Y-58905513D01*
X82179500Y-59094486D01*
X82209059Y-59281118D01*
X82267454Y-59460836D01*
X82339183Y-59601610D01*
X82353240Y-59629199D01*
X82464310Y-59782073D01*
X82597927Y-59915690D01*
X82750801Y-60026760D01*
X82830347Y-60067290D01*
X82919163Y-60112545D01*
X82919165Y-60112545D01*
X82919168Y-60112547D01*
X83015497Y-60143846D01*
X83098881Y-60170940D01*
X83285514Y-60200500D01*
X83285519Y-60200500D01*
X83474486Y-60200500D01*
X83661118Y-60170940D01*
X83671059Y-60167710D01*
X83840832Y-60112547D01*
X84009199Y-60026760D01*
X84162073Y-59915690D01*
X84295690Y-59782073D01*
X84406760Y-59629199D01*
X84492547Y-59460832D01*
X84550940Y-59281118D01*
X84559902Y-59224534D01*
X84580500Y-59094486D01*
X84580500Y-58905513D01*
X89799500Y-58905513D01*
X89799500Y-59094486D01*
X89829059Y-59281118D01*
X89887454Y-59460836D01*
X89959183Y-59601610D01*
X89973240Y-59629199D01*
X90084310Y-59782073D01*
X90217927Y-59915690D01*
X90370801Y-60026760D01*
X90450347Y-60067290D01*
X90539163Y-60112545D01*
X90539165Y-60112545D01*
X90539168Y-60112547D01*
X90635497Y-60143846D01*
X90718881Y-60170940D01*
X90905514Y-60200500D01*
X90905519Y-60200500D01*
X91094486Y-60200500D01*
X91281118Y-60170940D01*
X91291059Y-60167710D01*
X91460832Y-60112547D01*
X91629199Y-60026760D01*
X91782073Y-59915690D01*
X91915690Y-59782073D01*
X92026760Y-59629199D01*
X92112547Y-59460832D01*
X92170940Y-59281118D01*
X92179902Y-59224534D01*
X92200500Y-59094486D01*
X92200500Y-58905513D01*
X92170940Y-58718881D01*
X92137338Y-58615466D01*
X92112547Y-58539168D01*
X92112545Y-58539165D01*
X92112545Y-58539163D01*
X92026759Y-58370800D01*
X91915690Y-58217927D01*
X91782073Y-58084310D01*
X91629199Y-57973240D01*
X91460836Y-57887454D01*
X91281118Y-57829059D01*
X91094486Y-57799500D01*
X91094481Y-57799500D01*
X90905519Y-57799500D01*
X90905514Y-57799500D01*
X90718881Y-57829059D01*
X90539163Y-57887454D01*
X90370800Y-57973240D01*
X90283579Y-58036610D01*
X90217927Y-58084310D01*
X90217925Y-58084312D01*
X90217924Y-58084312D01*
X90084312Y-58217924D01*
X90084312Y-58217925D01*
X90084310Y-58217927D01*
X90069446Y-58238386D01*
X89973240Y-58370800D01*
X89887454Y-58539163D01*
X89829059Y-58718881D01*
X89799500Y-58905513D01*
X84580500Y-58905513D01*
X84550940Y-58718881D01*
X84517338Y-58615466D01*
X84492547Y-58539168D01*
X84492545Y-58539165D01*
X84492545Y-58539163D01*
X84406759Y-58370800D01*
X84295690Y-58217927D01*
X84162073Y-58084310D01*
X84009199Y-57973240D01*
X83840836Y-57887454D01*
X83661118Y-57829059D01*
X83474486Y-57799500D01*
X83474481Y-57799500D01*
X83285519Y-57799500D01*
X83285514Y-57799500D01*
X83098881Y-57829059D01*
X82919163Y-57887454D01*
X82750800Y-57973240D01*
X82663579Y-58036610D01*
X82597927Y-58084310D01*
X82597925Y-58084312D01*
X82597924Y-58084312D01*
X82464312Y-58217924D01*
X82464312Y-58217925D01*
X82464310Y-58217927D01*
X82449446Y-58238386D01*
X82353240Y-58370800D01*
X82267454Y-58539163D01*
X82209059Y-58718881D01*
X82179500Y-58905513D01*
X79103243Y-58905513D01*
X79125500Y-58736457D01*
X79125500Y-58513543D01*
X79096404Y-58292537D01*
X79038710Y-58077219D01*
X78953405Y-57871274D01*
X78841948Y-57678226D01*
X78722228Y-57522203D01*
X78706248Y-57501377D01*
X78706242Y-57501370D01*
X78548629Y-57343757D01*
X78548622Y-57343751D01*
X78371782Y-57208058D01*
X78371780Y-57208057D01*
X78371774Y-57208052D01*
X78178726Y-57096595D01*
X78178722Y-57096593D01*
X77972790Y-57011293D01*
X77972783Y-57011291D01*
X77972781Y-57011290D01*
X77757463Y-56953596D01*
X77757457Y-56953595D01*
X77757452Y-56953594D01*
X77536466Y-56924501D01*
X77536463Y-56924500D01*
X77536457Y-56924500D01*
X77313543Y-56924500D01*
X77313537Y-56924500D01*
X77313533Y-56924501D01*
X77092547Y-56953594D01*
X77092540Y-56953595D01*
X77092537Y-56953596D01*
X76955981Y-56990186D01*
X76877219Y-57011290D01*
X76877209Y-57011293D01*
X76671277Y-57096593D01*
X76671273Y-57096595D01*
X76478226Y-57208052D01*
X76478217Y-57208058D01*
X76301377Y-57343751D01*
X76301370Y-57343757D01*
X76143757Y-57501370D01*
X76143751Y-57501377D01*
X76008058Y-57678217D01*
X76008052Y-57678226D01*
X75896595Y-57871273D01*
X75896593Y-57871277D01*
X75811293Y-58077209D01*
X75811290Y-58077219D01*
X75773589Y-58217924D01*
X75753597Y-58292534D01*
X75753594Y-58292547D01*
X75724501Y-58513533D01*
X75724500Y-58513549D01*
X44125500Y-58513549D01*
X44125500Y-57624992D01*
X44114999Y-57522203D01*
X44059814Y-57355666D01*
X44052468Y-57343757D01*
X43967713Y-57206348D01*
X43967710Y-57206344D01*
X43843655Y-57082289D01*
X43843651Y-57082286D01*
X43694337Y-56990187D01*
X43694335Y-56990186D01*
X43583907Y-56953594D01*
X43527797Y-56935001D01*
X43527795Y-56935000D01*
X43425015Y-56924500D01*
X43425008Y-56924500D01*
X43149500Y-56924500D01*
X43082461Y-56904815D01*
X43036706Y-56852011D01*
X43025500Y-56800500D01*
X43025500Y-56325097D01*
X43045185Y-56258058D01*
X43061819Y-56237416D01*
X45162416Y-54136819D01*
X45223739Y-54103334D01*
X45250097Y-54100500D01*
X82865283Y-54100500D01*
X82932322Y-54120185D01*
X82952959Y-54136814D01*
X82995317Y-54179172D01*
X83035030Y-54218885D01*
X83035032Y-54218886D01*
X83186608Y-54320166D01*
X83186612Y-54320168D01*
X83355037Y-54389931D01*
X83355042Y-54389933D01*
X83355046Y-54389933D01*
X83355047Y-54389934D01*
X83533843Y-54425500D01*
X83533846Y-54425500D01*
X83716156Y-54425500D01*
X83855992Y-54397684D01*
X83894958Y-54389933D01*
X84007245Y-54343422D01*
X84063387Y-54320168D01*
X84063391Y-54320166D01*
X84187587Y-54237181D01*
X84214972Y-54218883D01*
X84297037Y-54136817D01*
X84358358Y-54103334D01*
X84384717Y-54100500D01*
X98208504Y-54100500D01*
X98275543Y-54120185D01*
X98298721Y-54139430D01*
X98308653Y-54149962D01*
X98319480Y-54168716D01*
X98431284Y-54280520D01*
X98431286Y-54280521D01*
X98439651Y-54288886D01*
X99515139Y-55364374D01*
X99515149Y-55364385D01*
X99519479Y-55368715D01*
X99519480Y-55368716D01*
X99631284Y-55480520D01*
X99718095Y-55530639D01*
X99718097Y-55530641D01*
X99768213Y-55559576D01*
X99768215Y-55559577D01*
X99920942Y-55600500D01*
X99920943Y-55600500D01*
X100775241Y-55600500D01*
X100842280Y-55620185D01*
X100888035Y-55672989D01*
X100897979Y-55742147D01*
X100885725Y-55780795D01*
X100834783Y-55880771D01*
X100771522Y-56075465D01*
X100739500Y-56277648D01*
X100739500Y-56482351D01*
X100771522Y-56684534D01*
X100834781Y-56879223D01*
X100927715Y-57061613D01*
X101048028Y-57227213D01*
X101192786Y-57371971D01*
X101327662Y-57469962D01*
X101358390Y-57492287D01*
X101449840Y-57538883D01*
X101451080Y-57539515D01*
X101501876Y-57587490D01*
X101518671Y-57655311D01*
X101496134Y-57721446D01*
X101451080Y-57760485D01*
X101358386Y-57807715D01*
X101192786Y-57928028D01*
X101048028Y-58072786D01*
X100927715Y-58238386D01*
X100834781Y-58420776D01*
X100771522Y-58615465D01*
X100739500Y-58817648D01*
X100739500Y-59022351D01*
X100771522Y-59224534D01*
X100834781Y-59419223D01*
X100927715Y-59601613D01*
X101048028Y-59767213D01*
X101192786Y-59911971D01*
X101347749Y-60024556D01*
X101358390Y-60032287D01*
X101449840Y-60078883D01*
X101451080Y-60079515D01*
X101501876Y-60127490D01*
X101518671Y-60195311D01*
X101496134Y-60261446D01*
X101451080Y-60300485D01*
X101358386Y-60347715D01*
X101192786Y-60468028D01*
X101048028Y-60612786D01*
X100927715Y-60778386D01*
X100834781Y-60960776D01*
X100771522Y-61155465D01*
X100739500Y-61357648D01*
X100739500Y-61562351D01*
X100771522Y-61764534D01*
X100834781Y-61959223D01*
X100898691Y-62084653D01*
X100911017Y-62108843D01*
X100927715Y-62141613D01*
X101048028Y-62307213D01*
X101192786Y-62451971D01*
X101316867Y-62542119D01*
X101358390Y-62572287D01*
X101449840Y-62618883D01*
X101451080Y-62619515D01*
X101501876Y-62667490D01*
X101518671Y-62735311D01*
X101496134Y-62801446D01*
X101451080Y-62840485D01*
X101358386Y-62887715D01*
X101192786Y-63008028D01*
X101048028Y-63152786D01*
X100927715Y-63318386D01*
X100834781Y-63500776D01*
X100771522Y-63695465D01*
X100739500Y-63897648D01*
X100739500Y-64102351D01*
X100771522Y-64304534D01*
X100834781Y-64499223D01*
X100896911Y-64621158D01*
X100912251Y-64651265D01*
X100927715Y-64681613D01*
X101048028Y-64847213D01*
X101192786Y-64991971D01*
X101347749Y-65104556D01*
X101358390Y-65112287D01*
X101472543Y-65170451D01*
X101540776Y-65205218D01*
X101540778Y-65205218D01*
X101540781Y-65205220D01*
X101645137Y-65239127D01*
X101735465Y-65268477D01*
X101836557Y-65284488D01*
X101937648Y-65300500D01*
X101937649Y-65300500D01*
X102542351Y-65300500D01*
X102542352Y-65300500D01*
X102744534Y-65268477D01*
X102939219Y-65205220D01*
X103121610Y-65112287D01*
X103239330Y-65026759D01*
X103287213Y-64991971D01*
X103287215Y-64991968D01*
X103287219Y-64991966D01*
X103431966Y-64847219D01*
X103431968Y-64847215D01*
X103431971Y-64847213D01*
X103516938Y-64730264D01*
X103552287Y-64681610D01*
X103645220Y-64499219D01*
X103708477Y-64304534D01*
X103740500Y-64102352D01*
X103740500Y-63897648D01*
X103708477Y-63695466D01*
X103701139Y-63672883D01*
X103679127Y-63605137D01*
X103645220Y-63500781D01*
X103645218Y-63500778D01*
X103645218Y-63500776D01*
X103611503Y-63434607D01*
X103552287Y-63318390D01*
X103544556Y-63307749D01*
X103431971Y-63152786D01*
X103287213Y-63008028D01*
X103121614Y-62887715D01*
X103115006Y-62884348D01*
X103028917Y-62840483D01*
X102978123Y-62792511D01*
X102961328Y-62724690D01*
X102983865Y-62658555D01*
X103028917Y-62619516D01*
X103121610Y-62572287D01*
X103163133Y-62542119D01*
X103287213Y-62451971D01*
X103287215Y-62451968D01*
X103287219Y-62451966D01*
X103431966Y-62307219D01*
X103431968Y-62307215D01*
X103431971Y-62307213D01*
X103484732Y-62234590D01*
X103552287Y-62141610D01*
X103645220Y-61959219D01*
X103708477Y-61764534D01*
X103740500Y-61562352D01*
X103740500Y-61357648D01*
X103729200Y-61286306D01*
X103708477Y-61155465D01*
X103679127Y-61065137D01*
X103645220Y-60960781D01*
X103645218Y-60960778D01*
X103645218Y-60960776D01*
X103552419Y-60778650D01*
X103552287Y-60778390D01*
X103536007Y-60755982D01*
X103431971Y-60612786D01*
X103287213Y-60468028D01*
X103121614Y-60347715D01*
X103115006Y-60344348D01*
X103028917Y-60300483D01*
X102978123Y-60252511D01*
X102961328Y-60184690D01*
X102983865Y-60118555D01*
X103028917Y-60079516D01*
X103121610Y-60032287D01*
X103142770Y-60016913D01*
X103287213Y-59911971D01*
X103287215Y-59911968D01*
X103287219Y-59911966D01*
X103431966Y-59767219D01*
X103431968Y-59767215D01*
X103431971Y-59767213D01*
X103488027Y-59690057D01*
X103552287Y-59601610D01*
X103645220Y-59419219D01*
X103708477Y-59224534D01*
X103740500Y-59022352D01*
X103740500Y-58817648D01*
X103731625Y-58761615D01*
X103708477Y-58615465D01*
X103661200Y-58469962D01*
X103645220Y-58420781D01*
X103645218Y-58420778D01*
X103645218Y-58420776D01*
X103579876Y-58292537D01*
X103552287Y-58238390D01*
X103537420Y-58217927D01*
X103431971Y-58072786D01*
X103287213Y-57928028D01*
X103121614Y-57807715D01*
X103060349Y-57776499D01*
X103028917Y-57760483D01*
X102978123Y-57712511D01*
X102961328Y-57644690D01*
X102983865Y-57578555D01*
X103028917Y-57539516D01*
X103121610Y-57492287D01*
X103152338Y-57469962D01*
X103287213Y-57371971D01*
X103287215Y-57371968D01*
X103287219Y-57371966D01*
X103431966Y-57227219D01*
X103431968Y-57227215D01*
X103431971Y-57227213D01*
X103526869Y-57096595D01*
X103552287Y-57061610D01*
X103645220Y-56879219D01*
X103708477Y-56684534D01*
X103740500Y-56482352D01*
X103740500Y-56277648D01*
X103724997Y-56179769D01*
X103708477Y-56075465D01*
X103661226Y-55930042D01*
X103645220Y-55880781D01*
X103645218Y-55880778D01*
X103645218Y-55880776D01*
X103600600Y-55793210D01*
X103599318Y-55790694D01*
X103586423Y-55722027D01*
X103612699Y-55657287D01*
X103669805Y-55617029D01*
X103739611Y-55614037D01*
X103797485Y-55646720D01*
X105165425Y-57014660D01*
X105198910Y-57075983D01*
X105199361Y-57078149D01*
X105230261Y-57233491D01*
X105230264Y-57233501D01*
X105290602Y-57379172D01*
X105290609Y-57379185D01*
X105378210Y-57510288D01*
X105378213Y-57510292D01*
X105489707Y-57621786D01*
X105489711Y-57621789D01*
X105620814Y-57709390D01*
X105620827Y-57709397D01*
X105766498Y-57769735D01*
X105766503Y-57769737D01*
X105916131Y-57799500D01*
X105921153Y-57800499D01*
X105921156Y-57800500D01*
X106075500Y-57800500D01*
X106142539Y-57820185D01*
X106188294Y-57872989D01*
X106199500Y-57924500D01*
X106199500Y-70275500D01*
X106179815Y-70342539D01*
X106127011Y-70388294D01*
X106075500Y-70399500D01*
X84674500Y-70399500D01*
X84607461Y-70379815D01*
X84561706Y-70327011D01*
X84550500Y-70275500D01*
X84550499Y-69527129D01*
X84550498Y-69527123D01*
X84550497Y-69527116D01*
X84544091Y-69467517D01*
X84493796Y-69332669D01*
X84493795Y-69332668D01*
X84493793Y-69332664D01*
X84407547Y-69217455D01*
X84407544Y-69217452D01*
X84292335Y-69131206D01*
X84292328Y-69131202D01*
X84157482Y-69080908D01*
X84157483Y-69080908D01*
X84097883Y-69074501D01*
X84097881Y-69074500D01*
X84097873Y-69074500D01*
X84097864Y-69074500D01*
X83152129Y-69074500D01*
X83152123Y-69074501D01*
X83092516Y-69080908D01*
X82957671Y-69131202D01*
X82957664Y-69131206D01*
X82842455Y-69217452D01*
X82842452Y-69217455D01*
X82756206Y-69332664D01*
X82756202Y-69332671D01*
X82705908Y-69467517D01*
X82701465Y-69508846D01*
X82699501Y-69527123D01*
X82699500Y-69527135D01*
X82699501Y-70275500D01*
X82679817Y-70342539D01*
X82627013Y-70388294D01*
X82575501Y-70399500D01*
X45086669Y-70399500D01*
X45086653Y-70399499D01*
X45079057Y-70399499D01*
X44920943Y-70399499D01*
X44768215Y-70440423D01*
X44768214Y-70440423D01*
X44719212Y-70468715D01*
X44719211Y-70468715D01*
X44631290Y-70519475D01*
X44631282Y-70519481D01*
X41944481Y-73206282D01*
X41944480Y-73206284D01*
X41910532Y-73265084D01*
X41865423Y-73343215D01*
X41824499Y-73495943D01*
X41824499Y-73495945D01*
X41824499Y-73664046D01*
X41824500Y-73664059D01*
X41824500Y-74350500D01*
X41804815Y-74417539D01*
X41752011Y-74463294D01*
X41700500Y-74474500D01*
X41424984Y-74474500D01*
X41322204Y-74485000D01*
X41322203Y-74485001D01*
X41155664Y-74540186D01*
X41155662Y-74540187D01*
X41006348Y-74632286D01*
X41006344Y-74632289D01*
X40882289Y-74756344D01*
X40882286Y-74756348D01*
X40790187Y-74905662D01*
X40790186Y-74905664D01*
X40735001Y-75072203D01*
X40735000Y-75072204D01*
X40724500Y-75174984D01*
X40724500Y-77175015D01*
X40735000Y-77277795D01*
X40735001Y-77277797D01*
X40741904Y-77298629D01*
X40790186Y-77444335D01*
X40790187Y-77444337D01*
X40882286Y-77593651D01*
X40882289Y-77593655D01*
X41006344Y-77717710D01*
X41006348Y-77717713D01*
X41155662Y-77809812D01*
X41155664Y-77809813D01*
X41155666Y-77809814D01*
X41322203Y-77864999D01*
X41424992Y-77875500D01*
X41424997Y-77875500D01*
X43425003Y-77875500D01*
X43425008Y-77875500D01*
X43527797Y-77864999D01*
X43694334Y-77809814D01*
X43843655Y-77717711D01*
X43967711Y-77593655D01*
X44059814Y-77444334D01*
X44114999Y-77277797D01*
X44125500Y-77175008D01*
X44125500Y-76063549D01*
X75724500Y-76063549D01*
X75724500Y-76286450D01*
X75724501Y-76286466D01*
X75753594Y-76507452D01*
X75753595Y-76507457D01*
X75753596Y-76507463D01*
X75802816Y-76691154D01*
X75811290Y-76722780D01*
X75811293Y-76722790D01*
X75872254Y-76869962D01*
X75896595Y-76928726D01*
X76008052Y-77121774D01*
X76008057Y-77121780D01*
X76008058Y-77121782D01*
X76143751Y-77298622D01*
X76143757Y-77298629D01*
X76301370Y-77456242D01*
X76301377Y-77456248D01*
X76393271Y-77526760D01*
X76478226Y-77591948D01*
X76671274Y-77703405D01*
X76877219Y-77788710D01*
X77092537Y-77846404D01*
X77313543Y-77875500D01*
X77313550Y-77875500D01*
X77536450Y-77875500D01*
X77536457Y-77875500D01*
X77757463Y-77846404D01*
X77972781Y-77788710D01*
X78178726Y-77703405D01*
X78371774Y-77591948D01*
X78548624Y-77456247D01*
X78706247Y-77298624D01*
X78841948Y-77121774D01*
X78953405Y-76928726D01*
X79038710Y-76722781D01*
X79096404Y-76507463D01*
X79109826Y-76405513D01*
X82179500Y-76405513D01*
X82179500Y-76594486D01*
X82209059Y-76781118D01*
X82267454Y-76960836D01*
X82333296Y-77090057D01*
X82353240Y-77129199D01*
X82464310Y-77282073D01*
X82597927Y-77415690D01*
X82750801Y-77526760D01*
X82830347Y-77567290D01*
X82919163Y-77612545D01*
X82919165Y-77612545D01*
X82919168Y-77612547D01*
X83015497Y-77643846D01*
X83098881Y-77670940D01*
X83285514Y-77700500D01*
X83285519Y-77700500D01*
X83474486Y-77700500D01*
X83661118Y-77670940D01*
X83840832Y-77612547D01*
X84009199Y-77526760D01*
X84162073Y-77415690D01*
X84295690Y-77282073D01*
X84406760Y-77129199D01*
X84492547Y-76960832D01*
X84550940Y-76781118D01*
X84560180Y-76722780D01*
X84580500Y-76594486D01*
X84580500Y-76405513D01*
X89799500Y-76405513D01*
X89799500Y-76594486D01*
X89829059Y-76781118D01*
X89887454Y-76960836D01*
X89953296Y-77090057D01*
X89973240Y-77129199D01*
X90084310Y-77282073D01*
X90217927Y-77415690D01*
X90370801Y-77526760D01*
X90450347Y-77567290D01*
X90539163Y-77612545D01*
X90539165Y-77612545D01*
X90539168Y-77612547D01*
X90635497Y-77643846D01*
X90718881Y-77670940D01*
X90905514Y-77700500D01*
X90905519Y-77700500D01*
X91094486Y-77700500D01*
X91281118Y-77670940D01*
X91460832Y-77612547D01*
X91629199Y-77526760D01*
X91782073Y-77415690D01*
X91915690Y-77282073D01*
X92026760Y-77129199D01*
X92112547Y-76960832D01*
X92170940Y-76781118D01*
X92180180Y-76722780D01*
X92200500Y-76594486D01*
X92200500Y-76405513D01*
X92170940Y-76218881D01*
X92125439Y-76078846D01*
X92112547Y-76039168D01*
X92112545Y-76039165D01*
X92112545Y-76039163D01*
X92052418Y-75921158D01*
X92026760Y-75870801D01*
X91915690Y-75717927D01*
X91782073Y-75584310D01*
X91629199Y-75473240D01*
X91619743Y-75468422D01*
X91460836Y-75387454D01*
X91281118Y-75329059D01*
X91094486Y-75299500D01*
X91094481Y-75299500D01*
X90905519Y-75299500D01*
X90905514Y-75299500D01*
X90718881Y-75329059D01*
X90539163Y-75387454D01*
X90370800Y-75473240D01*
X90283579Y-75536610D01*
X90217927Y-75584310D01*
X90217925Y-75584312D01*
X90217924Y-75584312D01*
X90084312Y-75717924D01*
X90084312Y-75717925D01*
X90084310Y-75717927D01*
X90049021Y-75766498D01*
X89973240Y-75870800D01*
X89887454Y-76039163D01*
X89829059Y-76218881D01*
X89799500Y-76405513D01*
X84580500Y-76405513D01*
X84550940Y-76218881D01*
X84505439Y-76078846D01*
X84492547Y-76039168D01*
X84492545Y-76039165D01*
X84492545Y-76039163D01*
X84432418Y-75921158D01*
X84406760Y-75870801D01*
X84295690Y-75717927D01*
X84162073Y-75584310D01*
X84009199Y-75473240D01*
X83999743Y-75468422D01*
X83840836Y-75387454D01*
X83661118Y-75329059D01*
X83474486Y-75299500D01*
X83474481Y-75299500D01*
X83285519Y-75299500D01*
X83285514Y-75299500D01*
X83098881Y-75329059D01*
X82919163Y-75387454D01*
X82750800Y-75473240D01*
X82663579Y-75536610D01*
X82597927Y-75584310D01*
X82597925Y-75584312D01*
X82597924Y-75584312D01*
X82464312Y-75717924D01*
X82464312Y-75717925D01*
X82464310Y-75717927D01*
X82429021Y-75766498D01*
X82353240Y-75870800D01*
X82267454Y-76039163D01*
X82209059Y-76218881D01*
X82179500Y-76405513D01*
X79109826Y-76405513D01*
X79125500Y-76286457D01*
X79125500Y-76063543D01*
X79096404Y-75842537D01*
X79038710Y-75627219D01*
X78953405Y-75421274D01*
X78841948Y-75228226D01*
X78706247Y-75051376D01*
X78706242Y-75051370D01*
X78548629Y-74893757D01*
X78548622Y-74893751D01*
X78371782Y-74758058D01*
X78371780Y-74758057D01*
X78371774Y-74758052D01*
X78178726Y-74646595D01*
X78178722Y-74646593D01*
X77972790Y-74561293D01*
X77972783Y-74561291D01*
X77972781Y-74561290D01*
X77757463Y-74503596D01*
X77757457Y-74503595D01*
X77757452Y-74503594D01*
X77536466Y-74474501D01*
X77536463Y-74474500D01*
X77536457Y-74474500D01*
X77313543Y-74474500D01*
X77313537Y-74474500D01*
X77313533Y-74474501D01*
X77092547Y-74503594D01*
X77092540Y-74503595D01*
X77092537Y-74503596D01*
X77072955Y-74508843D01*
X76877219Y-74561290D01*
X76877209Y-74561293D01*
X76671277Y-74646593D01*
X76671273Y-74646595D01*
X76478226Y-74758052D01*
X76478217Y-74758058D01*
X76301377Y-74893751D01*
X76301370Y-74893757D01*
X76143757Y-75051370D01*
X76143751Y-75051377D01*
X76008058Y-75228217D01*
X76008052Y-75228226D01*
X75896595Y-75421273D01*
X75896593Y-75421277D01*
X75811293Y-75627209D01*
X75811290Y-75627219D01*
X75773971Y-75766498D01*
X75753597Y-75842534D01*
X75753594Y-75842547D01*
X75724501Y-76063533D01*
X75724500Y-76063549D01*
X44125500Y-76063549D01*
X44125500Y-75174992D01*
X44114999Y-75072203D01*
X44059814Y-74905666D01*
X44052468Y-74893757D01*
X43967713Y-74756348D01*
X43967710Y-74756344D01*
X43843655Y-74632289D01*
X43843651Y-74632286D01*
X43694337Y-74540187D01*
X43694335Y-74540186D01*
X43583907Y-74503594D01*
X43527797Y-74485001D01*
X43527795Y-74485000D01*
X43425015Y-74474500D01*
X43425008Y-74474500D01*
X43149500Y-74474500D01*
X43082461Y-74454815D01*
X43036706Y-74402011D01*
X43025500Y-74350500D01*
X43025500Y-73875097D01*
X43045185Y-73808058D01*
X43061819Y-73787416D01*
X45212416Y-71636819D01*
X45273739Y-71603334D01*
X45300097Y-71600500D01*
X82865283Y-71600500D01*
X82932322Y-71620185D01*
X82952959Y-71636814D01*
X83007299Y-71691154D01*
X83035030Y-71718885D01*
X83035032Y-71718886D01*
X83186608Y-71820166D01*
X83186612Y-71820168D01*
X83306827Y-71869962D01*
X83355042Y-71889933D01*
X83355046Y-71889933D01*
X83355047Y-71889934D01*
X83533843Y-71925500D01*
X83533846Y-71925500D01*
X83716156Y-71925500D01*
X83836445Y-71901572D01*
X83894958Y-71889933D01*
X84063389Y-71820167D01*
X84063391Y-71820166D01*
X84170295Y-71748735D01*
X84214972Y-71718883D01*
X84297037Y-71636817D01*
X84358358Y-71603334D01*
X84384717Y-71600500D01*
X106513331Y-71600500D01*
X106513347Y-71600501D01*
X106520943Y-71600501D01*
X106679054Y-71600501D01*
X106679057Y-71600501D01*
X106831785Y-71559577D01*
X106881904Y-71530639D01*
X106968716Y-71480520D01*
X107080520Y-71368716D01*
X107080520Y-71368714D01*
X107280520Y-71168716D01*
X107286451Y-71158444D01*
X107352487Y-71044064D01*
X107359577Y-71031784D01*
X107400501Y-70879057D01*
X107400501Y-70720942D01*
X107400501Y-70713347D01*
X107400500Y-70713329D01*
X107400500Y-68301577D01*
X122599500Y-68301577D01*
X122599500Y-68498422D01*
X122630290Y-68692826D01*
X122691117Y-68880029D01*
X122757353Y-69010024D01*
X122780476Y-69055405D01*
X122896172Y-69214646D01*
X123035354Y-69353828D01*
X123194595Y-69469524D01*
X123271763Y-69508843D01*
X123369970Y-69558882D01*
X123369972Y-69558882D01*
X123369975Y-69558884D01*
X123470317Y-69591487D01*
X123557173Y-69619709D01*
X123751578Y-69650500D01*
X123751583Y-69650500D01*
X123948422Y-69650500D01*
X124142826Y-69619709D01*
X124156891Y-69615139D01*
X124330025Y-69558884D01*
X124505405Y-69469524D01*
X124664646Y-69353828D01*
X124803828Y-69214646D01*
X124919524Y-69055405D01*
X125008884Y-68880025D01*
X125069709Y-68692826D01*
X125072612Y-68674500D01*
X125100500Y-68498422D01*
X125100500Y-68301577D01*
X125069709Y-68107173D01*
X125008882Y-67919970D01*
X124919523Y-67744594D01*
X124803828Y-67585354D01*
X124664646Y-67446172D01*
X124505405Y-67330476D01*
X124330029Y-67241117D01*
X124142826Y-67180290D01*
X123948422Y-67149500D01*
X123948417Y-67149500D01*
X123751583Y-67149500D01*
X123751578Y-67149500D01*
X123557173Y-67180290D01*
X123369970Y-67241117D01*
X123194594Y-67330476D01*
X123103741Y-67396485D01*
X123035354Y-67446172D01*
X123035352Y-67446174D01*
X123035351Y-67446174D01*
X122896174Y-67585351D01*
X122896174Y-67585352D01*
X122896172Y-67585354D01*
X122846485Y-67653741D01*
X122780476Y-67744594D01*
X122691117Y-67919970D01*
X122630290Y-68107173D01*
X122599500Y-68301577D01*
X107400500Y-68301577D01*
X107400500Y-66321153D01*
X143399500Y-66321153D01*
X143399500Y-66478846D01*
X143430261Y-66633489D01*
X143430264Y-66633501D01*
X143490602Y-66779172D01*
X143490609Y-66779185D01*
X143578210Y-66910288D01*
X143578213Y-66910292D01*
X143689707Y-67021786D01*
X143689711Y-67021789D01*
X143820814Y-67109390D01*
X143820827Y-67109397D01*
X143917646Y-67149500D01*
X143966503Y-67169737D01*
X144031147Y-67182595D01*
X144121849Y-67200638D01*
X144183760Y-67233023D01*
X144185339Y-67234574D01*
X148663181Y-71712416D01*
X148696666Y-71773739D01*
X148699500Y-71800097D01*
X148699500Y-75420234D01*
X148679815Y-75487273D01*
X148678602Y-75489125D01*
X148590609Y-75620814D01*
X148590602Y-75620827D01*
X148530264Y-75766498D01*
X148530261Y-75766510D01*
X148499500Y-75921153D01*
X148499500Y-76078846D01*
X148530261Y-76233489D01*
X148530264Y-76233501D01*
X148590602Y-76379172D01*
X148590609Y-76379185D01*
X148678210Y-76510288D01*
X148678213Y-76510292D01*
X148789707Y-76621786D01*
X148789711Y-76621789D01*
X148920814Y-76709390D01*
X148920827Y-76709397D01*
X149066498Y-76769735D01*
X149066503Y-76769737D01*
X149221153Y-76800499D01*
X149221156Y-76800500D01*
X149221158Y-76800500D01*
X149378844Y-76800500D01*
X149378845Y-76800499D01*
X149533497Y-76769737D01*
X149679179Y-76709394D01*
X149731110Y-76674694D01*
X149797785Y-76653816D01*
X149865165Y-76672300D01*
X149868863Y-76674676D01*
X149920821Y-76709394D01*
X149920823Y-76709395D01*
X149920825Y-76709396D01*
X150066498Y-76769735D01*
X150066503Y-76769737D01*
X150221153Y-76800499D01*
X150221156Y-76800500D01*
X150221158Y-76800500D01*
X150378844Y-76800500D01*
X150378845Y-76800499D01*
X150533497Y-76769737D01*
X150679179Y-76709394D01*
X150731110Y-76674694D01*
X150797785Y-76653816D01*
X150865165Y-76672300D01*
X150868863Y-76674676D01*
X150920821Y-76709394D01*
X150920823Y-76709395D01*
X150920825Y-76709396D01*
X151066498Y-76769735D01*
X151066503Y-76769737D01*
X151221153Y-76800499D01*
X151221156Y-76800500D01*
X151221158Y-76800500D01*
X151378844Y-76800500D01*
X151378845Y-76800499D01*
X151533497Y-76769737D01*
X151679179Y-76709394D01*
X151810289Y-76621789D01*
X151921789Y-76510289D01*
X152009394Y-76379179D01*
X152069737Y-76233497D01*
X152100500Y-76078842D01*
X152100500Y-75921158D01*
X152100500Y-75921155D01*
X152100499Y-75921153D01*
X152090316Y-75869962D01*
X152069737Y-75766503D01*
X152069735Y-75766498D01*
X152009397Y-75620827D01*
X152009390Y-75620814D01*
X151921398Y-75489125D01*
X151900520Y-75422447D01*
X151900500Y-75420234D01*
X151900500Y-70020941D01*
X151897577Y-70010031D01*
X151897577Y-70010032D01*
X151897576Y-70010028D01*
X151859577Y-69868215D01*
X151830639Y-69818095D01*
X151780520Y-69731284D01*
X151740392Y-69691156D01*
X157874499Y-69691156D01*
X157910065Y-69869952D01*
X157910067Y-69869958D01*
X157979835Y-70038394D01*
X157981525Y-70041556D01*
X157981908Y-70043399D01*
X157982164Y-70044016D01*
X157982047Y-70044064D01*
X157995761Y-70109960D01*
X157981525Y-70158444D01*
X157979835Y-70161605D01*
X157910067Y-70330041D01*
X157910065Y-70330047D01*
X157874500Y-70508843D01*
X157874500Y-70508846D01*
X157874500Y-70691154D01*
X157874500Y-70691156D01*
X157874499Y-70691156D01*
X157910065Y-70869952D01*
X157910067Y-70869958D01*
X157979835Y-71038394D01*
X157981525Y-71041556D01*
X157981908Y-71043399D01*
X157982164Y-71044016D01*
X157982047Y-71044064D01*
X157995761Y-71109960D01*
X157981525Y-71158444D01*
X157979835Y-71161605D01*
X157910067Y-71330041D01*
X157910065Y-71330047D01*
X157874500Y-71508843D01*
X157874500Y-71508846D01*
X157874500Y-71691154D01*
X157874500Y-71691156D01*
X157874499Y-71691156D01*
X157910065Y-71869952D01*
X157910067Y-71869958D01*
X157979835Y-72038394D01*
X157981525Y-72041556D01*
X157981908Y-72043399D01*
X157982164Y-72044016D01*
X157982047Y-72044064D01*
X157995761Y-72109960D01*
X157981525Y-72158444D01*
X157979835Y-72161605D01*
X157910067Y-72330041D01*
X157910065Y-72330047D01*
X157874500Y-72508843D01*
X157874500Y-72508846D01*
X157874500Y-72691154D01*
X157874500Y-72691156D01*
X157874499Y-72691156D01*
X157910065Y-72869952D01*
X157910067Y-72869958D01*
X157979835Y-73038394D01*
X157981525Y-73041556D01*
X157981908Y-73043399D01*
X157982164Y-73044016D01*
X157982047Y-73044064D01*
X157995761Y-73109960D01*
X157981525Y-73158444D01*
X157979835Y-73161605D01*
X157910067Y-73330041D01*
X157910065Y-73330047D01*
X157874500Y-73508843D01*
X157874500Y-73508846D01*
X157874500Y-73691154D01*
X157874500Y-73691156D01*
X157874499Y-73691156D01*
X157910065Y-73869952D01*
X157910067Y-73869958D01*
X157979835Y-74038394D01*
X157981525Y-74041556D01*
X157981908Y-74043399D01*
X157982164Y-74044016D01*
X157982047Y-74044064D01*
X157995761Y-74109960D01*
X157981525Y-74158444D01*
X157979835Y-74161605D01*
X157910067Y-74330041D01*
X157910065Y-74330047D01*
X157874500Y-74508843D01*
X157874500Y-74508846D01*
X157874500Y-74691154D01*
X157874500Y-74691156D01*
X157874499Y-74691156D01*
X157910065Y-74869952D01*
X157910067Y-74869958D01*
X157979835Y-75038394D01*
X157981525Y-75041556D01*
X157981908Y-75043399D01*
X157982164Y-75044016D01*
X157982047Y-75044064D01*
X157995761Y-75109960D01*
X157981525Y-75158444D01*
X157979835Y-75161605D01*
X157910067Y-75330041D01*
X157910065Y-75330047D01*
X157874500Y-75508843D01*
X157874500Y-75508846D01*
X157874500Y-75691154D01*
X157874500Y-75691156D01*
X157874499Y-75691156D01*
X157910065Y-75869952D01*
X157910067Y-75869958D01*
X157979835Y-76038394D01*
X157981525Y-76041556D01*
X157981908Y-76043399D01*
X157982164Y-76044016D01*
X157982047Y-76044064D01*
X157995761Y-76109960D01*
X157981525Y-76158444D01*
X157979835Y-76161605D01*
X157910067Y-76330041D01*
X157910065Y-76330047D01*
X157874500Y-76508843D01*
X157874500Y-76508846D01*
X157874500Y-76691154D01*
X157874500Y-76691156D01*
X157874499Y-76691156D01*
X157910065Y-76869952D01*
X157910067Y-76869958D01*
X157979835Y-77038394D01*
X157981525Y-77041556D01*
X157981908Y-77043399D01*
X157982164Y-77044016D01*
X157982047Y-77044064D01*
X157995761Y-77109960D01*
X157981525Y-77158444D01*
X157979835Y-77161605D01*
X157910067Y-77330041D01*
X157910065Y-77330047D01*
X157874500Y-77508843D01*
X157874500Y-77508846D01*
X157874500Y-77691154D01*
X157874500Y-77691156D01*
X157874499Y-77691156D01*
X157910065Y-77869952D01*
X157910068Y-77869962D01*
X157914826Y-77881448D01*
X157922295Y-77950917D01*
X157916447Y-77972233D01*
X157880908Y-78067517D01*
X157874501Y-78127116D01*
X157874501Y-78127123D01*
X157874500Y-78127135D01*
X157874500Y-79072870D01*
X157874501Y-79072876D01*
X157880908Y-79132483D01*
X157931202Y-79267328D01*
X157931206Y-79267335D01*
X158017452Y-79382544D01*
X158017455Y-79382547D01*
X158132664Y-79468793D01*
X158132671Y-79468797D01*
X158267517Y-79519091D01*
X158267516Y-79519091D01*
X158274444Y-79519835D01*
X158327127Y-79525500D01*
X159272872Y-79525499D01*
X159332483Y-79519091D01*
X159467331Y-79468796D01*
X159582546Y-79382546D01*
X159668796Y-79267331D01*
X159719091Y-79132483D01*
X159725500Y-79072873D01*
X159725499Y-78127128D01*
X159719091Y-78067517D01*
X159683551Y-77972231D01*
X159678568Y-77902542D01*
X159685173Y-77881447D01*
X159689933Y-77869958D01*
X159706095Y-77788709D01*
X159725500Y-77691156D01*
X159725500Y-77508843D01*
X159689934Y-77330047D01*
X159689933Y-77330046D01*
X159689933Y-77330042D01*
X159689931Y-77330037D01*
X159620169Y-77161615D01*
X159618482Y-77158459D01*
X159618097Y-77156613D01*
X159617836Y-77155982D01*
X159617955Y-77155932D01*
X159604236Y-77090057D01*
X159618482Y-77041541D01*
X159620163Y-77038394D01*
X159620167Y-77038389D01*
X159689933Y-76869958D01*
X159707605Y-76781118D01*
X159725500Y-76691156D01*
X159725500Y-76508843D01*
X159689934Y-76330047D01*
X159689933Y-76330046D01*
X159689933Y-76330042D01*
X159649940Y-76233489D01*
X159620169Y-76161615D01*
X159618482Y-76158459D01*
X159618097Y-76156613D01*
X159617836Y-76155982D01*
X159617955Y-76155932D01*
X159604236Y-76090057D01*
X159618482Y-76041541D01*
X159620163Y-76038394D01*
X159620167Y-76038389D01*
X159689933Y-75869958D01*
X159701572Y-75811445D01*
X159725500Y-75691156D01*
X159725500Y-75508843D01*
X159689934Y-75330047D01*
X159689933Y-75330046D01*
X159689933Y-75330042D01*
X159625710Y-75174992D01*
X159620169Y-75161615D01*
X159618482Y-75158459D01*
X159618097Y-75156613D01*
X159617836Y-75155982D01*
X159617955Y-75155932D01*
X159604236Y-75090057D01*
X159618482Y-75041541D01*
X159620163Y-75038394D01*
X159620167Y-75038389D01*
X159689933Y-74869958D01*
X159712532Y-74756348D01*
X159725500Y-74691156D01*
X159725500Y-74508843D01*
X159689934Y-74330047D01*
X159689933Y-74330046D01*
X159689933Y-74330042D01*
X159620167Y-74161611D01*
X159620166Y-74161609D01*
X159618482Y-74158459D01*
X159618097Y-74156613D01*
X159617836Y-74155982D01*
X159617955Y-74155932D01*
X159604236Y-74090057D01*
X159618482Y-74041541D01*
X159620163Y-74038394D01*
X159620167Y-74038389D01*
X159689933Y-73869958D01*
X159725500Y-73691154D01*
X159725500Y-73508846D01*
X159725500Y-73508843D01*
X159689934Y-73330047D01*
X159689933Y-73330046D01*
X159689933Y-73330042D01*
X159663026Y-73265083D01*
X159620169Y-73161615D01*
X159618482Y-73158459D01*
X159618097Y-73156613D01*
X159617836Y-73155982D01*
X159617955Y-73155932D01*
X159604236Y-73090057D01*
X159618482Y-73041541D01*
X159620163Y-73038394D01*
X159620167Y-73038389D01*
X159689933Y-72869958D01*
X159725500Y-72691154D01*
X159725500Y-72508846D01*
X159725500Y-72508843D01*
X159689934Y-72330047D01*
X159689933Y-72330046D01*
X159689933Y-72330042D01*
X159620167Y-72161611D01*
X159620166Y-72161609D01*
X159618482Y-72158459D01*
X159618097Y-72156613D01*
X159617836Y-72155982D01*
X159617955Y-72155932D01*
X159604236Y-72090057D01*
X159618482Y-72041541D01*
X159620163Y-72038394D01*
X159620167Y-72038389D01*
X159689933Y-71869958D01*
X159701572Y-71811445D01*
X159725500Y-71691156D01*
X159725500Y-71508843D01*
X159689934Y-71330047D01*
X159689933Y-71330046D01*
X159689933Y-71330042D01*
X159620167Y-71161611D01*
X159620166Y-71161609D01*
X159618482Y-71158459D01*
X159618097Y-71156613D01*
X159617836Y-71155982D01*
X159617955Y-71155932D01*
X159604236Y-71090057D01*
X159618482Y-71041541D01*
X159620163Y-71038394D01*
X159620167Y-71038389D01*
X159689933Y-70869958D01*
X159719575Y-70720942D01*
X159725500Y-70691156D01*
X159725500Y-70508843D01*
X159689934Y-70330047D01*
X159689933Y-70330046D01*
X159689933Y-70330042D01*
X159620167Y-70161611D01*
X159620166Y-70161609D01*
X159618482Y-70158459D01*
X159618097Y-70156613D01*
X159617836Y-70155982D01*
X159617955Y-70155932D01*
X159604236Y-70090057D01*
X159618482Y-70041541D01*
X159620163Y-70038394D01*
X159620167Y-70038389D01*
X159689933Y-69869958D01*
X159701572Y-69811445D01*
X159725500Y-69691156D01*
X159725500Y-69508843D01*
X159689934Y-69330047D01*
X159689933Y-69330046D01*
X159689933Y-69330042D01*
X159689931Y-69330037D01*
X159620168Y-69161612D01*
X159620166Y-69161608D01*
X159518886Y-69010032D01*
X159518880Y-69010024D01*
X159389975Y-68881119D01*
X159389967Y-68881113D01*
X159238391Y-68779833D01*
X159238387Y-68779831D01*
X159069962Y-68710068D01*
X159069952Y-68710065D01*
X158891156Y-68674500D01*
X158891154Y-68674500D01*
X158708846Y-68674500D01*
X158708844Y-68674500D01*
X158530047Y-68710065D01*
X158530037Y-68710068D01*
X158361612Y-68779831D01*
X158361608Y-68779833D01*
X158210032Y-68881113D01*
X158210024Y-68881119D01*
X158081119Y-69010024D01*
X158081113Y-69010032D01*
X157979833Y-69161608D01*
X157979831Y-69161612D01*
X157910068Y-69330037D01*
X157910065Y-69330047D01*
X157874500Y-69508843D01*
X157874500Y-69508846D01*
X157874500Y-69691154D01*
X157874500Y-69691156D01*
X157874499Y-69691156D01*
X151740392Y-69691156D01*
X151668716Y-69619480D01*
X151668715Y-69619479D01*
X151664385Y-69615149D01*
X151664374Y-69615139D01*
X146734574Y-64685339D01*
X146701089Y-64624016D01*
X146700638Y-64621849D01*
X146676245Y-64499223D01*
X146669737Y-64466503D01*
X146667307Y-64460637D01*
X146609397Y-64320827D01*
X146609390Y-64320814D01*
X146521789Y-64189711D01*
X146521786Y-64189707D01*
X146410292Y-64078213D01*
X146410288Y-64078210D01*
X146279185Y-63990609D01*
X146279172Y-63990602D01*
X146133501Y-63930264D01*
X146133489Y-63930261D01*
X145978845Y-63899500D01*
X145978842Y-63899500D01*
X145821158Y-63899500D01*
X145821155Y-63899500D01*
X145666510Y-63930261D01*
X145666498Y-63930264D01*
X145520827Y-63990602D01*
X145520814Y-63990609D01*
X145389711Y-64078210D01*
X145389707Y-64078213D01*
X145278213Y-64189707D01*
X145278210Y-64189711D01*
X145190609Y-64320814D01*
X145190602Y-64320827D01*
X145130264Y-64466498D01*
X145130261Y-64466508D01*
X145103769Y-64599692D01*
X145071384Y-64661603D01*
X145010668Y-64696177D01*
X144982152Y-64699500D01*
X144821155Y-64699500D01*
X144666510Y-64730261D01*
X144666498Y-64730264D01*
X144520827Y-64790602D01*
X144520814Y-64790609D01*
X144389711Y-64878210D01*
X144389707Y-64878213D01*
X144278213Y-64989707D01*
X144278210Y-64989711D01*
X144190609Y-65120814D01*
X144190602Y-65120827D01*
X144130264Y-65266498D01*
X144130261Y-65266510D01*
X144099500Y-65421153D01*
X144099500Y-65502043D01*
X144079815Y-65569082D01*
X144027011Y-65614837D01*
X143999694Y-65623660D01*
X143966506Y-65630262D01*
X143966498Y-65630264D01*
X143820827Y-65690602D01*
X143820814Y-65690609D01*
X143689711Y-65778210D01*
X143689707Y-65778213D01*
X143578213Y-65889707D01*
X143578210Y-65889711D01*
X143490609Y-66020814D01*
X143490602Y-66020827D01*
X143430264Y-66166498D01*
X143430261Y-66166510D01*
X143399500Y-66321153D01*
X107400500Y-66321153D01*
X107400500Y-56500097D01*
X107420185Y-56433058D01*
X107436819Y-56412416D01*
X109412417Y-54436819D01*
X109473740Y-54403334D01*
X109500098Y-54400500D01*
X113020234Y-54400500D01*
X113087273Y-54420185D01*
X113089125Y-54421398D01*
X113220814Y-54509390D01*
X113220827Y-54509397D01*
X113366498Y-54569735D01*
X113366503Y-54569737D01*
X113521153Y-54600499D01*
X113521156Y-54600500D01*
X113521158Y-54600500D01*
X113678844Y-54600500D01*
X113678845Y-54600499D01*
X113833497Y-54569737D01*
X113946166Y-54523067D01*
X113979172Y-54509397D01*
X113979172Y-54509396D01*
X113979179Y-54509394D01*
X114110289Y-54421789D01*
X114221789Y-54310289D01*
X114309394Y-54179179D01*
X114369737Y-54033497D01*
X114400500Y-53878842D01*
X114400500Y-53721158D01*
X114400500Y-53721155D01*
X114400499Y-53721153D01*
X114369737Y-53566503D01*
X114356881Y-53535465D01*
X114309397Y-53420827D01*
X114309390Y-53420814D01*
X114221789Y-53289711D01*
X114221786Y-53289707D01*
X114110292Y-53178213D01*
X114110288Y-53178210D01*
X113979185Y-53090609D01*
X113979172Y-53090602D01*
X113833501Y-53030264D01*
X113833489Y-53030261D01*
X113678845Y-52999500D01*
X113678842Y-52999500D01*
X113521158Y-52999500D01*
X113521155Y-52999500D01*
X113366510Y-53030261D01*
X113366498Y-53030264D01*
X113220827Y-53090602D01*
X113220814Y-53090609D01*
X113089125Y-53178602D01*
X113022447Y-53199480D01*
X113020234Y-53199500D01*
X109286670Y-53199500D01*
X109286654Y-53199499D01*
X109279058Y-53199499D01*
X109120943Y-53199499D01*
X109044579Y-53219961D01*
X108968214Y-53240423D01*
X108968209Y-53240426D01*
X108831290Y-53319475D01*
X108831282Y-53319481D01*
X106319481Y-55831282D01*
X106319480Y-55831284D01*
X106269360Y-55918095D01*
X106240423Y-55968215D01*
X106205220Y-56099589D01*
X106203356Y-56104707D01*
X106185725Y-56128634D01*
X106170259Y-56154008D01*
X106165227Y-56156451D01*
X106161909Y-56160956D01*
X106134138Y-56171553D01*
X106107412Y-56184536D01*
X106101858Y-56183872D01*
X106096631Y-56185867D01*
X106067543Y-56179769D01*
X106038036Y-56176241D01*
X106032347Y-56172390D01*
X106028247Y-56171531D01*
X106022030Y-56165407D01*
X105999169Y-56149934D01*
X104487590Y-54638355D01*
X104487588Y-54638352D01*
X104368717Y-54519481D01*
X104368716Y-54519480D01*
X104281904Y-54469360D01*
X104281904Y-54469359D01*
X104281900Y-54469358D01*
X104231785Y-54440423D01*
X104079057Y-54399499D01*
X103920943Y-54399499D01*
X103913347Y-54399499D01*
X103913331Y-54399500D01*
X103796305Y-54399500D01*
X103729266Y-54379815D01*
X103683511Y-54327011D01*
X103673567Y-54257853D01*
X103678374Y-54237181D01*
X103684319Y-54218886D01*
X103708477Y-54144534D01*
X103740500Y-53942352D01*
X103740500Y-53737648D01*
X103713392Y-53566498D01*
X103708477Y-53535465D01*
X103671266Y-53420943D01*
X103645220Y-53340781D01*
X103645218Y-53340778D01*
X103645218Y-53340776D01*
X103594085Y-53240423D01*
X103552287Y-53158390D01*
X103532595Y-53131286D01*
X103431971Y-52992786D01*
X103287213Y-52848028D01*
X103121614Y-52727715D01*
X103115006Y-52724348D01*
X103028917Y-52680483D01*
X102978123Y-52632511D01*
X102961328Y-52564690D01*
X102983865Y-52498555D01*
X103028917Y-52459516D01*
X103121610Y-52412287D01*
X103142770Y-52396913D01*
X103287213Y-52291971D01*
X103287215Y-52291968D01*
X103287219Y-52291966D01*
X103431966Y-52147219D01*
X103431968Y-52147215D01*
X103431971Y-52147213D01*
X103502236Y-52050500D01*
X103552287Y-51981610D01*
X103645220Y-51799219D01*
X103708477Y-51604534D01*
X103740500Y-51402352D01*
X103740500Y-51197648D01*
X103708477Y-50995466D01*
X103645220Y-50800781D01*
X103645218Y-50800778D01*
X103645218Y-50800776D01*
X103593461Y-50699198D01*
X103552287Y-50618390D01*
X103544556Y-50607749D01*
X103431971Y-50452786D01*
X103287213Y-50308028D01*
X103121614Y-50187715D01*
X103115006Y-50184348D01*
X103028917Y-50140483D01*
X102978123Y-50092511D01*
X102961328Y-50024690D01*
X102983865Y-49958555D01*
X103028917Y-49919516D01*
X103121610Y-49872287D01*
X103142770Y-49856913D01*
X103287213Y-49751971D01*
X103287215Y-49751968D01*
X103287219Y-49751966D01*
X103431966Y-49607219D01*
X103431968Y-49607215D01*
X103431971Y-49607213D01*
X103484732Y-49534590D01*
X103552287Y-49441610D01*
X103645220Y-49259219D01*
X103708477Y-49064534D01*
X103740500Y-48862352D01*
X103740500Y-48657648D01*
X103708477Y-48455466D01*
X103645220Y-48260781D01*
X103645218Y-48260778D01*
X103645218Y-48260776D01*
X103611503Y-48194607D01*
X103552287Y-48078390D01*
X103501976Y-48009142D01*
X103431971Y-47912786D01*
X103287213Y-47768028D01*
X103121614Y-47647715D01*
X103115006Y-47644348D01*
X103028917Y-47600483D01*
X102978123Y-47552511D01*
X102961328Y-47484690D01*
X102983865Y-47418555D01*
X103028917Y-47379516D01*
X103121610Y-47332287D01*
X103142770Y-47316913D01*
X103287213Y-47211971D01*
X103287215Y-47211968D01*
X103287219Y-47211966D01*
X103431966Y-47067219D01*
X103431968Y-47067215D01*
X103431971Y-47067213D01*
X103484732Y-46994590D01*
X103552287Y-46901610D01*
X103645220Y-46719219D01*
X103708477Y-46524534D01*
X103740500Y-46322352D01*
X103740500Y-46117648D01*
X123599500Y-46117648D01*
X123599500Y-46322352D01*
X123603878Y-46349995D01*
X123631522Y-46524534D01*
X123694781Y-46719223D01*
X123746385Y-46820500D01*
X123772014Y-46870800D01*
X123787715Y-46901613D01*
X123908028Y-47067213D01*
X124052786Y-47211971D01*
X124207749Y-47324556D01*
X124218390Y-47332287D01*
X124309840Y-47378883D01*
X124311080Y-47379515D01*
X124361876Y-47427490D01*
X124378671Y-47495311D01*
X124356134Y-47561446D01*
X124311080Y-47600485D01*
X124218386Y-47647715D01*
X124052786Y-47768028D01*
X123908028Y-47912786D01*
X123787715Y-48078386D01*
X123694781Y-48260776D01*
X123631522Y-48455465D01*
X123599500Y-48657648D01*
X123599500Y-48862351D01*
X123631522Y-49064534D01*
X123694781Y-49259223D01*
X123787715Y-49441613D01*
X123908028Y-49607213D01*
X124052786Y-49751971D01*
X124207749Y-49864556D01*
X124218390Y-49872287D01*
X124309840Y-49918883D01*
X124311080Y-49919515D01*
X124361876Y-49967490D01*
X124378671Y-50035311D01*
X124356134Y-50101446D01*
X124311080Y-50140485D01*
X124218386Y-50187715D01*
X124052786Y-50308028D01*
X123908028Y-50452786D01*
X123787715Y-50618386D01*
X123694781Y-50800776D01*
X123631522Y-50995465D01*
X123599500Y-51197648D01*
X123599500Y-51402351D01*
X123631522Y-51604534D01*
X123694781Y-51799223D01*
X123731756Y-51871789D01*
X123780532Y-51967517D01*
X123787715Y-51981613D01*
X123908028Y-52147213D01*
X124052786Y-52291971D01*
X124207749Y-52404556D01*
X124218390Y-52412287D01*
X124309840Y-52458883D01*
X124311080Y-52459515D01*
X124361876Y-52507490D01*
X124378671Y-52575311D01*
X124356134Y-52641446D01*
X124311080Y-52680485D01*
X124218386Y-52727715D01*
X124052786Y-52848028D01*
X123908028Y-52992786D01*
X123787715Y-53158386D01*
X123694781Y-53340776D01*
X123631522Y-53535465D01*
X123599500Y-53737648D01*
X123599500Y-53942351D01*
X123631522Y-54144534D01*
X123694781Y-54339223D01*
X123738742Y-54425500D01*
X123786628Y-54519481D01*
X123787715Y-54521613D01*
X123908028Y-54687213D01*
X124052786Y-54831971D01*
X124187765Y-54930037D01*
X124218390Y-54952287D01*
X124309840Y-54998883D01*
X124311080Y-54999515D01*
X124361876Y-55047490D01*
X124378671Y-55115311D01*
X124356134Y-55181446D01*
X124311080Y-55220485D01*
X124218386Y-55267715D01*
X124052786Y-55388028D01*
X123908028Y-55532786D01*
X123787715Y-55698386D01*
X123694781Y-55880776D01*
X123631522Y-56075465D01*
X123599500Y-56277648D01*
X123599500Y-56482351D01*
X123631522Y-56684534D01*
X123694781Y-56879223D01*
X123787715Y-57061613D01*
X123908028Y-57227213D01*
X124052786Y-57371971D01*
X124187662Y-57469962D01*
X124218390Y-57492287D01*
X124309840Y-57538883D01*
X124311080Y-57539515D01*
X124361876Y-57587490D01*
X124378671Y-57655311D01*
X124356134Y-57721446D01*
X124311080Y-57760485D01*
X124218386Y-57807715D01*
X124052786Y-57928028D01*
X123908028Y-58072786D01*
X123787715Y-58238386D01*
X123694781Y-58420776D01*
X123631522Y-58615465D01*
X123599500Y-58817648D01*
X123599500Y-59022351D01*
X123631522Y-59224534D01*
X123694781Y-59419223D01*
X123787715Y-59601613D01*
X123908028Y-59767213D01*
X124052786Y-59911971D01*
X124207749Y-60024556D01*
X124218390Y-60032287D01*
X124290424Y-60068990D01*
X124311629Y-60079795D01*
X124362425Y-60127770D01*
X124379220Y-60195591D01*
X124356682Y-60261726D01*
X124311629Y-60300765D01*
X124218650Y-60348140D01*
X124053105Y-60468417D01*
X124053104Y-60468417D01*
X123908417Y-60613104D01*
X123908417Y-60613105D01*
X123788140Y-60778650D01*
X123695244Y-60960970D01*
X123632009Y-61155586D01*
X123623391Y-61210000D01*
X124724722Y-61210000D01*
X124680667Y-61286306D01*
X124650000Y-61400756D01*
X124650000Y-61519244D01*
X124680667Y-61633694D01*
X124724722Y-61710000D01*
X123623391Y-61710000D01*
X123632009Y-61764413D01*
X123695244Y-61959029D01*
X123788140Y-62141349D01*
X123908417Y-62306894D01*
X123908417Y-62306895D01*
X123939778Y-62338256D01*
X123973263Y-62399579D01*
X123968279Y-62469271D01*
X123926407Y-62525204D01*
X123895431Y-62542118D01*
X123857676Y-62556200D01*
X123857664Y-62556206D01*
X123742455Y-62642452D01*
X123742452Y-62642455D01*
X123656206Y-62757664D01*
X123656202Y-62757671D01*
X123605908Y-62892517D01*
X123599501Y-62952116D01*
X123599501Y-62952123D01*
X123599500Y-62952135D01*
X123599500Y-65047870D01*
X123599501Y-65047876D01*
X123605908Y-65107483D01*
X123656202Y-65242328D01*
X123656206Y-65242335D01*
X123742452Y-65357544D01*
X123742455Y-65357547D01*
X123857664Y-65443793D01*
X123857671Y-65443797D01*
X123992517Y-65494091D01*
X123992516Y-65494091D01*
X123999444Y-65494835D01*
X124052127Y-65500500D01*
X126147872Y-65500499D01*
X126207483Y-65494091D01*
X126342331Y-65443796D01*
X126457546Y-65357546D01*
X126543796Y-65242331D01*
X126594091Y-65107483D01*
X126600500Y-65047873D01*
X126600499Y-62952128D01*
X126594091Y-62892517D01*
X126592374Y-62887914D01*
X126543797Y-62757671D01*
X126543793Y-62757664D01*
X126457547Y-62642455D01*
X126457544Y-62642452D01*
X126342335Y-62556206D01*
X126342330Y-62556203D01*
X126304568Y-62542119D01*
X126248635Y-62500247D01*
X126224218Y-62434783D01*
X126239070Y-62366510D01*
X126260222Y-62338254D01*
X126291585Y-62306891D01*
X126411859Y-62141349D01*
X126504755Y-61959029D01*
X126567990Y-61764413D01*
X126576609Y-61710000D01*
X125475278Y-61710000D01*
X125519333Y-61633694D01*
X125550000Y-61519244D01*
X125550000Y-61400756D01*
X125519333Y-61286306D01*
X125475278Y-61210000D01*
X126576609Y-61210000D01*
X126567990Y-61155586D01*
X126504755Y-60960970D01*
X126411859Y-60778650D01*
X126291582Y-60613105D01*
X126291582Y-60613104D01*
X126146895Y-60468417D01*
X125981349Y-60348140D01*
X125888370Y-60300765D01*
X125837574Y-60252790D01*
X125820779Y-60184969D01*
X125843316Y-60118835D01*
X125888370Y-60079795D01*
X125888920Y-60079515D01*
X125981610Y-60032287D01*
X126002770Y-60016913D01*
X126147213Y-59911971D01*
X126147215Y-59911968D01*
X126147219Y-59911966D01*
X126291966Y-59767219D01*
X126291968Y-59767215D01*
X126291971Y-59767213D01*
X126348027Y-59690057D01*
X126412287Y-59601610D01*
X126505220Y-59419219D01*
X126568477Y-59224534D01*
X126600500Y-59022352D01*
X126600500Y-58817648D01*
X126591625Y-58761615D01*
X126568477Y-58615465D01*
X126521200Y-58469962D01*
X126505220Y-58420781D01*
X126505218Y-58420778D01*
X126505218Y-58420776D01*
X126439876Y-58292537D01*
X126412287Y-58238390D01*
X126397420Y-58217927D01*
X126291971Y-58072786D01*
X126147213Y-57928028D01*
X125981614Y-57807715D01*
X125920349Y-57776499D01*
X125888917Y-57760483D01*
X125838123Y-57712511D01*
X125821328Y-57644690D01*
X125843865Y-57578555D01*
X125888917Y-57539516D01*
X125981610Y-57492287D01*
X126012338Y-57469962D01*
X126147213Y-57371971D01*
X126147215Y-57371968D01*
X126147219Y-57371966D01*
X126291966Y-57227219D01*
X126291968Y-57227215D01*
X126291971Y-57227213D01*
X126386869Y-57096595D01*
X126412287Y-57061610D01*
X126505220Y-56879219D01*
X126568477Y-56684534D01*
X126600500Y-56482352D01*
X126600500Y-56277648D01*
X126584997Y-56179769D01*
X126568477Y-56075465D01*
X126521226Y-55930042D01*
X126505220Y-55880781D01*
X126505218Y-55880778D01*
X126505218Y-55880776D01*
X126459319Y-55790696D01*
X126412287Y-55698390D01*
X126381696Y-55656285D01*
X126291971Y-55532786D01*
X126147213Y-55388028D01*
X125981614Y-55267715D01*
X125975006Y-55264348D01*
X125888917Y-55220483D01*
X125838123Y-55172511D01*
X125821328Y-55104690D01*
X125843865Y-55038555D01*
X125888917Y-54999516D01*
X125981610Y-54952287D01*
X126012235Y-54930037D01*
X126147213Y-54831971D01*
X126147215Y-54831968D01*
X126147219Y-54831966D01*
X126291966Y-54687219D01*
X126291968Y-54687215D01*
X126291971Y-54687213D01*
X126344732Y-54614590D01*
X126412287Y-54521610D01*
X126505220Y-54339219D01*
X126520837Y-54291156D01*
X157874499Y-54291156D01*
X157910065Y-54469952D01*
X157910067Y-54469958D01*
X157979835Y-54638394D01*
X157981525Y-54641556D01*
X157981908Y-54643399D01*
X157982164Y-54644016D01*
X157982047Y-54644064D01*
X157995761Y-54709960D01*
X157981525Y-54758444D01*
X157979835Y-54761605D01*
X157910067Y-54930041D01*
X157910065Y-54930047D01*
X157874500Y-55108843D01*
X157874500Y-55108846D01*
X157874500Y-55291154D01*
X157874500Y-55291156D01*
X157874499Y-55291156D01*
X157910065Y-55469952D01*
X157910067Y-55469958D01*
X157979835Y-55638394D01*
X157981525Y-55641556D01*
X157981908Y-55643399D01*
X157982164Y-55644016D01*
X157982047Y-55644064D01*
X157995761Y-55709960D01*
X157981525Y-55758444D01*
X157979835Y-55761605D01*
X157910067Y-55930041D01*
X157910065Y-55930047D01*
X157874500Y-56108843D01*
X157874500Y-56108846D01*
X157874500Y-56291154D01*
X157874500Y-56291156D01*
X157874499Y-56291156D01*
X157910065Y-56469952D01*
X157910067Y-56469958D01*
X157979835Y-56638394D01*
X157981525Y-56641556D01*
X157981908Y-56643399D01*
X157982164Y-56644016D01*
X157982047Y-56644064D01*
X157995761Y-56709960D01*
X157981525Y-56758444D01*
X157979835Y-56761605D01*
X157910067Y-56930041D01*
X157910065Y-56930047D01*
X157874500Y-57108843D01*
X157874500Y-57108846D01*
X157874500Y-57291154D01*
X157874500Y-57291156D01*
X157874499Y-57291156D01*
X157910065Y-57469952D01*
X157910067Y-57469958D01*
X157979835Y-57638394D01*
X157981525Y-57641556D01*
X157981908Y-57643399D01*
X157982164Y-57644016D01*
X157982047Y-57644064D01*
X157995761Y-57709960D01*
X157981525Y-57758444D01*
X157979835Y-57761605D01*
X157910067Y-57930041D01*
X157910065Y-57930047D01*
X157874500Y-58108843D01*
X157874500Y-58108846D01*
X157874500Y-58291154D01*
X157874500Y-58291156D01*
X157874499Y-58291156D01*
X157910065Y-58469952D01*
X157910067Y-58469958D01*
X157979835Y-58638394D01*
X157981525Y-58641556D01*
X157981908Y-58643399D01*
X157982164Y-58644016D01*
X157982047Y-58644064D01*
X157995761Y-58709960D01*
X157981525Y-58758444D01*
X157979835Y-58761605D01*
X157910067Y-58930041D01*
X157910065Y-58930047D01*
X157874500Y-59108843D01*
X157874500Y-59108846D01*
X157874500Y-59291154D01*
X157874500Y-59291156D01*
X157874499Y-59291156D01*
X157910065Y-59469952D01*
X157910067Y-59469958D01*
X157979835Y-59638394D01*
X157981525Y-59641556D01*
X157981908Y-59643399D01*
X157982164Y-59644016D01*
X157982047Y-59644064D01*
X157995761Y-59709960D01*
X157981525Y-59758444D01*
X157979835Y-59761605D01*
X157910067Y-59930041D01*
X157910065Y-59930047D01*
X157874500Y-60108843D01*
X157874500Y-60108846D01*
X157874500Y-60291154D01*
X157874500Y-60291156D01*
X157874499Y-60291156D01*
X157910065Y-60469952D01*
X157910067Y-60469958D01*
X157979835Y-60638394D01*
X157981525Y-60641556D01*
X157981908Y-60643399D01*
X157982164Y-60644016D01*
X157982047Y-60644064D01*
X157995761Y-60709960D01*
X157981525Y-60758444D01*
X157979835Y-60761605D01*
X157910067Y-60930041D01*
X157910065Y-60930047D01*
X157874500Y-61108843D01*
X157874500Y-61108846D01*
X157874500Y-61291154D01*
X157874500Y-61291156D01*
X157874499Y-61291156D01*
X157910065Y-61469952D01*
X157910067Y-61469958D01*
X157979835Y-61638394D01*
X157981525Y-61641556D01*
X157981908Y-61643399D01*
X157982164Y-61644016D01*
X157982047Y-61644064D01*
X157995761Y-61709960D01*
X157981525Y-61758444D01*
X157979835Y-61761605D01*
X157910067Y-61930041D01*
X157910065Y-61930047D01*
X157874500Y-62108843D01*
X157874500Y-62108846D01*
X157874500Y-62291154D01*
X157874500Y-62291156D01*
X157874499Y-62291156D01*
X157910065Y-62469952D01*
X157910068Y-62469962D01*
X157914826Y-62481448D01*
X157922295Y-62550917D01*
X157916447Y-62572233D01*
X157880908Y-62667517D01*
X157874762Y-62724690D01*
X157874501Y-62727123D01*
X157874500Y-62727135D01*
X157874500Y-63672870D01*
X157874501Y-63672876D01*
X157880908Y-63732483D01*
X157931202Y-63867328D01*
X157931206Y-63867335D01*
X158017452Y-63982544D01*
X158017455Y-63982547D01*
X158132664Y-64068793D01*
X158132671Y-64068797D01*
X158267517Y-64119091D01*
X158267516Y-64119091D01*
X158274444Y-64119835D01*
X158327127Y-64125500D01*
X159272872Y-64125499D01*
X159332483Y-64119091D01*
X159467331Y-64068796D01*
X159582546Y-63982546D01*
X159668796Y-63867331D01*
X159719091Y-63732483D01*
X159725500Y-63672873D01*
X159725499Y-62727128D01*
X159719091Y-62667517D01*
X159683551Y-62572231D01*
X159678568Y-62502542D01*
X159685173Y-62481447D01*
X159689933Y-62469958D01*
X159703933Y-62399579D01*
X159725500Y-62291156D01*
X159725500Y-62108843D01*
X159689934Y-61930047D01*
X159689933Y-61930046D01*
X159689933Y-61930042D01*
X159620167Y-61761611D01*
X159620166Y-61761609D01*
X159618482Y-61758459D01*
X159618097Y-61756613D01*
X159617836Y-61755982D01*
X159617955Y-61755932D01*
X159604236Y-61690057D01*
X159618482Y-61641541D01*
X159620163Y-61638394D01*
X159620167Y-61638389D01*
X159689933Y-61469958D01*
X159725500Y-61291154D01*
X159725500Y-61108846D01*
X159725500Y-61108843D01*
X159689934Y-60930047D01*
X159689933Y-60930046D01*
X159689933Y-60930042D01*
X159627117Y-60778390D01*
X159620169Y-60761615D01*
X159618482Y-60758459D01*
X159618097Y-60756613D01*
X159617836Y-60755982D01*
X159617955Y-60755932D01*
X159604236Y-60690057D01*
X159618482Y-60641541D01*
X159620163Y-60638394D01*
X159620167Y-60638389D01*
X159689933Y-60469958D01*
X159718668Y-60325500D01*
X159725500Y-60291156D01*
X159725500Y-60108843D01*
X159689934Y-59930047D01*
X159689933Y-59930046D01*
X159689933Y-59930042D01*
X159675142Y-59894334D01*
X159620169Y-59761615D01*
X159618482Y-59758459D01*
X159618097Y-59756613D01*
X159617836Y-59755982D01*
X159617955Y-59755932D01*
X159604236Y-59690057D01*
X159618482Y-59641541D01*
X159620163Y-59638394D01*
X159620167Y-59638389D01*
X159689933Y-59469958D01*
X159725500Y-59291154D01*
X159725500Y-59108846D01*
X159725500Y-59108843D01*
X159689934Y-58930047D01*
X159689933Y-58930046D01*
X159689933Y-58930042D01*
X159671053Y-58884461D01*
X159620169Y-58761615D01*
X159618482Y-58758459D01*
X159618097Y-58756613D01*
X159617836Y-58755982D01*
X159617955Y-58755932D01*
X159604236Y-58690057D01*
X159618482Y-58641541D01*
X159620163Y-58638394D01*
X159620167Y-58638389D01*
X159689933Y-58469958D01*
X159725225Y-58292537D01*
X159725500Y-58291156D01*
X159725500Y-58108843D01*
X159689934Y-57930047D01*
X159689933Y-57930046D01*
X159689933Y-57930042D01*
X159689099Y-57928028D01*
X159620169Y-57761615D01*
X159618482Y-57758459D01*
X159618097Y-57756613D01*
X159617836Y-57755982D01*
X159617955Y-57755932D01*
X159604236Y-57690057D01*
X159618482Y-57641541D01*
X159620163Y-57638394D01*
X159620167Y-57638389D01*
X159689933Y-57469958D01*
X159707989Y-57379185D01*
X159725500Y-57291156D01*
X159725500Y-57108843D01*
X159689934Y-56930047D01*
X159689933Y-56930046D01*
X159689933Y-56930042D01*
X159687638Y-56924501D01*
X159620169Y-56761615D01*
X159618482Y-56758459D01*
X159618097Y-56756613D01*
X159617836Y-56755982D01*
X159617955Y-56755932D01*
X159604236Y-56690057D01*
X159618482Y-56641541D01*
X159620163Y-56638394D01*
X159620167Y-56638389D01*
X159689933Y-56469958D01*
X159725500Y-56291154D01*
X159725500Y-56108846D01*
X159725500Y-56108843D01*
X159689934Y-55930047D01*
X159689933Y-55930046D01*
X159689933Y-55930042D01*
X159689931Y-55930037D01*
X159620169Y-55761615D01*
X159618482Y-55758459D01*
X159618097Y-55756613D01*
X159617836Y-55755982D01*
X159617955Y-55755932D01*
X159604236Y-55690057D01*
X159618482Y-55641541D01*
X159620163Y-55638394D01*
X159620167Y-55638389D01*
X159689933Y-55469958D01*
X159710933Y-55364385D01*
X159725500Y-55291156D01*
X159725500Y-55108843D01*
X159689934Y-54930047D01*
X159689933Y-54930046D01*
X159689933Y-54930042D01*
X159620167Y-54761611D01*
X159620166Y-54761609D01*
X159618482Y-54758459D01*
X159618097Y-54756613D01*
X159617836Y-54755982D01*
X159617955Y-54755932D01*
X159604236Y-54690057D01*
X159618482Y-54641541D01*
X159620163Y-54638394D01*
X159620167Y-54638389D01*
X159689933Y-54469958D01*
X159703948Y-54399499D01*
X159725500Y-54291156D01*
X159725500Y-54108843D01*
X159689934Y-53930047D01*
X159689933Y-53930046D01*
X159689933Y-53930042D01*
X159668726Y-53878844D01*
X159620168Y-53761612D01*
X159620166Y-53761608D01*
X159518886Y-53610032D01*
X159518880Y-53610024D01*
X159389975Y-53481119D01*
X159389967Y-53481113D01*
X159238391Y-53379833D01*
X159238387Y-53379831D01*
X159069962Y-53310068D01*
X159069952Y-53310065D01*
X158891156Y-53274500D01*
X158891154Y-53274500D01*
X158708846Y-53274500D01*
X158708844Y-53274500D01*
X158530047Y-53310065D01*
X158530037Y-53310068D01*
X158361612Y-53379831D01*
X158361608Y-53379833D01*
X158210032Y-53481113D01*
X158210024Y-53481119D01*
X158081119Y-53610024D01*
X158081113Y-53610032D01*
X157979833Y-53761608D01*
X157979831Y-53761612D01*
X157910068Y-53930037D01*
X157910065Y-53930047D01*
X157874500Y-54108843D01*
X157874500Y-54108846D01*
X157874500Y-54291154D01*
X157874500Y-54291156D01*
X157874499Y-54291156D01*
X126520837Y-54291156D01*
X126568477Y-54144534D01*
X126575003Y-54103334D01*
X126578167Y-54083356D01*
X126600500Y-53942351D01*
X126600500Y-53737648D01*
X126568477Y-53535465D01*
X126531266Y-53420943D01*
X126505220Y-53340781D01*
X126505218Y-53340778D01*
X126505218Y-53340776D01*
X126454085Y-53240423D01*
X126412287Y-53158390D01*
X126392595Y-53131286D01*
X126291971Y-52992786D01*
X126147213Y-52848028D01*
X125981614Y-52727715D01*
X125975006Y-52724348D01*
X125888917Y-52680483D01*
X125838123Y-52632511D01*
X125821328Y-52564690D01*
X125843865Y-52498555D01*
X125888917Y-52459516D01*
X125981610Y-52412287D01*
X126002770Y-52396913D01*
X126147213Y-52291971D01*
X126147215Y-52291968D01*
X126147219Y-52291966D01*
X126291966Y-52147219D01*
X126291968Y-52147215D01*
X126291971Y-52147213D01*
X126362236Y-52050500D01*
X126412287Y-51981610D01*
X126505220Y-51799219D01*
X126568477Y-51604534D01*
X126600500Y-51402352D01*
X126600500Y-51197648D01*
X126568477Y-50995466D01*
X126505220Y-50800781D01*
X126505218Y-50800778D01*
X126505218Y-50800776D01*
X126453461Y-50699198D01*
X126412287Y-50618390D01*
X126404556Y-50607749D01*
X126291971Y-50452786D01*
X126147213Y-50308028D01*
X125981614Y-50187715D01*
X125975006Y-50184348D01*
X125888917Y-50140483D01*
X125838123Y-50092511D01*
X125821328Y-50024690D01*
X125843865Y-49958555D01*
X125888917Y-49919516D01*
X125981610Y-49872287D01*
X126002770Y-49856913D01*
X126147213Y-49751971D01*
X126147215Y-49751968D01*
X126147219Y-49751966D01*
X126291966Y-49607219D01*
X126291968Y-49607215D01*
X126291971Y-49607213D01*
X126412284Y-49441614D01*
X126412285Y-49441613D01*
X126412287Y-49441610D01*
X126419117Y-49428204D01*
X126467091Y-49377409D01*
X126529602Y-49360500D01*
X131059903Y-49360500D01*
X131126942Y-49380185D01*
X131147584Y-49396819D01*
X133215425Y-51464660D01*
X133248910Y-51525983D01*
X133249361Y-51528149D01*
X133280261Y-51683491D01*
X133280264Y-51683501D01*
X133340602Y-51829172D01*
X133340609Y-51829185D01*
X133428210Y-51960288D01*
X133428213Y-51960292D01*
X133539707Y-52071786D01*
X133539711Y-52071789D01*
X133670814Y-52159390D01*
X133670827Y-52159397D01*
X133816498Y-52219735D01*
X133816503Y-52219737D01*
X133971153Y-52250499D01*
X133971156Y-52250500D01*
X133971158Y-52250500D01*
X134128844Y-52250500D01*
X134128845Y-52250499D01*
X134283497Y-52219737D01*
X134429179Y-52159394D01*
X134560289Y-52071789D01*
X134560288Y-52071789D01*
X134565354Y-52068405D01*
X134566580Y-52070240D01*
X134621747Y-52046798D01*
X134660324Y-52048345D01*
X134671155Y-52050500D01*
X134671158Y-52050500D01*
X134828844Y-52050500D01*
X134828845Y-52050499D01*
X134983497Y-52019737D01*
X135129179Y-51959394D01*
X135260289Y-51871789D01*
X135371789Y-51760289D01*
X135459394Y-51629179D01*
X135519737Y-51483497D01*
X135550500Y-51328842D01*
X135550500Y-51171158D01*
X135550500Y-51171155D01*
X135550499Y-51171153D01*
X135519738Y-51016510D01*
X135519737Y-51016503D01*
X135511023Y-50995465D01*
X135459397Y-50870827D01*
X135459390Y-50870814D01*
X135371789Y-50739711D01*
X135371786Y-50739707D01*
X135354770Y-50722691D01*
X135322676Y-50667103D01*
X135309577Y-50618215D01*
X135230520Y-50481284D01*
X130607589Y-45858354D01*
X130607588Y-45858352D01*
X130488717Y-45739481D01*
X130488716Y-45739480D01*
X130387267Y-45680909D01*
X130387266Y-45680908D01*
X130351783Y-45660422D01*
X130295881Y-45645443D01*
X130199057Y-45619499D01*
X130040943Y-45619499D01*
X130033347Y-45619499D01*
X130033331Y-45619500D01*
X126529602Y-45619500D01*
X126462563Y-45599815D01*
X126419117Y-45551795D01*
X126412284Y-45538385D01*
X126291971Y-45372786D01*
X126147213Y-45228028D01*
X125981613Y-45107715D01*
X125981612Y-45107714D01*
X125981610Y-45107713D01*
X125924653Y-45078691D01*
X125799223Y-45014781D01*
X125604534Y-44951522D01*
X125429995Y-44923878D01*
X125402352Y-44919500D01*
X124797648Y-44919500D01*
X124773329Y-44923351D01*
X124595465Y-44951522D01*
X124400776Y-45014781D01*
X124218386Y-45107715D01*
X124052786Y-45228028D01*
X123908028Y-45372786D01*
X123787715Y-45538386D01*
X123694781Y-45720776D01*
X123631522Y-45915465D01*
X123607440Y-46067517D01*
X123599500Y-46117648D01*
X103740500Y-46117648D01*
X103708477Y-45915466D01*
X103645220Y-45720781D01*
X103645218Y-45720778D01*
X103645218Y-45720776D01*
X103611503Y-45654607D01*
X103552287Y-45538390D01*
X103530820Y-45508843D01*
X103431971Y-45372786D01*
X103287213Y-45228028D01*
X103121613Y-45107715D01*
X103121612Y-45107714D01*
X103121610Y-45107713D01*
X103064653Y-45078691D01*
X102939223Y-45014781D01*
X102744534Y-44951522D01*
X102569995Y-44923878D01*
X102542352Y-44919500D01*
X101937648Y-44919500D01*
X101913329Y-44923351D01*
X101735465Y-44951522D01*
X101540776Y-45014781D01*
X101358386Y-45107715D01*
X101192786Y-45228028D01*
X101048028Y-45372786D01*
X100927715Y-45538386D01*
X100834781Y-45720776D01*
X100771522Y-45915465D01*
X100747440Y-46067517D01*
X100739500Y-46117648D01*
X100739500Y-46322352D01*
X100743878Y-46349995D01*
X100771522Y-46524534D01*
X100834781Y-46719223D01*
X100886385Y-46820500D01*
X100912014Y-46870800D01*
X100927715Y-46901613D01*
X101048028Y-47067213D01*
X101192786Y-47211971D01*
X101347749Y-47324556D01*
X101358390Y-47332287D01*
X101449840Y-47378883D01*
X101451080Y-47379515D01*
X101501876Y-47427490D01*
X101518671Y-47495311D01*
X101496134Y-47561446D01*
X101451080Y-47600485D01*
X101358386Y-47647715D01*
X101192786Y-47768028D01*
X101048028Y-47912786D01*
X100927715Y-48078386D01*
X100834781Y-48260776D01*
X100771522Y-48455465D01*
X100739500Y-48657648D01*
X100739500Y-48862351D01*
X100771522Y-49064534D01*
X100834781Y-49259223D01*
X100927715Y-49441613D01*
X101048028Y-49607213D01*
X101192786Y-49751971D01*
X101347749Y-49864556D01*
X101358390Y-49872287D01*
X101449840Y-49918883D01*
X101451080Y-49919515D01*
X101501876Y-49967490D01*
X101518671Y-50035311D01*
X101496134Y-50101446D01*
X101451080Y-50140485D01*
X101358386Y-50187715D01*
X101192786Y-50308028D01*
X101048028Y-50452786D01*
X100927715Y-50618386D01*
X100834781Y-50800776D01*
X100771522Y-50995465D01*
X100739500Y-51197648D01*
X100739500Y-51402351D01*
X100771522Y-51604534D01*
X100834781Y-51799223D01*
X100871756Y-51871789D01*
X100920532Y-51967517D01*
X100927715Y-51981613D01*
X101048028Y-52147213D01*
X101192786Y-52291971D01*
X101347749Y-52404556D01*
X101358390Y-52412287D01*
X101449840Y-52458883D01*
X101451080Y-52459515D01*
X101501876Y-52507490D01*
X101518671Y-52575311D01*
X101496134Y-52641446D01*
X101451080Y-52680485D01*
X101358386Y-52727715D01*
X101192786Y-52848028D01*
X101048028Y-52992786D01*
X100927715Y-53158386D01*
X100834781Y-53340776D01*
X100771522Y-53535465D01*
X100739500Y-53737648D01*
X100739500Y-53942351D01*
X100771522Y-54144534D01*
X100801626Y-54237181D01*
X100803621Y-54307023D01*
X100767541Y-54366856D01*
X100704840Y-54397684D01*
X100683695Y-54399500D01*
X100300097Y-54399500D01*
X100233058Y-54379815D01*
X100212416Y-54363181D01*
X99436819Y-53587584D01*
X99403334Y-53526261D01*
X99400500Y-53499903D01*
X99400500Y-53420945D01*
X99400500Y-53420943D01*
X99359577Y-53268216D01*
X99307839Y-53178602D01*
X99280524Y-53131290D01*
X99280518Y-53131282D01*
X99168717Y-53019481D01*
X99168709Y-53019475D01*
X99031790Y-52940426D01*
X99031786Y-52940424D01*
X99031784Y-52940423D01*
X98879057Y-52899500D01*
X98879056Y-52899500D01*
X84674500Y-52899500D01*
X84607461Y-52879815D01*
X84561706Y-52827011D01*
X84550500Y-52775500D01*
X84550499Y-52027129D01*
X84550498Y-52027123D01*
X84550497Y-52027116D01*
X84544091Y-51967517D01*
X84541396Y-51960292D01*
X84493797Y-51832671D01*
X84493793Y-51832664D01*
X84407547Y-51717455D01*
X84407544Y-51717452D01*
X84292335Y-51631206D01*
X84292328Y-51631202D01*
X84157482Y-51580908D01*
X84157483Y-51580908D01*
X84097883Y-51574501D01*
X84097881Y-51574500D01*
X84097873Y-51574500D01*
X84097864Y-51574500D01*
X83152129Y-51574500D01*
X83152123Y-51574501D01*
X83092516Y-51580908D01*
X82957671Y-51631202D01*
X82957664Y-51631206D01*
X82842455Y-51717452D01*
X82842452Y-51717455D01*
X82756206Y-51832664D01*
X82756202Y-51832671D01*
X82705908Y-51967517D01*
X82700294Y-52019738D01*
X82699500Y-52027127D01*
X82699500Y-52459515D01*
X82699501Y-52775500D01*
X82679817Y-52842539D01*
X82627013Y-52888294D01*
X82575501Y-52899500D01*
X45029057Y-52899500D01*
X44870942Y-52899500D01*
X44718215Y-52940423D01*
X44718214Y-52940423D01*
X44718212Y-52940424D01*
X44718209Y-52940425D01*
X44668096Y-52969359D01*
X44668095Y-52969360D01*
X44627528Y-52992781D01*
X44581285Y-53019479D01*
X44581282Y-53019481D01*
X41944481Y-55656282D01*
X41944480Y-55656284D01*
X41894908Y-55742147D01*
X41894361Y-55743094D01*
X41894359Y-55743096D01*
X41865425Y-55793209D01*
X41865424Y-55793210D01*
X41865423Y-55793215D01*
X41824499Y-55945943D01*
X41824499Y-55945945D01*
X41824499Y-56114046D01*
X41824500Y-56114059D01*
X41824500Y-56800500D01*
X41804815Y-56867539D01*
X41752011Y-56913294D01*
X41700500Y-56924500D01*
X41424984Y-56924500D01*
X41322204Y-56935000D01*
X41322203Y-56935001D01*
X41155664Y-56990186D01*
X41155662Y-56990187D01*
X41006348Y-57082286D01*
X41006344Y-57082289D01*
X40882289Y-57206344D01*
X40882286Y-57206348D01*
X40790187Y-57355662D01*
X40790186Y-57355664D01*
X40735001Y-57522203D01*
X40735000Y-57522204D01*
X40724500Y-57624984D01*
X36500500Y-57624984D01*
X36500500Y-47405513D01*
X82299500Y-47405513D01*
X82299500Y-47594486D01*
X82329059Y-47781118D01*
X82387454Y-47960836D01*
X82447578Y-48078834D01*
X82473240Y-48129199D01*
X82584310Y-48282073D01*
X82717927Y-48415690D01*
X82870801Y-48526760D01*
X82950347Y-48567290D01*
X83039163Y-48612545D01*
X83039165Y-48612545D01*
X83039168Y-48612547D01*
X83135497Y-48643846D01*
X83218881Y-48670940D01*
X83405514Y-48700500D01*
X83405519Y-48700500D01*
X83594486Y-48700500D01*
X83781118Y-48670940D01*
X83822026Y-48657648D01*
X83960832Y-48612547D01*
X84129199Y-48526760D01*
X84282073Y-48415690D01*
X84415690Y-48282073D01*
X84526760Y-48129199D01*
X84612547Y-47960832D01*
X84670940Y-47781118D01*
X84692069Y-47647715D01*
X84700500Y-47594486D01*
X84700500Y-47405513D01*
X89919500Y-47405513D01*
X89919500Y-47594486D01*
X89949059Y-47781118D01*
X90007454Y-47960836D01*
X90067578Y-48078834D01*
X90093240Y-48129199D01*
X90204310Y-48282073D01*
X90337927Y-48415690D01*
X90490801Y-48526760D01*
X90570347Y-48567290D01*
X90659163Y-48612545D01*
X90659165Y-48612545D01*
X90659168Y-48612547D01*
X90755497Y-48643846D01*
X90838881Y-48670940D01*
X91025514Y-48700500D01*
X91025519Y-48700500D01*
X91214486Y-48700500D01*
X91401118Y-48670940D01*
X91442026Y-48657648D01*
X91580832Y-48612547D01*
X91749199Y-48526760D01*
X91902073Y-48415690D01*
X92035690Y-48282073D01*
X92146760Y-48129199D01*
X92232547Y-47960832D01*
X92290940Y-47781118D01*
X92312069Y-47647715D01*
X92320500Y-47594486D01*
X92320500Y-47405513D01*
X92290940Y-47218881D01*
X92262867Y-47132482D01*
X92232547Y-47039168D01*
X92232545Y-47039165D01*
X92232545Y-47039163D01*
X92162458Y-46901610D01*
X92146760Y-46870801D01*
X92035690Y-46717927D01*
X91902073Y-46584310D01*
X91749199Y-46473240D01*
X91580836Y-46387454D01*
X91401118Y-46329059D01*
X91214486Y-46299500D01*
X91214481Y-46299500D01*
X91025519Y-46299500D01*
X91025514Y-46299500D01*
X90838881Y-46329059D01*
X90659163Y-46387454D01*
X90490800Y-46473240D01*
X90420201Y-46524534D01*
X90337927Y-46584310D01*
X90337925Y-46584312D01*
X90337924Y-46584312D01*
X90204312Y-46717924D01*
X90204312Y-46717925D01*
X90204310Y-46717927D01*
X90156610Y-46783579D01*
X90093240Y-46870800D01*
X90007454Y-47039163D01*
X89949059Y-47218881D01*
X89919500Y-47405513D01*
X84700500Y-47405513D01*
X84670940Y-47218881D01*
X84642867Y-47132482D01*
X84612547Y-47039168D01*
X84612545Y-47039165D01*
X84612545Y-47039163D01*
X84542458Y-46901610D01*
X84526760Y-46870801D01*
X84415690Y-46717927D01*
X84282073Y-46584310D01*
X84129199Y-46473240D01*
X83960836Y-46387454D01*
X83781118Y-46329059D01*
X83594486Y-46299500D01*
X83594481Y-46299500D01*
X83405519Y-46299500D01*
X83405514Y-46299500D01*
X83218881Y-46329059D01*
X83039163Y-46387454D01*
X82870800Y-46473240D01*
X82800201Y-46524534D01*
X82717927Y-46584310D01*
X82717925Y-46584312D01*
X82717924Y-46584312D01*
X82584312Y-46717924D01*
X82584312Y-46717925D01*
X82584310Y-46717927D01*
X82536610Y-46783579D01*
X82473240Y-46870800D01*
X82387454Y-47039163D01*
X82329059Y-47218881D01*
X82299500Y-47405513D01*
X36500500Y-47405513D01*
X36500500Y-40074984D01*
X40724500Y-40074984D01*
X40724500Y-42075015D01*
X40735000Y-42177795D01*
X40735001Y-42177797D01*
X40748963Y-42219930D01*
X40790186Y-42344335D01*
X40790187Y-42344337D01*
X40882286Y-42493651D01*
X40882289Y-42493655D01*
X41006344Y-42617710D01*
X41006348Y-42617713D01*
X41155662Y-42709812D01*
X41155664Y-42709813D01*
X41155666Y-42709814D01*
X41322203Y-42764999D01*
X41424992Y-42775500D01*
X41424997Y-42775500D01*
X43425003Y-42775500D01*
X43425008Y-42775500D01*
X43527797Y-42764999D01*
X43694334Y-42709814D01*
X43843655Y-42617711D01*
X43967711Y-42493655D01*
X44059814Y-42344334D01*
X44114999Y-42177797D01*
X44125500Y-42075008D01*
X44125500Y-40963549D01*
X75724500Y-40963549D01*
X75724500Y-41186450D01*
X75724501Y-41186466D01*
X75753594Y-41407452D01*
X75753595Y-41407457D01*
X75753596Y-41407463D01*
X75811290Y-41622780D01*
X75811293Y-41622790D01*
X75896593Y-41828722D01*
X75896595Y-41828726D01*
X76008052Y-42021774D01*
X76008057Y-42021780D01*
X76008058Y-42021782D01*
X76143751Y-42198622D01*
X76143757Y-42198629D01*
X76301370Y-42356242D01*
X76301376Y-42356247D01*
X76478226Y-42491948D01*
X76671274Y-42603405D01*
X76877219Y-42688710D01*
X77092537Y-42746404D01*
X77313543Y-42775500D01*
X77313550Y-42775500D01*
X77536450Y-42775500D01*
X77536457Y-42775500D01*
X77757463Y-42746404D01*
X77972781Y-42688710D01*
X78178726Y-42603405D01*
X78371774Y-42491948D01*
X78484419Y-42405513D01*
X82299500Y-42405513D01*
X82299500Y-42594486D01*
X82329059Y-42781118D01*
X82387454Y-42960836D01*
X82453296Y-43090057D01*
X82473240Y-43129199D01*
X82584310Y-43282073D01*
X82717927Y-43415690D01*
X82870801Y-43526760D01*
X82950347Y-43567290D01*
X83039163Y-43612545D01*
X83039165Y-43612545D01*
X83039168Y-43612547D01*
X83135497Y-43643846D01*
X83218881Y-43670940D01*
X83405514Y-43700500D01*
X83405519Y-43700500D01*
X83594486Y-43700500D01*
X83781118Y-43670940D01*
X83782623Y-43670451D01*
X83960832Y-43612547D01*
X84129199Y-43526760D01*
X84155182Y-43507882D01*
X90465669Y-43507882D01*
X90465670Y-43507883D01*
X90491059Y-43526329D01*
X90659362Y-43612085D01*
X90838997Y-43670451D01*
X91025553Y-43700000D01*
X91214447Y-43700000D01*
X91401002Y-43670451D01*
X91580637Y-43612085D01*
X91748937Y-43526331D01*
X91774328Y-43507883D01*
X91774328Y-43507882D01*
X91120001Y-42853554D01*
X91120000Y-42853554D01*
X90465669Y-43507882D01*
X84155182Y-43507882D01*
X84282073Y-43415690D01*
X84415690Y-43282073D01*
X84526760Y-43129199D01*
X84612547Y-42960832D01*
X84670940Y-42781118D01*
X84676438Y-42746404D01*
X84700500Y-42594486D01*
X84700500Y-42405552D01*
X89920000Y-42405552D01*
X89920000Y-42594447D01*
X89949548Y-42781002D01*
X90007914Y-42960637D01*
X90093666Y-43128933D01*
X90112116Y-43154328D01*
X90766446Y-42500000D01*
X90766446Y-42499999D01*
X90720369Y-42453922D01*
X90770000Y-42453922D01*
X90770000Y-42546078D01*
X90793852Y-42635095D01*
X90839930Y-42714905D01*
X90905095Y-42780070D01*
X90984905Y-42826148D01*
X91073922Y-42850000D01*
X91166078Y-42850000D01*
X91255095Y-42826148D01*
X91334905Y-42780070D01*
X91400070Y-42714905D01*
X91446148Y-42635095D01*
X91470000Y-42546078D01*
X91470000Y-42499999D01*
X91473554Y-42499999D01*
X91473554Y-42500000D01*
X92127882Y-43154328D01*
X92127883Y-43154328D01*
X92146331Y-43128937D01*
X92232085Y-42960637D01*
X92290451Y-42781002D01*
X92320000Y-42594447D01*
X92320000Y-42405552D01*
X92290451Y-42218997D01*
X92232085Y-42039362D01*
X92146329Y-41871059D01*
X92127883Y-41845670D01*
X92127882Y-41845669D01*
X91473554Y-42499999D01*
X91470000Y-42499999D01*
X91470000Y-42453922D01*
X91446148Y-42364905D01*
X91400070Y-42285095D01*
X91334905Y-42219930D01*
X91255095Y-42173852D01*
X91166078Y-42150000D01*
X91073922Y-42150000D01*
X90984905Y-42173852D01*
X90905095Y-42219930D01*
X90839930Y-42285095D01*
X90793852Y-42364905D01*
X90770000Y-42453922D01*
X90720369Y-42453922D01*
X90112116Y-41845669D01*
X90112116Y-41845670D01*
X90093669Y-41871060D01*
X90007914Y-42039362D01*
X89949548Y-42218997D01*
X89920000Y-42405552D01*
X84700500Y-42405552D01*
X84700500Y-42405513D01*
X84670940Y-42218881D01*
X84624190Y-42075002D01*
X84612547Y-42039168D01*
X84612545Y-42039165D01*
X84612545Y-42039163D01*
X84567290Y-41950347D01*
X84526760Y-41870801D01*
X84415690Y-41717927D01*
X84282073Y-41584310D01*
X84155179Y-41492116D01*
X90465669Y-41492116D01*
X91120000Y-42146446D01*
X91120001Y-42146446D01*
X91774328Y-41492116D01*
X91748933Y-41473666D01*
X91580637Y-41387914D01*
X91401002Y-41329548D01*
X91214447Y-41300000D01*
X91025553Y-41300000D01*
X90838997Y-41329548D01*
X90659362Y-41387914D01*
X90491060Y-41473669D01*
X90465670Y-41492116D01*
X90465669Y-41492116D01*
X84155179Y-41492116D01*
X84129199Y-41473240D01*
X83960836Y-41387454D01*
X83781118Y-41329059D01*
X83594486Y-41299500D01*
X83594481Y-41299500D01*
X83405519Y-41299500D01*
X83405514Y-41299500D01*
X83218881Y-41329059D01*
X83039163Y-41387454D01*
X82870800Y-41473240D01*
X82783579Y-41536610D01*
X82717927Y-41584310D01*
X82717925Y-41584312D01*
X82717924Y-41584312D01*
X82584312Y-41717924D01*
X82584312Y-41717925D01*
X82584310Y-41717927D01*
X82536610Y-41783579D01*
X82473240Y-41870800D01*
X82387454Y-42039163D01*
X82329059Y-42218881D01*
X82299500Y-42405513D01*
X78484419Y-42405513D01*
X78548624Y-42356247D01*
X78560537Y-42344334D01*
X78591906Y-42312966D01*
X78706242Y-42198629D01*
X78706247Y-42198624D01*
X78841948Y-42021774D01*
X78953405Y-41828726D01*
X79038710Y-41622781D01*
X79096404Y-41407463D01*
X79125500Y-41186457D01*
X79125500Y-40963543D01*
X79096404Y-40742537D01*
X79038710Y-40527219D01*
X79031098Y-40508843D01*
X78953406Y-40321277D01*
X78953405Y-40321274D01*
X78841948Y-40128226D01*
X78706247Y-39951376D01*
X78706242Y-39951370D01*
X78548629Y-39793757D01*
X78548622Y-39793751D01*
X78371782Y-39658058D01*
X78371780Y-39658057D01*
X78371774Y-39658052D01*
X78178726Y-39546595D01*
X78178722Y-39546593D01*
X77972790Y-39461293D01*
X77972783Y-39461291D01*
X77972781Y-39461290D01*
X77757463Y-39403596D01*
X77757457Y-39403595D01*
X77757452Y-39403594D01*
X77536466Y-39374501D01*
X77536463Y-39374500D01*
X77536457Y-39374500D01*
X77313543Y-39374500D01*
X77313537Y-39374500D01*
X77313533Y-39374501D01*
X77092547Y-39403594D01*
X77092540Y-39403595D01*
X77092537Y-39403596D01*
X76955981Y-39440186D01*
X76877219Y-39461290D01*
X76877209Y-39461293D01*
X76671277Y-39546593D01*
X76671273Y-39546595D01*
X76478226Y-39658052D01*
X76478217Y-39658058D01*
X76301377Y-39793751D01*
X76301370Y-39793757D01*
X76143757Y-39951370D01*
X76143751Y-39951377D01*
X76008058Y-40128217D01*
X76008052Y-40128226D01*
X75896595Y-40321273D01*
X75896593Y-40321277D01*
X75811293Y-40527209D01*
X75811290Y-40527219D01*
X75767364Y-40691156D01*
X75753597Y-40742534D01*
X75753594Y-40742547D01*
X75724501Y-40963533D01*
X75724500Y-40963549D01*
X44125500Y-40963549D01*
X44125500Y-40074992D01*
X44114999Y-39972203D01*
X44059814Y-39805666D01*
X44052468Y-39793757D01*
X43967713Y-39656348D01*
X43967710Y-39656344D01*
X43843655Y-39532289D01*
X43843651Y-39532286D01*
X43694337Y-39440187D01*
X43694335Y-39440186D01*
X43583907Y-39403594D01*
X43527797Y-39385001D01*
X43527795Y-39385000D01*
X43425015Y-39374500D01*
X43425008Y-39374500D01*
X41424992Y-39374500D01*
X41424984Y-39374500D01*
X41322204Y-39385000D01*
X41322203Y-39385001D01*
X41155664Y-39440186D01*
X41155662Y-39440187D01*
X41006348Y-39532286D01*
X41006344Y-39532289D01*
X40882289Y-39656344D01*
X40882286Y-39656348D01*
X40790187Y-39805662D01*
X40790186Y-39805664D01*
X40735001Y-39972203D01*
X40735000Y-39972204D01*
X40724500Y-40074984D01*
X36500500Y-40074984D01*
X36500500Y-37691156D01*
X157874499Y-37691156D01*
X157910065Y-37869952D01*
X157910067Y-37869958D01*
X157979835Y-38038394D01*
X157981525Y-38041556D01*
X157981908Y-38043399D01*
X157982164Y-38044016D01*
X157982047Y-38044064D01*
X157995761Y-38109960D01*
X157981525Y-38158444D01*
X157979835Y-38161605D01*
X157910067Y-38330041D01*
X157910065Y-38330047D01*
X157874500Y-38508843D01*
X157874500Y-38508846D01*
X157874500Y-38691154D01*
X157874500Y-38691156D01*
X157874499Y-38691156D01*
X157910065Y-38869952D01*
X157910067Y-38869958D01*
X157979835Y-39038394D01*
X157981525Y-39041556D01*
X157981908Y-39043399D01*
X157982164Y-39044016D01*
X157982047Y-39044064D01*
X157995761Y-39109960D01*
X157981525Y-39158444D01*
X157979835Y-39161605D01*
X157910067Y-39330041D01*
X157910065Y-39330047D01*
X157874500Y-39508843D01*
X157874500Y-39508846D01*
X157874500Y-39691154D01*
X157874500Y-39691156D01*
X157874499Y-39691156D01*
X157910065Y-39869952D01*
X157910067Y-39869958D01*
X157979835Y-40038394D01*
X157981525Y-40041556D01*
X157981908Y-40043399D01*
X157982164Y-40044016D01*
X157982047Y-40044064D01*
X157995761Y-40109960D01*
X157981525Y-40158444D01*
X157979835Y-40161605D01*
X157910067Y-40330041D01*
X157910065Y-40330047D01*
X157874500Y-40508843D01*
X157874500Y-40508846D01*
X157874500Y-40691154D01*
X157874500Y-40691156D01*
X157874499Y-40691156D01*
X157910065Y-40869952D01*
X157910067Y-40869958D01*
X157979835Y-41038394D01*
X157981525Y-41041556D01*
X157981908Y-41043399D01*
X157982164Y-41044016D01*
X157982047Y-41044064D01*
X157995761Y-41109960D01*
X157981525Y-41158444D01*
X157979835Y-41161605D01*
X157910067Y-41330041D01*
X157910065Y-41330047D01*
X157874500Y-41508843D01*
X157874500Y-41508846D01*
X157874500Y-41691154D01*
X157874500Y-41691156D01*
X157874499Y-41691156D01*
X157910065Y-41869952D01*
X157910067Y-41869958D01*
X157979835Y-42038394D01*
X157981525Y-42041556D01*
X157981908Y-42043399D01*
X157982164Y-42044016D01*
X157982047Y-42044064D01*
X157995761Y-42109960D01*
X157981525Y-42158444D01*
X157979835Y-42161605D01*
X157910067Y-42330041D01*
X157910065Y-42330047D01*
X157874500Y-42508843D01*
X157874500Y-42508846D01*
X157874500Y-42691154D01*
X157874500Y-42691156D01*
X157874499Y-42691156D01*
X157910065Y-42869952D01*
X157910067Y-42869958D01*
X157979835Y-43038394D01*
X157981525Y-43041556D01*
X157981908Y-43043399D01*
X157982164Y-43044016D01*
X157982047Y-43044064D01*
X157995761Y-43109960D01*
X157981525Y-43158444D01*
X157979835Y-43161605D01*
X157910067Y-43330041D01*
X157910065Y-43330047D01*
X157874500Y-43508843D01*
X157874500Y-43508846D01*
X157874500Y-43691154D01*
X157874500Y-43691156D01*
X157874499Y-43691156D01*
X157910065Y-43869952D01*
X157910067Y-43869958D01*
X157979835Y-44038394D01*
X157981525Y-44041556D01*
X157981908Y-44043399D01*
X157982164Y-44044016D01*
X157982047Y-44044064D01*
X157995761Y-44109960D01*
X157981525Y-44158444D01*
X157979835Y-44161605D01*
X157910067Y-44330041D01*
X157910065Y-44330047D01*
X157874500Y-44508843D01*
X157874500Y-44508846D01*
X157874500Y-44691154D01*
X157874500Y-44691156D01*
X157874499Y-44691156D01*
X157910065Y-44869952D01*
X157910067Y-44869958D01*
X157979835Y-45038394D01*
X157981525Y-45041556D01*
X157981908Y-45043399D01*
X157982164Y-45044016D01*
X157982047Y-45044064D01*
X157995761Y-45109960D01*
X157981525Y-45158444D01*
X157979835Y-45161605D01*
X157910067Y-45330041D01*
X157910065Y-45330047D01*
X157874500Y-45508843D01*
X157874500Y-45508846D01*
X157874500Y-45691154D01*
X157874500Y-45691156D01*
X157874499Y-45691156D01*
X157910065Y-45869952D01*
X157910068Y-45869962D01*
X157914826Y-45881448D01*
X157922295Y-45950917D01*
X157916447Y-45972233D01*
X157880908Y-46067517D01*
X157875519Y-46117648D01*
X157874501Y-46127123D01*
X157874500Y-46127135D01*
X157874500Y-47072870D01*
X157874501Y-47072876D01*
X157880908Y-47132483D01*
X157931202Y-47267328D01*
X157931206Y-47267335D01*
X158017452Y-47382544D01*
X158017455Y-47382547D01*
X158132664Y-47468793D01*
X158132671Y-47468797D01*
X158267517Y-47519091D01*
X158267516Y-47519091D01*
X158274444Y-47519835D01*
X158327127Y-47525500D01*
X159272872Y-47525499D01*
X159332483Y-47519091D01*
X159467331Y-47468796D01*
X159582546Y-47382546D01*
X159668796Y-47267331D01*
X159719091Y-47132483D01*
X159725500Y-47072873D01*
X159725499Y-46127128D01*
X159719091Y-46067517D01*
X159683551Y-45972231D01*
X159678568Y-45902542D01*
X159685173Y-45881447D01*
X159689933Y-45869958D01*
X159715887Y-45739480D01*
X159725500Y-45691156D01*
X159725500Y-45508843D01*
X159689934Y-45330047D01*
X159689933Y-45330046D01*
X159689933Y-45330042D01*
X159620167Y-45161611D01*
X159620166Y-45161609D01*
X159618482Y-45158459D01*
X159618097Y-45156613D01*
X159617836Y-45155982D01*
X159617955Y-45155932D01*
X159604236Y-45090057D01*
X159618482Y-45041541D01*
X159620163Y-45038394D01*
X159620167Y-45038389D01*
X159689933Y-44869958D01*
X159725500Y-44691154D01*
X159725500Y-44508846D01*
X159725500Y-44508843D01*
X159689934Y-44330047D01*
X159689933Y-44330046D01*
X159689933Y-44330042D01*
X159620167Y-44161611D01*
X159620166Y-44161609D01*
X159618482Y-44158459D01*
X159618097Y-44156613D01*
X159617836Y-44155982D01*
X159617955Y-44155932D01*
X159604236Y-44090057D01*
X159618482Y-44041541D01*
X159620163Y-44038394D01*
X159620167Y-44038389D01*
X159689933Y-43869958D01*
X159723641Y-43700500D01*
X159725500Y-43691156D01*
X159725500Y-43508843D01*
X159689934Y-43330047D01*
X159689933Y-43330046D01*
X159689933Y-43330042D01*
X159620167Y-43161611D01*
X159620166Y-43161609D01*
X159618482Y-43158459D01*
X159618097Y-43156613D01*
X159617836Y-43155982D01*
X159617955Y-43155932D01*
X159604236Y-43090057D01*
X159618482Y-43041541D01*
X159620163Y-43038394D01*
X159620167Y-43038389D01*
X159689933Y-42869958D01*
X159708722Y-42775500D01*
X159725500Y-42691156D01*
X159725500Y-42508843D01*
X159689934Y-42330047D01*
X159689933Y-42330046D01*
X159689933Y-42330042D01*
X159682860Y-42312966D01*
X159620169Y-42161615D01*
X159618482Y-42158459D01*
X159618097Y-42156613D01*
X159617836Y-42155982D01*
X159617955Y-42155932D01*
X159604236Y-42090057D01*
X159618482Y-42041541D01*
X159620163Y-42038394D01*
X159620167Y-42038389D01*
X159689933Y-41869958D01*
X159701572Y-41811445D01*
X159725500Y-41691156D01*
X159725500Y-41508843D01*
X159689934Y-41330047D01*
X159689933Y-41330046D01*
X159689933Y-41330042D01*
X159677282Y-41299500D01*
X159620169Y-41161615D01*
X159618482Y-41158459D01*
X159618097Y-41156613D01*
X159617836Y-41155982D01*
X159617955Y-41155932D01*
X159604236Y-41090057D01*
X159618482Y-41041541D01*
X159620163Y-41038394D01*
X159620167Y-41038389D01*
X159689933Y-40869958D01*
X159725500Y-40691154D01*
X159725500Y-40508846D01*
X159725500Y-40508843D01*
X159689934Y-40330047D01*
X159689933Y-40330046D01*
X159689933Y-40330042D01*
X159689931Y-40330037D01*
X159620169Y-40161615D01*
X159618482Y-40158459D01*
X159618097Y-40156613D01*
X159617836Y-40155982D01*
X159617955Y-40155932D01*
X159604236Y-40090057D01*
X159618482Y-40041541D01*
X159620163Y-40038394D01*
X159620167Y-40038389D01*
X159689933Y-39869958D01*
X159725500Y-39691154D01*
X159725500Y-39508846D01*
X159725500Y-39508843D01*
X159689934Y-39330047D01*
X159689933Y-39330046D01*
X159689933Y-39330042D01*
X159620167Y-39161611D01*
X159620166Y-39161609D01*
X159618482Y-39158459D01*
X159618097Y-39156613D01*
X159617836Y-39155982D01*
X159617955Y-39155932D01*
X159604236Y-39090057D01*
X159618482Y-39041541D01*
X159620163Y-39038394D01*
X159620167Y-39038389D01*
X159689933Y-38869958D01*
X159725500Y-38691154D01*
X159725500Y-38508846D01*
X159725500Y-38508843D01*
X159689934Y-38330047D01*
X159689933Y-38330046D01*
X159689933Y-38330042D01*
X159620167Y-38161611D01*
X159620166Y-38161609D01*
X159618482Y-38158459D01*
X159618097Y-38156613D01*
X159617836Y-38155982D01*
X159617955Y-38155932D01*
X159604236Y-38090057D01*
X159618482Y-38041541D01*
X159620163Y-38038394D01*
X159620167Y-38038389D01*
X159689933Y-37869958D01*
X159725500Y-37691154D01*
X159725500Y-37508846D01*
X159725500Y-37508843D01*
X159689934Y-37330047D01*
X159689933Y-37330046D01*
X159689933Y-37330042D01*
X159643890Y-37218883D01*
X159620168Y-37161612D01*
X159620166Y-37161608D01*
X159518886Y-37010032D01*
X159518880Y-37010024D01*
X159389975Y-36881119D01*
X159389967Y-36881113D01*
X159238391Y-36779833D01*
X159238387Y-36779831D01*
X159069962Y-36710068D01*
X159069952Y-36710065D01*
X158891156Y-36674500D01*
X158891154Y-36674500D01*
X158708846Y-36674500D01*
X158708844Y-36674500D01*
X158530047Y-36710065D01*
X158530037Y-36710068D01*
X158361612Y-36779831D01*
X158361608Y-36779833D01*
X158210032Y-36881113D01*
X158210024Y-36881119D01*
X158081119Y-37010024D01*
X158081113Y-37010032D01*
X157979833Y-37161608D01*
X157979831Y-37161612D01*
X157910068Y-37330037D01*
X157910065Y-37330047D01*
X157874500Y-37508843D01*
X157874500Y-37508846D01*
X157874500Y-37691154D01*
X157874500Y-37691156D01*
X157874499Y-37691156D01*
X36500500Y-37691156D01*
X36500500Y-36591156D01*
X82699499Y-36591156D01*
X82735065Y-36769952D01*
X82735068Y-36769962D01*
X82804831Y-36938387D01*
X82804833Y-36938391D01*
X82906113Y-37089967D01*
X82906119Y-37089975D01*
X83035024Y-37218880D01*
X83035032Y-37218886D01*
X83186608Y-37320166D01*
X83186612Y-37320168D01*
X83350839Y-37388192D01*
X83355042Y-37389933D01*
X83355046Y-37389933D01*
X83355047Y-37389934D01*
X83533843Y-37425500D01*
X83533846Y-37425500D01*
X83716156Y-37425500D01*
X83836445Y-37401572D01*
X83894958Y-37389933D01*
X84020451Y-37337952D01*
X84063387Y-37320168D01*
X84063391Y-37320166D01*
X84138672Y-37269864D01*
X84214972Y-37218883D01*
X84343883Y-37089972D01*
X84445167Y-36938389D01*
X84514933Y-36769958D01*
X84550500Y-36591154D01*
X84550500Y-36408846D01*
X84550500Y-36408843D01*
X84514934Y-36230046D01*
X84514933Y-36230043D01*
X84514933Y-36230042D01*
X84510174Y-36218555D01*
X84502703Y-36149088D01*
X84508548Y-36127776D01*
X84544091Y-36032483D01*
X84550500Y-35972873D01*
X84550499Y-35027128D01*
X84544091Y-34967517D01*
X84493796Y-34832669D01*
X84493795Y-34832668D01*
X84493793Y-34832664D01*
X84407547Y-34717455D01*
X84407544Y-34717452D01*
X84292335Y-34631206D01*
X84292328Y-34631202D01*
X84157482Y-34580908D01*
X84157483Y-34580908D01*
X84097883Y-34574501D01*
X84097881Y-34574500D01*
X84097873Y-34574500D01*
X84097864Y-34574500D01*
X83152129Y-34574500D01*
X83152123Y-34574501D01*
X83092516Y-34580908D01*
X82957671Y-34631202D01*
X82957664Y-34631206D01*
X82842455Y-34717452D01*
X82842452Y-34717455D01*
X82756206Y-34832664D01*
X82756202Y-34832671D01*
X82705908Y-34967517D01*
X82699501Y-35027116D01*
X82699501Y-35027123D01*
X82699500Y-35027135D01*
X82699500Y-35972870D01*
X82699501Y-35972876D01*
X82705908Y-36032483D01*
X82741447Y-36127765D01*
X82746431Y-36197456D01*
X82739828Y-36218545D01*
X82735069Y-36230034D01*
X82735065Y-36230047D01*
X82699500Y-36408843D01*
X82699500Y-36408846D01*
X82699500Y-36591154D01*
X82699500Y-36591156D01*
X82699499Y-36591156D01*
X36500500Y-36591156D01*
X36500500Y-32870551D01*
X36520185Y-32803512D01*
X36572989Y-32757757D01*
X36642147Y-32747813D01*
X36705703Y-32776838D01*
X36724815Y-32797662D01*
X36855483Y-32977510D01*
X37022490Y-33144517D01*
X37213567Y-33283343D01*
X37312991Y-33334002D01*
X37424003Y-33390566D01*
X37424005Y-33390566D01*
X37424008Y-33390568D01*
X37544412Y-33429689D01*
X37648631Y-33463553D01*
X37881903Y-33500500D01*
X37881908Y-33500500D01*
X38118097Y-33500500D01*
X38351368Y-33463553D01*
X38575992Y-33390568D01*
X38786433Y-33283343D01*
X38977510Y-33144517D01*
X39144517Y-32977510D01*
X39283343Y-32786433D01*
X39390568Y-32575992D01*
X39463553Y-32351368D01*
X39488929Y-32191150D01*
X39500500Y-32118097D01*
X39500500Y-31881902D01*
X39463553Y-31648631D01*
X39390566Y-31424003D01*
X39299358Y-31244999D01*
X39283343Y-31213567D01*
X39144517Y-31022490D01*
X38977510Y-30855483D01*
X38797664Y-30724816D01*
X38755000Y-30669488D01*
X38749021Y-30599874D01*
X38781627Y-30538080D01*
X38842466Y-30503722D01*
X38870551Y-30500500D01*
X160129449Y-30500500D01*
X160159696Y-30509381D01*
G37*
%TD.AperFunction*%
%TD*%
M02*
