%TF.GenerationSoftware,KiCad,Pcbnew,9.0.7*%
%TF.CreationDate,2026-02-16T12:42:13+01:00*%
%TF.ProjectId,mjctest,6d6a6374-6573-4742-9e6b-696361645f70,rev?*%
%TF.SameCoordinates,Original*%
%TF.FileFunction,Copper,L1,Top*%
%TF.FilePolarity,Positive*%
%FSLAX46Y46*%
G04 Gerber Fmt 4.6, Leading zero omitted, Abs format (unit mm)*
G04 Created by KiCad (PCBNEW 9.0.7) date 2026-02-16 12:42:13*
%MOMM*%
%LPD*%
G01*
G04 APERTURE LIST*
G04 Aperture macros list*
%AMRoundRect*
0 Rectangle with rounded corners*
0 $1 Rounding radius*
0 $2 $3 $4 $5 $6 $7 $8 $9 X,Y pos of 4 corners*
0 Add a 4 corners polygon primitive as box body*
4,1,4,$2,$3,$4,$5,$6,$7,$8,$9,$2,$3,0*
0 Add four circle primitives for the rounded corners*
1,1,$1+$1,$2,$3*
1,1,$1+$1,$4,$5*
1,1,$1+$1,$6,$7*
1,1,$1+$1,$8,$9*
0 Add four rect primitives between the rounded corners*
20,1,$1+$1,$2,$3,$4,$5,0*
20,1,$1+$1,$4,$5,$6,$7,0*
20,1,$1+$1,$6,$7,$8,$9,0*
20,1,$1+$1,$8,$9,$2,$3,0*%
G04 Aperture macros list end*
%TA.AperFunction,ComponentPad*%
%ADD10R,0.850000X0.850000*%
%TD*%
%TA.AperFunction,ComponentPad*%
%ADD11C,0.850000*%
%TD*%
%TA.AperFunction,ComponentPad*%
%ADD12C,1.400000*%
%TD*%
%TA.AperFunction,ComponentPad*%
%ADD13RoundRect,0.250001X-0.949999X-0.949999X0.949999X-0.949999X0.949999X0.949999X-0.949999X0.949999X0*%
%TD*%
%TA.AperFunction,ComponentPad*%
%ADD14C,2.400000*%
%TD*%
%TA.AperFunction,SMDPad,CuDef*%
%ADD15RoundRect,0.045000X0.930000X-0.105000X0.930000X0.105000X-0.930000X0.105000X-0.930000X-0.105000X0*%
%TD*%
%TA.AperFunction,SMDPad,CuDef*%
%ADD16RoundRect,0.045000X0.105000X0.930000X-0.105000X0.930000X-0.105000X-0.930000X0.105000X-0.930000X0*%
%TD*%
%TA.AperFunction,SMDPad,CuDef*%
%ADD17RoundRect,0.045000X-0.105000X-0.930000X0.105000X-0.930000X0.105000X0.930000X-0.105000X0.930000X0*%
%TD*%
%TA.AperFunction,ComponentPad*%
%ADD18C,1.905000*%
%TD*%
%TA.AperFunction,ComponentPad*%
%ADD19R,2.000000X2.000000*%
%TD*%
%TA.AperFunction,ComponentPad*%
%ADD20O,2.000000X1.600000*%
%TD*%
%TA.AperFunction,ViaPad*%
%ADD21C,0.600000*%
%TD*%
%TA.AperFunction,Conductor*%
%ADD22C,0.200000*%
%TD*%
%TA.AperFunction,Conductor*%
%ADD23C,0.127000*%
%TD*%
G04 APERTURE END LIST*
D10*
%TO.P,J6,1,Pin_1*%
%TO.N,Net-(HV1-hvo11)*%
X123800000Y-82600000D03*
D11*
%TO.P,J6,2,Pin_2*%
%TO.N,Net-(HV1-hvo12)*%
X124800000Y-82600000D03*
%TO.P,J6,3,Pin_3*%
%TO.N,Net-(HV1-hvo13)*%
X125800000Y-82600000D03*
%TO.P,J6,4,Pin_4*%
%TO.N,Net-(HV1-hvo14)*%
X126800000Y-82600000D03*
%TO.P,J6,5,Pin_5*%
%TO.N,Net-(HV1-hvo15)*%
X127800000Y-82600000D03*
%TO.P,J6,6,Pin_6*%
%TO.N,Net-(HV1-hvo16)*%
X128800000Y-82600000D03*
%TO.P,J6,7,Pin_7*%
%TO.N,Net-(HV1-hvo17)*%
X129800000Y-82600000D03*
%TO.P,J6,8,Pin_8*%
%TO.N,Net-(HV1-hvo18)*%
X130800000Y-82600000D03*
%TO.P,J6,9,Pin_9*%
%TO.N,Net-(HV1-hvo19)*%
X131800000Y-82600000D03*
%TO.P,J6,10,Pin_10*%
%TO.N,Net-(HV1-hvo20)*%
X132800000Y-82600000D03*
%TD*%
D10*
%TO.P,J4,1,Pin_1*%
%TO.N,Net-(HV2-hvo9)*%
X158800000Y-63200000D03*
D11*
%TO.P,J4,2,Pin_2*%
%TO.N,Net-(HV2-hvo10)*%
X158800000Y-62200000D03*
%TO.P,J4,3,Pin_3*%
%TO.N,Net-(HV2-hvo11)*%
X158800000Y-61200000D03*
%TO.P,J4,4,Pin_4*%
%TO.N,Net-(HV2-hvo12)*%
X158800000Y-60200000D03*
%TO.P,J4,5,Pin_5*%
%TO.N,Net-(HV2-hvo13)*%
X158800000Y-59200000D03*
%TO.P,J4,6,Pin_6*%
%TO.N,Net-(HV2-hvo14)*%
X158800000Y-58200000D03*
%TO.P,J4,7,Pin_7*%
%TO.N,Net-(HV2-hvo15)*%
X158800000Y-57200000D03*
%TO.P,J4,8,Pin_8*%
%TO.N,Net-(HV2-hvo16)*%
X158800000Y-56200000D03*
%TO.P,J4,9,Pin_9*%
%TO.N,Net-(HV2-hvo17)*%
X158800000Y-55200000D03*
%TO.P,J4,10,Pin_10*%
%TO.N,Net-(HV2-hvo18)*%
X158800000Y-54200000D03*
%TD*%
D12*
%TO.P,R6,1*%
%TO.N,Net-(J3-Pin_1)*%
X83380000Y-81500000D03*
%TO.P,R6,2*%
%TO.N,GND*%
X91000000Y-81500000D03*
%TD*%
D10*
%TO.P,J7,1,Pin_1*%
%TO.N,Net-(HV1-hvo1)*%
X105800000Y-82600000D03*
D11*
%TO.P,J7,2,Pin_2*%
%TO.N,Net-(HV1-hvo2)*%
X106800000Y-82600000D03*
%TO.P,J7,3,Pin_3*%
%TO.N,Net-(HV1-hvo3)*%
X107800000Y-82600000D03*
%TO.P,J7,4,Pin_4*%
%TO.N,Net-(HV1-hvo4)*%
X108800000Y-82600000D03*
%TO.P,J7,5,Pin_5*%
%TO.N,Net-(HV1-hvo5)*%
X109800000Y-82600000D03*
%TO.P,J7,6,Pin_6*%
%TO.N,Net-(HV1-hvo6)*%
X110800000Y-82600000D03*
%TO.P,J7,7,Pin_7*%
%TO.N,Net-(HV1-hvo7)*%
X111800000Y-82600000D03*
%TO.P,J7,8,Pin_8*%
%TO.N,Net-(HV1-hvo8)*%
X112800000Y-82600000D03*
%TO.P,J7,9,Pin_9*%
%TO.N,Net-(HV1-hvo9)*%
X113800000Y-82600000D03*
%TO.P,J7,10,Pin_10*%
%TO.N,Net-(HV1-hvo10)*%
X114800000Y-82600000D03*
%TD*%
D12*
%TO.P,R4,1*%
%TO.N,Net-(J2-Pin_1)*%
X83500000Y-64000000D03*
%TO.P,R4,2*%
%TO.N,GND*%
X91120000Y-64000000D03*
%TD*%
D10*
%TO.P,J3,1,Pin_1*%
%TO.N,Net-(J3-Pin_1)*%
X83625000Y-70000000D03*
D11*
%TO.P,J3,2,Pin_2*%
%TO.N,Net-(J3-Pin_2)*%
X83625000Y-71000000D03*
%TD*%
D13*
%TO.P,C2,1*%
%TO.N,Net-(J2-Pin_2)*%
X42425000Y-58625000D03*
D14*
%TO.P,C2,2*%
%TO.N,Net-(J2-Pin_1)*%
X77425000Y-58625000D03*
%TD*%
D10*
%TO.P,J1,1,Pin_1*%
%TO.N,Net-(J1-Pin_1)*%
X83625000Y-35500000D03*
D11*
%TO.P,J1,2,Pin_2*%
%TO.N,Net-(J1-Pin_2)*%
X83625000Y-36500000D03*
%TD*%
D15*
%TO.P,HV2,1,hvo11*%
%TO.N,Net-(HV2-hvo11)*%
X148580000Y-49620000D03*
%TO.P,HV2,2,hvo12*%
%TO.N,Net-(HV2-hvo12)*%
X148580000Y-48810000D03*
%TO.P,HV2,3,hvo13*%
%TO.N,Net-(HV2-hvo13)*%
X148580000Y-48010000D03*
%TO.P,HV2,4,hvo14*%
%TO.N,Net-(HV2-hvo14)*%
X148580000Y-47200000D03*
%TO.P,HV2,5,hvo15*%
%TO.N,Net-(HV2-hvo15)*%
X148580000Y-46400000D03*
%TO.P,HV2,6,hvo16*%
%TO.N,Net-(HV2-hvo16)*%
X148580000Y-45610000D03*
%TO.P,HV2,7,hvo17*%
%TO.N,Net-(HV2-hvo17)*%
X148580000Y-44810000D03*
%TO.P,HV2,8,hvo18*%
%TO.N,Net-(HV2-hvo18)*%
X148580000Y-44000000D03*
%TO.P,HV2,9,hvo19*%
%TO.N,Net-(HV2-hvo19)*%
X148580000Y-43200000D03*
%TO.P,HV2,10,hvo20*%
%TO.N,Net-(HV2-hvo20)*%
X148580000Y-42390000D03*
%TO.P,HV2,11,hvo21*%
%TO.N,Net-(HV2-hvo21)*%
X148580000Y-41590000D03*
D16*
%TO.P,HV2,12,hvo22*%
%TO.N,Net-(HV2-hvo22)*%
X146610000Y-39600000D03*
%TO.P,HV2,13,hvo23*%
%TO.N,Net-(HV2-hvo23)*%
X145800000Y-39600000D03*
%TO.P,HV2,14,hvo24*%
%TO.N,Net-(HV2-hvo24)*%
X145000000Y-39600000D03*
%TO.P,HV2,15,hvo25*%
%TO.N,Net-(HV2-hvo25)*%
X144190000Y-39600000D03*
%TO.P,HV2,16,hvo26*%
%TO.N,Net-(HV2-hvo26)*%
X143390000Y-39600000D03*
%TO.P,HV2,17,hvo27*%
%TO.N,Net-(HV2-hvo27)*%
X142600000Y-39600000D03*
%TO.P,HV2,18,hvo28*%
%TO.N,Net-(HV2-hvo28)*%
X141800000Y-39600000D03*
%TO.P,HV2,19,hvo29*%
%TO.N,unconnected-(HV2-hvo29-Pad19)*%
X140990000Y-39600000D03*
%TO.P,HV2,20,hvo30*%
%TO.N,unconnected-(HV2-hvo30-Pad20)*%
X140190000Y-39600000D03*
%TO.P,HV2,21,hvo31*%
%TO.N,unconnected-(HV2-hvo31-Pad21)*%
X139380000Y-39600000D03*
%TO.P,HV2,22,hvo32*%
%TO.N,unconnected-(HV2-hvo32-Pad22)*%
X138580000Y-39600000D03*
D15*
%TO.P,HV2,23,DATA_OUT*%
%TO.N,unconnected-(HV2-DATA_OUT-Pad23)*%
X136080000Y-41600000D03*
%TO.P,HV2,24,nc*%
%TO.N,unconnected-(HV2-nc-Pad24)*%
X136080000Y-42400000D03*
%TO.P,HV2,25,nc*%
%TO.N,unconnected-(HV2-nc-Pad25)*%
X136080000Y-43210000D03*
%TO.P,HV2,26,nc*%
%TO.N,unconnected-(HV2-nc-Pad26)*%
X136080000Y-44010000D03*
%TO.P,HV2,27,nc*%
%TO.N,unconnected-(HV2-nc-Pad27)*%
X136080000Y-44820000D03*
%TO.P,HV2,28,OE*%
%TO.N,Net-(HV1-OE)*%
X136080000Y-45620000D03*
%TO.P,HV2,29,CLK*%
%TO.N,Net-(HV1-CLK)*%
X136080000Y-46410000D03*
%TO.P,HV2,30,GND*%
%TO.N,GND*%
X136080000Y-47210000D03*
%TO.P,HV2,31,VDD*%
%TO.N,+3V3*%
X136080000Y-48020000D03*
%TO.P,HV2,32,STR*%
X136080000Y-48820000D03*
%TO.P,HV2,33,DATA_IN*%
%TO.N,Net-(HV1-DATA_OUT)*%
X136080000Y-49630000D03*
D16*
%TO.P,HV2,34,nc*%
%TO.N,unconnected-(HV2-nc-Pad34)*%
X138580000Y-51600000D03*
%TO.P,HV2,35,hvo1*%
%TO.N,Net-(HV2-hvo1)*%
X139380000Y-51600000D03*
%TO.P,HV2,36,hvo2*%
%TO.N,Net-(HV2-hvo2)*%
X140190000Y-51600000D03*
%TO.P,HV2,37,hvo3*%
%TO.N,Net-(HV2-hvo3)*%
X140990000Y-51600000D03*
%TO.P,HV2,38,hvo4*%
%TO.N,Net-(HV2-hvo4)*%
X141800000Y-51600000D03*
%TO.P,HV2,39,hvo5*%
%TO.N,Net-(HV2-hvo5)*%
X142600000Y-51600000D03*
%TO.P,HV2,40,hvo6*%
%TO.N,Net-(HV2-hvo6)*%
X143390000Y-51600000D03*
%TO.P,HV2,41,hvo7*%
%TO.N,Net-(HV2-hvo7)*%
X144190000Y-51600000D03*
%TO.P,HV2,42,hvo8*%
%TO.N,Net-(HV2-hvo8)*%
X145000000Y-51600000D03*
%TO.P,HV2,43,hvo9*%
%TO.N,Net-(HV2-hvo9)*%
X145800000Y-51600000D03*
%TO.P,HV2,44,hvo10*%
%TO.N,Net-(HV2-hvo10)*%
X146610000Y-51600000D03*
%TD*%
D10*
%TO.P,J5,1,Pin_1*%
%TO.N,Net-(HV1-hvo31)*%
X158800000Y-78600000D03*
D11*
%TO.P,J5,2,Pin_2*%
%TO.N,Net-(HV1-hvo32)*%
X158800000Y-77600000D03*
%TO.P,J5,3,Pin_3*%
%TO.N,Net-(HV2-hvo1)*%
X158800000Y-76600000D03*
%TO.P,J5,4,Pin_4*%
%TO.N,Net-(HV2-hvo2)*%
X158800000Y-75600000D03*
%TO.P,J5,5,Pin_5*%
%TO.N,Net-(HV2-hvo3)*%
X158800000Y-74600000D03*
%TO.P,J5,6,Pin_6*%
%TO.N,Net-(HV2-hvo4)*%
X158800000Y-73600000D03*
%TO.P,J5,7,Pin_7*%
%TO.N,Net-(HV2-hvo5)*%
X158800000Y-72600000D03*
%TO.P,J5,8,Pin_8*%
%TO.N,Net-(HV2-hvo6)*%
X158800000Y-71600000D03*
%TO.P,J5,9,Pin_9*%
%TO.N,Net-(HV2-hvo7)*%
X158800000Y-70600000D03*
%TO.P,J5,10,Pin_10*%
%TO.N,Net-(HV2-hvo8)*%
X158800000Y-69600000D03*
%TD*%
D17*
%TO.P,HV1,1,hvo11*%
%TO.N,Net-(HV1-hvo11)*%
X138390000Y-73100000D03*
%TO.P,HV1,2,hvo12*%
%TO.N,Net-(HV1-hvo12)*%
X139200000Y-73100000D03*
%TO.P,HV1,3,hvo13*%
%TO.N,Net-(HV1-hvo13)*%
X140000000Y-73100000D03*
%TO.P,HV1,4,hvo14*%
%TO.N,Net-(HV1-hvo14)*%
X140810000Y-73100000D03*
%TO.P,HV1,5,hvo15*%
%TO.N,Net-(HV1-hvo15)*%
X141610000Y-73100000D03*
%TO.P,HV1,6,hvo16*%
%TO.N,Net-(HV1-hvo16)*%
X142400000Y-73100000D03*
%TO.P,HV1,7,hvo17*%
%TO.N,Net-(HV1-hvo17)*%
X143200000Y-73100000D03*
%TO.P,HV1,8,hvo18*%
%TO.N,Net-(HV1-hvo18)*%
X144010000Y-73100000D03*
%TO.P,HV1,9,hvo19*%
%TO.N,Net-(HV1-hvo19)*%
X144810000Y-73100000D03*
%TO.P,HV1,10,hvo20*%
%TO.N,Net-(HV1-hvo20)*%
X145620000Y-73100000D03*
%TO.P,HV1,11,hvo21*%
%TO.N,Net-(HV1-hvo21)*%
X146420000Y-73100000D03*
D15*
%TO.P,HV1,12,hvo22*%
%TO.N,Net-(HV1-hvo22)*%
X148410000Y-71130000D03*
%TO.P,HV1,13,hvo23*%
%TO.N,Net-(HV1-hvo23)*%
X148410000Y-70320000D03*
%TO.P,HV1,14,hvo24*%
%TO.N,Net-(HV1-hvo24)*%
X148410000Y-69520000D03*
%TO.P,HV1,15,hvo25*%
%TO.N,Net-(HV1-hvo25)*%
X148410000Y-68710000D03*
%TO.P,HV1,16,hvo26*%
%TO.N,Net-(HV1-hvo26)*%
X148410000Y-67910000D03*
%TO.P,HV1,17,hvo27*%
%TO.N,Net-(HV1-hvo27)*%
X148410000Y-67120000D03*
%TO.P,HV1,18,hvo28*%
%TO.N,Net-(HV1-hvo28)*%
X148410000Y-66320000D03*
%TO.P,HV1,19,hvo29*%
%TO.N,Net-(HV1-hvo29)*%
X148410000Y-65510000D03*
%TO.P,HV1,20,hvo30*%
%TO.N,Net-(HV1-hvo30)*%
X148410000Y-64710000D03*
%TO.P,HV1,21,hvo31*%
%TO.N,Net-(HV1-hvo31)*%
X148410000Y-63900000D03*
%TO.P,HV1,22,hvo32*%
%TO.N,Net-(HV1-hvo32)*%
X148410000Y-63100000D03*
D17*
%TO.P,HV1,23,DATA_OUT*%
%TO.N,Net-(HV1-DATA_OUT)*%
X146410000Y-60600000D03*
%TO.P,HV1,24,nc*%
%TO.N,unconnected-(HV1-nc-Pad24)*%
X145610000Y-60600000D03*
%TO.P,HV1,25,nc*%
%TO.N,unconnected-(HV1-nc-Pad25)*%
X144800000Y-60600000D03*
%TO.P,HV1,26,nc*%
%TO.N,unconnected-(HV1-nc-Pad26)*%
X144000000Y-60600000D03*
%TO.P,HV1,27,nc*%
%TO.N,unconnected-(HV1-nc-Pad27)*%
X143190000Y-60600000D03*
%TO.P,HV1,28,OE*%
%TO.N,Net-(HV1-OE)*%
X142390000Y-60600000D03*
%TO.P,HV1,29,CLK*%
%TO.N,Net-(HV1-CLK)*%
X141600000Y-60600000D03*
%TO.P,HV1,30,GND*%
%TO.N,GND*%
X140800000Y-60600000D03*
%TO.P,HV1,31,VDD*%
%TO.N,+3V3*%
X139990000Y-60600000D03*
%TO.P,HV1,32,STR*%
X139190000Y-60600000D03*
%TO.P,HV1,33,DATA_IN*%
%TO.N,Net-(HV1-DATA_IN)*%
X138380000Y-60600000D03*
D15*
%TO.P,HV1,34,nc*%
%TO.N,unconnected-(HV1-nc-Pad34)*%
X136410000Y-63100000D03*
%TO.P,HV1,35,hvo1*%
%TO.N,Net-(HV1-hvo1)*%
X136410000Y-63900000D03*
%TO.P,HV1,36,hvo2*%
%TO.N,Net-(HV1-hvo2)*%
X136410000Y-64710000D03*
%TO.P,HV1,37,hvo3*%
%TO.N,Net-(HV1-hvo3)*%
X136410000Y-65510000D03*
%TO.P,HV1,38,hvo4*%
%TO.N,Net-(HV1-hvo4)*%
X136410000Y-66320000D03*
%TO.P,HV1,39,hvo5*%
%TO.N,Net-(HV1-hvo5)*%
X136410000Y-67120000D03*
%TO.P,HV1,40,hvo6*%
%TO.N,Net-(HV1-hvo6)*%
X136410000Y-67910000D03*
%TO.P,HV1,41,hvo7*%
%TO.N,Net-(HV1-hvo7)*%
X136410000Y-68710000D03*
%TO.P,HV1,42,hvo8*%
%TO.N,Net-(HV1-hvo8)*%
X136410000Y-69520000D03*
%TO.P,HV1,43,hvo9*%
%TO.N,Net-(HV1-hvo9)*%
X136410000Y-70320000D03*
%TO.P,HV1,44,hvo10*%
%TO.N,Net-(HV1-hvo10)*%
X136410000Y-71130000D03*
%TD*%
D10*
%TO.P,J2,1,Pin_1*%
%TO.N,Net-(J2-Pin_1)*%
X83625000Y-52500000D03*
D11*
%TO.P,J2,2,Pin_2*%
%TO.N,Net-(J2-Pin_2)*%
X83625000Y-53500000D03*
%TD*%
D13*
%TO.P,C3,1*%
%TO.N,Net-(J3-Pin_2)*%
X42425000Y-76175000D03*
D14*
%TO.P,C3,2*%
%TO.N,Net-(J3-Pin_1)*%
X77425000Y-76175000D03*
%TD*%
D10*
%TO.P,J9,1,Pin_1*%
%TO.N,Net-(HV2-hvo19)*%
X158800000Y-46600000D03*
D11*
%TO.P,J9,2,Pin_2*%
%TO.N,Net-(HV2-hvo20)*%
X158800000Y-45600000D03*
%TO.P,J9,3,Pin_3*%
%TO.N,Net-(HV2-hvo21)*%
X158800000Y-44600000D03*
%TO.P,J9,4,Pin_4*%
%TO.N,Net-(HV2-hvo22)*%
X158800000Y-43600000D03*
%TO.P,J9,5,Pin_5*%
%TO.N,Net-(HV2-hvo23)*%
X158800000Y-42600000D03*
%TO.P,J9,6,Pin_6*%
%TO.N,Net-(HV2-hvo24)*%
X158800000Y-41600000D03*
%TO.P,J9,7,Pin_7*%
%TO.N,Net-(HV2-hvo25)*%
X158800000Y-40600000D03*
%TO.P,J9,8,Pin_8*%
%TO.N,Net-(HV2-hvo26)*%
X158800000Y-39600000D03*
%TO.P,J9,9,Pin_9*%
%TO.N,Net-(HV2-hvo27)*%
X158800000Y-38600000D03*
%TO.P,J9,10,Pin_10*%
%TO.N,Net-(HV2-hvo28)*%
X158800000Y-37600000D03*
%TD*%
D18*
%TO.P,DCF1,1,ANT1*%
%TO.N,unconnected-(DCF1-ANT1-Pad1)*%
X50300000Y-92500000D03*
%TO.P,DCF1,2,ANT2*%
%TO.N,unconnected-(DCF1-ANT2-Pad2)*%
X52800000Y-92500000D03*
%TO.P,DCF1,3,VCC*%
%TO.N,+3V3*%
X55300000Y-92500000D03*
%TO.P,DCF1,4,GND*%
%TO.N,GND*%
X57800000Y-92500000D03*
%TD*%
D12*
%TO.P,R3,1*%
%TO.N,+3V3*%
X91000000Y-59000000D03*
%TO.P,R3,2*%
%TO.N,Net-(J2-Pin_1)*%
X83380000Y-59000000D03*
%TD*%
D13*
%TO.P,C1,1*%
%TO.N,Net-(J1-Pin_2)*%
X42425000Y-41075000D03*
D14*
%TO.P,C1,2*%
%TO.N,Net-(J1-Pin_1)*%
X77425000Y-41075000D03*
%TD*%
D12*
%TO.P,R2,1*%
%TO.N,+3V3*%
X91120000Y-47500000D03*
%TO.P,R2,2*%
%TO.N,Net-(J1-Pin_1)*%
X83500000Y-47500000D03*
%TD*%
%TO.P,R1,1*%
%TO.N,Net-(J1-Pin_1)*%
X83500000Y-42500000D03*
%TO.P,R1,2*%
%TO.N,GND*%
X91120000Y-42500000D03*
%TD*%
%TO.P,R5,1*%
%TO.N,+3V3*%
X91000000Y-76500000D03*
%TO.P,R5,2*%
%TO.N,Net-(J3-Pin_1)*%
X83380000Y-76500000D03*
%TD*%
D10*
%TO.P,J8,1,Pin_1*%
%TO.N,Net-(HV1-hvo21)*%
X142300000Y-82600000D03*
D11*
%TO.P,J8,2,Pin_2*%
%TO.N,Net-(HV1-hvo22)*%
X143300000Y-82600000D03*
%TO.P,J8,3,Pin_3*%
%TO.N,Net-(HV1-hvo23)*%
X144300000Y-82600000D03*
%TO.P,J8,4,Pin_4*%
%TO.N,Net-(HV1-hvo24)*%
X145300000Y-82600000D03*
%TO.P,J8,5,Pin_5*%
%TO.N,Net-(HV1-hvo25)*%
X146300000Y-82600000D03*
%TO.P,J8,6,Pin_6*%
%TO.N,Net-(HV1-hvo26)*%
X147300000Y-82600000D03*
%TO.P,J8,7,Pin_7*%
%TO.N,Net-(HV1-hvo27)*%
X148300000Y-82600000D03*
%TO.P,J8,8,Pin_8*%
%TO.N,Net-(HV1-hvo28)*%
X149300000Y-82600000D03*
%TO.P,J8,9,Pin_9*%
%TO.N,Net-(HV1-hvo29)*%
X150300000Y-82600000D03*
%TO.P,J8,10,Pin_10*%
%TO.N,Net-(HV1-hvo30)*%
X151300000Y-82600000D03*
%TD*%
D19*
%TO.P,esp1,1,VCC*%
%TO.N,+3V3*%
X125100000Y-64000000D03*
D20*
%TO.P,esp1,2,GND*%
%TO.N,GND*%
X125100000Y-61460000D03*
%TO.P,esp1,3,GPIO1*%
%TO.N,Net-(J2-Pin_2)*%
X125100000Y-58920000D03*
%TO.P,esp1,4,GPIO2*%
%TO.N,Net-(J1-Pin_2)*%
X125100000Y-56380000D03*
%TO.P,esp1,5,GPIO3*%
%TO.N,Net-(J3-Pin_2)*%
X125100000Y-53840000D03*
%TO.P,esp1,6,SDA*%
%TO.N,Net-(HV1-DATA_IN)*%
X125100000Y-51300000D03*
%TO.P,esp1,7,SCL*%
%TO.N,Net-(HV1-CLK)*%
X125100000Y-48760000D03*
%TO.P,esp1,8,GPIO4*%
%TO.N,Net-(HV1-OE)*%
X125100000Y-46220000D03*
%TO.P,esp1,9,ADC*%
%TO.N,Net-(DCF1-OUT)*%
X102240000Y-46220000D03*
%TO.P,esp1,10*%
%TO.N,N/C*%
X102240000Y-48760000D03*
%TO.P,esp1,11*%
X102240000Y-51300000D03*
%TO.P,esp1,12*%
X102240000Y-53840000D03*
%TO.P,esp1,13*%
X102240000Y-56380000D03*
%TO.P,esp1,14*%
X102240000Y-58920000D03*
%TO.P,esp1,15*%
X102240000Y-61460000D03*
%TO.P,esp1,16*%
X102240000Y-64000000D03*
%TD*%
D21*
%TO.N,Net-(J2-Pin_2)*%
X106000000Y-57000000D03*
%TO.N,Net-(J3-Pin_2)*%
X113600000Y-53800000D03*
%TO.N,GND*%
X140800000Y-62800000D03*
%TO.N,Net-(HV1-OE)*%
X134750000Y-51250000D03*
%TO.N,Net-(HV1-CLK)*%
X134050000Y-51450000D03*
%TO.N,Net-(HV1-hvo28)*%
X149300000Y-76000000D03*
X144200000Y-66400000D03*
%TO.N,Net-(HV1-hvo29)*%
X150300000Y-76000000D03*
X144900000Y-65500000D03*
%TO.N,Net-(HV1-hvo30)*%
X151300000Y-76000000D03*
X145900000Y-64700000D03*
%TD*%
D22*
%TO.N,Net-(J1-Pin_2)*%
X125100000Y-56380000D02*
X107380000Y-56380000D01*
X107380000Y-56380000D02*
X106000000Y-55000000D01*
X106000000Y-55000000D02*
X106000000Y-36500000D01*
X106000000Y-36500000D02*
X83625000Y-36500000D01*
%TO.N,+3V3*%
X91000000Y-76500000D02*
X91000000Y-67000000D01*
X91000000Y-67000000D02*
X93000000Y-65000000D01*
X93000000Y-65000000D02*
X93000000Y-61400000D01*
X93000000Y-61400000D02*
X93200000Y-61200000D01*
X125100000Y-64000000D02*
X108000000Y-64000000D01*
X108000000Y-64000000D02*
X104500000Y-60500000D01*
X102865812Y-60432000D02*
X101614188Y-60432000D01*
X104500000Y-60500000D02*
X102933812Y-60500000D01*
X101614188Y-60432000D02*
X101546188Y-60500000D01*
X102933812Y-60500000D02*
X102865812Y-60432000D01*
X101546188Y-60500000D02*
X93900000Y-60500000D01*
X93900000Y-60500000D02*
X93200000Y-61200000D01*
%TO.N,Net-(HV1-OE)*%
X134750000Y-51250000D02*
X134750000Y-51686138D01*
X134750000Y-51686138D02*
X142390000Y-59326138D01*
X142390000Y-59326138D02*
X142390000Y-60600000D01*
%TO.N,Net-(HV2-hvo20)*%
X158800000Y-45600000D02*
X158600000Y-45600000D01*
X158600000Y-45600000D02*
X155500000Y-42500000D01*
X150200000Y-42500000D02*
X150090000Y-42390000D01*
X150090000Y-42390000D02*
X148580000Y-42390000D01*
X155500000Y-42500000D02*
X150200000Y-42500000D01*
%TO.N,Net-(HV2-hvo19)*%
X148580000Y-43200000D02*
X155200000Y-43200000D01*
X155200000Y-43200000D02*
X158600000Y-46600000D01*
X158600000Y-46600000D02*
X158800000Y-46600000D01*
%TO.N,Net-(HV2-hvo21)*%
X158800000Y-44600000D02*
X158100000Y-44600000D01*
X150090000Y-41590000D02*
X148580000Y-41590000D01*
X158100000Y-44600000D02*
X155500000Y-42000000D01*
X155500000Y-42000000D02*
X150500000Y-42000000D01*
X150500000Y-42000000D02*
X150090000Y-41590000D01*
%TO.N,Net-(HV1-hvo23)*%
X148410000Y-70320000D02*
X149384999Y-70320000D01*
X149384999Y-70320000D02*
X150100000Y-71035001D01*
X150100000Y-71035001D02*
X150100000Y-71900000D01*
X150100000Y-71900000D02*
X144300000Y-77700000D01*
X144300000Y-77700000D02*
X144300000Y-82600000D01*
%TO.N,Net-(HV1-hvo28)*%
X149300000Y-82600000D02*
X149300000Y-76000000D01*
%TO.N,Net-(HV1-hvo29)*%
X150300000Y-76000000D02*
X150300000Y-82600000D01*
%TO.N,Net-(HV1-hvo30)*%
X151300000Y-82600000D02*
X151300000Y-76000000D01*
%TO.N,Net-(HV1-hvo31)*%
X148410000Y-63900000D02*
X149500000Y-63900000D01*
X149500000Y-63900000D02*
X149700000Y-64100000D01*
X149700000Y-64100000D02*
X149700000Y-67136138D01*
X152060000Y-69496138D02*
X152060000Y-69843172D01*
X149700000Y-67136138D02*
X152060000Y-69496138D01*
X152060000Y-69843172D02*
X156000000Y-73783172D01*
X156000000Y-78600000D02*
X158800000Y-78600000D01*
X156000000Y-73783172D02*
X156000000Y-78600000D01*
%TO.N,Net-(HV1-hvo32)*%
X158800000Y-77600000D02*
X156500000Y-77600000D01*
X156500000Y-77600000D02*
X156500000Y-73819310D01*
X152388000Y-69360276D02*
X150028000Y-67000276D01*
X152388000Y-69707310D02*
X152388000Y-69360276D01*
X156500000Y-73819310D02*
X152388000Y-69707310D01*
X150028000Y-67000276D02*
X150028000Y-63743001D01*
X150028000Y-63743001D02*
X149384999Y-63100000D01*
X149384999Y-63100000D02*
X148410000Y-63100000D01*
%TO.N,Net-(HV2-hvo1)*%
X150356000Y-63556000D02*
X146800000Y-60000000D01*
X139360767Y-53339233D02*
X139380000Y-53320000D01*
X157000000Y-76600000D02*
X157000000Y-73855448D01*
X157000000Y-73855448D02*
X152716000Y-69571448D01*
X146800000Y-59567672D02*
X146301328Y-59069000D01*
X152716000Y-69224414D02*
X150356000Y-66864414D01*
X150356000Y-66864414D02*
X150356000Y-63556000D01*
X146800000Y-60000000D02*
X146800000Y-59567672D01*
X146301328Y-59069000D02*
X145090534Y-59069000D01*
X152716000Y-69571448D02*
X152716000Y-69224414D01*
X158800000Y-76600000D02*
X157000000Y-76600000D01*
X145090534Y-59069000D02*
X139360767Y-53339233D01*
X139380000Y-53320000D02*
X139380000Y-51600000D01*
%TO.N,Net-(HV2-hvo2)*%
X140190000Y-51600000D02*
X140190000Y-53704604D01*
X146437190Y-58741000D02*
X147128000Y-59431810D01*
X157500000Y-73891586D02*
X157500000Y-75600000D01*
X147128000Y-59431810D02*
X147128000Y-59864138D01*
X145226396Y-58741000D02*
X146437190Y-58741000D01*
X150684000Y-63420138D02*
X150684000Y-66728552D01*
X140190000Y-53704604D02*
X145226396Y-58741000D01*
X147128000Y-59864138D02*
X150684000Y-63420138D01*
X153044000Y-69088552D02*
X153044000Y-69435586D01*
X153044000Y-69435586D02*
X157500000Y-73891586D01*
X150684000Y-66728552D02*
X153044000Y-69088552D01*
X157500000Y-75600000D02*
X158800000Y-75600000D01*
%TO.N,Net-(HV2-hvo3)*%
X158800000Y-74600000D02*
X157700000Y-73500000D01*
X157700000Y-73500000D02*
X157572276Y-73500000D01*
X157572276Y-73500000D02*
X153372000Y-69299724D01*
X145400000Y-58400000D02*
X140990000Y-53990000D01*
X153372000Y-68952690D02*
X151012000Y-66592690D01*
X151012000Y-66592690D02*
X151012000Y-63284276D01*
X151012000Y-63284276D02*
X147456000Y-59728276D01*
X153372000Y-69299724D02*
X153372000Y-68952690D01*
X147456000Y-59728276D02*
X147456000Y-59295948D01*
X146560052Y-58400000D02*
X145400000Y-58400000D01*
X147456000Y-59295948D02*
X146560052Y-58400000D01*
X140990000Y-53990000D02*
X140990000Y-51600000D01*
%TO.N,Net-(HV2-hvo4)*%
X158128000Y-72928000D02*
X157464138Y-72928000D01*
X147784000Y-59300000D02*
X147784000Y-59160086D01*
X153700000Y-68800000D02*
X151340000Y-66440000D01*
X147784000Y-59160086D02*
X146623914Y-58000000D01*
X145463862Y-58000000D02*
X141800000Y-54336138D01*
X153700000Y-69163862D02*
X153700000Y-68800000D01*
X151340000Y-66440000D02*
X151340000Y-62856000D01*
X151340000Y-62856000D02*
X147784000Y-59300000D01*
X158800000Y-73600000D02*
X158128000Y-72928000D01*
X157464138Y-72928000D02*
X153700000Y-69163862D01*
X146623914Y-58000000D02*
X145463862Y-58000000D01*
X141800000Y-54336138D02*
X141800000Y-51600000D01*
%TO.N,+3V3*%
X139190000Y-60600000D02*
X139190000Y-61574999D01*
X139190000Y-61574999D02*
X138264999Y-62500000D01*
X138264999Y-62500000D02*
X128000000Y-62500000D01*
X128000000Y-62500000D02*
X126500000Y-64000000D01*
X126500000Y-64000000D02*
X125100000Y-64000000D01*
%TO.N,Net-(HV1-hvo11)*%
X138390000Y-73100000D02*
X138390000Y-74610000D01*
X133500000Y-75500000D02*
X128365000Y-80635000D01*
X128365000Y-80635000D02*
X127986070Y-80635000D01*
X125393656Y-81619000D02*
X125065656Y-81947000D01*
X137500000Y-75500000D02*
X133500000Y-75500000D01*
X127986070Y-80635000D02*
X127777070Y-80844000D01*
X125065656Y-81947000D02*
X124529518Y-81947000D01*
X138390000Y-74610000D02*
X137500000Y-75500000D01*
X127777070Y-80844000D02*
X126228276Y-80844000D01*
X126228276Y-80844000D02*
X125453276Y-81619000D01*
X125453276Y-81619000D02*
X125393656Y-81619000D01*
X124529518Y-81947000D02*
X124147000Y-82329518D01*
X124147000Y-82329518D02*
X124147000Y-82600000D01*
X124147000Y-82600000D02*
X123800000Y-82600000D01*
%TO.N,Net-(HV1-hvo12)*%
X124800000Y-82600000D02*
X124900000Y-82600000D01*
X124900000Y-82600000D02*
X125147000Y-82353000D01*
X125147000Y-82329518D02*
X125529518Y-81947000D01*
X125147000Y-82353000D02*
X125147000Y-82329518D01*
X126364138Y-81172000D02*
X127912932Y-81172000D01*
X127912932Y-81172000D02*
X128121932Y-80963000D01*
X125589138Y-81947000D02*
X126364138Y-81172000D01*
X125529518Y-81947000D02*
X125589138Y-81947000D01*
X133656000Y-75844000D02*
X139000000Y-75844000D01*
X139000000Y-74274999D02*
X139200000Y-74074999D01*
X128121932Y-80963000D02*
X128537000Y-80963000D01*
X128537000Y-80963000D02*
X133656000Y-75844000D01*
X139000000Y-75844000D02*
X139000000Y-74274999D01*
X139200000Y-74074999D02*
X139200000Y-73100000D01*
%TO.N,Net-(HV1-hvo13)*%
X140000000Y-73100000D02*
X140000000Y-76172000D01*
X140000000Y-76172000D02*
X133864138Y-76172000D01*
X126500000Y-81500000D02*
X125800000Y-82200000D01*
X128257794Y-81291000D02*
X128048794Y-81500000D01*
X133864138Y-76172000D02*
X128745138Y-81291000D01*
X128745138Y-81291000D02*
X128257794Y-81291000D01*
X128048794Y-81500000D02*
X126500000Y-81500000D01*
X125800000Y-82200000D02*
X125800000Y-82600000D01*
%TO.N,Net-(HV1-hvo14)*%
X126800000Y-82600000D02*
X126876518Y-82600000D01*
X128065656Y-81947000D02*
X128393656Y-81619000D01*
X126876518Y-82600000D02*
X127529518Y-81947000D01*
X127529518Y-81947000D02*
X128065656Y-81947000D01*
X128393656Y-81619000D02*
X128881000Y-81619000D01*
X140810000Y-76226138D02*
X140810000Y-73100000D01*
X128881000Y-81619000D02*
X134000000Y-76500000D01*
X134000000Y-76500000D02*
X140536138Y-76500000D01*
X140536138Y-76500000D02*
X140810000Y-76226138D01*
%TO.N,Net-(HV1-hvo15)*%
X141610000Y-73100000D02*
X141610000Y-75890000D01*
X141610000Y-75890000D02*
X140656000Y-76844000D01*
X134128276Y-76844000D02*
X129025276Y-81947000D01*
X128147000Y-82600000D02*
X127800000Y-82600000D01*
X129025276Y-81947000D02*
X128529518Y-81947000D01*
X140656000Y-76844000D02*
X134128276Y-76844000D01*
X128529518Y-81947000D02*
X128147000Y-82329518D01*
X128147000Y-82329518D02*
X128147000Y-82600000D01*
%TO.N,Net-(HV1-hvo16)*%
X128800000Y-82600000D02*
X128836138Y-82600000D01*
X128836138Y-82600000D02*
X134264138Y-77172000D01*
X134264138Y-77172000D02*
X140828000Y-77172000D01*
X140828000Y-77172000D02*
X142400000Y-75600000D01*
X142400000Y-75600000D02*
X142400000Y-73100000D01*
%TO.N,Net-(HV1-hvo17)*%
X129800000Y-82600000D02*
X129800000Y-82100000D01*
X129800000Y-82100000D02*
X134400000Y-77500000D01*
X134400000Y-77500000D02*
X141000000Y-77500000D01*
X141000000Y-77500000D02*
X143200000Y-75300000D01*
X143200000Y-75300000D02*
X143200000Y-73100000D01*
%TO.N,Net-(HV1-hvo18)*%
X130800000Y-82600000D02*
X130800000Y-81800000D01*
X141128000Y-77872000D02*
X144010000Y-74990000D01*
X130800000Y-81800000D02*
X134600000Y-78000000D01*
X134600000Y-78000000D02*
X134836138Y-78000000D01*
X134964138Y-77872000D02*
X141128000Y-77872000D01*
X134836138Y-78000000D02*
X134964138Y-77872000D01*
X144010000Y-74990000D02*
X144010000Y-73100000D01*
%TO.N,Net-(HV1-hvo19)*%
X131800000Y-82600000D02*
X131800000Y-81500000D01*
X131800000Y-81500000D02*
X135100000Y-78200000D01*
X135100000Y-78200000D02*
X141300000Y-78200000D01*
X141300000Y-78200000D02*
X144810000Y-74690000D01*
X144810000Y-74690000D02*
X144810000Y-73100000D01*
%TO.N,Net-(HV1-hvo20)*%
X132800000Y-82600000D02*
X132800000Y-81200000D01*
X132800000Y-81200000D02*
X135472000Y-78528000D01*
X135472000Y-78528000D02*
X141472000Y-78528000D01*
X141472000Y-78528000D02*
X145620000Y-74380000D01*
X145620000Y-74380000D02*
X145620000Y-73100000D01*
%TO.N,Net-(HV1-hvo22)*%
X143300000Y-82600000D02*
X143300000Y-78100000D01*
X143300000Y-78100000D02*
X147500000Y-73900000D01*
X147500000Y-72040000D02*
X148410000Y-71130000D01*
X147500000Y-73900000D02*
X147500000Y-72040000D01*
%TO.N,Net-(HV1-hvo27)*%
X148300000Y-82600000D02*
X148300000Y-75900000D01*
X148300000Y-75900000D02*
X151556000Y-72644000D01*
X151556000Y-72644000D02*
X151556000Y-69456000D01*
X151556000Y-69456000D02*
X149220000Y-67120000D01*
X149220000Y-67120000D02*
X148410000Y-67120000D01*
%TO.N,Net-(HV1-hvo21)*%
X146420000Y-73100000D02*
X146420000Y-74516138D01*
X146420000Y-74516138D02*
X142972000Y-77964138D01*
X142972000Y-77964138D02*
X142972000Y-81928000D01*
X142972000Y-81928000D02*
X142300000Y-82600000D01*
%TO.N,Net-(HV1-hvo10)*%
X136410000Y-71130000D02*
X135333862Y-71130000D01*
X127500000Y-75000000D02*
X125500000Y-75000000D01*
X135333862Y-71130000D02*
X135135862Y-71328000D01*
X135135862Y-71328000D02*
X131172000Y-71328000D01*
X119500000Y-81000000D02*
X116400000Y-81000000D01*
X131172000Y-71328000D02*
X127500000Y-75000000D01*
X125500000Y-75000000D02*
X119500000Y-81000000D01*
X116400000Y-81000000D02*
X114800000Y-82600000D01*
%TO.N,Net-(HV1-hvo9)*%
X125376000Y-74624000D02*
X127386896Y-74624000D01*
X119500000Y-80500000D02*
X125376000Y-74624000D01*
X115900000Y-80500000D02*
X119500000Y-80500000D01*
X113800000Y-82600000D02*
X115900000Y-80500000D01*
X127386896Y-74624000D02*
X131510896Y-70500000D01*
X131510896Y-70500000D02*
X135500000Y-70500000D01*
X135500000Y-70500000D02*
X135680000Y-70320000D01*
X135680000Y-70320000D02*
X136410000Y-70320000D01*
%TO.N,Net-(HV1-hvo8)*%
X112800000Y-82600000D02*
X115400000Y-80000000D01*
X132027034Y-69520000D02*
X136410000Y-69520000D01*
X115400000Y-80000000D02*
X119500000Y-80000000D01*
X125204000Y-74296000D02*
X127251034Y-74296000D01*
X127251034Y-74296000D02*
X132027034Y-69520000D01*
X119500000Y-80000000D02*
X125204000Y-74296000D01*
%TO.N,Net-(HV1-hvo7)*%
X111800000Y-82600000D02*
X114900000Y-79500000D01*
X119500000Y-79500000D02*
X125032000Y-73968000D01*
X114900000Y-79500000D02*
X119500000Y-79500000D01*
X127115172Y-73968000D02*
X132373172Y-68710000D01*
X125032000Y-73968000D02*
X127115172Y-73968000D01*
X132373172Y-68710000D02*
X136410000Y-68710000D01*
%TO.N,Net-(HV1-hvo6)*%
X110800000Y-82600000D02*
X114400000Y-79000000D01*
X114400000Y-79000000D02*
X119500000Y-79000000D01*
X119500000Y-79000000D02*
X124860000Y-73640000D01*
X126979310Y-73640000D02*
X132709310Y-67910000D01*
X124860000Y-73640000D02*
X126979310Y-73640000D01*
X132709310Y-67910000D02*
X136410000Y-67910000D01*
%TO.N,Net-(HV1-hvo5)*%
X136410000Y-67120000D02*
X133035448Y-67120000D01*
X124688000Y-73312000D02*
X119500000Y-78500000D01*
X126843448Y-73312000D02*
X124688000Y-73312000D01*
X113900000Y-78500000D02*
X109800000Y-82600000D01*
X119500000Y-78500000D02*
X113900000Y-78500000D01*
X133035448Y-67120000D02*
X126843448Y-73312000D01*
%TO.N,Net-(HV1-hvo4)*%
X113400000Y-78000000D02*
X119500000Y-78000000D01*
X126707586Y-72984000D02*
X133371586Y-66320000D01*
X108800000Y-82600000D02*
X113400000Y-78000000D01*
X119500000Y-78000000D02*
X124516000Y-72984000D01*
X124516000Y-72984000D02*
X126707586Y-72984000D01*
X133371586Y-66320000D02*
X136410000Y-66320000D01*
%TO.N,Net-(HV1-hvo3)*%
X107800000Y-82600000D02*
X112900000Y-77500000D01*
X112900000Y-77500000D02*
X119500000Y-77500000D01*
X133717724Y-65510000D02*
X136410000Y-65510000D01*
X126571724Y-72656000D02*
X133717724Y-65510000D01*
X119500000Y-77500000D02*
X124344000Y-72656000D01*
X124344000Y-72656000D02*
X126571724Y-72656000D01*
%TO.N,Net-(HV1-hvo2)*%
X106800000Y-82600000D02*
X112400000Y-77000000D01*
X119500000Y-77000000D02*
X124172000Y-72328000D01*
X112400000Y-77000000D02*
X119500000Y-77000000D01*
X124172000Y-72328000D02*
X126435862Y-72328000D01*
X126435862Y-72328000D02*
X134053862Y-64710000D01*
X134053862Y-64710000D02*
X136410000Y-64710000D01*
%TO.N,Net-(HV1-hvo1)*%
X105800000Y-82600000D02*
X105850000Y-82600000D01*
X111450000Y-77000000D02*
X111468069Y-77000000D01*
X111968069Y-76968069D02*
X112264138Y-76672000D01*
X119328000Y-76672000D02*
X124000000Y-72000000D01*
X111500000Y-76968069D02*
X111968069Y-76968069D01*
X124000000Y-72000000D02*
X126300000Y-72000000D01*
X111468069Y-77000000D02*
X111500000Y-76968069D01*
X105850000Y-82600000D02*
X111450000Y-77000000D01*
X112264138Y-76672000D02*
X119328000Y-76672000D01*
X126300000Y-72000000D02*
X134400000Y-63900000D01*
X134400000Y-63900000D02*
X136410000Y-63900000D01*
%TO.N,Net-(HV1-DATA_IN)*%
X138380000Y-60600000D02*
X138380000Y-57880000D01*
X138380000Y-57880000D02*
X131800000Y-51300000D01*
X131800000Y-51300000D02*
X125100000Y-51300000D01*
%TO.N,+3V3*%
X139190000Y-60600000D02*
X139190000Y-57690000D01*
X139190000Y-57690000D02*
X133500000Y-52000000D01*
X133500000Y-52000000D02*
X133500000Y-49000000D01*
X133500000Y-49000000D02*
X133680000Y-48820000D01*
X133680000Y-48820000D02*
X136080000Y-48820000D01*
%TO.N,Net-(HV1-CLK)*%
X134050000Y-51450000D02*
X141600000Y-59000000D01*
X141600000Y-59000000D02*
X141600000Y-60600000D01*
%TO.N,Net-(HV2-hvo28)*%
X158800000Y-37600000D02*
X154600000Y-37600000D01*
X153243448Y-36388000D02*
X143184276Y-36388000D01*
X154600000Y-37600000D02*
X153500000Y-36500000D01*
X153500000Y-36500000D02*
X153355448Y-36500000D01*
X153355448Y-36500000D02*
X153243448Y-36388000D01*
X143184276Y-36388000D02*
X141800000Y-37772276D01*
X141800000Y-37772276D02*
X141800000Y-39600000D01*
%TO.N,Net-(HV2-hvo25)*%
X158800000Y-40600000D02*
X156100000Y-40600000D01*
X156100000Y-40600000D02*
X153000000Y-37500000D01*
X152963862Y-37500000D02*
X152835862Y-37372000D01*
X153000000Y-37500000D02*
X152963862Y-37500000D01*
X144500000Y-37372000D02*
X144500000Y-38500000D01*
X152835862Y-37372000D02*
X144500000Y-37372000D01*
X144500000Y-38500000D02*
X144190000Y-38810000D01*
X144190000Y-38810000D02*
X144190000Y-39600000D01*
%TO.N,Net-(HV2-hvo22)*%
X158800000Y-43600000D02*
X157600000Y-43600000D01*
X157600000Y-43600000D02*
X152356000Y-38356000D01*
X152356000Y-38356000D02*
X146610000Y-38356000D01*
X146610000Y-38356000D02*
X146610000Y-39600000D01*
%TO.N,Net-(HV2-hvo27)*%
X142600000Y-39600000D02*
X142600000Y-37436138D01*
X142600000Y-37436138D02*
X143320138Y-36716000D01*
X153271724Y-36844000D02*
X153427724Y-37000000D01*
X155063862Y-38600000D02*
X158800000Y-38600000D01*
X143320138Y-36716000D02*
X153107586Y-36716000D01*
X153427724Y-37000000D02*
X153463862Y-37000000D01*
X153235586Y-36844000D02*
X153271724Y-36844000D01*
X153107586Y-36716000D02*
X153235586Y-36844000D01*
X153463862Y-37000000D02*
X155063862Y-38600000D01*
%TO.N,Net-(HV2-hvo26)*%
X152971724Y-37044000D02*
X153099724Y-37172000D01*
X143456000Y-37044000D02*
X152971724Y-37044000D01*
X143390000Y-39600000D02*
X143390000Y-37110000D01*
X153099724Y-37172000D02*
X153135862Y-37172000D01*
X143390000Y-37110000D02*
X143456000Y-37044000D01*
X153135862Y-37172000D02*
X153463862Y-37500000D01*
X153463862Y-37500000D02*
X153500000Y-37500000D01*
X153500000Y-37500000D02*
X155600000Y-39600000D01*
X155600000Y-39600000D02*
X158800000Y-39600000D01*
%TO.N,Net-(HV2-hvo24)*%
X145000000Y-39600000D02*
X145000000Y-37700000D01*
X145000000Y-37700000D02*
X152700000Y-37700000D01*
X152700000Y-37700000D02*
X156600000Y-41600000D01*
X156600000Y-41600000D02*
X158800000Y-41600000D01*
%TO.N,Net-(HV2-hvo23)*%
X145800000Y-39600000D02*
X145800000Y-38028000D01*
X145800000Y-38028000D02*
X152528000Y-38028000D01*
X152528000Y-38028000D02*
X157100000Y-42600000D01*
X157100000Y-42600000D02*
X158800000Y-42600000D01*
%TO.N,Net-(HV2-hvo18)*%
X158800000Y-54200000D02*
X154180000Y-54200000D01*
X154180000Y-51905242D02*
X153000000Y-50725242D01*
X154180000Y-54200000D02*
X154180000Y-51905242D01*
X153000000Y-50725242D02*
X153000000Y-49000000D01*
X153000000Y-49000000D02*
X151215931Y-47215931D01*
X151215931Y-47215931D02*
X151215931Y-46669346D01*
X151215931Y-46669346D02*
X151000000Y-46453415D01*
X151000000Y-46453415D02*
X151000000Y-45472500D01*
X151000000Y-45472500D02*
X149527500Y-44000000D01*
X149527500Y-44000000D02*
X148580000Y-44000000D01*
%TO.N,Net-(HV2-hvo17)*%
X158800000Y-55200000D02*
X153852000Y-55200000D01*
X153852000Y-55200000D02*
X153852000Y-52041104D01*
X152640000Y-49140000D02*
X150887931Y-47387931D01*
X150887931Y-47387931D02*
X150887931Y-46805208D01*
X153852000Y-52041104D02*
X152640000Y-50829104D01*
X152640000Y-50829104D02*
X152640000Y-49140000D01*
X150887931Y-46805208D02*
X150500000Y-46417277D01*
X150500000Y-46417277D02*
X150500000Y-45600000D01*
X150500000Y-45600000D02*
X149710000Y-44810000D01*
X149710000Y-44810000D02*
X148580000Y-44810000D01*
%TO.N,Net-(HV2-hvo16)*%
X158800000Y-56200000D02*
X153724000Y-56200000D01*
X153524000Y-52176966D02*
X152312000Y-50964966D01*
X153524000Y-56000000D02*
X153524000Y-52176966D01*
X152312000Y-50964966D02*
X152312000Y-49312000D01*
X153724000Y-56200000D02*
X153524000Y-56000000D01*
X150559931Y-46941070D02*
X150000000Y-46381139D01*
X152312000Y-49312000D02*
X150559931Y-47559931D01*
X150559931Y-47559931D02*
X150559931Y-46941070D01*
X150000000Y-46381139D02*
X150000000Y-45700000D01*
X150000000Y-45700000D02*
X149910000Y-45610000D01*
X149910000Y-45610000D02*
X148580000Y-45610000D01*
%TO.N,Net-(HV2-hvo15)*%
X153196000Y-56248966D02*
X153196000Y-52312828D01*
X151984000Y-51100828D02*
X151984000Y-49520138D01*
X153196000Y-52312828D02*
X151984000Y-51100828D01*
X154147034Y-57200000D02*
X153196000Y-56248966D01*
X158800000Y-57200000D02*
X154147034Y-57200000D01*
X149554999Y-46400000D02*
X148580000Y-46400000D01*
X151984000Y-49520138D02*
X150231931Y-47768069D01*
X150231931Y-47768069D02*
X150231931Y-47076932D01*
X150231931Y-47076932D02*
X149554999Y-46400000D01*
%TO.N,Net-(HV2-hvo14)*%
X151656000Y-49728276D02*
X149783000Y-47855276D01*
X149554999Y-47200000D02*
X148580000Y-47200000D01*
X149783000Y-47855276D02*
X149783000Y-47428001D01*
X149783000Y-47428001D02*
X149554999Y-47200000D01*
X158800000Y-58200000D02*
X154683172Y-58200000D01*
X154683172Y-58200000D02*
X152868000Y-56384828D01*
X152868000Y-56384828D02*
X152868000Y-52448690D01*
X152868000Y-52448690D02*
X151656000Y-51236690D01*
X151656000Y-51236690D02*
X151656000Y-49728276D01*
%TO.N,Net-(HV2-hvo11)*%
X158800000Y-61200000D02*
X156291586Y-61200000D01*
X156291586Y-61200000D02*
X151884000Y-56792414D01*
X150672000Y-50135862D02*
X150156138Y-49620000D01*
X151884000Y-52856276D02*
X150672000Y-51644276D01*
X151884000Y-56792414D02*
X151884000Y-52856276D01*
X150672000Y-51644276D02*
X150672000Y-50135862D01*
X150156138Y-49620000D02*
X148580000Y-49620000D01*
%TO.N,Net-(HV2-hvo13)*%
X152540000Y-56520690D02*
X152540000Y-52584552D01*
X155219310Y-59200000D02*
X152540000Y-56520690D01*
X152540000Y-52584552D02*
X151328000Y-51372552D01*
X151328000Y-51372552D02*
X151328000Y-49864138D01*
X158800000Y-59200000D02*
X155219310Y-59200000D01*
X151328000Y-49864138D02*
X149473862Y-48010000D01*
X149473862Y-48010000D02*
X148580000Y-48010000D01*
%TO.N,Net-(HV2-hvo12)*%
X148580000Y-48810000D02*
X149810000Y-48810000D01*
X149810000Y-48810000D02*
X151000000Y-50000000D01*
X151000000Y-50000000D02*
X151000000Y-51508414D01*
X155755448Y-60200000D02*
X158800000Y-60200000D01*
X151000000Y-51508414D02*
X152212000Y-52720414D01*
X152212000Y-52720414D02*
X152212000Y-56656552D01*
X152212000Y-56656552D02*
X155755448Y-60200000D01*
%TO.N,Net-(HV2-hvo10)*%
X158800000Y-62200000D02*
X156827724Y-62200000D01*
X156827724Y-62200000D02*
X151556000Y-56928276D01*
X151556000Y-56928276D02*
X151556000Y-52992138D01*
X151556000Y-52992138D02*
X151335862Y-52772000D01*
X151335862Y-52772000D02*
X147782000Y-52772000D01*
X147782000Y-52772000D02*
X146610000Y-51600000D01*
%TO.N,Net-(HV2-hvo9)*%
X158800000Y-63200000D02*
X157363862Y-63200000D01*
X157363862Y-63200000D02*
X151228000Y-57064138D01*
X145800000Y-52574999D02*
X145800000Y-51600000D01*
X151228000Y-57064138D02*
X151228000Y-53128000D01*
X146325001Y-53100000D02*
X145800000Y-52574999D01*
X151228000Y-53128000D02*
X151200000Y-53100000D01*
X151200000Y-53100000D02*
X146325001Y-53100000D01*
%TO.N,Net-(HV2-hvo5)*%
X158800000Y-72600000D02*
X157600000Y-72600000D01*
X154028000Y-68664138D02*
X151668000Y-66304138D01*
X151668000Y-66304138D02*
X151668000Y-62720138D01*
X154028000Y-69028000D02*
X154028000Y-68664138D01*
X151000000Y-62000000D02*
X148112000Y-59112000D01*
X148112000Y-59112000D02*
X148112000Y-59024224D01*
X151000000Y-62052138D02*
X151000000Y-62000000D01*
X151668000Y-62720138D02*
X151000000Y-62052138D01*
X148112000Y-59024224D02*
X146759776Y-57672000D01*
X146759776Y-57672000D02*
X145599724Y-57672000D01*
X157600000Y-72600000D02*
X154028000Y-69028000D01*
X145599724Y-57672000D02*
X142600000Y-54672276D01*
X142600000Y-54672276D02*
X142600000Y-51600000D01*
%TO.N,Net-(HV1-DATA_OUT)*%
X136080000Y-49630000D02*
X136080000Y-50522328D01*
X145897000Y-59397000D02*
X146410000Y-59910000D01*
X136080000Y-50522328D02*
X144954672Y-59397000D01*
X144954672Y-59397000D02*
X145897000Y-59397000D01*
X146410000Y-59910000D02*
X146410000Y-60600000D01*
D23*
%TO.N,GND*%
X125100000Y-61460000D02*
X128540000Y-61460000D01*
%TO.N,Net-(J1-Pin_1)*%
X83500000Y-42500000D02*
X78850000Y-42500000D01*
X78850000Y-42500000D02*
X77425000Y-41075000D01*
%TO.N,Net-(J2-Pin_1)*%
X83380000Y-59000000D02*
X81000000Y-59000000D01*
X81000000Y-59000000D02*
X80625000Y-58625000D01*
X80625000Y-58625000D02*
X77425000Y-58625000D01*
%TO.N,Net-(J3-Pin_1)*%
X83380000Y-76500000D02*
X77750000Y-76500000D01*
X77750000Y-76500000D02*
X77425000Y-76175000D01*
D22*
%TO.N,Net-(J1-Pin_2)*%
X46053000Y-34847000D02*
X42425000Y-38475000D01*
X42425000Y-38475000D02*
X42425000Y-41075000D01*
%TO.N,Net-(J2-Pin_2)*%
X106000000Y-57000000D02*
X106000000Y-57100000D01*
X106000000Y-57100000D02*
X107820000Y-58920000D01*
X107820000Y-58920000D02*
X125100000Y-58920000D01*
%TO.N,+3V3*%
X91000000Y-76500000D02*
X93900000Y-79400000D01*
X93900000Y-79400000D02*
X93900000Y-87000000D01*
X93900000Y-87000000D02*
X56000000Y-87000000D01*
X55300000Y-87700000D02*
X55300000Y-92500000D01*
X56000000Y-87000000D02*
X55300000Y-87700000D01*
%TO.N,Net-(J1-Pin_1)*%
X82100000Y-35400000D02*
X82100000Y-41050000D01*
X83625000Y-35500000D02*
X82200000Y-35500000D01*
X83500000Y-47500000D02*
X83500000Y-42500000D01*
X82100000Y-41050000D02*
X82075000Y-41075000D01*
X82200000Y-35500000D02*
X82100000Y-35400000D01*
X82075000Y-41075000D02*
X83500000Y-42500000D01*
%TO.N,Net-(J1-Pin_2)*%
X84278000Y-34847000D02*
X46053000Y-34847000D01*
X83625000Y-36500000D02*
X83931000Y-36500000D01*
X83931000Y-36500000D02*
X84278000Y-36153000D01*
X84278000Y-36153000D02*
X84278000Y-34847000D01*
%TO.N,Net-(J2-Pin_1)*%
X83625000Y-52500000D02*
X81900000Y-52500000D01*
X81900000Y-52500000D02*
X81900000Y-57520000D01*
X83500000Y-64000000D02*
X83500000Y-59120000D01*
X83500000Y-59120000D02*
X83380000Y-59000000D01*
X83005000Y-58625000D02*
X83380000Y-59000000D01*
X81900000Y-57520000D02*
X83380000Y-59000000D01*
%TO.N,Net-(J3-Pin_1)*%
X83380000Y-76500000D02*
X83200000Y-76500000D01*
X83380000Y-81500000D02*
X83380000Y-76500000D01*
X83200000Y-76500000D02*
X82875000Y-76175000D01*
X83625000Y-70000000D02*
X81900000Y-70000000D01*
X81500000Y-74620000D02*
X83380000Y-76500000D01*
X81500000Y-70400000D02*
X81500000Y-74620000D01*
X81900000Y-70000000D02*
X81500000Y-70400000D01*
%TO.N,Net-(J3-Pin_2)*%
X125100000Y-53840000D02*
X113640000Y-53840000D01*
X113640000Y-53840000D02*
X113600000Y-53800000D01*
%TO.N,GND*%
X140800000Y-60600000D02*
X140800000Y-62800000D01*
%TO.N,+3V3*%
X91120000Y-47500000D02*
X91120000Y-58880000D01*
X139990000Y-60600000D02*
X139190000Y-60600000D01*
X91120000Y-58880000D02*
X91000000Y-59000000D01*
X93200000Y-61200000D02*
X91000000Y-59000000D01*
X136080000Y-48020000D02*
X136080000Y-48820000D01*
%TO.N,Net-(HV1-OE)*%
X125700000Y-45620000D02*
X136080000Y-45620000D01*
X125100000Y-46220000D02*
X125700000Y-45620000D01*
%TO.N,Net-(HV1-CLK)*%
X125100000Y-48760000D02*
X127450000Y-46410000D01*
X127450000Y-46410000D02*
X136080000Y-46410000D01*
%TO.N,Net-(HV1-hvo26)*%
X149384999Y-67910000D02*
X151228000Y-69753001D01*
X151228000Y-72472000D02*
X147300000Y-76400000D01*
X151228000Y-69753001D02*
X151228000Y-72472000D01*
X147300000Y-76400000D02*
X147300000Y-82600000D01*
X148410000Y-67910000D02*
X149384999Y-67910000D01*
%TO.N,Net-(HV1-hvo28)*%
X144200000Y-66400000D02*
X144280000Y-66320000D01*
X144280000Y-66320000D02*
X148410000Y-66320000D01*
%TO.N,Net-(HV1-hvo29)*%
X148400000Y-65500000D02*
X148410000Y-65510000D01*
X144900000Y-65500000D02*
X148400000Y-65500000D01*
%TO.N,Net-(HV1-hvo30)*%
X145900000Y-64700000D02*
X145910000Y-64710000D01*
X145910000Y-64710000D02*
X148410000Y-64710000D01*
%TO.N,Net-(HV1-hvo24)*%
X148410000Y-69520000D02*
X149220000Y-69520000D01*
X149220000Y-69520000D02*
X150500000Y-70800000D01*
X150500000Y-72100000D02*
X145300000Y-77300000D01*
X145300000Y-77300000D02*
X145300000Y-82600000D01*
X150500000Y-70800000D02*
X150500000Y-72100000D01*
%TO.N,Net-(HV1-hvo25)*%
X146300000Y-76900000D02*
X146300000Y-82600000D01*
X150900000Y-72300000D02*
X146300000Y-76900000D01*
X150900000Y-70225001D02*
X150900000Y-72300000D01*
X148410000Y-68710000D02*
X149384999Y-68710000D01*
X149384999Y-68710000D02*
X150900000Y-70225001D01*
%TO.N,Net-(HV2-hvo7)*%
X150528000Y-53756000D02*
X145733672Y-53756000D01*
X150572000Y-57372000D02*
X150572000Y-53800000D01*
X158000000Y-64800000D02*
X150572000Y-57372000D01*
X145733672Y-53756000D02*
X144190000Y-52212328D01*
X144190000Y-52212328D02*
X144190000Y-51600000D01*
X158000000Y-69800000D02*
X158000000Y-64800000D01*
X150572000Y-53800000D02*
X150528000Y-53756000D01*
X158800000Y-70600000D02*
X158000000Y-69800000D01*
%TO.N,Net-(HV2-hvo8)*%
X146189139Y-53428000D02*
X145000000Y-52238861D01*
X150900000Y-53428000D02*
X146189139Y-53428000D01*
X145000000Y-52238861D02*
X145000000Y-51600000D01*
X158800000Y-65100000D02*
X150900000Y-57200000D01*
X158800000Y-69600000D02*
X158800000Y-65100000D01*
X150900000Y-57200000D02*
X150900000Y-53428000D01*
%TO.N,Net-(HV2-hvo6)*%
X150244000Y-57507862D02*
X150244000Y-54100000D01*
X157672000Y-70472000D02*
X157672000Y-64972000D01*
X150244000Y-54100000D02*
X150228000Y-54084000D01*
X154000000Y-61263862D02*
X150244000Y-57507862D01*
X143390000Y-52222328D02*
X143390000Y-51600000D01*
X157672000Y-64972000D02*
X154000000Y-61300000D01*
X150228000Y-54084000D02*
X145251672Y-54084000D01*
X145251672Y-54084000D02*
X143390000Y-52222328D01*
X154000000Y-61300000D02*
X154000000Y-61263862D01*
X158800000Y-71600000D02*
X157672000Y-70472000D01*
%TD*%
%TA.AperFunction,Conductor*%
%TO.N,GND*%
G36*
X131566942Y-51920185D02*
G01*
X131587584Y-51936819D01*
X137743181Y-58092416D01*
X137776666Y-58153739D01*
X137779500Y-58180097D01*
X137779500Y-59415966D01*
X137770855Y-59461455D01*
X137740027Y-59539630D01*
X137740026Y-59539631D01*
X137729500Y-59627289D01*
X137729500Y-61572710D01*
X137740026Y-61660368D01*
X137740027Y-61660369D01*
X137767490Y-61730011D01*
X137773771Y-61799597D01*
X137741434Y-61861533D01*
X137680745Y-61896154D01*
X137652135Y-61899500D01*
X127920939Y-61899500D01*
X127880893Y-61910230D01*
X127880894Y-61910231D01*
X127768214Y-61940423D01*
X127768209Y-61940426D01*
X127631290Y-62019475D01*
X127631282Y-62019481D01*
X127519478Y-62131286D01*
X126775120Y-62875643D01*
X126713797Y-62909128D01*
X126644105Y-62904144D01*
X126588172Y-62862272D01*
X126571257Y-62831295D01*
X126543797Y-62757671D01*
X126543793Y-62757664D01*
X126457547Y-62642455D01*
X126457544Y-62642452D01*
X126342335Y-62556206D01*
X126342330Y-62556203D01*
X126304568Y-62542119D01*
X126248635Y-62500247D01*
X126224218Y-62434783D01*
X126239070Y-62366510D01*
X126260222Y-62338254D01*
X126291585Y-62306891D01*
X126411859Y-62141349D01*
X126504755Y-61959029D01*
X126567990Y-61764413D01*
X126576609Y-61710000D01*
X125475278Y-61710000D01*
X125519333Y-61633694D01*
X125550000Y-61519244D01*
X125550000Y-61400756D01*
X125519333Y-61286306D01*
X125475278Y-61210000D01*
X126576609Y-61210000D01*
X126567990Y-61155586D01*
X126504755Y-60960970D01*
X126411859Y-60778650D01*
X126291582Y-60613105D01*
X126291582Y-60613104D01*
X126146895Y-60468417D01*
X125981349Y-60348140D01*
X125888370Y-60300765D01*
X125837574Y-60252790D01*
X125820779Y-60184969D01*
X125843316Y-60118835D01*
X125888370Y-60079795D01*
X125911466Y-60068027D01*
X125981610Y-60032287D01*
X126002770Y-60016913D01*
X126147213Y-59911971D01*
X126147215Y-59911968D01*
X126147219Y-59911966D01*
X126291966Y-59767219D01*
X126291968Y-59767215D01*
X126291971Y-59767213D01*
X126348027Y-59690057D01*
X126412287Y-59601610D01*
X126505220Y-59419219D01*
X126568477Y-59224534D01*
X126600500Y-59022352D01*
X126600500Y-58817648D01*
X126591625Y-58761615D01*
X126568477Y-58615465D01*
X126521200Y-58469962D01*
X126505220Y-58420781D01*
X126505218Y-58420778D01*
X126505218Y-58420776D01*
X126463600Y-58339097D01*
X126412287Y-58238390D01*
X126397420Y-58217927D01*
X126291971Y-58072786D01*
X126147213Y-57928028D01*
X125981614Y-57807715D01*
X125946715Y-57789933D01*
X125888917Y-57760483D01*
X125838123Y-57712511D01*
X125821328Y-57644690D01*
X125843865Y-57578555D01*
X125888917Y-57539516D01*
X125981610Y-57492287D01*
X126012338Y-57469962D01*
X126147213Y-57371971D01*
X126147215Y-57371968D01*
X126147219Y-57371966D01*
X126291966Y-57227219D01*
X126291968Y-57227215D01*
X126291971Y-57227213D01*
X126375368Y-57112425D01*
X126412287Y-57061610D01*
X126505220Y-56879219D01*
X126568477Y-56684534D01*
X126600500Y-56482352D01*
X126600500Y-56277648D01*
X126573764Y-56108846D01*
X126568477Y-56075465D01*
X126505218Y-55880776D01*
X126471503Y-55814607D01*
X126412287Y-55698390D01*
X126404556Y-55687749D01*
X126291971Y-55532786D01*
X126147213Y-55388028D01*
X125981614Y-55267715D01*
X125911097Y-55231785D01*
X125888917Y-55220483D01*
X125838123Y-55172511D01*
X125821328Y-55104690D01*
X125843865Y-55038555D01*
X125888917Y-54999516D01*
X125981610Y-54952287D01*
X126024757Y-54920939D01*
X126147213Y-54831971D01*
X126147215Y-54831968D01*
X126147219Y-54831966D01*
X126291966Y-54687219D01*
X126291968Y-54687215D01*
X126291971Y-54687213D01*
X126344732Y-54614590D01*
X126412287Y-54521610D01*
X126505220Y-54339219D01*
X126568477Y-54144534D01*
X126600500Y-53942352D01*
X126600500Y-53737648D01*
X126597887Y-53721153D01*
X126568477Y-53535465D01*
X126539127Y-53445137D01*
X126505220Y-53340781D01*
X126505218Y-53340778D01*
X126505218Y-53340776D01*
X126471448Y-53274500D01*
X126412287Y-53158390D01*
X126383158Y-53118297D01*
X126291971Y-52992786D01*
X126147213Y-52848028D01*
X125981614Y-52727715D01*
X125975006Y-52724348D01*
X125888917Y-52680483D01*
X125838123Y-52632511D01*
X125821328Y-52564690D01*
X125843865Y-52498555D01*
X125888917Y-52459516D01*
X125981610Y-52412287D01*
X126002770Y-52396913D01*
X126147213Y-52291971D01*
X126147215Y-52291968D01*
X126147219Y-52291966D01*
X126291966Y-52147219D01*
X126291968Y-52147215D01*
X126291971Y-52147213D01*
X126396913Y-52002770D01*
X126412287Y-51981610D01*
X126419117Y-51968204D01*
X126467091Y-51917409D01*
X126529602Y-51900500D01*
X131499903Y-51900500D01*
X131566942Y-51920185D01*
G37*
%TD.AperFunction*%
%TA.AperFunction,Conductor*%
G36*
X160196488Y-30520185D02*
G01*
X160242243Y-30572989D01*
X160252187Y-30642147D01*
X160223162Y-30705703D01*
X160202337Y-30724815D01*
X160022490Y-30855483D01*
X160022488Y-30855485D01*
X160022487Y-30855485D01*
X159855485Y-31022487D01*
X159855485Y-31022488D01*
X159855483Y-31022490D01*
X159795862Y-31104550D01*
X159716657Y-31213566D01*
X159609433Y-31424003D01*
X159536446Y-31648631D01*
X159499500Y-31881902D01*
X159499500Y-32118097D01*
X159536446Y-32351368D01*
X159609433Y-32575996D01*
X159700641Y-32755000D01*
X159716657Y-32786433D01*
X159855483Y-32977510D01*
X160022490Y-33144517D01*
X160213567Y-33283343D01*
X160312991Y-33334002D01*
X160424003Y-33390566D01*
X160424005Y-33390566D01*
X160424008Y-33390568D01*
X160544412Y-33429689D01*
X160648631Y-33463553D01*
X160881903Y-33500500D01*
X160881908Y-33500500D01*
X161118097Y-33500500D01*
X161351368Y-33463553D01*
X161575992Y-33390568D01*
X161786433Y-33283343D01*
X161977510Y-33144517D01*
X162144517Y-32977510D01*
X162275183Y-32797664D01*
X162330512Y-32755000D01*
X162400126Y-32749021D01*
X162461920Y-32781627D01*
X162496278Y-32842466D01*
X162499500Y-32870551D01*
X162499500Y-105129448D01*
X162479815Y-105196487D01*
X162427011Y-105242242D01*
X162357853Y-105252186D01*
X162294297Y-105223161D01*
X162275182Y-105202334D01*
X162242632Y-105157533D01*
X162144517Y-105022490D01*
X161977510Y-104855483D01*
X161786433Y-104716657D01*
X161575996Y-104609433D01*
X161351368Y-104536446D01*
X161118097Y-104499500D01*
X161118092Y-104499500D01*
X160881908Y-104499500D01*
X160881903Y-104499500D01*
X160648631Y-104536446D01*
X160424003Y-104609433D01*
X160213566Y-104716657D01*
X160104550Y-104795862D01*
X160022490Y-104855483D01*
X160022488Y-104855485D01*
X160022487Y-104855485D01*
X159855485Y-105022487D01*
X159855485Y-105022488D01*
X159855483Y-105022490D01*
X159795862Y-105104550D01*
X159716657Y-105213566D01*
X159609433Y-105424003D01*
X159536446Y-105648631D01*
X159499500Y-105881902D01*
X159499500Y-106118097D01*
X159536446Y-106351368D01*
X159609433Y-106575996D01*
X159700641Y-106755000D01*
X159716657Y-106786433D01*
X159855483Y-106977510D01*
X160022490Y-107144517D01*
X160202335Y-107275183D01*
X160245000Y-107330512D01*
X160250979Y-107400126D01*
X160218373Y-107461920D01*
X160157534Y-107496278D01*
X160129449Y-107499500D01*
X38870551Y-107499500D01*
X38803512Y-107479815D01*
X38757757Y-107427011D01*
X38747813Y-107357853D01*
X38776838Y-107294297D01*
X38797662Y-107275184D01*
X38977510Y-107144517D01*
X39144517Y-106977510D01*
X39283343Y-106786433D01*
X39390568Y-106575992D01*
X39463553Y-106351368D01*
X39488929Y-106191150D01*
X39500500Y-106118097D01*
X39500500Y-105881902D01*
X39463553Y-105648631D01*
X39390566Y-105424003D01*
X39299358Y-105244999D01*
X39283343Y-105213567D01*
X39144517Y-105022490D01*
X38977510Y-104855483D01*
X38786433Y-104716657D01*
X38575996Y-104609433D01*
X38351368Y-104536446D01*
X38118097Y-104499500D01*
X38118092Y-104499500D01*
X37881908Y-104499500D01*
X37881903Y-104499500D01*
X37648631Y-104536446D01*
X37424003Y-104609433D01*
X37213566Y-104716657D01*
X37104550Y-104795862D01*
X37022490Y-104855483D01*
X37022488Y-104855485D01*
X37022487Y-104855485D01*
X36855485Y-105022487D01*
X36855485Y-105022488D01*
X36855483Y-105022490D01*
X36777773Y-105129448D01*
X36724818Y-105202334D01*
X36669488Y-105244999D01*
X36599874Y-105250978D01*
X36538079Y-105218372D01*
X36503722Y-105157533D01*
X36500500Y-105129448D01*
X36500500Y-75174984D01*
X40724500Y-75174984D01*
X40724500Y-77175015D01*
X40735000Y-77277795D01*
X40735001Y-77277797D01*
X40741904Y-77298629D01*
X40790186Y-77444335D01*
X40790187Y-77444337D01*
X40882286Y-77593651D01*
X40882289Y-77593655D01*
X41006344Y-77717710D01*
X41006348Y-77717713D01*
X41155662Y-77809812D01*
X41155664Y-77809813D01*
X41155666Y-77809814D01*
X41322203Y-77864999D01*
X41424992Y-77875500D01*
X41424997Y-77875500D01*
X43425003Y-77875500D01*
X43425008Y-77875500D01*
X43527797Y-77864999D01*
X43694334Y-77809814D01*
X43843655Y-77717711D01*
X43967711Y-77593655D01*
X44059814Y-77444334D01*
X44114999Y-77277797D01*
X44125500Y-77175008D01*
X44125500Y-76063549D01*
X75724500Y-76063549D01*
X75724500Y-76286450D01*
X75724501Y-76286466D01*
X75753594Y-76507452D01*
X75753595Y-76507457D01*
X75753596Y-76507463D01*
X75776914Y-76594486D01*
X75811290Y-76722780D01*
X75811293Y-76722790D01*
X75872254Y-76869962D01*
X75896595Y-76928726D01*
X76008052Y-77121774D01*
X76008057Y-77121780D01*
X76008058Y-77121782D01*
X76143751Y-77298622D01*
X76143757Y-77298629D01*
X76301370Y-77456242D01*
X76301377Y-77456248D01*
X76393271Y-77526760D01*
X76478226Y-77591948D01*
X76671274Y-77703405D01*
X76877219Y-77788710D01*
X77092537Y-77846404D01*
X77313543Y-77875500D01*
X77313550Y-77875500D01*
X77536450Y-77875500D01*
X77536457Y-77875500D01*
X77757463Y-77846404D01*
X77972781Y-77788710D01*
X78178726Y-77703405D01*
X78371774Y-77591948D01*
X78548624Y-77456247D01*
X78706247Y-77298624D01*
X78841948Y-77121774D01*
X78841954Y-77121763D01*
X78843730Y-77119107D01*
X78897344Y-77074303D01*
X78946831Y-77064000D01*
X82244033Y-77064000D01*
X82311072Y-77083685D01*
X82349277Y-77125922D01*
X82350699Y-77125051D01*
X82353242Y-77129203D01*
X82386518Y-77175002D01*
X82464310Y-77282073D01*
X82597927Y-77415690D01*
X82728386Y-77510474D01*
X82771051Y-77565803D01*
X82779500Y-77610791D01*
X82779500Y-80389207D01*
X82759815Y-80456246D01*
X82728386Y-80489525D01*
X82597925Y-80584311D01*
X82464312Y-80717924D01*
X82464312Y-80717925D01*
X82464310Y-80717927D01*
X82416610Y-80783579D01*
X82353240Y-80870800D01*
X82267454Y-81039163D01*
X82209059Y-81218881D01*
X82179500Y-81405513D01*
X82179500Y-81594486D01*
X82209059Y-81781118D01*
X82267454Y-81960836D01*
X82352179Y-82127116D01*
X82353240Y-82129199D01*
X82464310Y-82282073D01*
X82597927Y-82415690D01*
X82750801Y-82526760D01*
X82830347Y-82567290D01*
X82919163Y-82612545D01*
X82919165Y-82612545D01*
X82919168Y-82612547D01*
X83015497Y-82643846D01*
X83098881Y-82670940D01*
X83285514Y-82700500D01*
X83285519Y-82700500D01*
X83474486Y-82700500D01*
X83661118Y-82670940D01*
X83662623Y-82670451D01*
X83840832Y-82612547D01*
X84009199Y-82526760D01*
X84035182Y-82507882D01*
X90345669Y-82507882D01*
X90345670Y-82507883D01*
X90371059Y-82526329D01*
X90539362Y-82612085D01*
X90718997Y-82670451D01*
X90905553Y-82700000D01*
X91094447Y-82700000D01*
X91281002Y-82670451D01*
X91460637Y-82612085D01*
X91628937Y-82526331D01*
X91654328Y-82507883D01*
X91654328Y-82507882D01*
X91000001Y-81853554D01*
X91000000Y-81853554D01*
X90345669Y-82507882D01*
X84035182Y-82507882D01*
X84162073Y-82415690D01*
X84295690Y-82282073D01*
X84406760Y-82129199D01*
X84492547Y-81960832D01*
X84550940Y-81781118D01*
X84558845Y-81731206D01*
X84580500Y-81594486D01*
X84580500Y-81405552D01*
X89800000Y-81405552D01*
X89800000Y-81594447D01*
X89829548Y-81781002D01*
X89887914Y-81960637D01*
X89973666Y-82128933D01*
X89992116Y-82154328D01*
X90646446Y-81500000D01*
X90646446Y-81499999D01*
X90600369Y-81453922D01*
X90650000Y-81453922D01*
X90650000Y-81546078D01*
X90673852Y-81635095D01*
X90719930Y-81714905D01*
X90785095Y-81780070D01*
X90864905Y-81826148D01*
X90953922Y-81850000D01*
X91046078Y-81850000D01*
X91135095Y-81826148D01*
X91214905Y-81780070D01*
X91280070Y-81714905D01*
X91326148Y-81635095D01*
X91350000Y-81546078D01*
X91350000Y-81499999D01*
X91353554Y-81499999D01*
X91353554Y-81500000D01*
X92007882Y-82154328D01*
X92007883Y-82154328D01*
X92026331Y-82128937D01*
X92112085Y-81960637D01*
X92170451Y-81781002D01*
X92200000Y-81594447D01*
X92200000Y-81405552D01*
X92170451Y-81218997D01*
X92112085Y-81039362D01*
X92026329Y-80871059D01*
X92007883Y-80845670D01*
X92007882Y-80845669D01*
X91353554Y-81499999D01*
X91350000Y-81499999D01*
X91350000Y-81453922D01*
X91326148Y-81364905D01*
X91280070Y-81285095D01*
X91214905Y-81219930D01*
X91135095Y-81173852D01*
X91046078Y-81150000D01*
X90953922Y-81150000D01*
X90864905Y-81173852D01*
X90785095Y-81219930D01*
X90719930Y-81285095D01*
X90673852Y-81364905D01*
X90650000Y-81453922D01*
X90600369Y-81453922D01*
X89992116Y-80845669D01*
X89992116Y-80845670D01*
X89973669Y-80871060D01*
X89887914Y-81039362D01*
X89829548Y-81218997D01*
X89800000Y-81405552D01*
X84580500Y-81405552D01*
X84580500Y-81405513D01*
X84550940Y-81218881D01*
X84508531Y-81088361D01*
X84492547Y-81039168D01*
X84492545Y-81039165D01*
X84492545Y-81039163D01*
X84447290Y-80950347D01*
X84406760Y-80870801D01*
X84295690Y-80717927D01*
X84162073Y-80584310D01*
X84035179Y-80492116D01*
X90345669Y-80492116D01*
X91000000Y-81146446D01*
X91000001Y-81146446D01*
X91654328Y-80492116D01*
X91628933Y-80473666D01*
X91460637Y-80387914D01*
X91281002Y-80329548D01*
X91094447Y-80300000D01*
X90905553Y-80300000D01*
X90718997Y-80329548D01*
X90539362Y-80387914D01*
X90371060Y-80473669D01*
X90345670Y-80492116D01*
X90345669Y-80492116D01*
X84035179Y-80492116D01*
X84029338Y-80487872D01*
X84027111Y-80486093D01*
X84008623Y-80459710D01*
X83988948Y-80434194D01*
X83988290Y-80430693D01*
X83987015Y-80428873D01*
X83986762Y-80422553D01*
X83980500Y-80389207D01*
X83980500Y-77610791D01*
X84000185Y-77543752D01*
X84031612Y-77510475D01*
X84162073Y-77415690D01*
X84295690Y-77282073D01*
X84406760Y-77129199D01*
X84492547Y-76960832D01*
X84550940Y-76781118D01*
X84560180Y-76722780D01*
X84580500Y-76594486D01*
X84580500Y-76405513D01*
X84550940Y-76218881D01*
X84505439Y-76078846D01*
X84492547Y-76039168D01*
X84492545Y-76039165D01*
X84492545Y-76039163D01*
X84432418Y-75921158D01*
X84406760Y-75870801D01*
X84295690Y-75717927D01*
X84162073Y-75584310D01*
X84009199Y-75473240D01*
X83980500Y-75458617D01*
X83840836Y-75387454D01*
X83661118Y-75329059D01*
X83474486Y-75299500D01*
X83474481Y-75299500D01*
X83285519Y-75299500D01*
X83285514Y-75299500D01*
X83126247Y-75324725D01*
X83056953Y-75315770D01*
X83019168Y-75289933D01*
X82136819Y-74407584D01*
X82103334Y-74346261D01*
X82100500Y-74319903D01*
X82100500Y-70724500D01*
X82120185Y-70657461D01*
X82172989Y-70611706D01*
X82224500Y-70600500D01*
X82609740Y-70600500D01*
X82676779Y-70620185D01*
X82722534Y-70672989D01*
X82732478Y-70742147D01*
X82731357Y-70748692D01*
X82699500Y-70908843D01*
X82699500Y-70908846D01*
X82699500Y-71091154D01*
X82699500Y-71091156D01*
X82699499Y-71091156D01*
X82735065Y-71269952D01*
X82735068Y-71269962D01*
X82804831Y-71438387D01*
X82804833Y-71438391D01*
X82906113Y-71589967D01*
X82906119Y-71589975D01*
X83035024Y-71718880D01*
X83035032Y-71718886D01*
X83186608Y-71820166D01*
X83186612Y-71820168D01*
X83306827Y-71869962D01*
X83355042Y-71889933D01*
X83355046Y-71889933D01*
X83355047Y-71889934D01*
X83533843Y-71925500D01*
X83533846Y-71925500D01*
X83716156Y-71925500D01*
X83843700Y-71900129D01*
X83894958Y-71889933D01*
X84063389Y-71820167D01*
X84063391Y-71820166D01*
X84165949Y-71751639D01*
X84214972Y-71718883D01*
X84343883Y-71589972D01*
X84445167Y-71438389D01*
X84514933Y-71269958D01*
X84537615Y-71155932D01*
X84550500Y-71091156D01*
X84550500Y-70908843D01*
X84514934Y-70730046D01*
X84514933Y-70730043D01*
X84512637Y-70724500D01*
X84510174Y-70718555D01*
X84502703Y-70649088D01*
X84508548Y-70627776D01*
X84544091Y-70532483D01*
X84550500Y-70472873D01*
X84550499Y-69527128D01*
X84544091Y-69467517D01*
X84518722Y-69399500D01*
X84493797Y-69332671D01*
X84493793Y-69332664D01*
X84407547Y-69217455D01*
X84407544Y-69217452D01*
X84292335Y-69131206D01*
X84292328Y-69131202D01*
X84157482Y-69080908D01*
X84157483Y-69080908D01*
X84097883Y-69074501D01*
X84097881Y-69074500D01*
X84097873Y-69074500D01*
X84097864Y-69074500D01*
X83152129Y-69074500D01*
X83152123Y-69074501D01*
X83092516Y-69080908D01*
X82957671Y-69131202D01*
X82957664Y-69131206D01*
X82842455Y-69217452D01*
X82842452Y-69217455D01*
X82756207Y-69332663D01*
X82754973Y-69334924D01*
X82753150Y-69336746D01*
X82750888Y-69339769D01*
X82750453Y-69339443D01*
X82705569Y-69384331D01*
X82646139Y-69399500D01*
X81820940Y-69399500D01*
X81780019Y-69410464D01*
X81780019Y-69410465D01*
X81742751Y-69420451D01*
X81668214Y-69440423D01*
X81668209Y-69440426D01*
X81531290Y-69519475D01*
X81531282Y-69519481D01*
X81019481Y-70031282D01*
X81019480Y-70031284D01*
X80973995Y-70110067D01*
X80947518Y-70155925D01*
X80944234Y-70161615D01*
X80940423Y-70168215D01*
X80899499Y-70320943D01*
X80899499Y-70320945D01*
X80899499Y-70489046D01*
X80899500Y-70489059D01*
X80899500Y-74533330D01*
X80899499Y-74533348D01*
X80899499Y-74699054D01*
X80899498Y-74699054D01*
X80940424Y-74851789D01*
X80940425Y-74851790D01*
X80966239Y-74896500D01*
X80966240Y-74896502D01*
X81019475Y-74988709D01*
X81019481Y-74988717D01*
X81138349Y-75107585D01*
X81138355Y-75107590D01*
X81755084Y-75724319D01*
X81788569Y-75785642D01*
X81783585Y-75855334D01*
X81741713Y-75911267D01*
X81676249Y-75935684D01*
X81667403Y-75936000D01*
X79216596Y-75936000D01*
X79149557Y-75916315D01*
X79103802Y-75863511D01*
X79096821Y-75844094D01*
X79081159Y-75785642D01*
X79038710Y-75627219D01*
X78953405Y-75421274D01*
X78841948Y-75228226D01*
X78749381Y-75107590D01*
X78706248Y-75051377D01*
X78706242Y-75051370D01*
X78548629Y-74893757D01*
X78548622Y-74893751D01*
X78371782Y-74758058D01*
X78371780Y-74758057D01*
X78371774Y-74758052D01*
X78178726Y-74646595D01*
X78178722Y-74646593D01*
X77972790Y-74561293D01*
X77972783Y-74561291D01*
X77972781Y-74561290D01*
X77757463Y-74503596D01*
X77757457Y-74503595D01*
X77757452Y-74503594D01*
X77536466Y-74474501D01*
X77536463Y-74474500D01*
X77536457Y-74474500D01*
X77313543Y-74474500D01*
X77313537Y-74474500D01*
X77313533Y-74474501D01*
X77092547Y-74503594D01*
X77092540Y-74503595D01*
X77092537Y-74503596D01*
X76877219Y-74561290D01*
X76877209Y-74561293D01*
X76671277Y-74646593D01*
X76671273Y-74646595D01*
X76478226Y-74758052D01*
X76478217Y-74758058D01*
X76301377Y-74893751D01*
X76301370Y-74893757D01*
X76143757Y-75051370D01*
X76143751Y-75051377D01*
X76008058Y-75228217D01*
X76008052Y-75228226D01*
X75896595Y-75421273D01*
X75896593Y-75421277D01*
X75811293Y-75627209D01*
X75811291Y-75627216D01*
X75811290Y-75627219D01*
X75773971Y-75766498D01*
X75753597Y-75842534D01*
X75753594Y-75842547D01*
X75724501Y-76063533D01*
X75724500Y-76063549D01*
X44125500Y-76063549D01*
X44125500Y-75174992D01*
X44114999Y-75072203D01*
X44059814Y-74905666D01*
X44056010Y-74899499D01*
X43967713Y-74756348D01*
X43967710Y-74756344D01*
X43843655Y-74632289D01*
X43843651Y-74632286D01*
X43694337Y-74540187D01*
X43694335Y-74540186D01*
X43583907Y-74503594D01*
X43527797Y-74485001D01*
X43527795Y-74485000D01*
X43425015Y-74474500D01*
X43425008Y-74474500D01*
X41424992Y-74474500D01*
X41424984Y-74474500D01*
X41322204Y-74485000D01*
X41322203Y-74485001D01*
X41155664Y-74540186D01*
X41155662Y-74540187D01*
X41006348Y-74632286D01*
X41006344Y-74632289D01*
X40882289Y-74756344D01*
X40882286Y-74756348D01*
X40790187Y-74905662D01*
X40790186Y-74905664D01*
X40735001Y-75072203D01*
X40735000Y-75072204D01*
X40724500Y-75174984D01*
X36500500Y-75174984D01*
X36500500Y-57624984D01*
X40724500Y-57624984D01*
X40724500Y-59625015D01*
X40735000Y-59727795D01*
X40735001Y-59727797D01*
X40746206Y-59761611D01*
X40790186Y-59894335D01*
X40790187Y-59894337D01*
X40882286Y-60043651D01*
X40882289Y-60043655D01*
X41006344Y-60167710D01*
X41006348Y-60167713D01*
X41155662Y-60259812D01*
X41155664Y-60259813D01*
X41155666Y-60259814D01*
X41322203Y-60314999D01*
X41424992Y-60325500D01*
X41424997Y-60325500D01*
X43425003Y-60325500D01*
X43425008Y-60325500D01*
X43527797Y-60314999D01*
X43694334Y-60259814D01*
X43843655Y-60167711D01*
X43967711Y-60043655D01*
X44059814Y-59894334D01*
X44114999Y-59727797D01*
X44125500Y-59625008D01*
X44125500Y-58513549D01*
X75724500Y-58513549D01*
X75724500Y-58736450D01*
X75724501Y-58736466D01*
X75753594Y-58957452D01*
X75753595Y-58957457D01*
X75753596Y-58957463D01*
X75800020Y-59130719D01*
X75811290Y-59172780D01*
X75811293Y-59172790D01*
X75896591Y-59378717D01*
X75896595Y-59378726D01*
X76008052Y-59571774D01*
X76008057Y-59571780D01*
X76008058Y-59571782D01*
X76143751Y-59748622D01*
X76143757Y-59748629D01*
X76301370Y-59906242D01*
X76301377Y-59906248D01*
X76382135Y-59968215D01*
X76478226Y-60041948D01*
X76671274Y-60153405D01*
X76877219Y-60238710D01*
X77092537Y-60296404D01*
X77313543Y-60325500D01*
X77313550Y-60325500D01*
X77536450Y-60325500D01*
X77536457Y-60325500D01*
X77757463Y-60296404D01*
X77972781Y-60238710D01*
X78178726Y-60153405D01*
X78371774Y-60041948D01*
X78548624Y-59906247D01*
X78706247Y-59748624D01*
X78841948Y-59571774D01*
X78953405Y-59378726D01*
X78960818Y-59360831D01*
X79000285Y-59265548D01*
X79044126Y-59211144D01*
X79110420Y-59189079D01*
X79114846Y-59189000D01*
X80340022Y-59189000D01*
X80369462Y-59197644D01*
X80399449Y-59204168D01*
X80404464Y-59207922D01*
X80407061Y-59208685D01*
X80427703Y-59225319D01*
X80544346Y-59341962D01*
X80544356Y-59341973D01*
X80548686Y-59346303D01*
X80548687Y-59346304D01*
X80653696Y-59451313D01*
X80771766Y-59519481D01*
X80782304Y-59525565D01*
X80925747Y-59564000D01*
X80925748Y-59564000D01*
X82244033Y-59564000D01*
X82311072Y-59583685D01*
X82349277Y-59625922D01*
X82350699Y-59625051D01*
X82353242Y-59629203D01*
X82397456Y-59690057D01*
X82464310Y-59782073D01*
X82597927Y-59915690D01*
X82654189Y-59956567D01*
X82750796Y-60026757D01*
X82750798Y-60026758D01*
X82750801Y-60026760D01*
X82831795Y-60068028D01*
X82882590Y-60116001D01*
X82899500Y-60178512D01*
X82899500Y-62889207D01*
X82879815Y-62956246D01*
X82848386Y-62989525D01*
X82717925Y-63084311D01*
X82584312Y-63217924D01*
X82584312Y-63217925D01*
X82584310Y-63217927D01*
X82536610Y-63283579D01*
X82473240Y-63370800D01*
X82387454Y-63539163D01*
X82329059Y-63718881D01*
X82299500Y-63905513D01*
X82299500Y-64094486D01*
X82329059Y-64281118D01*
X82387454Y-64460836D01*
X82455690Y-64594755D01*
X82473240Y-64629199D01*
X82584310Y-64782073D01*
X82717927Y-64915690D01*
X82870801Y-65026760D01*
X82912236Y-65047872D01*
X83039163Y-65112545D01*
X83039165Y-65112545D01*
X83039168Y-65112547D01*
X83108674Y-65135131D01*
X83218881Y-65170940D01*
X83405514Y-65200500D01*
X83405519Y-65200500D01*
X83594486Y-65200500D01*
X83781118Y-65170940D01*
X83782623Y-65170451D01*
X83960832Y-65112547D01*
X84129199Y-65026760D01*
X84282073Y-64915690D01*
X84415690Y-64782073D01*
X84526760Y-64629199D01*
X84612547Y-64460832D01*
X84670940Y-64281118D01*
X84681427Y-64214905D01*
X84700500Y-64094486D01*
X84700500Y-63905552D01*
X89920000Y-63905552D01*
X89920000Y-64094447D01*
X89949548Y-64281002D01*
X90007914Y-64460637D01*
X90093666Y-64628933D01*
X90112116Y-64654328D01*
X90766446Y-64000000D01*
X90766446Y-63999999D01*
X90112116Y-63345669D01*
X90112116Y-63345670D01*
X90093669Y-63371060D01*
X90007914Y-63539362D01*
X89949548Y-63718997D01*
X89920000Y-63905552D01*
X84700500Y-63905552D01*
X84700500Y-63905513D01*
X84670940Y-63718881D01*
X84614601Y-63545490D01*
X84612547Y-63539168D01*
X84612545Y-63539165D01*
X84612545Y-63539163D01*
X84564642Y-63445148D01*
X84526760Y-63370801D01*
X84415690Y-63217927D01*
X84282073Y-63084310D01*
X84155179Y-62992116D01*
X90465669Y-62992116D01*
X91120000Y-63646446D01*
X91120001Y-63646446D01*
X91774328Y-62992116D01*
X91748933Y-62973666D01*
X91580637Y-62887914D01*
X91401002Y-62829548D01*
X91214447Y-62800000D01*
X91025553Y-62800000D01*
X90838997Y-62829548D01*
X90659362Y-62887914D01*
X90491060Y-62973669D01*
X90465670Y-62992116D01*
X90465669Y-62992116D01*
X84155179Y-62992116D01*
X84149338Y-62987872D01*
X84147111Y-62986093D01*
X84128623Y-62959710D01*
X84108948Y-62934194D01*
X84108290Y-62930693D01*
X84107015Y-62928873D01*
X84106762Y-62922553D01*
X84100500Y-62889207D01*
X84100500Y-60023606D01*
X84120185Y-59956567D01*
X84151618Y-59923285D01*
X84162073Y-59915690D01*
X84295690Y-59782073D01*
X84406760Y-59629199D01*
X84492547Y-59460832D01*
X84550940Y-59281118D01*
X84564161Y-59197644D01*
X84580500Y-59094486D01*
X84580500Y-58905513D01*
X84550940Y-58718881D01*
X84517338Y-58615466D01*
X84492547Y-58539168D01*
X84492545Y-58539165D01*
X84492545Y-58539163D01*
X84439819Y-58435684D01*
X84406760Y-58370801D01*
X84295690Y-58217927D01*
X84162073Y-58084310D01*
X84009199Y-57973240D01*
X84009191Y-57973236D01*
X83840836Y-57887454D01*
X83661118Y-57829059D01*
X83474486Y-57799500D01*
X83474481Y-57799500D01*
X83285519Y-57799500D01*
X83285514Y-57799500D01*
X83126247Y-57824725D01*
X83056953Y-57815770D01*
X83019168Y-57789933D01*
X82536819Y-57307584D01*
X82503334Y-57246261D01*
X82500500Y-57219903D01*
X82500500Y-53827053D01*
X82520185Y-53760014D01*
X82572989Y-53714259D01*
X82642147Y-53704315D01*
X82705703Y-53733340D01*
X82739061Y-53779601D01*
X82804831Y-53938387D01*
X82804833Y-53938391D01*
X82906113Y-54089967D01*
X82906119Y-54089975D01*
X83035024Y-54218880D01*
X83035032Y-54218886D01*
X83186608Y-54320166D01*
X83186612Y-54320168D01*
X83355037Y-54389931D01*
X83355042Y-54389933D01*
X83355046Y-54389933D01*
X83355047Y-54389934D01*
X83533843Y-54425500D01*
X83533846Y-54425500D01*
X83716156Y-54425500D01*
X83836445Y-54401572D01*
X83894958Y-54389933D01*
X84007245Y-54343422D01*
X84063387Y-54320168D01*
X84063391Y-54320166D01*
X84138672Y-54269864D01*
X84214972Y-54218883D01*
X84343883Y-54089972D01*
X84445167Y-53938389D01*
X84448625Y-53930042D01*
X84469832Y-53878842D01*
X84514933Y-53769958D01*
X84546746Y-53610028D01*
X84550500Y-53591156D01*
X84550500Y-53408843D01*
X84514934Y-53230046D01*
X84514933Y-53230043D01*
X84514933Y-53230042D01*
X84510174Y-53218555D01*
X84502703Y-53149088D01*
X84508548Y-53127776D01*
X84544091Y-53032483D01*
X84550500Y-52972873D01*
X84550499Y-52027128D01*
X84544091Y-51967517D01*
X84532641Y-51936819D01*
X84493797Y-51832671D01*
X84493793Y-51832664D01*
X84407547Y-51717455D01*
X84407544Y-51717452D01*
X84292335Y-51631206D01*
X84292328Y-51631202D01*
X84157482Y-51580908D01*
X84157483Y-51580908D01*
X84097883Y-51574501D01*
X84097881Y-51574500D01*
X84097873Y-51574500D01*
X84097864Y-51574500D01*
X83152129Y-51574500D01*
X83152123Y-51574501D01*
X83092516Y-51580908D01*
X82957671Y-51631202D01*
X82957664Y-51631206D01*
X82842455Y-51717452D01*
X82842452Y-51717455D01*
X82756207Y-51832663D01*
X82754973Y-51834924D01*
X82753150Y-51836746D01*
X82750888Y-51839769D01*
X82750453Y-51839443D01*
X82705569Y-51884331D01*
X82646139Y-51899500D01*
X81820943Y-51899500D01*
X81668216Y-51940423D01*
X81668209Y-51940426D01*
X81531290Y-52019475D01*
X81531282Y-52019481D01*
X81419481Y-52131282D01*
X81419475Y-52131290D01*
X81340426Y-52268209D01*
X81340423Y-52268216D01*
X81299500Y-52420943D01*
X81299500Y-57433330D01*
X81299499Y-57433348D01*
X81299499Y-57599054D01*
X81299498Y-57599054D01*
X81340423Y-57751785D01*
X81349909Y-57768215D01*
X81419477Y-57888712D01*
X81419481Y-57888717D01*
X81538349Y-58007585D01*
X81538355Y-58007590D01*
X81755084Y-58224319D01*
X81788569Y-58285642D01*
X81783585Y-58355334D01*
X81741713Y-58411267D01*
X81676249Y-58435684D01*
X81667403Y-58436000D01*
X81284978Y-58436000D01*
X81255537Y-58427355D01*
X81225551Y-58420832D01*
X81220535Y-58417077D01*
X81217939Y-58416315D01*
X81197297Y-58399681D01*
X81083383Y-58285767D01*
X81083381Y-58285764D01*
X80971306Y-58173689D01*
X80971304Y-58173687D01*
X80842696Y-58099435D01*
X80699253Y-58061000D01*
X80699252Y-58061000D01*
X79114846Y-58061000D01*
X79047807Y-58041315D01*
X79002052Y-57988511D01*
X79000285Y-57984452D01*
X78953409Y-57871282D01*
X78953404Y-57871273D01*
X78841948Y-57678226D01*
X78722228Y-57522203D01*
X78706248Y-57501377D01*
X78706242Y-57501370D01*
X78548629Y-57343757D01*
X78548622Y-57343751D01*
X78371782Y-57208058D01*
X78371780Y-57208057D01*
X78371774Y-57208052D01*
X78178726Y-57096595D01*
X78178722Y-57096593D01*
X77972790Y-57011293D01*
X77972783Y-57011291D01*
X77972781Y-57011290D01*
X77757463Y-56953596D01*
X77757457Y-56953595D01*
X77757452Y-56953594D01*
X77536466Y-56924501D01*
X77536463Y-56924500D01*
X77536457Y-56924500D01*
X77313543Y-56924500D01*
X77313537Y-56924500D01*
X77313533Y-56924501D01*
X77092547Y-56953594D01*
X77092540Y-56953595D01*
X77092537Y-56953596D01*
X76992126Y-56980501D01*
X76877219Y-57011290D01*
X76877209Y-57011293D01*
X76671277Y-57096593D01*
X76671273Y-57096595D01*
X76478226Y-57208052D01*
X76478217Y-57208058D01*
X76301377Y-57343751D01*
X76301370Y-57343757D01*
X76143757Y-57501370D01*
X76143751Y-57501377D01*
X76008058Y-57678217D01*
X76008052Y-57678226D01*
X75896595Y-57871273D01*
X75896593Y-57871277D01*
X75811293Y-58077209D01*
X75811290Y-58077219D01*
X75773589Y-58217924D01*
X75753597Y-58292534D01*
X75753594Y-58292547D01*
X75724501Y-58513533D01*
X75724500Y-58513549D01*
X44125500Y-58513549D01*
X44125500Y-57624992D01*
X44114999Y-57522203D01*
X44059814Y-57355666D01*
X44052468Y-57343757D01*
X43967713Y-57206348D01*
X43967710Y-57206344D01*
X43843655Y-57082289D01*
X43843651Y-57082286D01*
X43694337Y-56990187D01*
X43694335Y-56990186D01*
X43583907Y-56953594D01*
X43527797Y-56935001D01*
X43527795Y-56935000D01*
X43425015Y-56924500D01*
X43425008Y-56924500D01*
X41424992Y-56924500D01*
X41424984Y-56924500D01*
X41322204Y-56935000D01*
X41322203Y-56935001D01*
X41155664Y-56990186D01*
X41155662Y-56990187D01*
X41006348Y-57082286D01*
X41006344Y-57082289D01*
X40882289Y-57206344D01*
X40882286Y-57206348D01*
X40790187Y-57355662D01*
X40790186Y-57355664D01*
X40735001Y-57522203D01*
X40735000Y-57522204D01*
X40724500Y-57624984D01*
X36500500Y-57624984D01*
X36500500Y-40074984D01*
X40724500Y-40074984D01*
X40724500Y-42075015D01*
X40735000Y-42177795D01*
X40735001Y-42177797D01*
X40748963Y-42219930D01*
X40790186Y-42344335D01*
X40790187Y-42344337D01*
X40882286Y-42493651D01*
X40882289Y-42493655D01*
X41006344Y-42617710D01*
X41006348Y-42617713D01*
X41155662Y-42709812D01*
X41155664Y-42709813D01*
X41155666Y-42709814D01*
X41322203Y-42764999D01*
X41424992Y-42775500D01*
X41424997Y-42775500D01*
X43425003Y-42775500D01*
X43425008Y-42775500D01*
X43527797Y-42764999D01*
X43694334Y-42709814D01*
X43843655Y-42617711D01*
X43967711Y-42493655D01*
X44059814Y-42344334D01*
X44114999Y-42177797D01*
X44125500Y-42075008D01*
X44125500Y-40074992D01*
X44114999Y-39972203D01*
X44059814Y-39805666D01*
X44052468Y-39793757D01*
X43967713Y-39656348D01*
X43967710Y-39656344D01*
X43843655Y-39532289D01*
X43843651Y-39532286D01*
X43694337Y-39440187D01*
X43694335Y-39440186D01*
X43583907Y-39403594D01*
X43527797Y-39385001D01*
X43527795Y-39385000D01*
X43425015Y-39374500D01*
X43425008Y-39374500D01*
X43149500Y-39374500D01*
X43082461Y-39354815D01*
X43036706Y-39302011D01*
X43025500Y-39250500D01*
X43025500Y-38775097D01*
X43045185Y-38708058D01*
X43061819Y-38687416D01*
X46265417Y-35483819D01*
X46326740Y-35450334D01*
X46353098Y-35447500D01*
X81375500Y-35447500D01*
X81442539Y-35467185D01*
X81488294Y-35519989D01*
X81499500Y-35571500D01*
X81499500Y-40886313D01*
X81495275Y-40918406D01*
X81474499Y-40995943D01*
X81474499Y-41154054D01*
X81474498Y-41154054D01*
X81499977Y-41249142D01*
X81515423Y-41306785D01*
X81594481Y-41443716D01*
X81594483Y-41443718D01*
X81875084Y-41724319D01*
X81908569Y-41785642D01*
X81903585Y-41855334D01*
X81861713Y-41911267D01*
X81796249Y-41935684D01*
X81787403Y-41936000D01*
X79134978Y-41936000D01*
X79105537Y-41927355D01*
X79075551Y-41920832D01*
X79070535Y-41917077D01*
X79067939Y-41916315D01*
X79047297Y-41899681D01*
X79018709Y-41871093D01*
X78985224Y-41809770D01*
X78990208Y-41740078D01*
X78991798Y-41736035D01*
X79038710Y-41622781D01*
X79096404Y-41407463D01*
X79125500Y-41186457D01*
X79125500Y-40963543D01*
X79096404Y-40742537D01*
X79038710Y-40527219D01*
X79031098Y-40508843D01*
X78953406Y-40321277D01*
X78953405Y-40321274D01*
X78841948Y-40128226D01*
X78706247Y-39951376D01*
X78706242Y-39951370D01*
X78548629Y-39793757D01*
X78548622Y-39793751D01*
X78371782Y-39658058D01*
X78371780Y-39658057D01*
X78371774Y-39658052D01*
X78178726Y-39546595D01*
X78178722Y-39546593D01*
X77972790Y-39461293D01*
X77972783Y-39461291D01*
X77972781Y-39461290D01*
X77757463Y-39403596D01*
X77757457Y-39403595D01*
X77757452Y-39403594D01*
X77536466Y-39374501D01*
X77536463Y-39374500D01*
X77536457Y-39374500D01*
X77313543Y-39374500D01*
X77313537Y-39374500D01*
X77313533Y-39374501D01*
X77092547Y-39403594D01*
X77092540Y-39403595D01*
X77092537Y-39403596D01*
X76955981Y-39440186D01*
X76877219Y-39461290D01*
X76877209Y-39461293D01*
X76671277Y-39546593D01*
X76671273Y-39546595D01*
X76478226Y-39658052D01*
X76478217Y-39658058D01*
X76301377Y-39793751D01*
X76301370Y-39793757D01*
X76143757Y-39951370D01*
X76143751Y-39951377D01*
X76008058Y-40128217D01*
X76008052Y-40128226D01*
X75896595Y-40321273D01*
X75896593Y-40321277D01*
X75811293Y-40527209D01*
X75811290Y-40527219D01*
X75767364Y-40691156D01*
X75753597Y-40742534D01*
X75753594Y-40742547D01*
X75724501Y-40963533D01*
X75724500Y-40963549D01*
X75724500Y-41186450D01*
X75724501Y-41186466D01*
X75753594Y-41407452D01*
X75753595Y-41407457D01*
X75753596Y-41407463D01*
X75811290Y-41622780D01*
X75811293Y-41622790D01*
X75863037Y-41747710D01*
X75896595Y-41828726D01*
X76008052Y-42021774D01*
X76008057Y-42021780D01*
X76008058Y-42021782D01*
X76143751Y-42198622D01*
X76143757Y-42198629D01*
X76301370Y-42356242D01*
X76301376Y-42356247D01*
X76478226Y-42491948D01*
X76671274Y-42603405D01*
X76877219Y-42688710D01*
X77092537Y-42746404D01*
X77313543Y-42775500D01*
X77313550Y-42775500D01*
X77536450Y-42775500D01*
X77536457Y-42775500D01*
X77757463Y-42746404D01*
X77972781Y-42688710D01*
X78085963Y-42641828D01*
X78105836Y-42639691D01*
X78124566Y-42632706D01*
X78139862Y-42636033D01*
X78155427Y-42634360D01*
X78173304Y-42643308D01*
X78192839Y-42647558D01*
X78215125Y-42664241D01*
X78217907Y-42665634D01*
X78221093Y-42668709D01*
X78394346Y-42841962D01*
X78394356Y-42841973D01*
X78398686Y-42846303D01*
X78398687Y-42846304D01*
X78503696Y-42951313D01*
X78617554Y-43017049D01*
X78632304Y-43025565D01*
X78775747Y-43064000D01*
X78775748Y-43064000D01*
X82364033Y-43064000D01*
X82431072Y-43083685D01*
X82469277Y-43125922D01*
X82470699Y-43125051D01*
X82473242Y-43129203D01*
X82519419Y-43192759D01*
X82584310Y-43282073D01*
X82717927Y-43415690D01*
X82848386Y-43510474D01*
X82891051Y-43565803D01*
X82899500Y-43610791D01*
X82899500Y-46389207D01*
X82879815Y-46456246D01*
X82848386Y-46489525D01*
X82717925Y-46584311D01*
X82584312Y-46717924D01*
X82584312Y-46717925D01*
X82584310Y-46717927D01*
X82562167Y-46748404D01*
X82473240Y-46870800D01*
X82387454Y-47039163D01*
X82329059Y-47218881D01*
X82299500Y-47405513D01*
X82299500Y-47594486D01*
X82329059Y-47781118D01*
X82387454Y-47960836D01*
X82473240Y-48129199D01*
X82584310Y-48282073D01*
X82717927Y-48415690D01*
X82870801Y-48526760D01*
X82904150Y-48543752D01*
X83039163Y-48612545D01*
X83039165Y-48612545D01*
X83039168Y-48612547D01*
X83096853Y-48631290D01*
X83218881Y-48670940D01*
X83405514Y-48700500D01*
X83405519Y-48700500D01*
X83594486Y-48700500D01*
X83781118Y-48670940D01*
X83960832Y-48612547D01*
X84129199Y-48526760D01*
X84282073Y-48415690D01*
X84415690Y-48282073D01*
X84526760Y-48129199D01*
X84612547Y-47960832D01*
X84670940Y-47781118D01*
X84690154Y-47659806D01*
X84700500Y-47594486D01*
X84700500Y-47405513D01*
X84670940Y-47218881D01*
X84642867Y-47132482D01*
X84612547Y-47039168D01*
X84612545Y-47039165D01*
X84612545Y-47039163D01*
X84567290Y-46950347D01*
X84526760Y-46870801D01*
X84415690Y-46717927D01*
X84282073Y-46584310D01*
X84199799Y-46524534D01*
X84151614Y-46489525D01*
X84108948Y-46434194D01*
X84100500Y-46389207D01*
X84100500Y-43610791D01*
X84101224Y-43608324D01*
X84100599Y-43605830D01*
X84111016Y-43574975D01*
X84120185Y-43543752D01*
X84122380Y-43541318D01*
X84122950Y-43539632D01*
X84134512Y-43527870D01*
X84147111Y-43513905D01*
X84149311Y-43512147D01*
X84155181Y-43507882D01*
X90465669Y-43507882D01*
X90465670Y-43507883D01*
X90491059Y-43526329D01*
X90659362Y-43612085D01*
X90838997Y-43670451D01*
X91025553Y-43700000D01*
X91214447Y-43700000D01*
X91401002Y-43670451D01*
X91580637Y-43612085D01*
X91748937Y-43526331D01*
X91774328Y-43507883D01*
X91774328Y-43507882D01*
X91120001Y-42853554D01*
X91120000Y-42853554D01*
X90465669Y-43507882D01*
X84155181Y-43507882D01*
X84282073Y-43415690D01*
X84415690Y-43282073D01*
X84526760Y-43129199D01*
X84612547Y-42960832D01*
X84670940Y-42781118D01*
X84676438Y-42746404D01*
X84700500Y-42594486D01*
X84700500Y-42405552D01*
X89920000Y-42405552D01*
X89920000Y-42594447D01*
X89949548Y-42781002D01*
X90007914Y-42960637D01*
X90093666Y-43128933D01*
X90112116Y-43154328D01*
X90766446Y-42500000D01*
X90766446Y-42499999D01*
X90720369Y-42453922D01*
X90770000Y-42453922D01*
X90770000Y-42546078D01*
X90793852Y-42635095D01*
X90839930Y-42714905D01*
X90905095Y-42780070D01*
X90984905Y-42826148D01*
X91073922Y-42850000D01*
X91166078Y-42850000D01*
X91255095Y-42826148D01*
X91334905Y-42780070D01*
X91400070Y-42714905D01*
X91446148Y-42635095D01*
X91470000Y-42546078D01*
X91470000Y-42499999D01*
X91473554Y-42499999D01*
X91473554Y-42500000D01*
X92127882Y-43154328D01*
X92127883Y-43154328D01*
X92146331Y-43128937D01*
X92232085Y-42960637D01*
X92290451Y-42781002D01*
X92320000Y-42594447D01*
X92320000Y-42405552D01*
X92290451Y-42218997D01*
X92232085Y-42039362D01*
X92146329Y-41871059D01*
X92127883Y-41845670D01*
X92127882Y-41845669D01*
X91473554Y-42499999D01*
X91470000Y-42499999D01*
X91470000Y-42453922D01*
X91446148Y-42364905D01*
X91400070Y-42285095D01*
X91334905Y-42219930D01*
X91255095Y-42173852D01*
X91166078Y-42150000D01*
X91073922Y-42150000D01*
X90984905Y-42173852D01*
X90905095Y-42219930D01*
X90839930Y-42285095D01*
X90793852Y-42364905D01*
X90770000Y-42453922D01*
X90720369Y-42453922D01*
X90112116Y-41845669D01*
X90112116Y-41845670D01*
X90093669Y-41871060D01*
X90007914Y-42039362D01*
X89949548Y-42218997D01*
X89920000Y-42405552D01*
X84700500Y-42405552D01*
X84700500Y-42405513D01*
X84670940Y-42218881D01*
X84614601Y-42045490D01*
X84612547Y-42039168D01*
X84612545Y-42039165D01*
X84612545Y-42039163D01*
X84559819Y-41935684D01*
X84526760Y-41870801D01*
X84415690Y-41717927D01*
X84282073Y-41584310D01*
X84155179Y-41492116D01*
X90465669Y-41492116D01*
X91120000Y-42146446D01*
X91120001Y-42146446D01*
X91774328Y-41492116D01*
X91748933Y-41473666D01*
X91580637Y-41387914D01*
X91401002Y-41329548D01*
X91214447Y-41300000D01*
X91025553Y-41300000D01*
X90838997Y-41329548D01*
X90659362Y-41387914D01*
X90491060Y-41473669D01*
X90465670Y-41492116D01*
X90465669Y-41492116D01*
X84155179Y-41492116D01*
X84129199Y-41473240D01*
X83960836Y-41387454D01*
X83781118Y-41329059D01*
X83594486Y-41299500D01*
X83594481Y-41299500D01*
X83405519Y-41299500D01*
X83405514Y-41299500D01*
X83246247Y-41324725D01*
X83176953Y-41315770D01*
X83139168Y-41289933D01*
X82736819Y-40887584D01*
X82703334Y-40826261D01*
X82700500Y-40799903D01*
X82700500Y-37183718D01*
X82720185Y-37116679D01*
X82772989Y-37070924D01*
X82842147Y-37060980D01*
X82905703Y-37090005D01*
X82912181Y-37096037D01*
X83035024Y-37218880D01*
X83035032Y-37218886D01*
X83186608Y-37320166D01*
X83186612Y-37320168D01*
X83355037Y-37389931D01*
X83355042Y-37389933D01*
X83355046Y-37389933D01*
X83355047Y-37389934D01*
X83533843Y-37425500D01*
X83533846Y-37425500D01*
X83716156Y-37425500D01*
X83836445Y-37401572D01*
X83894958Y-37389933D01*
X84007245Y-37343422D01*
X84063387Y-37320168D01*
X84063391Y-37320166D01*
X84138672Y-37269864D01*
X84214972Y-37218883D01*
X84297037Y-37136817D01*
X84358358Y-37103334D01*
X84384717Y-37100500D01*
X105275500Y-37100500D01*
X105342539Y-37120185D01*
X105388294Y-37172989D01*
X105399500Y-37224500D01*
X105399500Y-54913330D01*
X105399499Y-54913348D01*
X105399499Y-55079054D01*
X105399498Y-55079054D01*
X105399499Y-55079057D01*
X105440423Y-55231785D01*
X105464749Y-55273918D01*
X105519479Y-55368714D01*
X105519481Y-55368717D01*
X105638349Y-55487585D01*
X105638355Y-55487590D01*
X106138584Y-55987819D01*
X106172069Y-56049142D01*
X106167085Y-56118834D01*
X106125213Y-56174767D01*
X106059749Y-56199184D01*
X106050903Y-56199500D01*
X105921155Y-56199500D01*
X105766510Y-56230261D01*
X105766498Y-56230264D01*
X105620827Y-56290602D01*
X105620814Y-56290609D01*
X105489711Y-56378210D01*
X105489707Y-56378213D01*
X105378213Y-56489707D01*
X105378210Y-56489711D01*
X105290609Y-56620814D01*
X105290602Y-56620827D01*
X105230264Y-56766498D01*
X105230261Y-56766510D01*
X105199500Y-56921153D01*
X105199500Y-57078846D01*
X105230261Y-57233489D01*
X105230264Y-57233501D01*
X105290602Y-57379172D01*
X105290609Y-57379185D01*
X105378210Y-57510288D01*
X105378213Y-57510292D01*
X105489707Y-57621786D01*
X105489711Y-57621789D01*
X105620814Y-57709390D01*
X105620827Y-57709397D01*
X105649917Y-57721446D01*
X105766503Y-57769737D01*
X105797018Y-57775806D01*
X105858929Y-57808191D01*
X105860507Y-57809742D01*
X107451284Y-59400520D01*
X107451286Y-59400521D01*
X107451290Y-59400524D01*
X107555748Y-59460832D01*
X107588216Y-59479577D01*
X107740943Y-59520501D01*
X107740945Y-59520501D01*
X107906654Y-59520501D01*
X107906670Y-59520500D01*
X123670398Y-59520500D01*
X123737437Y-59540185D01*
X123780883Y-59588205D01*
X123787715Y-59601614D01*
X123908028Y-59767213D01*
X124052786Y-59911971D01*
X124200764Y-60019481D01*
X124218390Y-60032287D01*
X124288534Y-60068027D01*
X124311629Y-60079795D01*
X124362425Y-60127770D01*
X124379220Y-60195591D01*
X124356682Y-60261726D01*
X124311629Y-60300765D01*
X124218650Y-60348140D01*
X124053105Y-60468417D01*
X124053104Y-60468417D01*
X123908417Y-60613104D01*
X123908417Y-60613105D01*
X123788140Y-60778650D01*
X123695244Y-60960970D01*
X123632009Y-61155586D01*
X123623391Y-61210000D01*
X124724722Y-61210000D01*
X124680667Y-61286306D01*
X124650000Y-61400756D01*
X124650000Y-61519244D01*
X124680667Y-61633694D01*
X124724722Y-61710000D01*
X123623391Y-61710000D01*
X123632009Y-61764413D01*
X123695244Y-61959029D01*
X123788140Y-62141349D01*
X123908417Y-62306894D01*
X123908417Y-62306895D01*
X123939778Y-62338256D01*
X123973263Y-62399579D01*
X123968279Y-62469271D01*
X123926407Y-62525204D01*
X123895431Y-62542118D01*
X123857676Y-62556200D01*
X123857664Y-62556206D01*
X123742455Y-62642452D01*
X123742452Y-62642455D01*
X123656206Y-62757664D01*
X123656202Y-62757671D01*
X123605908Y-62892517D01*
X123599501Y-62952116D01*
X123599500Y-62952135D01*
X123599500Y-63275500D01*
X123579815Y-63342539D01*
X123527011Y-63388294D01*
X123475500Y-63399500D01*
X108300097Y-63399500D01*
X108233058Y-63379815D01*
X108212416Y-63363181D01*
X104987590Y-60138355D01*
X104987588Y-60138352D01*
X104868717Y-60019481D01*
X104868709Y-60019475D01*
X104779923Y-59968215D01*
X104779922Y-59968215D01*
X104731785Y-59940423D01*
X104579057Y-59899499D01*
X104420943Y-59899499D01*
X104413347Y-59899499D01*
X104413331Y-59899500D01*
X103579222Y-59899500D01*
X103512183Y-59879815D01*
X103466428Y-59827011D01*
X103456484Y-59757853D01*
X103478904Y-59702615D01*
X103515794Y-59651837D01*
X103552287Y-59601610D01*
X103645220Y-59419219D01*
X103708477Y-59224534D01*
X103740500Y-59022352D01*
X103740500Y-58817648D01*
X103731625Y-58761615D01*
X103708477Y-58615465D01*
X103661200Y-58469962D01*
X103645220Y-58420781D01*
X103645218Y-58420778D01*
X103645218Y-58420776D01*
X103603600Y-58339097D01*
X103552287Y-58238390D01*
X103537420Y-58217927D01*
X103431971Y-58072786D01*
X103287213Y-57928028D01*
X103121614Y-57807715D01*
X103086715Y-57789933D01*
X103028917Y-57760483D01*
X102978123Y-57712511D01*
X102961328Y-57644690D01*
X102983865Y-57578555D01*
X103028917Y-57539516D01*
X103121610Y-57492287D01*
X103152338Y-57469962D01*
X103287213Y-57371971D01*
X103287215Y-57371968D01*
X103287219Y-57371966D01*
X103431966Y-57227219D01*
X103431968Y-57227215D01*
X103431971Y-57227213D01*
X103515368Y-57112425D01*
X103552287Y-57061610D01*
X103645220Y-56879219D01*
X103708477Y-56684534D01*
X103740500Y-56482352D01*
X103740500Y-56277648D01*
X103713764Y-56108846D01*
X103708477Y-56075465D01*
X103645218Y-55880776D01*
X103611503Y-55814607D01*
X103552287Y-55698390D01*
X103544556Y-55687749D01*
X103431971Y-55532786D01*
X103287213Y-55388028D01*
X103121614Y-55267715D01*
X103051097Y-55231785D01*
X103028917Y-55220483D01*
X102978123Y-55172511D01*
X102961328Y-55104690D01*
X102983865Y-55038555D01*
X103028917Y-54999516D01*
X103121610Y-54952287D01*
X103164757Y-54920939D01*
X103287213Y-54831971D01*
X103287215Y-54831968D01*
X103287219Y-54831966D01*
X103431966Y-54687219D01*
X103431968Y-54687215D01*
X103431971Y-54687213D01*
X103484732Y-54614590D01*
X103552287Y-54521610D01*
X103645220Y-54339219D01*
X103708477Y-54144534D01*
X103740500Y-53942352D01*
X103740500Y-53737648D01*
X103737887Y-53721153D01*
X103708477Y-53535465D01*
X103679127Y-53445137D01*
X103645220Y-53340781D01*
X103645218Y-53340778D01*
X103645218Y-53340776D01*
X103611448Y-53274500D01*
X103552287Y-53158390D01*
X103523158Y-53118297D01*
X103431971Y-52992786D01*
X103287213Y-52848028D01*
X103121614Y-52727715D01*
X103115006Y-52724348D01*
X103028917Y-52680483D01*
X102978123Y-52632511D01*
X102961328Y-52564690D01*
X102983865Y-52498555D01*
X103028917Y-52459516D01*
X103121610Y-52412287D01*
X103142770Y-52396913D01*
X103287213Y-52291971D01*
X103287215Y-52291968D01*
X103287219Y-52291966D01*
X103431966Y-52147219D01*
X103431968Y-52147215D01*
X103431971Y-52147213D01*
X103500129Y-52053400D01*
X103552287Y-51981610D01*
X103645220Y-51799219D01*
X103708477Y-51604534D01*
X103740500Y-51402352D01*
X103740500Y-51197648D01*
X103723715Y-51091675D01*
X103708477Y-50995465D01*
X103651296Y-50819481D01*
X103645220Y-50800781D01*
X103645218Y-50800778D01*
X103645218Y-50800776D01*
X103611503Y-50734607D01*
X103552287Y-50618390D01*
X103497338Y-50542758D01*
X103431971Y-50452786D01*
X103287213Y-50308028D01*
X103121614Y-50187715D01*
X103068060Y-50160428D01*
X103028917Y-50140483D01*
X102978123Y-50092511D01*
X102961328Y-50024690D01*
X102983865Y-49958555D01*
X103028917Y-49919516D01*
X103121610Y-49872287D01*
X103144897Y-49855368D01*
X103287213Y-49751971D01*
X103287215Y-49751968D01*
X103287219Y-49751966D01*
X103431966Y-49607219D01*
X103431968Y-49607215D01*
X103431971Y-49607213D01*
X103522732Y-49482289D01*
X103552287Y-49441610D01*
X103645220Y-49259219D01*
X103708477Y-49064534D01*
X103740500Y-48862352D01*
X103740500Y-48657648D01*
X103718616Y-48519478D01*
X103708477Y-48455465D01*
X103652139Y-48282075D01*
X103645220Y-48260781D01*
X103645218Y-48260778D01*
X103645218Y-48260776D01*
X103595163Y-48162539D01*
X103552287Y-48078390D01*
X103544556Y-48067749D01*
X103431971Y-47912786D01*
X103287213Y-47768028D01*
X103121614Y-47647715D01*
X103085076Y-47629098D01*
X103028917Y-47600483D01*
X102978123Y-47552511D01*
X102961328Y-47484690D01*
X102983865Y-47418555D01*
X103028917Y-47379516D01*
X103121610Y-47332287D01*
X103142770Y-47316913D01*
X103287213Y-47211971D01*
X103287215Y-47211968D01*
X103287219Y-47211966D01*
X103431966Y-47067219D01*
X103431968Y-47067215D01*
X103431971Y-47067213D01*
X103497814Y-46976586D01*
X103552287Y-46901610D01*
X103645220Y-46719219D01*
X103708477Y-46524534D01*
X103740500Y-46322352D01*
X103740500Y-46117648D01*
X103708477Y-45915466D01*
X103645220Y-45720781D01*
X103645218Y-45720778D01*
X103645218Y-45720776D01*
X103611503Y-45654607D01*
X103552287Y-45538390D01*
X103504263Y-45472290D01*
X103431971Y-45372786D01*
X103287213Y-45228028D01*
X103121613Y-45107715D01*
X103121612Y-45107714D01*
X103121610Y-45107713D01*
X103064653Y-45078691D01*
X102939223Y-45014781D01*
X102744534Y-44951522D01*
X102569995Y-44923878D01*
X102542352Y-44919500D01*
X101937648Y-44919500D01*
X101913329Y-44923351D01*
X101735465Y-44951522D01*
X101540776Y-45014781D01*
X101358386Y-45107715D01*
X101192786Y-45228028D01*
X101048028Y-45372786D01*
X100927715Y-45538386D01*
X100834781Y-45720776D01*
X100771522Y-45915465D01*
X100750137Y-46050489D01*
X100739500Y-46117648D01*
X100739500Y-46322352D01*
X100743878Y-46349995D01*
X100771522Y-46524534D01*
X100834781Y-46719223D01*
X100875940Y-46800000D01*
X100912014Y-46870800D01*
X100927715Y-46901613D01*
X101048028Y-47067213D01*
X101192786Y-47211971D01*
X101347749Y-47324556D01*
X101358390Y-47332287D01*
X101431425Y-47369500D01*
X101451080Y-47379515D01*
X101501876Y-47427490D01*
X101518671Y-47495311D01*
X101496134Y-47561446D01*
X101451080Y-47600485D01*
X101358386Y-47647715D01*
X101192786Y-47768028D01*
X101048028Y-47912786D01*
X100927715Y-48078386D01*
X100834781Y-48260776D01*
X100771522Y-48455465D01*
X100739500Y-48657648D01*
X100739500Y-48862351D01*
X100771522Y-49064534D01*
X100834781Y-49259223D01*
X100898680Y-49384630D01*
X100903776Y-49394632D01*
X100927715Y-49441613D01*
X101048028Y-49607213D01*
X101192786Y-49751971D01*
X101335103Y-49855368D01*
X101358390Y-49872287D01*
X101449840Y-49918883D01*
X101451080Y-49919515D01*
X101501876Y-49967490D01*
X101518671Y-50035311D01*
X101496134Y-50101446D01*
X101451080Y-50140485D01*
X101358386Y-50187715D01*
X101192786Y-50308028D01*
X101048028Y-50452786D01*
X100927715Y-50618386D01*
X100834781Y-50800776D01*
X100771522Y-50995465D01*
X100739500Y-51197648D01*
X100739500Y-51402351D01*
X100771522Y-51604534D01*
X100834781Y-51799223D01*
X100885876Y-51899500D01*
X100920532Y-51967517D01*
X100927715Y-51981613D01*
X101048028Y-52147213D01*
X101192786Y-52291971D01*
X101347749Y-52404556D01*
X101358390Y-52412287D01*
X101449840Y-52458883D01*
X101451080Y-52459515D01*
X101501876Y-52507490D01*
X101518671Y-52575311D01*
X101496134Y-52641446D01*
X101451080Y-52680485D01*
X101358386Y-52727715D01*
X101192786Y-52848028D01*
X101048028Y-52992786D01*
X100927715Y-53158386D01*
X100834781Y-53340776D01*
X100771522Y-53535465D01*
X100739500Y-53737648D01*
X100739500Y-53942351D01*
X100771522Y-54144534D01*
X100834781Y-54339223D01*
X100896250Y-54459860D01*
X100921490Y-54509397D01*
X100927715Y-54521613D01*
X101048028Y-54687213D01*
X101192786Y-54831971D01*
X101315248Y-54920943D01*
X101358390Y-54952287D01*
X101449840Y-54998883D01*
X101451080Y-54999515D01*
X101501876Y-55047490D01*
X101518671Y-55115311D01*
X101496134Y-55181446D01*
X101451080Y-55220485D01*
X101358386Y-55267715D01*
X101192786Y-55388028D01*
X101048028Y-55532786D01*
X100927715Y-55698386D01*
X100834781Y-55880776D01*
X100771522Y-56075465D01*
X100739500Y-56277648D01*
X100739500Y-56482351D01*
X100771522Y-56684534D01*
X100834781Y-56879223D01*
X100891321Y-56990187D01*
X100927226Y-57060655D01*
X100927715Y-57061613D01*
X101048028Y-57227213D01*
X101192786Y-57371971D01*
X101327662Y-57469962D01*
X101358390Y-57492287D01*
X101449840Y-57538883D01*
X101451080Y-57539515D01*
X101501876Y-57587490D01*
X101518671Y-57655311D01*
X101496134Y-57721446D01*
X101451080Y-57760485D01*
X101358386Y-57807715D01*
X101192786Y-57928028D01*
X101048028Y-58072786D01*
X100927715Y-58238386D01*
X100834781Y-58420776D01*
X100771522Y-58615465D01*
X100739500Y-58817648D01*
X100739500Y-59022351D01*
X100771522Y-59224534D01*
X100834781Y-59419223D01*
X100927715Y-59601613D01*
X101001096Y-59702615D01*
X101024576Y-59768422D01*
X101008750Y-59836475D01*
X100958644Y-59885170D01*
X100900778Y-59899500D01*
X93820940Y-59899500D01*
X93780019Y-59910464D01*
X93780019Y-59910465D01*
X93760516Y-59915691D01*
X93668214Y-59940423D01*
X93668209Y-59940426D01*
X93531290Y-60019475D01*
X93531282Y-60019481D01*
X93419480Y-60131283D01*
X93419480Y-60131284D01*
X93419478Y-60131286D01*
X93350264Y-60200500D01*
X93287680Y-60263084D01*
X93226357Y-60296568D01*
X93156665Y-60291584D01*
X93112318Y-60263083D01*
X92210066Y-59360831D01*
X92176581Y-59299508D01*
X92175274Y-59253752D01*
X92179778Y-59225319D01*
X92185330Y-59190263D01*
X92200500Y-59094486D01*
X92200500Y-58905513D01*
X92170940Y-58718881D01*
X92137338Y-58615466D01*
X92112547Y-58539168D01*
X92112545Y-58539165D01*
X92112545Y-58539163D01*
X92059819Y-58435684D01*
X92026760Y-58370801D01*
X91915690Y-58217927D01*
X91782073Y-58084310D01*
X91781064Y-58083577D01*
X91771611Y-58076708D01*
X91728947Y-58021377D01*
X91720500Y-57976393D01*
X91720500Y-48610791D01*
X91740185Y-48543752D01*
X91771612Y-48510475D01*
X91902073Y-48415690D01*
X92035690Y-48282073D01*
X92146760Y-48129199D01*
X92232547Y-47960832D01*
X92290940Y-47781118D01*
X92310154Y-47659806D01*
X92320500Y-47594486D01*
X92320500Y-47405513D01*
X92290940Y-47218881D01*
X92262867Y-47132482D01*
X92232547Y-47039168D01*
X92232545Y-47039165D01*
X92232545Y-47039163D01*
X92187290Y-46950347D01*
X92146760Y-46870801D01*
X92035690Y-46717927D01*
X91902073Y-46584310D01*
X91749199Y-46473240D01*
X91720500Y-46458617D01*
X91580836Y-46387454D01*
X91401118Y-46329059D01*
X91214486Y-46299500D01*
X91214481Y-46299500D01*
X91025519Y-46299500D01*
X91025514Y-46299500D01*
X90838881Y-46329059D01*
X90659163Y-46387454D01*
X90490800Y-46473240D01*
X90420201Y-46524534D01*
X90337927Y-46584310D01*
X90337925Y-46584312D01*
X90337924Y-46584312D01*
X90204312Y-46717924D01*
X90204312Y-46717925D01*
X90204310Y-46717927D01*
X90182167Y-46748404D01*
X90093240Y-46870800D01*
X90007454Y-47039163D01*
X89949059Y-47218881D01*
X89919500Y-47405513D01*
X89919500Y-47594486D01*
X89949059Y-47781118D01*
X90007454Y-47960836D01*
X90093240Y-48129199D01*
X90204310Y-48282073D01*
X90337927Y-48415690D01*
X90468386Y-48510474D01*
X90511051Y-48565803D01*
X90519500Y-48610791D01*
X90519500Y-57821486D01*
X90499815Y-57888525D01*
X90451795Y-57931970D01*
X90370805Y-57973236D01*
X90279279Y-58039735D01*
X90217927Y-58084310D01*
X90217925Y-58084312D01*
X90217924Y-58084312D01*
X90084312Y-58217924D01*
X90084312Y-58217925D01*
X90084310Y-58217927D01*
X90044981Y-58272058D01*
X89973240Y-58370800D01*
X89887454Y-58539163D01*
X89829059Y-58718881D01*
X89799500Y-58905513D01*
X89799500Y-59094486D01*
X89829059Y-59281118D01*
X89887454Y-59460836D01*
X89959183Y-59601610D01*
X89973240Y-59629199D01*
X90084310Y-59782073D01*
X90217927Y-59915690D01*
X90370801Y-60026760D01*
X90450347Y-60067290D01*
X90539163Y-60112545D01*
X90539165Y-60112545D01*
X90539168Y-60112547D01*
X90635497Y-60143846D01*
X90718881Y-60170940D01*
X90905514Y-60200500D01*
X90905519Y-60200500D01*
X91094486Y-60200500D01*
X91211017Y-60182042D01*
X91253753Y-60175274D01*
X91323045Y-60184228D01*
X91360831Y-60210066D01*
X92364659Y-61213894D01*
X92379586Y-61241231D01*
X92396227Y-61267579D01*
X92396577Y-61272348D01*
X92398144Y-61275217D01*
X92400974Y-61302553D01*
X92400869Y-61315828D01*
X92399499Y-61320943D01*
X92399499Y-61479057D01*
X92399500Y-61479060D01*
X92399500Y-61489529D01*
X92399500Y-63351435D01*
X92379815Y-63418474D01*
X92327011Y-63464229D01*
X92257853Y-63474173D01*
X92194297Y-63445148D01*
X92165016Y-63407731D01*
X92146331Y-63371061D01*
X92127883Y-63345670D01*
X92127882Y-63345669D01*
X91470000Y-64003553D01*
X91470000Y-63953922D01*
X91446148Y-63864905D01*
X91400070Y-63785095D01*
X91334905Y-63719930D01*
X91255095Y-63673852D01*
X91166078Y-63650000D01*
X91073922Y-63650000D01*
X90984905Y-63673852D01*
X90905095Y-63719930D01*
X90839930Y-63785095D01*
X90793852Y-63864905D01*
X90770000Y-63953922D01*
X90770000Y-64046078D01*
X90793852Y-64135095D01*
X90839930Y-64214905D01*
X90905095Y-64280070D01*
X90984905Y-64326148D01*
X91073922Y-64350000D01*
X91123553Y-64350000D01*
X90465669Y-65007882D01*
X90465670Y-65007883D01*
X90491059Y-65026329D01*
X90659362Y-65112085D01*
X90838997Y-65170451D01*
X91025553Y-65200000D01*
X91214447Y-65200000D01*
X91401002Y-65170451D01*
X91580637Y-65112085D01*
X91748940Y-65026329D01*
X91847414Y-64954785D01*
X91913220Y-64931305D01*
X91981274Y-64947130D01*
X92029969Y-64997236D01*
X92043844Y-65065714D01*
X92018495Y-65130823D01*
X92007980Y-65142784D01*
X90519481Y-66631282D01*
X90519479Y-66631284D01*
X90503059Y-66659725D01*
X90496119Y-66671747D01*
X90440423Y-66768215D01*
X90399499Y-66920943D01*
X90399499Y-66920945D01*
X90399499Y-67089046D01*
X90399500Y-67089059D01*
X90399500Y-75389207D01*
X90379815Y-75456246D01*
X90348386Y-75489525D01*
X90217925Y-75584311D01*
X90084312Y-75717924D01*
X90084312Y-75717925D01*
X90084310Y-75717927D01*
X90079666Y-75724319D01*
X89973240Y-75870800D01*
X89887454Y-76039163D01*
X89829059Y-76218881D01*
X89799500Y-76405513D01*
X89799500Y-76594486D01*
X89829059Y-76781118D01*
X89887454Y-76960836D01*
X89953296Y-77090057D01*
X89973240Y-77129199D01*
X90084310Y-77282073D01*
X90217927Y-77415690D01*
X90370801Y-77526760D01*
X90404150Y-77543752D01*
X90539163Y-77612545D01*
X90539165Y-77612545D01*
X90539168Y-77612547D01*
X90635497Y-77643846D01*
X90718881Y-77670940D01*
X90905514Y-77700500D01*
X90905519Y-77700500D01*
X91094486Y-77700500D01*
X91211017Y-77682042D01*
X91253753Y-77675274D01*
X91323045Y-77684228D01*
X91360831Y-77710066D01*
X93263181Y-79612416D01*
X93296666Y-79673739D01*
X93299500Y-79700097D01*
X93299500Y-86275500D01*
X93279815Y-86342539D01*
X93227011Y-86388294D01*
X93175500Y-86399500D01*
X55920940Y-86399500D01*
X55880019Y-86410464D01*
X55880019Y-86410465D01*
X55842751Y-86420451D01*
X55768214Y-86440423D01*
X55768209Y-86440426D01*
X55631290Y-86519475D01*
X55631282Y-86519481D01*
X54819479Y-87331284D01*
X54804289Y-87357594D01*
X54797869Y-87368716D01*
X54740423Y-87468215D01*
X54699499Y-87620943D01*
X54699499Y-87620945D01*
X54699499Y-87789046D01*
X54699500Y-87789059D01*
X54699500Y-91099242D01*
X54679815Y-91166281D01*
X54631795Y-91209727D01*
X54538461Y-91257283D01*
X54464051Y-91311346D01*
X54353434Y-91391714D01*
X54353432Y-91391716D01*
X54353431Y-91391716D01*
X54191716Y-91553431D01*
X54191716Y-91553432D01*
X54191714Y-91553434D01*
X54150318Y-91610411D01*
X54094988Y-91653076D01*
X54025374Y-91659055D01*
X53963579Y-91626449D01*
X53949682Y-91610411D01*
X53908286Y-91553434D01*
X53746566Y-91391714D01*
X53561538Y-91257283D01*
X53468204Y-91209727D01*
X53357755Y-91153450D01*
X53140248Y-91082778D01*
X52970826Y-91055944D01*
X52914354Y-91047000D01*
X52685646Y-91047000D01*
X52610349Y-91058926D01*
X52459753Y-91082778D01*
X52459750Y-91082778D01*
X52242244Y-91153450D01*
X52038461Y-91257283D01*
X51964051Y-91311346D01*
X51853434Y-91391714D01*
X51853432Y-91391716D01*
X51853431Y-91391716D01*
X51691716Y-91553431D01*
X51691716Y-91553432D01*
X51691714Y-91553434D01*
X51650318Y-91610411D01*
X51594988Y-91653076D01*
X51525374Y-91659055D01*
X51463579Y-91626449D01*
X51449682Y-91610411D01*
X51408286Y-91553434D01*
X51246566Y-91391714D01*
X51061538Y-91257283D01*
X50968204Y-91209727D01*
X50857755Y-91153450D01*
X50640248Y-91082778D01*
X50470826Y-91055944D01*
X50414354Y-91047000D01*
X50185646Y-91047000D01*
X50110349Y-91058926D01*
X49959753Y-91082778D01*
X49959750Y-91082778D01*
X49742244Y-91153450D01*
X49538461Y-91257283D01*
X49464051Y-91311346D01*
X49353434Y-91391714D01*
X49353432Y-91391716D01*
X49353431Y-91391716D01*
X49191716Y-91553431D01*
X49191716Y-91553432D01*
X49191714Y-91553434D01*
X49150318Y-91610411D01*
X49057283Y-91738461D01*
X48953450Y-91942244D01*
X48882778Y-92159750D01*
X48882778Y-92159753D01*
X48847000Y-92385646D01*
X48847000Y-92614353D01*
X48882778Y-92840246D01*
X48882778Y-92840249D01*
X48953450Y-93057755D01*
X49050000Y-93247244D01*
X49057283Y-93261538D01*
X49191714Y-93446566D01*
X49353434Y-93608286D01*
X49538462Y-93742717D01*
X49741327Y-93846082D01*
X49742244Y-93846549D01*
X49959751Y-93917221D01*
X49959752Y-93917221D01*
X49959755Y-93917222D01*
X50185646Y-93953000D01*
X50185647Y-93953000D01*
X50414353Y-93953000D01*
X50414354Y-93953000D01*
X50640245Y-93917222D01*
X50640248Y-93917221D01*
X50640249Y-93917221D01*
X50857755Y-93846549D01*
X50857755Y-93846548D01*
X50857758Y-93846548D01*
X51061538Y-93742717D01*
X51246566Y-93608286D01*
X51408286Y-93446566D01*
X51449682Y-93389588D01*
X51505012Y-93346923D01*
X51574625Y-93340944D01*
X51636420Y-93373549D01*
X51650316Y-93389586D01*
X51691714Y-93446566D01*
X51853434Y-93608286D01*
X52038462Y-93742717D01*
X52241327Y-93846082D01*
X52242244Y-93846549D01*
X52459751Y-93917221D01*
X52459752Y-93917221D01*
X52459755Y-93917222D01*
X52685646Y-93953000D01*
X52685647Y-93953000D01*
X52914353Y-93953000D01*
X52914354Y-93953000D01*
X53140245Y-93917222D01*
X53140248Y-93917221D01*
X53140249Y-93917221D01*
X53357755Y-93846549D01*
X53357755Y-93846548D01*
X53357758Y-93846548D01*
X53561538Y-93742717D01*
X53746566Y-93608286D01*
X53908286Y-93446566D01*
X53949682Y-93389588D01*
X54005012Y-93346923D01*
X54074625Y-93340944D01*
X54136420Y-93373549D01*
X54150316Y-93389586D01*
X54191714Y-93446566D01*
X54353434Y-93608286D01*
X54538462Y-93742717D01*
X54741327Y-93846082D01*
X54742244Y-93846549D01*
X54959751Y-93917221D01*
X54959752Y-93917221D01*
X54959755Y-93917222D01*
X55185646Y-93953000D01*
X55185647Y-93953000D01*
X55414353Y-93953000D01*
X55414354Y-93953000D01*
X55640245Y-93917222D01*
X55640248Y-93917221D01*
X55640249Y-93917221D01*
X55857755Y-93846549D01*
X55857755Y-93846548D01*
X55857758Y-93846548D01*
X56061538Y-93742717D01*
X56246566Y-93608286D01*
X56408286Y-93446566D01*
X56458749Y-93377109D01*
X56462927Y-93372436D01*
X56487488Y-93357182D01*
X56510385Y-93339526D01*
X56517641Y-93338456D01*
X56522282Y-93335574D01*
X56535776Y-93335782D01*
X56565103Y-93331459D01*
X56611348Y-93335098D01*
X57122421Y-92824024D01*
X57135359Y-92855258D01*
X57217437Y-92978097D01*
X57321903Y-93082563D01*
X57444742Y-93164641D01*
X57475973Y-93177577D01*
X56964899Y-93688651D01*
X57038725Y-93742288D01*
X57038731Y-93742292D01*
X57242431Y-93846082D01*
X57459875Y-93916734D01*
X57685687Y-93952500D01*
X57914313Y-93952500D01*
X58140124Y-93916734D01*
X58140125Y-93916734D01*
X58357568Y-93846082D01*
X58561276Y-93742288D01*
X58635098Y-93688651D01*
X58124025Y-93177578D01*
X58155258Y-93164641D01*
X58278097Y-93082563D01*
X58382563Y-92978097D01*
X58464641Y-92855258D01*
X58477578Y-92824025D01*
X58988651Y-93335098D01*
X59042288Y-93261276D01*
X59146082Y-93057568D01*
X59216734Y-92840125D01*
X59216734Y-92840124D01*
X59252500Y-92614313D01*
X59252500Y-92385686D01*
X59216734Y-92159875D01*
X59216734Y-92159874D01*
X59146082Y-91942431D01*
X59042292Y-91738731D01*
X59042288Y-91738725D01*
X58988651Y-91664900D01*
X58988651Y-91664899D01*
X58477577Y-92175973D01*
X58464641Y-92144742D01*
X58382563Y-92021903D01*
X58278097Y-91917437D01*
X58155258Y-91835359D01*
X58124024Y-91822421D01*
X58635099Y-91311347D01*
X58561276Y-91257711D01*
X58357568Y-91153917D01*
X58140124Y-91083265D01*
X57914313Y-91047500D01*
X57685687Y-91047500D01*
X57459875Y-91083265D01*
X57459874Y-91083265D01*
X57242431Y-91153917D01*
X57038719Y-91257713D01*
X56964900Y-91311346D01*
X56964899Y-91311347D01*
X57475974Y-91822421D01*
X57444742Y-91835359D01*
X57321903Y-91917437D01*
X57217437Y-92021903D01*
X57135359Y-92144742D01*
X57122421Y-92175974D01*
X56611347Y-91664899D01*
X56565101Y-91668539D01*
X56561146Y-91667708D01*
X56557289Y-91668906D01*
X56527239Y-91660584D01*
X56496724Y-91654174D01*
X56492729Y-91651028D01*
X56489954Y-91650260D01*
X56480016Y-91641019D01*
X56462926Y-91627562D01*
X56458745Y-91622885D01*
X56408286Y-91553434D01*
X56246566Y-91391714D01*
X56061538Y-91257283D01*
X55968205Y-91209727D01*
X55917409Y-91161752D01*
X55900500Y-91099242D01*
X55900500Y-88000097D01*
X55920185Y-87933058D01*
X55936819Y-87912416D01*
X56212416Y-87636819D01*
X56273739Y-87603334D01*
X56300097Y-87600500D01*
X93979055Y-87600500D01*
X93979057Y-87600500D01*
X94131784Y-87559577D01*
X94268716Y-87480520D01*
X94380520Y-87368716D01*
X94459577Y-87231784D01*
X94500500Y-87079057D01*
X94500500Y-79320943D01*
X94459577Y-79168216D01*
X94438946Y-79132482D01*
X94380524Y-79031290D01*
X94380521Y-79031286D01*
X94380520Y-79031284D01*
X94268716Y-78919480D01*
X94268715Y-78919479D01*
X94264385Y-78915149D01*
X94264374Y-78915139D01*
X92210066Y-76860831D01*
X92176581Y-76799508D01*
X92175274Y-76753752D01*
X92180180Y-76722781D01*
X92182042Y-76711017D01*
X92200500Y-76594486D01*
X92200500Y-76405513D01*
X92170940Y-76218881D01*
X92125439Y-76078846D01*
X92112547Y-76039168D01*
X92112545Y-76039165D01*
X92112545Y-76039163D01*
X92052418Y-75921158D01*
X92026760Y-75870801D01*
X91915690Y-75717927D01*
X91782073Y-75584310D01*
X91708202Y-75530639D01*
X91651614Y-75489525D01*
X91608948Y-75434194D01*
X91600500Y-75389207D01*
X91600500Y-68301577D01*
X102199500Y-68301577D01*
X102199500Y-68498422D01*
X102230290Y-68692826D01*
X102291117Y-68880029D01*
X102324410Y-68945369D01*
X102380476Y-69055405D01*
X102496172Y-69214646D01*
X102635354Y-69353828D01*
X102794595Y-69469524D01*
X102871763Y-69508843D01*
X102969970Y-69558882D01*
X102969972Y-69558882D01*
X102969975Y-69558884D01*
X103070317Y-69591487D01*
X103157173Y-69619709D01*
X103351578Y-69650500D01*
X103351583Y-69650500D01*
X103548422Y-69650500D01*
X103742826Y-69619709D01*
X103930025Y-69558884D01*
X104105405Y-69469524D01*
X104264646Y-69353828D01*
X104403828Y-69214646D01*
X104519524Y-69055405D01*
X104608884Y-68880025D01*
X104669709Y-68692826D01*
X104690384Y-68562289D01*
X104700500Y-68498422D01*
X104700500Y-68301577D01*
X122599500Y-68301577D01*
X122599500Y-68498422D01*
X122630290Y-68692826D01*
X122691117Y-68880029D01*
X122724410Y-68945369D01*
X122780476Y-69055405D01*
X122896172Y-69214646D01*
X123035354Y-69353828D01*
X123194595Y-69469524D01*
X123271763Y-69508843D01*
X123369970Y-69558882D01*
X123369972Y-69558882D01*
X123369975Y-69558884D01*
X123470317Y-69591487D01*
X123557173Y-69619709D01*
X123751578Y-69650500D01*
X123751583Y-69650500D01*
X123948422Y-69650500D01*
X124142826Y-69619709D01*
X124330025Y-69558884D01*
X124505405Y-69469524D01*
X124664646Y-69353828D01*
X124803828Y-69214646D01*
X124919524Y-69055405D01*
X125008884Y-68880025D01*
X125069709Y-68692826D01*
X125090384Y-68562289D01*
X125100500Y-68498422D01*
X125100500Y-68301577D01*
X125069709Y-68107173D01*
X125008882Y-67919970D01*
X124919523Y-67744594D01*
X124803828Y-67585354D01*
X124664646Y-67446172D01*
X124505405Y-67330476D01*
X124445781Y-67300096D01*
X124330029Y-67241117D01*
X124142826Y-67180290D01*
X123948422Y-67149500D01*
X123948417Y-67149500D01*
X123751583Y-67149500D01*
X123751578Y-67149500D01*
X123557173Y-67180290D01*
X123369970Y-67241117D01*
X123194594Y-67330476D01*
X123103741Y-67396485D01*
X123035354Y-67446172D01*
X123035352Y-67446174D01*
X123035351Y-67446174D01*
X122896174Y-67585351D01*
X122896174Y-67585352D01*
X122896172Y-67585354D01*
X122846485Y-67653741D01*
X122780476Y-67744594D01*
X122691117Y-67919970D01*
X122630290Y-68107173D01*
X122599500Y-68301577D01*
X104700500Y-68301577D01*
X104669709Y-68107173D01*
X104608882Y-67919970D01*
X104519523Y-67744594D01*
X104403828Y-67585354D01*
X104264646Y-67446172D01*
X104105405Y-67330476D01*
X104045781Y-67300096D01*
X103930029Y-67241117D01*
X103742826Y-67180290D01*
X103548422Y-67149500D01*
X103548417Y-67149500D01*
X103351583Y-67149500D01*
X103351578Y-67149500D01*
X103157173Y-67180290D01*
X102969970Y-67241117D01*
X102794594Y-67330476D01*
X102703741Y-67396485D01*
X102635354Y-67446172D01*
X102635352Y-67446174D01*
X102635351Y-67446174D01*
X102496174Y-67585351D01*
X102496174Y-67585352D01*
X102496172Y-67585354D01*
X102446485Y-67653741D01*
X102380476Y-67744594D01*
X102291117Y-67919970D01*
X102230290Y-68107173D01*
X102199500Y-68301577D01*
X91600500Y-68301577D01*
X91600500Y-67300096D01*
X91620185Y-67233057D01*
X91636814Y-67212420D01*
X93358506Y-65490727D01*
X93358511Y-65490724D01*
X93368714Y-65480520D01*
X93368716Y-65480520D01*
X93480520Y-65368716D01*
X93534840Y-65274631D01*
X93559577Y-65231785D01*
X93600500Y-65079057D01*
X93600500Y-64920943D01*
X93600500Y-61700098D01*
X93609143Y-61670663D01*
X93615666Y-61640674D01*
X93619422Y-61635656D01*
X93620185Y-61633059D01*
X93636816Y-61612419D01*
X93680520Y-61568716D01*
X93680521Y-61568713D01*
X94112416Y-61136819D01*
X94173739Y-61103334D01*
X94200097Y-61100500D01*
X100635044Y-61100500D01*
X100702083Y-61120185D01*
X100747838Y-61172989D01*
X100757782Y-61242147D01*
X100757530Y-61243809D01*
X100739500Y-61357648D01*
X100739500Y-61562352D01*
X100740508Y-61568716D01*
X100771522Y-61764534D01*
X100834781Y-61959223D01*
X100888413Y-62064480D01*
X100911017Y-62108843D01*
X100927715Y-62141613D01*
X101048028Y-62307213D01*
X101192786Y-62451971D01*
X101316867Y-62542119D01*
X101358390Y-62572287D01*
X101423863Y-62605647D01*
X101451080Y-62619515D01*
X101501876Y-62667490D01*
X101518671Y-62735311D01*
X101496134Y-62801446D01*
X101451080Y-62840485D01*
X101358386Y-62887715D01*
X101192786Y-63008028D01*
X101048028Y-63152786D01*
X100927715Y-63318386D01*
X100834781Y-63500776D01*
X100771522Y-63695465D01*
X100739500Y-63897648D01*
X100739500Y-64102351D01*
X100771522Y-64304534D01*
X100834781Y-64499223D01*
X100886385Y-64600500D01*
X100923320Y-64672989D01*
X100927715Y-64681613D01*
X101048028Y-64847213D01*
X101192786Y-64991971D01*
X101312651Y-65079056D01*
X101358390Y-65112287D01*
X101443181Y-65155490D01*
X101540776Y-65205218D01*
X101540778Y-65205218D01*
X101540781Y-65205220D01*
X101622537Y-65231784D01*
X101735465Y-65268477D01*
X101774320Y-65274631D01*
X101937648Y-65300500D01*
X101937649Y-65300500D01*
X102542351Y-65300500D01*
X102542352Y-65300500D01*
X102744534Y-65268477D01*
X102939219Y-65205220D01*
X103121610Y-65112287D01*
X103247333Y-65020945D01*
X103287213Y-64991971D01*
X103287215Y-64991968D01*
X103287219Y-64991966D01*
X103431966Y-64847219D01*
X103431968Y-64847215D01*
X103431971Y-64847213D01*
X103501680Y-64751265D01*
X103552287Y-64681610D01*
X103645220Y-64499219D01*
X103708477Y-64304534D01*
X103740500Y-64102352D01*
X103740500Y-63897648D01*
X103708477Y-63695466D01*
X103701139Y-63672883D01*
X103659747Y-63545490D01*
X103645220Y-63500781D01*
X103645218Y-63500778D01*
X103645218Y-63500776D01*
X103611503Y-63434607D01*
X103552287Y-63318390D01*
X103521126Y-63275500D01*
X103431971Y-63152786D01*
X103287213Y-63008028D01*
X103121614Y-62887715D01*
X103064278Y-62858501D01*
X103028917Y-62840483D01*
X102978123Y-62792511D01*
X102961328Y-62724690D01*
X102983865Y-62658555D01*
X103028917Y-62619516D01*
X103121610Y-62572287D01*
X103163133Y-62542119D01*
X103287213Y-62451971D01*
X103287215Y-62451968D01*
X103287219Y-62451966D01*
X103431966Y-62307219D01*
X103431968Y-62307215D01*
X103431971Y-62307213D01*
X103484732Y-62234590D01*
X103552287Y-62141610D01*
X103645220Y-61959219D01*
X103708477Y-61764534D01*
X103740500Y-61562352D01*
X103740500Y-61357648D01*
X103722483Y-61243896D01*
X103731437Y-61174605D01*
X103776433Y-61121153D01*
X103843185Y-61100513D01*
X103844956Y-61100500D01*
X104199903Y-61100500D01*
X104266942Y-61120185D01*
X104287584Y-61136819D01*
X107515139Y-64364374D01*
X107515149Y-64364385D01*
X107519479Y-64368715D01*
X107519480Y-64368716D01*
X107631284Y-64480520D01*
X107631286Y-64480521D01*
X107631290Y-64480524D01*
X107768209Y-64559573D01*
X107768216Y-64559577D01*
X107880019Y-64589534D01*
X107920942Y-64600500D01*
X107920943Y-64600500D01*
X123475501Y-64600500D01*
X123542540Y-64620185D01*
X123588295Y-64672989D01*
X123599501Y-64724500D01*
X123599501Y-65047876D01*
X123605908Y-65107483D01*
X123656202Y-65242328D01*
X123656206Y-65242335D01*
X123742452Y-65357544D01*
X123742455Y-65357547D01*
X123857664Y-65443793D01*
X123857671Y-65443797D01*
X123992517Y-65494091D01*
X123992516Y-65494091D01*
X123999444Y-65494835D01*
X124052127Y-65500500D01*
X126147872Y-65500499D01*
X126207483Y-65494091D01*
X126342331Y-65443796D01*
X126457546Y-65357546D01*
X126543796Y-65242331D01*
X126594091Y-65107483D01*
X126600500Y-65047873D01*
X126600499Y-64689902D01*
X126620183Y-64622864D01*
X126672024Y-64577554D01*
X126681887Y-64572946D01*
X126731785Y-64559577D01*
X126817211Y-64510256D01*
X126821875Y-64507563D01*
X126821882Y-64507560D01*
X126868709Y-64480524D01*
X126868708Y-64480524D01*
X126868716Y-64480520D01*
X126980520Y-64368716D01*
X126980520Y-64368714D01*
X126990724Y-64358511D01*
X126990727Y-64358506D01*
X128212416Y-63136819D01*
X128273739Y-63103334D01*
X128300097Y-63100500D01*
X134124051Y-63100500D01*
X134128401Y-63101777D01*
X134132832Y-63100811D01*
X134161622Y-63111532D01*
X134191090Y-63120185D01*
X134194058Y-63123611D01*
X134198309Y-63125194D01*
X134216734Y-63149780D01*
X134236845Y-63172989D01*
X134237490Y-63177475D01*
X134240210Y-63181105D01*
X134242417Y-63211744D01*
X134246789Y-63242147D01*
X134244905Y-63246271D01*
X134245231Y-63250794D01*
X134230526Y-63277756D01*
X134217764Y-63305703D01*
X134213340Y-63309269D01*
X134211778Y-63312135D01*
X134200120Y-63319928D01*
X134183535Y-63333301D01*
X134172712Y-63339217D01*
X134168215Y-63340423D01*
X134128534Y-63363333D01*
X134127295Y-63364048D01*
X134127259Y-63364068D01*
X134031290Y-63419475D01*
X134031282Y-63419481D01*
X133919478Y-63531286D01*
X126087584Y-71363181D01*
X126026261Y-71396666D01*
X125999903Y-71399500D01*
X124086670Y-71399500D01*
X124086654Y-71399499D01*
X124079058Y-71399499D01*
X123920943Y-71399499D01*
X123844579Y-71419961D01*
X123768214Y-71440423D01*
X123768209Y-71440426D01*
X123631290Y-71519475D01*
X123631282Y-71519481D01*
X119115584Y-76035181D01*
X119054261Y-76068666D01*
X119027903Y-76071500D01*
X112350808Y-76071500D01*
X112350792Y-76071499D01*
X112343196Y-76071499D01*
X112185081Y-76071499D01*
X112032353Y-76112423D01*
X111956907Y-76155982D01*
X111895419Y-76191482D01*
X111755652Y-76331250D01*
X111694329Y-76364735D01*
X111667971Y-76367569D01*
X111420942Y-76367569D01*
X111268214Y-76408492D01*
X111239262Y-76425207D01*
X111239206Y-76425240D01*
X111238329Y-76425747D01*
X111131284Y-76487549D01*
X111124825Y-76494006D01*
X111111791Y-76501843D01*
X111111128Y-76502016D01*
X111109904Y-76502955D01*
X111081284Y-76519480D01*
X110969480Y-76631284D01*
X110969478Y-76631286D01*
X105962582Y-81638181D01*
X105901259Y-81671666D01*
X105874901Y-81674500D01*
X105327129Y-81674500D01*
X105327123Y-81674501D01*
X105267516Y-81680908D01*
X105132671Y-81731202D01*
X105132664Y-81731206D01*
X105017455Y-81817452D01*
X105017452Y-81817455D01*
X104931206Y-81932664D01*
X104931202Y-81932671D01*
X104880908Y-82067517D01*
X104874501Y-82127116D01*
X104874500Y-82127135D01*
X104874500Y-83072870D01*
X104874501Y-83072876D01*
X104880908Y-83132483D01*
X104931202Y-83267328D01*
X104931206Y-83267335D01*
X105017452Y-83382544D01*
X105017455Y-83382547D01*
X105132664Y-83468793D01*
X105132671Y-83468797D01*
X105267517Y-83519091D01*
X105267516Y-83519091D01*
X105274444Y-83519835D01*
X105327127Y-83525500D01*
X106272872Y-83525499D01*
X106332483Y-83519091D01*
X106427768Y-83483551D01*
X106497457Y-83478568D01*
X106518551Y-83485173D01*
X106530042Y-83489933D01*
X106530044Y-83489933D01*
X106530046Y-83489934D01*
X106708843Y-83525500D01*
X106708846Y-83525500D01*
X106891156Y-83525500D01*
X107011445Y-83501572D01*
X107069958Y-83489933D01*
X107238389Y-83420167D01*
X107238394Y-83420163D01*
X107241541Y-83418482D01*
X107243386Y-83418097D01*
X107244018Y-83417836D01*
X107244067Y-83417955D01*
X107309943Y-83404236D01*
X107358459Y-83418482D01*
X107361615Y-83420169D01*
X107479005Y-83468793D01*
X107530042Y-83489933D01*
X107530046Y-83489933D01*
X107530047Y-83489934D01*
X107708843Y-83525500D01*
X107708846Y-83525500D01*
X107891156Y-83525500D01*
X108011445Y-83501572D01*
X108069958Y-83489933D01*
X108238389Y-83420167D01*
X108238394Y-83420163D01*
X108241541Y-83418482D01*
X108243386Y-83418097D01*
X108244018Y-83417836D01*
X108244067Y-83417955D01*
X108309943Y-83404236D01*
X108358459Y-83418482D01*
X108361615Y-83420169D01*
X108479005Y-83468793D01*
X108530042Y-83489933D01*
X108530046Y-83489933D01*
X108530047Y-83489934D01*
X108708843Y-83525500D01*
X108708846Y-83525500D01*
X108891156Y-83525500D01*
X109011445Y-83501572D01*
X109069958Y-83489933D01*
X109238389Y-83420167D01*
X109238394Y-83420163D01*
X109241541Y-83418482D01*
X109243386Y-83418097D01*
X109244018Y-83417836D01*
X109244067Y-83417955D01*
X109309943Y-83404236D01*
X109358459Y-83418482D01*
X109361615Y-83420169D01*
X109479005Y-83468793D01*
X109530042Y-83489933D01*
X109530046Y-83489933D01*
X109530047Y-83489934D01*
X109708843Y-83525500D01*
X109708846Y-83525500D01*
X109891156Y-83525500D01*
X110011445Y-83501572D01*
X110069958Y-83489933D01*
X110238389Y-83420167D01*
X110238394Y-83420163D01*
X110241541Y-83418482D01*
X110243386Y-83418097D01*
X110244018Y-83417836D01*
X110244067Y-83417955D01*
X110309943Y-83404236D01*
X110358459Y-83418482D01*
X110361615Y-83420169D01*
X110479005Y-83468793D01*
X110530042Y-83489933D01*
X110530046Y-83489933D01*
X110530047Y-83489934D01*
X110708843Y-83525500D01*
X110708846Y-83525500D01*
X110891156Y-83525500D01*
X111011445Y-83501572D01*
X111069958Y-83489933D01*
X111238389Y-83420167D01*
X111238394Y-83420163D01*
X111241541Y-83418482D01*
X111243386Y-83418097D01*
X111244018Y-83417836D01*
X111244067Y-83417955D01*
X111309943Y-83404236D01*
X111358459Y-83418482D01*
X111361615Y-83420169D01*
X111479005Y-83468793D01*
X111530042Y-83489933D01*
X111530046Y-83489933D01*
X111530047Y-83489934D01*
X111708843Y-83525500D01*
X111708846Y-83525500D01*
X111891156Y-83525500D01*
X112011445Y-83501572D01*
X112069958Y-83489933D01*
X112238389Y-83420167D01*
X112238394Y-83420163D01*
X112241541Y-83418482D01*
X112243386Y-83418097D01*
X112244018Y-83417836D01*
X112244067Y-83417955D01*
X112309943Y-83404236D01*
X112358459Y-83418482D01*
X112361615Y-83420169D01*
X112479005Y-83468793D01*
X112530042Y-83489933D01*
X112530046Y-83489933D01*
X112530047Y-83489934D01*
X112708843Y-83525500D01*
X112708846Y-83525500D01*
X112891156Y-83525500D01*
X113011445Y-83501572D01*
X113069958Y-83489933D01*
X113238389Y-83420167D01*
X113238394Y-83420163D01*
X113241541Y-83418482D01*
X113243386Y-83418097D01*
X113244018Y-83417836D01*
X113244067Y-83417955D01*
X113309943Y-83404236D01*
X113358459Y-83418482D01*
X113361615Y-83420169D01*
X113479005Y-83468793D01*
X113530042Y-83489933D01*
X113530046Y-83489933D01*
X113530047Y-83489934D01*
X113708843Y-83525500D01*
X113708846Y-83525500D01*
X113891156Y-83525500D01*
X114011445Y-83501572D01*
X114069958Y-83489933D01*
X114238389Y-83420167D01*
X114238394Y-83420163D01*
X114241541Y-83418482D01*
X114243386Y-83418097D01*
X114244018Y-83417836D01*
X114244067Y-83417955D01*
X114309943Y-83404236D01*
X114358459Y-83418482D01*
X114361615Y-83420169D01*
X114479005Y-83468793D01*
X114530042Y-83489933D01*
X114530046Y-83489933D01*
X114530047Y-83489934D01*
X114708843Y-83525500D01*
X114708846Y-83525500D01*
X114891156Y-83525500D01*
X115011445Y-83501572D01*
X115069958Y-83489933D01*
X115182245Y-83443422D01*
X115238387Y-83420168D01*
X115238391Y-83420166D01*
X115313672Y-83369864D01*
X115389972Y-83318883D01*
X115518883Y-83189972D01*
X115620167Y-83038389D01*
X115689933Y-82869958D01*
X115723641Y-82700500D01*
X115725500Y-82691156D01*
X115725500Y-82575097D01*
X115745185Y-82508058D01*
X115761819Y-82487416D01*
X116612417Y-81636819D01*
X116673740Y-81603334D01*
X116700098Y-81600500D01*
X119413331Y-81600500D01*
X119413347Y-81600501D01*
X119420943Y-81600501D01*
X119579054Y-81600501D01*
X119579057Y-81600501D01*
X119731785Y-81559577D01*
X119795870Y-81522577D01*
X119868716Y-81480520D01*
X119980520Y-81368716D01*
X119980520Y-81368714D01*
X119990724Y-81358511D01*
X119990727Y-81358506D01*
X125712416Y-75636819D01*
X125773739Y-75603334D01*
X125800097Y-75600500D01*
X127413331Y-75600500D01*
X127413347Y-75600501D01*
X127420943Y-75600501D01*
X127579054Y-75600501D01*
X127579057Y-75600501D01*
X127731785Y-75559577D01*
X127781904Y-75530639D01*
X127868716Y-75480520D01*
X127980520Y-75368716D01*
X127980520Y-75368714D01*
X127990728Y-75358507D01*
X127990729Y-75358504D01*
X131384416Y-71964819D01*
X131445739Y-71931334D01*
X131472097Y-71928500D01*
X135049193Y-71928500D01*
X135049209Y-71928501D01*
X135056805Y-71928501D01*
X135214916Y-71928501D01*
X135214919Y-71928501D01*
X135367647Y-71887577D01*
X135433598Y-71849500D01*
X135504578Y-71808520D01*
X135508287Y-71804810D01*
X135519537Y-71798082D01*
X135546695Y-71791048D01*
X135572863Y-71780930D01*
X135583186Y-71780500D01*
X137382711Y-71780500D01*
X137426539Y-71775236D01*
X137470369Y-71769973D01*
X137609869Y-71714962D01*
X137729353Y-71624353D01*
X137819962Y-71504869D01*
X137874973Y-71365369D01*
X137885500Y-71277710D01*
X137885500Y-70982290D01*
X137874973Y-70894631D01*
X137826017Y-70770487D01*
X137819737Y-70700903D01*
X137826018Y-70679511D01*
X137874973Y-70555369D01*
X137885500Y-70467710D01*
X137885500Y-70172290D01*
X137885010Y-70168213D01*
X137874973Y-70084631D01*
X137874971Y-70084626D01*
X137827990Y-69965490D01*
X137821708Y-69895903D01*
X137827990Y-69874510D01*
X137829784Y-69869962D01*
X137874973Y-69755369D01*
X137885500Y-69667710D01*
X137885500Y-69372290D01*
X137874973Y-69284631D01*
X137826017Y-69160487D01*
X137819737Y-69090903D01*
X137826018Y-69069511D01*
X137874973Y-68945369D01*
X137885500Y-68857710D01*
X137885500Y-68562290D01*
X137877829Y-68498417D01*
X137874973Y-68474631D01*
X137874971Y-68474626D01*
X137858301Y-68432353D01*
X137827989Y-68355488D01*
X137821708Y-68285903D01*
X137827990Y-68264510D01*
X137859890Y-68183618D01*
X137874973Y-68145369D01*
X137885500Y-68057710D01*
X137885500Y-67762290D01*
X137874973Y-67674631D01*
X137829960Y-67560486D01*
X137823680Y-67490903D01*
X137829957Y-67469521D01*
X137874973Y-67355369D01*
X137885500Y-67267710D01*
X137885500Y-66972290D01*
X137881644Y-66940185D01*
X137874973Y-66884631D01*
X137874971Y-66884626D01*
X137833391Y-66779185D01*
X137827989Y-66765488D01*
X137821708Y-66695903D01*
X137827990Y-66674510D01*
X137829080Y-66671748D01*
X137874973Y-66555369D01*
X137885500Y-66467710D01*
X137885500Y-66172290D01*
X137884804Y-66166498D01*
X137880236Y-66128460D01*
X137874973Y-66084631D01*
X137826017Y-65960487D01*
X137819737Y-65890903D01*
X137826015Y-65869517D01*
X137874973Y-65745369D01*
X137885500Y-65657710D01*
X137885500Y-65362290D01*
X137884930Y-65357547D01*
X137874973Y-65274631D01*
X137874971Y-65274626D01*
X137872546Y-65268477D01*
X137827989Y-65155488D01*
X137821708Y-65085903D01*
X137827990Y-65064510D01*
X137834552Y-65047872D01*
X137874973Y-64945369D01*
X137885500Y-64857710D01*
X137885500Y-64562290D01*
X137874973Y-64474631D01*
X137826017Y-64350487D01*
X137819737Y-64280903D01*
X137826015Y-64259517D01*
X137874973Y-64135369D01*
X137885500Y-64047710D01*
X137885500Y-63752290D01*
X137874973Y-63664631D01*
X137827989Y-63545488D01*
X137821708Y-63475903D01*
X137827990Y-63454510D01*
X137841804Y-63419481D01*
X137874973Y-63335369D01*
X137885500Y-63247710D01*
X137885500Y-63224500D01*
X137888050Y-63215814D01*
X137886762Y-63206853D01*
X137897740Y-63182812D01*
X137905185Y-63157461D01*
X137912025Y-63151533D01*
X137915787Y-63143297D01*
X137938021Y-63129007D01*
X137957989Y-63111706D01*
X137968503Y-63109418D01*
X137974565Y-63105523D01*
X138009500Y-63100500D01*
X138178330Y-63100500D01*
X138178346Y-63100501D01*
X138185942Y-63100501D01*
X138344053Y-63100501D01*
X138344056Y-63100501D01*
X138496784Y-63059577D01*
X138546903Y-63030639D01*
X138633715Y-62980520D01*
X138745519Y-62868716D01*
X138745519Y-62868714D01*
X138755727Y-62858507D01*
X138755729Y-62858504D01*
X139549262Y-62064971D01*
X139549933Y-62064302D01*
X139580712Y-62047539D01*
X139582701Y-62046452D01*
X139580727Y-62042504D01*
X139580735Y-62042500D01*
X139582709Y-62046448D01*
X139611111Y-62030926D01*
X139611207Y-62030932D01*
X139611293Y-62030886D01*
X139646243Y-62033425D01*
X139680805Y-62035884D01*
X139680973Y-62035948D01*
X139680979Y-62035949D01*
X139680983Y-62035952D01*
X139682940Y-62036702D01*
X139754631Y-62064973D01*
X139842289Y-62075500D01*
X139842290Y-62075500D01*
X140137711Y-62075500D01*
X140181539Y-62070236D01*
X140225369Y-62064973D01*
X140350194Y-62015748D01*
X140419780Y-62009467D01*
X140441174Y-62015749D01*
X140564750Y-62064482D01*
X140650000Y-62074718D01*
X140650000Y-60724000D01*
X140652550Y-60715314D01*
X140651262Y-60706353D01*
X140662240Y-60682312D01*
X140669685Y-60656961D01*
X140676525Y-60651033D01*
X140680287Y-60642797D01*
X140702521Y-60628507D01*
X140722489Y-60611206D01*
X140733003Y-60608918D01*
X140739065Y-60605023D01*
X140774000Y-60600000D01*
X140825500Y-60600000D01*
X140892539Y-60619685D01*
X140938294Y-60672489D01*
X140949500Y-60724000D01*
X140949500Y-61572715D01*
X140949721Y-61576407D01*
X140949528Y-61576418D01*
X140950000Y-61584291D01*
X140950000Y-62074717D01*
X141035250Y-62064481D01*
X141035253Y-62064480D01*
X141153827Y-62017721D01*
X141223413Y-62011439D01*
X141244795Y-62017716D01*
X141364631Y-62064973D01*
X141452289Y-62075500D01*
X141452290Y-62075500D01*
X141747711Y-62075500D01*
X141776929Y-62071991D01*
X141835369Y-62064973D01*
X141949513Y-62019960D01*
X142019097Y-62013680D01*
X142040478Y-62019957D01*
X142154631Y-62064973D01*
X142242289Y-62075500D01*
X142242290Y-62075500D01*
X142537711Y-62075500D01*
X142581539Y-62070236D01*
X142625369Y-62064973D01*
X142744511Y-62017989D01*
X142814097Y-62011708D01*
X142835485Y-62017988D01*
X142954631Y-62064973D01*
X143042289Y-62075500D01*
X143042290Y-62075500D01*
X143337711Y-62075500D01*
X143366929Y-62071991D01*
X143425369Y-62064973D01*
X143549512Y-62016017D01*
X143619097Y-62009737D01*
X143640482Y-62016015D01*
X143764631Y-62064973D01*
X143852289Y-62075500D01*
X143852290Y-62075500D01*
X144147711Y-62075500D01*
X144191539Y-62070236D01*
X144235369Y-62064973D01*
X144354511Y-62017989D01*
X144424097Y-62011708D01*
X144445485Y-62017988D01*
X144564631Y-62064973D01*
X144652289Y-62075500D01*
X144652290Y-62075500D01*
X144947711Y-62075500D01*
X144976929Y-62071991D01*
X145035369Y-62064973D01*
X145159512Y-62016017D01*
X145229097Y-62009737D01*
X145250482Y-62016015D01*
X145374631Y-62064973D01*
X145462289Y-62075500D01*
X145462290Y-62075500D01*
X145757711Y-62075500D01*
X145801539Y-62070236D01*
X145845369Y-62064973D01*
X145964511Y-62017989D01*
X146034097Y-62011708D01*
X146055485Y-62017988D01*
X146174631Y-62064973D01*
X146262289Y-62075500D01*
X146262290Y-62075500D01*
X146557711Y-62075500D01*
X146601539Y-62070236D01*
X146645369Y-62064973D01*
X146784869Y-62009962D01*
X146904353Y-61919353D01*
X146994962Y-61799869D01*
X147049973Y-61660369D01*
X147060500Y-61572710D01*
X147060500Y-61409097D01*
X147080185Y-61342058D01*
X147132989Y-61296303D01*
X147202147Y-61286359D01*
X147265703Y-61315384D01*
X147272181Y-61321416D01*
X148188584Y-62237819D01*
X148222069Y-62299142D01*
X148217085Y-62368834D01*
X148175213Y-62424767D01*
X148109749Y-62449184D01*
X148100903Y-62449500D01*
X147437289Y-62449500D01*
X147349631Y-62460026D01*
X147349630Y-62460027D01*
X147210130Y-62515038D01*
X147210128Y-62515039D01*
X147090647Y-62605647D01*
X147000039Y-62725128D01*
X147000038Y-62725130D01*
X146945027Y-62864630D01*
X146945026Y-62864631D01*
X146934500Y-62952289D01*
X146934500Y-63247710D01*
X146945026Y-63335368D01*
X146945027Y-63335369D01*
X146955994Y-63363181D01*
X146992010Y-63454511D01*
X146998291Y-63524097D01*
X146992010Y-63545489D01*
X146945027Y-63664630D01*
X146945026Y-63664631D01*
X146934500Y-63752289D01*
X146934500Y-63985500D01*
X146914815Y-64052539D01*
X146862011Y-64098294D01*
X146810500Y-64109500D01*
X146492783Y-64109500D01*
X146425744Y-64089815D01*
X146414118Y-64081353D01*
X146410289Y-64078210D01*
X146279185Y-63990609D01*
X146279172Y-63990602D01*
X146133501Y-63930264D01*
X146133489Y-63930261D01*
X145978845Y-63899500D01*
X145978842Y-63899500D01*
X145821158Y-63899500D01*
X145821155Y-63899500D01*
X145666510Y-63930261D01*
X145666498Y-63930264D01*
X145520827Y-63990602D01*
X145520814Y-63990609D01*
X145389711Y-64078210D01*
X145389707Y-64078213D01*
X145278213Y-64189707D01*
X145278210Y-64189711D01*
X145190609Y-64320814D01*
X145190602Y-64320827D01*
X145130264Y-64466498D01*
X145130261Y-64466508D01*
X145103769Y-64599692D01*
X145071384Y-64661603D01*
X145010668Y-64696177D01*
X144982152Y-64699500D01*
X144821155Y-64699500D01*
X144666510Y-64730261D01*
X144666498Y-64730264D01*
X144520827Y-64790602D01*
X144520814Y-64790609D01*
X144389711Y-64878210D01*
X144389707Y-64878213D01*
X144278213Y-64989707D01*
X144278210Y-64989711D01*
X144190609Y-65120814D01*
X144190602Y-65120827D01*
X144130264Y-65266498D01*
X144130261Y-65266510D01*
X144099500Y-65421153D01*
X144099500Y-65502043D01*
X144079815Y-65569082D01*
X144027011Y-65614837D01*
X143999694Y-65623660D01*
X143966506Y-65630262D01*
X143966498Y-65630264D01*
X143820827Y-65690602D01*
X143820814Y-65690609D01*
X143689711Y-65778210D01*
X143689707Y-65778213D01*
X143578213Y-65889707D01*
X143578210Y-65889711D01*
X143490609Y-66020814D01*
X143490602Y-66020827D01*
X143430264Y-66166498D01*
X143430261Y-66166510D01*
X143399500Y-66321153D01*
X143399500Y-66478846D01*
X143430261Y-66633489D01*
X143430264Y-66633501D01*
X143490602Y-66779172D01*
X143490609Y-66779185D01*
X143578210Y-66910288D01*
X143578213Y-66910292D01*
X143689707Y-67021786D01*
X143689711Y-67021789D01*
X143820814Y-67109390D01*
X143820827Y-67109397D01*
X143917646Y-67149500D01*
X143966503Y-67169737D01*
X144121153Y-67200499D01*
X144121156Y-67200500D01*
X144121158Y-67200500D01*
X144278844Y-67200500D01*
X144278845Y-67200499D01*
X144433497Y-67169737D01*
X144579179Y-67109394D01*
X144710289Y-67021789D01*
X144775260Y-66956817D01*
X144836581Y-66923334D01*
X144862940Y-66920500D01*
X146810500Y-66920500D01*
X146877539Y-66940185D01*
X146923294Y-66992989D01*
X146934500Y-67044500D01*
X146934500Y-67267710D01*
X146945026Y-67355368D01*
X146945027Y-67355369D01*
X146990038Y-67469511D01*
X146996319Y-67539098D01*
X146990038Y-67560489D01*
X146945027Y-67674630D01*
X146945026Y-67674631D01*
X146934500Y-67762289D01*
X146934500Y-68057710D01*
X146945026Y-68145368D01*
X146945027Y-68145369D01*
X146992010Y-68264511D01*
X146998291Y-68334097D01*
X146992010Y-68355489D01*
X146945027Y-68474630D01*
X146945026Y-68474631D01*
X146934500Y-68562289D01*
X146934500Y-68857710D01*
X146945026Y-68945368D01*
X146945027Y-68945369D01*
X146993981Y-69069511D01*
X147000262Y-69139098D01*
X146993981Y-69160489D01*
X146945027Y-69284630D01*
X146945026Y-69284631D01*
X146934500Y-69372289D01*
X146934500Y-69667710D01*
X146945026Y-69755368D01*
X146945027Y-69755369D01*
X146990214Y-69869958D01*
X146992010Y-69874511D01*
X146998291Y-69944097D01*
X146992010Y-69965489D01*
X146945027Y-70084630D01*
X146945026Y-70084631D01*
X146934500Y-70172289D01*
X146934500Y-70467710D01*
X146945026Y-70555368D01*
X146945027Y-70555369D01*
X146993981Y-70679511D01*
X147000262Y-70749098D01*
X146993981Y-70770489D01*
X146945027Y-70894630D01*
X146945026Y-70894631D01*
X146934500Y-70982289D01*
X146934500Y-71277710D01*
X146945026Y-71365368D01*
X146945027Y-71365369D01*
X147000038Y-71504869D01*
X147000040Y-71504872D01*
X147016016Y-71525939D01*
X147023226Y-71544909D01*
X147034823Y-71561570D01*
X147035388Y-71576905D01*
X147040841Y-71591250D01*
X147036649Y-71611109D01*
X147037398Y-71631392D01*
X147028493Y-71649759D01*
X147026414Y-71659614D01*
X147023929Y-71664015D01*
X147019841Y-71670922D01*
X147019480Y-71671284D01*
X147013570Y-71681520D01*
X147013175Y-71682188D01*
X146988143Y-71705547D01*
X146963277Y-71729256D01*
X146962597Y-71729386D01*
X146962093Y-71729858D01*
X146928348Y-71735986D01*
X146894670Y-71742477D01*
X146894017Y-71742222D01*
X146893348Y-71742344D01*
X146876457Y-71735370D01*
X146831534Y-71717842D01*
X146794871Y-71690039D01*
X146794869Y-71690038D01*
X146655369Y-71635027D01*
X146655368Y-71635026D01*
X146567711Y-71624500D01*
X146567710Y-71624500D01*
X146272290Y-71624500D01*
X146272289Y-71624500D01*
X146184631Y-71635026D01*
X146184630Y-71635027D01*
X146065489Y-71682010D01*
X145995903Y-71688291D01*
X145974511Y-71682010D01*
X145947311Y-71671284D01*
X145855369Y-71635027D01*
X145855368Y-71635026D01*
X145767711Y-71624500D01*
X145767710Y-71624500D01*
X145472290Y-71624500D01*
X145472289Y-71624500D01*
X145384631Y-71635026D01*
X145384630Y-71635027D01*
X145260489Y-71683981D01*
X145190902Y-71690262D01*
X145169511Y-71683981D01*
X145045369Y-71635027D01*
X145045368Y-71635026D01*
X144957711Y-71624500D01*
X144957710Y-71624500D01*
X144662290Y-71624500D01*
X144662289Y-71624500D01*
X144574631Y-71635026D01*
X144574630Y-71635027D01*
X144455489Y-71682010D01*
X144385903Y-71688291D01*
X144364511Y-71682010D01*
X144337311Y-71671284D01*
X144245369Y-71635027D01*
X144245368Y-71635026D01*
X144157711Y-71624500D01*
X144157710Y-71624500D01*
X143862290Y-71624500D01*
X143862289Y-71624500D01*
X143774631Y-71635026D01*
X143774630Y-71635027D01*
X143650489Y-71683981D01*
X143580902Y-71690262D01*
X143559511Y-71683981D01*
X143435369Y-71635027D01*
X143435368Y-71635026D01*
X143347711Y-71624500D01*
X143347710Y-71624500D01*
X143052290Y-71624500D01*
X143052289Y-71624500D01*
X142964631Y-71635026D01*
X142964630Y-71635027D01*
X142845489Y-71682010D01*
X142775903Y-71688291D01*
X142754511Y-71682010D01*
X142727311Y-71671284D01*
X142635369Y-71635027D01*
X142635368Y-71635026D01*
X142547711Y-71624500D01*
X142547710Y-71624500D01*
X142252290Y-71624500D01*
X142252289Y-71624500D01*
X142164631Y-71635026D01*
X142164630Y-71635027D01*
X142050489Y-71680038D01*
X141980902Y-71686319D01*
X141959511Y-71680038D01*
X141845369Y-71635027D01*
X141845368Y-71635026D01*
X141757711Y-71624500D01*
X141757710Y-71624500D01*
X141462290Y-71624500D01*
X141462289Y-71624500D01*
X141374631Y-71635026D01*
X141374630Y-71635027D01*
X141255489Y-71682010D01*
X141185903Y-71688291D01*
X141164511Y-71682010D01*
X141137311Y-71671284D01*
X141045369Y-71635027D01*
X141045368Y-71635026D01*
X140957711Y-71624500D01*
X140957710Y-71624500D01*
X140662290Y-71624500D01*
X140662289Y-71624500D01*
X140574631Y-71635026D01*
X140574630Y-71635027D01*
X140450489Y-71683981D01*
X140380902Y-71690262D01*
X140359511Y-71683981D01*
X140235369Y-71635027D01*
X140235368Y-71635026D01*
X140147711Y-71624500D01*
X140147710Y-71624500D01*
X139852290Y-71624500D01*
X139852289Y-71624500D01*
X139764631Y-71635026D01*
X139764630Y-71635027D01*
X139645489Y-71682010D01*
X139575903Y-71688291D01*
X139554511Y-71682010D01*
X139527311Y-71671284D01*
X139435369Y-71635027D01*
X139435368Y-71635026D01*
X139347711Y-71624500D01*
X139347710Y-71624500D01*
X139052290Y-71624500D01*
X139052289Y-71624500D01*
X138964631Y-71635026D01*
X138964630Y-71635027D01*
X138840489Y-71683981D01*
X138770902Y-71690262D01*
X138749511Y-71683981D01*
X138625369Y-71635027D01*
X138625368Y-71635026D01*
X138537711Y-71624500D01*
X138537710Y-71624500D01*
X138242290Y-71624500D01*
X138242289Y-71624500D01*
X138154631Y-71635026D01*
X138154630Y-71635027D01*
X138015130Y-71690038D01*
X138015127Y-71690039D01*
X137951315Y-71738431D01*
X137951311Y-71738434D01*
X137895647Y-71780647D01*
X137849578Y-71841396D01*
X137849571Y-71841404D01*
X137805039Y-71900129D01*
X137805038Y-71900130D01*
X137750027Y-72039630D01*
X137750026Y-72039631D01*
X137739500Y-72127289D01*
X137739500Y-74072710D01*
X137750026Y-74160368D01*
X137750027Y-74160369D01*
X137780855Y-74238544D01*
X137782182Y-74245527D01*
X137784477Y-74249098D01*
X137789500Y-74284033D01*
X137789500Y-74309903D01*
X137769815Y-74376942D01*
X137753181Y-74397584D01*
X137287584Y-74863181D01*
X137226261Y-74896666D01*
X137199903Y-74899500D01*
X133586670Y-74899500D01*
X133586654Y-74899499D01*
X133579058Y-74899499D01*
X133420943Y-74899499D01*
X133344579Y-74919961D01*
X133268214Y-74940423D01*
X133268209Y-74940426D01*
X133131290Y-75019475D01*
X133131282Y-75019481D01*
X128152585Y-79998180D01*
X128091262Y-80031665D01*
X128064904Y-80034499D01*
X127907013Y-80034499D01*
X127830649Y-80054961D01*
X127754284Y-80075423D01*
X127754279Y-80075426D01*
X127617360Y-80154475D01*
X127617352Y-80154481D01*
X127564653Y-80207181D01*
X127503330Y-80240666D01*
X127476972Y-80243500D01*
X126314946Y-80243500D01*
X126314930Y-80243499D01*
X126307334Y-80243499D01*
X126149219Y-80243499D01*
X126072855Y-80263961D01*
X125996490Y-80284423D01*
X125996485Y-80284426D01*
X125859566Y-80363475D01*
X125859558Y-80363481D01*
X125177547Y-81045492D01*
X125151869Y-81065196D01*
X125111754Y-81088358D01*
X125111751Y-81088360D01*
X125068345Y-81113420D01*
X125024941Y-81138479D01*
X125024938Y-81138481D01*
X124853239Y-81310181D01*
X124791916Y-81343666D01*
X124765558Y-81346500D01*
X124608575Y-81346500D01*
X124450461Y-81346500D01*
X124297733Y-81387423D01*
X124297732Y-81387423D01*
X124297730Y-81387424D01*
X124297727Y-81387425D01*
X124247834Y-81416232D01*
X124247833Y-81416233D01*
X124218691Y-81433058D01*
X124160803Y-81466479D01*
X124160800Y-81466481D01*
X124048998Y-81578283D01*
X124048998Y-81578284D01*
X124048996Y-81578286D01*
X124009743Y-81617539D01*
X123989100Y-81638182D01*
X123927776Y-81671666D01*
X123901419Y-81674500D01*
X123327129Y-81674500D01*
X123327123Y-81674501D01*
X123267516Y-81680908D01*
X123132671Y-81731202D01*
X123132664Y-81731206D01*
X123017455Y-81817452D01*
X123017452Y-81817455D01*
X122931206Y-81932664D01*
X122931202Y-81932671D01*
X122880908Y-82067517D01*
X122874501Y-82127116D01*
X122874500Y-82127135D01*
X122874500Y-83072870D01*
X122874501Y-83072876D01*
X122880908Y-83132483D01*
X122931202Y-83267328D01*
X122931206Y-83267335D01*
X123017452Y-83382544D01*
X123017455Y-83382547D01*
X123132664Y-83468793D01*
X123132671Y-83468797D01*
X123267517Y-83519091D01*
X123267516Y-83519091D01*
X123274444Y-83519835D01*
X123327127Y-83525500D01*
X124272872Y-83525499D01*
X124332483Y-83519091D01*
X124427768Y-83483551D01*
X124497457Y-83478568D01*
X124518551Y-83485173D01*
X124530042Y-83489933D01*
X124530044Y-83489933D01*
X124530046Y-83489934D01*
X124708843Y-83525500D01*
X124708846Y-83525500D01*
X124891156Y-83525500D01*
X125011445Y-83501572D01*
X125069958Y-83489933D01*
X125238389Y-83420167D01*
X125238394Y-83420163D01*
X125241541Y-83418482D01*
X125243386Y-83418097D01*
X125244018Y-83417836D01*
X125244067Y-83417955D01*
X125309943Y-83404236D01*
X125358459Y-83418482D01*
X125361615Y-83420169D01*
X125479005Y-83468793D01*
X125530042Y-83489933D01*
X125530046Y-83489933D01*
X125530047Y-83489934D01*
X125708843Y-83525500D01*
X125708846Y-83525500D01*
X125891156Y-83525500D01*
X126011445Y-83501572D01*
X126069958Y-83489933D01*
X126238389Y-83420167D01*
X126238394Y-83420163D01*
X126241541Y-83418482D01*
X126243386Y-83418097D01*
X126244018Y-83417836D01*
X126244067Y-83417955D01*
X126309943Y-83404236D01*
X126358459Y-83418482D01*
X126361615Y-83420169D01*
X126479005Y-83468793D01*
X126530042Y-83489933D01*
X126530046Y-83489933D01*
X126530047Y-83489934D01*
X126708843Y-83525500D01*
X126708846Y-83525500D01*
X126891156Y-83525500D01*
X127011445Y-83501572D01*
X127069958Y-83489933D01*
X127238389Y-83420167D01*
X127238394Y-83420163D01*
X127241541Y-83418482D01*
X127243386Y-83418097D01*
X127244018Y-83417836D01*
X127244067Y-83417955D01*
X127309943Y-83404236D01*
X127358459Y-83418482D01*
X127361615Y-83420169D01*
X127479005Y-83468793D01*
X127530042Y-83489933D01*
X127530046Y-83489933D01*
X127530047Y-83489934D01*
X127708843Y-83525500D01*
X127708846Y-83525500D01*
X127891156Y-83525500D01*
X128011445Y-83501572D01*
X128069958Y-83489933D01*
X128238389Y-83420167D01*
X128238394Y-83420163D01*
X128241541Y-83418482D01*
X128243386Y-83418097D01*
X128244018Y-83417836D01*
X128244067Y-83417955D01*
X128309943Y-83404236D01*
X128358459Y-83418482D01*
X128361615Y-83420169D01*
X128479005Y-83468793D01*
X128530042Y-83489933D01*
X128530046Y-83489933D01*
X128530047Y-83489934D01*
X128708843Y-83525500D01*
X128708846Y-83525500D01*
X128891156Y-83525500D01*
X129011445Y-83501572D01*
X129069958Y-83489933D01*
X129238389Y-83420167D01*
X129238394Y-83420163D01*
X129241541Y-83418482D01*
X129243386Y-83418097D01*
X129244018Y-83417836D01*
X129244067Y-83417955D01*
X129309943Y-83404236D01*
X129358459Y-83418482D01*
X129361615Y-83420169D01*
X129479005Y-83468793D01*
X129530042Y-83489933D01*
X129530046Y-83489933D01*
X129530047Y-83489934D01*
X129708843Y-83525500D01*
X129708846Y-83525500D01*
X129891156Y-83525500D01*
X130011445Y-83501572D01*
X130069958Y-83489933D01*
X130238389Y-83420167D01*
X130238394Y-83420163D01*
X130241541Y-83418482D01*
X130243386Y-83418097D01*
X130244018Y-83417836D01*
X130244067Y-83417955D01*
X130309943Y-83404236D01*
X130358459Y-83418482D01*
X130361615Y-83420169D01*
X130479005Y-83468793D01*
X130530042Y-83489933D01*
X130530046Y-83489933D01*
X130530047Y-83489934D01*
X130708843Y-83525500D01*
X130708846Y-83525500D01*
X130891156Y-83525500D01*
X131011445Y-83501572D01*
X131069958Y-83489933D01*
X131238389Y-83420167D01*
X131238394Y-83420163D01*
X131241541Y-83418482D01*
X131243386Y-83418097D01*
X131244018Y-83417836D01*
X131244067Y-83417955D01*
X131309943Y-83404236D01*
X131358459Y-83418482D01*
X131361615Y-83420169D01*
X131479005Y-83468793D01*
X131530042Y-83489933D01*
X131530046Y-83489933D01*
X131530047Y-83489934D01*
X131708843Y-83525500D01*
X131708846Y-83525500D01*
X131891156Y-83525500D01*
X132011445Y-83501572D01*
X132069958Y-83489933D01*
X132238389Y-83420167D01*
X132238394Y-83420163D01*
X132241541Y-83418482D01*
X132243386Y-83418097D01*
X132244018Y-83417836D01*
X132244067Y-83417955D01*
X132309943Y-83404236D01*
X132358459Y-83418482D01*
X132361615Y-83420169D01*
X132479005Y-83468793D01*
X132530042Y-83489933D01*
X132530046Y-83489933D01*
X132530047Y-83489934D01*
X132708843Y-83525500D01*
X132708846Y-83525500D01*
X132891156Y-83525500D01*
X133011445Y-83501572D01*
X133069958Y-83489933D01*
X133182245Y-83443422D01*
X133238387Y-83420168D01*
X133238391Y-83420166D01*
X133313672Y-83369864D01*
X133389972Y-83318883D01*
X133518883Y-83189972D01*
X133620167Y-83038389D01*
X133689933Y-82869958D01*
X133723641Y-82700500D01*
X133725500Y-82691156D01*
X133725500Y-82508843D01*
X133689934Y-82330047D01*
X133689933Y-82330046D01*
X133689933Y-82330042D01*
X133670064Y-82282073D01*
X133620168Y-82161612D01*
X133620166Y-82161608D01*
X133518886Y-82010032D01*
X133518880Y-82010024D01*
X133436819Y-81927963D01*
X133403334Y-81866640D01*
X133400500Y-81840282D01*
X133400500Y-81500097D01*
X133420185Y-81433058D01*
X133436819Y-81412416D01*
X135684417Y-79164819D01*
X135745740Y-79131334D01*
X135772098Y-79128500D01*
X141385331Y-79128500D01*
X141385347Y-79128501D01*
X141392943Y-79128501D01*
X141551054Y-79128501D01*
X141551057Y-79128501D01*
X141703785Y-79087577D01*
X141753904Y-79058639D01*
X141840716Y-79008520D01*
X141952520Y-78896716D01*
X141952520Y-78896714D01*
X141962728Y-78886507D01*
X141962729Y-78886504D01*
X142159820Y-78689414D01*
X142221142Y-78655930D01*
X142290834Y-78660914D01*
X142346767Y-78702786D01*
X142371184Y-78768250D01*
X142371500Y-78777096D01*
X142371500Y-81550500D01*
X142351815Y-81617539D01*
X142299011Y-81663294D01*
X142247500Y-81674500D01*
X141827129Y-81674500D01*
X141827123Y-81674501D01*
X141767516Y-81680908D01*
X141632671Y-81731202D01*
X141632664Y-81731206D01*
X141517455Y-81817452D01*
X141517452Y-81817455D01*
X141431206Y-81932664D01*
X141431202Y-81932671D01*
X141380908Y-82067517D01*
X141374501Y-82127116D01*
X141374500Y-82127135D01*
X141374500Y-83072870D01*
X141374501Y-83072876D01*
X141380908Y-83132483D01*
X141431202Y-83267328D01*
X141431206Y-83267335D01*
X141517452Y-83382544D01*
X141517455Y-83382547D01*
X141632664Y-83468793D01*
X141632671Y-83468797D01*
X141767517Y-83519091D01*
X141767516Y-83519091D01*
X141774444Y-83519835D01*
X141827127Y-83525500D01*
X142772872Y-83525499D01*
X142832483Y-83519091D01*
X142927768Y-83483551D01*
X142997457Y-83478568D01*
X143018551Y-83485173D01*
X143030042Y-83489933D01*
X143030044Y-83489933D01*
X143030046Y-83489934D01*
X143208843Y-83525500D01*
X143208846Y-83525500D01*
X143391156Y-83525500D01*
X143511445Y-83501572D01*
X143569958Y-83489933D01*
X143738389Y-83420167D01*
X143738394Y-83420163D01*
X143741541Y-83418482D01*
X143743386Y-83418097D01*
X143744018Y-83417836D01*
X143744067Y-83417955D01*
X143809943Y-83404236D01*
X143858459Y-83418482D01*
X143861615Y-83420169D01*
X143979005Y-83468793D01*
X144030042Y-83489933D01*
X144030046Y-83489933D01*
X144030047Y-83489934D01*
X144208843Y-83525500D01*
X144208846Y-83525500D01*
X144391156Y-83525500D01*
X144511445Y-83501572D01*
X144569958Y-83489933D01*
X144738389Y-83420167D01*
X144738394Y-83420163D01*
X144741541Y-83418482D01*
X144743386Y-83418097D01*
X144744018Y-83417836D01*
X144744067Y-83417955D01*
X144809943Y-83404236D01*
X144858459Y-83418482D01*
X144861615Y-83420169D01*
X144979005Y-83468793D01*
X145030042Y-83489933D01*
X145030046Y-83489933D01*
X145030047Y-83489934D01*
X145208843Y-83525500D01*
X145208846Y-83525500D01*
X145391156Y-83525500D01*
X145511445Y-83501572D01*
X145569958Y-83489933D01*
X145738389Y-83420167D01*
X145738394Y-83420163D01*
X145741541Y-83418482D01*
X145743386Y-83418097D01*
X145744018Y-83417836D01*
X145744067Y-83417955D01*
X145809943Y-83404236D01*
X145858459Y-83418482D01*
X145861615Y-83420169D01*
X145979005Y-83468793D01*
X146030042Y-83489933D01*
X146030046Y-83489933D01*
X146030047Y-83489934D01*
X146208843Y-83525500D01*
X146208846Y-83525500D01*
X146391156Y-83525500D01*
X146511445Y-83501572D01*
X146569958Y-83489933D01*
X146738389Y-83420167D01*
X146738394Y-83420163D01*
X146741541Y-83418482D01*
X146743386Y-83418097D01*
X146744018Y-83417836D01*
X146744067Y-83417955D01*
X146809943Y-83404236D01*
X146858459Y-83418482D01*
X146861615Y-83420169D01*
X146979005Y-83468793D01*
X147030042Y-83489933D01*
X147030046Y-83489933D01*
X147030047Y-83489934D01*
X147208843Y-83525500D01*
X147208846Y-83525500D01*
X147391156Y-83525500D01*
X147511445Y-83501572D01*
X147569958Y-83489933D01*
X147738389Y-83420167D01*
X147738394Y-83420163D01*
X147741541Y-83418482D01*
X147743386Y-83418097D01*
X147744018Y-83417836D01*
X147744067Y-83417955D01*
X147809943Y-83404236D01*
X147858459Y-83418482D01*
X147861615Y-83420169D01*
X147979005Y-83468793D01*
X148030042Y-83489933D01*
X148030046Y-83489933D01*
X148030047Y-83489934D01*
X148208843Y-83525500D01*
X148208846Y-83525500D01*
X148391156Y-83525500D01*
X148511445Y-83501572D01*
X148569958Y-83489933D01*
X148738389Y-83420167D01*
X148738394Y-83420163D01*
X148741541Y-83418482D01*
X148743386Y-83418097D01*
X148744018Y-83417836D01*
X148744067Y-83417955D01*
X148809943Y-83404236D01*
X148858459Y-83418482D01*
X148861615Y-83420169D01*
X148979005Y-83468793D01*
X149030042Y-83489933D01*
X149030046Y-83489933D01*
X149030047Y-83489934D01*
X149208843Y-83525500D01*
X149208846Y-83525500D01*
X149391156Y-83525500D01*
X149511445Y-83501572D01*
X149569958Y-83489933D01*
X149738389Y-83420167D01*
X149738394Y-83420163D01*
X149741541Y-83418482D01*
X149743386Y-83418097D01*
X149744018Y-83417836D01*
X149744067Y-83417955D01*
X149809943Y-83404236D01*
X149858459Y-83418482D01*
X149861615Y-83420169D01*
X149979005Y-83468793D01*
X150030042Y-83489933D01*
X150030046Y-83489933D01*
X150030047Y-83489934D01*
X150208843Y-83525500D01*
X150208846Y-83525500D01*
X150391156Y-83525500D01*
X150511445Y-83501572D01*
X150569958Y-83489933D01*
X150738389Y-83420167D01*
X150738394Y-83420163D01*
X150741541Y-83418482D01*
X150743386Y-83418097D01*
X150744018Y-83417836D01*
X150744067Y-83417955D01*
X150809943Y-83404236D01*
X150858459Y-83418482D01*
X150861615Y-83420169D01*
X150979005Y-83468793D01*
X151030042Y-83489933D01*
X151030046Y-83489933D01*
X151030047Y-83489934D01*
X151208843Y-83525500D01*
X151208846Y-83525500D01*
X151391156Y-83525500D01*
X151511445Y-83501572D01*
X151569958Y-83489933D01*
X151682245Y-83443422D01*
X151738387Y-83420168D01*
X151738391Y-83420166D01*
X151813672Y-83369864D01*
X151889972Y-83318883D01*
X152018883Y-83189972D01*
X152120167Y-83038389D01*
X152189933Y-82869958D01*
X152223641Y-82700500D01*
X152225500Y-82691156D01*
X152225500Y-82508843D01*
X152189934Y-82330047D01*
X152189933Y-82330046D01*
X152189933Y-82330042D01*
X152170064Y-82282073D01*
X152120168Y-82161612D01*
X152120166Y-82161608D01*
X152018886Y-82010032D01*
X152018880Y-82010024D01*
X151936819Y-81927963D01*
X151903334Y-81866640D01*
X151900500Y-81840282D01*
X151900500Y-76579765D01*
X151920185Y-76512726D01*
X151921398Y-76510874D01*
X152009390Y-76379185D01*
X152009390Y-76379184D01*
X152009394Y-76379179D01*
X152069737Y-76233497D01*
X152100500Y-76078842D01*
X152100500Y-75921158D01*
X152100500Y-75921155D01*
X152100499Y-75921153D01*
X152090316Y-75869962D01*
X152069737Y-75766503D01*
X152052264Y-75724319D01*
X152009397Y-75620827D01*
X152009390Y-75620814D01*
X151921789Y-75489711D01*
X151921786Y-75489707D01*
X151810292Y-75378213D01*
X151810288Y-75378210D01*
X151679185Y-75290609D01*
X151679172Y-75290602D01*
X151533501Y-75230264D01*
X151533489Y-75230261D01*
X151378845Y-75199500D01*
X151378842Y-75199500D01*
X151221158Y-75199500D01*
X151221155Y-75199500D01*
X151066510Y-75230261D01*
X151066498Y-75230264D01*
X150920827Y-75290602D01*
X150920814Y-75290609D01*
X150868891Y-75325304D01*
X150802214Y-75346182D01*
X150734833Y-75327698D01*
X150731109Y-75325304D01*
X150679185Y-75290609D01*
X150679172Y-75290602D01*
X150533501Y-75230264D01*
X150533489Y-75230261D01*
X150378845Y-75199500D01*
X150378842Y-75199500D01*
X150221158Y-75199500D01*
X150158425Y-75211978D01*
X150088834Y-75205749D01*
X150033657Y-75162886D01*
X150010413Y-75096996D01*
X150026481Y-75028999D01*
X150046550Y-75002683D01*
X151914506Y-73134728D01*
X151914511Y-73134724D01*
X151924714Y-73124520D01*
X151924716Y-73124520D01*
X152036520Y-73012716D01*
X152115577Y-72875784D01*
X152148687Y-72752215D01*
X152156500Y-72723058D01*
X152156500Y-72564943D01*
X152156500Y-71088269D01*
X152176185Y-71021230D01*
X152228989Y-70975475D01*
X152298147Y-70965531D01*
X152361703Y-70994556D01*
X152368181Y-71000588D01*
X155363181Y-73995588D01*
X155396666Y-74056911D01*
X155399500Y-74083269D01*
X155399500Y-78679057D01*
X155425770Y-78777096D01*
X155440423Y-78831783D01*
X155440426Y-78831790D01*
X155519475Y-78968709D01*
X155519479Y-78968714D01*
X155519480Y-78968716D01*
X155631284Y-79080520D01*
X155631286Y-79080521D01*
X155631290Y-79080524D01*
X155721287Y-79132483D01*
X155768216Y-79159577D01*
X155920943Y-79200500D01*
X156079057Y-79200500D01*
X157821139Y-79200500D01*
X157888178Y-79220185D01*
X157925637Y-79260418D01*
X157925888Y-79260231D01*
X157927635Y-79262565D01*
X157929973Y-79265076D01*
X157931207Y-79267336D01*
X158017452Y-79382544D01*
X158017455Y-79382547D01*
X158132664Y-79468793D01*
X158132671Y-79468797D01*
X158267517Y-79519091D01*
X158267516Y-79519091D01*
X158274444Y-79519835D01*
X158327127Y-79525500D01*
X159272872Y-79525499D01*
X159332483Y-79519091D01*
X159467331Y-79468796D01*
X159582546Y-79382546D01*
X159668796Y-79267331D01*
X159719091Y-79132483D01*
X159725500Y-79072873D01*
X159725499Y-78127128D01*
X159719091Y-78067517D01*
X159683551Y-77972231D01*
X159678568Y-77902542D01*
X159685173Y-77881447D01*
X159689933Y-77869958D01*
X159706095Y-77788709D01*
X159725500Y-77691156D01*
X159725500Y-77508843D01*
X159689934Y-77330047D01*
X159689933Y-77330046D01*
X159689933Y-77330042D01*
X159689931Y-77330037D01*
X159620169Y-77161615D01*
X159618482Y-77158459D01*
X159618097Y-77156613D01*
X159617836Y-77155982D01*
X159617955Y-77155932D01*
X159604236Y-77090057D01*
X159618482Y-77041541D01*
X159620163Y-77038394D01*
X159620167Y-77038389D01*
X159689933Y-76869958D01*
X159725500Y-76691154D01*
X159725500Y-76508846D01*
X159725500Y-76508843D01*
X159689934Y-76330047D01*
X159689933Y-76330046D01*
X159689933Y-76330042D01*
X159649940Y-76233489D01*
X159620169Y-76161615D01*
X159618482Y-76158459D01*
X159618097Y-76156613D01*
X159617836Y-76155982D01*
X159617955Y-76155932D01*
X159604236Y-76090057D01*
X159618482Y-76041541D01*
X159620163Y-76038394D01*
X159620167Y-76038389D01*
X159689933Y-75869958D01*
X159706705Y-75785642D01*
X159725500Y-75691156D01*
X159725500Y-75508843D01*
X159689934Y-75330047D01*
X159689933Y-75330046D01*
X159689933Y-75330042D01*
X159688962Y-75327698D01*
X159620169Y-75161615D01*
X159618482Y-75158459D01*
X159618097Y-75156613D01*
X159617836Y-75155982D01*
X159617955Y-75155932D01*
X159604236Y-75090057D01*
X159618482Y-75041541D01*
X159620163Y-75038394D01*
X159620167Y-75038389D01*
X159689933Y-74869958D01*
X159712532Y-74756348D01*
X159725500Y-74691156D01*
X159725500Y-74508843D01*
X159689934Y-74330047D01*
X159689933Y-74330046D01*
X159689933Y-74330042D01*
X159620167Y-74161611D01*
X159620166Y-74161609D01*
X159618482Y-74158459D01*
X159618097Y-74156613D01*
X159617836Y-74155982D01*
X159617955Y-74155932D01*
X159604236Y-74090057D01*
X159618482Y-74041541D01*
X159620163Y-74038394D01*
X159620167Y-74038389D01*
X159689933Y-73869958D01*
X159725500Y-73691154D01*
X159725500Y-73508846D01*
X159725500Y-73508843D01*
X159689934Y-73330047D01*
X159689933Y-73330046D01*
X159689933Y-73330042D01*
X159620167Y-73161611D01*
X159620166Y-73161609D01*
X159618482Y-73158459D01*
X159618097Y-73156613D01*
X159617836Y-73155982D01*
X159617955Y-73155932D01*
X159604236Y-73090057D01*
X159618482Y-73041541D01*
X159620163Y-73038394D01*
X159620167Y-73038389D01*
X159689933Y-72869958D01*
X159719154Y-72723058D01*
X159725500Y-72691156D01*
X159725500Y-72508843D01*
X159689934Y-72330047D01*
X159689933Y-72330046D01*
X159689933Y-72330042D01*
X159666330Y-72273058D01*
X159620169Y-72161615D01*
X159618482Y-72158459D01*
X159618097Y-72156613D01*
X159617836Y-72155982D01*
X159617955Y-72155932D01*
X159604236Y-72090057D01*
X159618482Y-72041541D01*
X159620163Y-72038394D01*
X159620167Y-72038389D01*
X159689933Y-71869958D01*
X159704890Y-71794765D01*
X159725500Y-71691156D01*
X159725500Y-71508843D01*
X159689934Y-71330047D01*
X159689933Y-71330046D01*
X159689933Y-71330042D01*
X159620167Y-71161611D01*
X159620166Y-71161609D01*
X159618482Y-71158459D01*
X159618097Y-71156613D01*
X159617836Y-71155982D01*
X159617955Y-71155932D01*
X159604236Y-71090057D01*
X159618482Y-71041541D01*
X159620163Y-71038394D01*
X159620167Y-71038389D01*
X159689933Y-70869958D01*
X159717764Y-70730046D01*
X159725500Y-70691156D01*
X159725500Y-70508843D01*
X159689934Y-70330047D01*
X159689933Y-70330046D01*
X159689933Y-70330042D01*
X159686164Y-70320943D01*
X159620169Y-70161615D01*
X159618482Y-70158459D01*
X159618097Y-70156613D01*
X159617836Y-70155982D01*
X159617955Y-70155932D01*
X159604236Y-70090057D01*
X159618482Y-70041541D01*
X159620163Y-70038394D01*
X159620167Y-70038389D01*
X159689933Y-69869958D01*
X159725500Y-69691154D01*
X159725500Y-69508846D01*
X159725500Y-69508843D01*
X159689934Y-69330047D01*
X159689933Y-69330046D01*
X159689933Y-69330042D01*
X159671123Y-69284630D01*
X159620168Y-69161612D01*
X159620166Y-69161608D01*
X159518886Y-69010032D01*
X159518880Y-69010024D01*
X159436819Y-68927963D01*
X159403334Y-68866640D01*
X159400500Y-68840282D01*
X159400500Y-65020945D01*
X159400500Y-65020943D01*
X159379290Y-64941785D01*
X159359577Y-64868215D01*
X159313875Y-64789057D01*
X159280520Y-64731284D01*
X159168716Y-64619480D01*
X159168715Y-64619479D01*
X159164385Y-64615149D01*
X159164374Y-64615139D01*
X158886415Y-64337180D01*
X158852930Y-64275857D01*
X158857914Y-64206165D01*
X158899786Y-64150232D01*
X158965250Y-64125815D01*
X158974096Y-64125499D01*
X159272871Y-64125499D01*
X159272872Y-64125499D01*
X159332483Y-64119091D01*
X159467331Y-64068796D01*
X159582546Y-63982546D01*
X159668796Y-63867331D01*
X159719091Y-63732483D01*
X159725500Y-63672873D01*
X159725499Y-62727128D01*
X159719091Y-62667517D01*
X159683551Y-62572231D01*
X159678568Y-62502542D01*
X159685173Y-62481447D01*
X159689933Y-62469958D01*
X159710048Y-62368834D01*
X159725500Y-62291156D01*
X159725500Y-62108843D01*
X159689934Y-61930047D01*
X159689933Y-61930046D01*
X159689933Y-61930042D01*
X159689931Y-61930037D01*
X159620169Y-61761615D01*
X159618482Y-61758459D01*
X159618097Y-61756613D01*
X159617836Y-61755982D01*
X159617955Y-61755932D01*
X159604236Y-61690057D01*
X159618482Y-61641541D01*
X159620163Y-61638394D01*
X159620167Y-61638389D01*
X159689933Y-61469958D01*
X159712273Y-61357648D01*
X159725500Y-61291156D01*
X159725500Y-61108843D01*
X159689934Y-60930047D01*
X159689933Y-60930046D01*
X159689933Y-60930042D01*
X159620167Y-60761611D01*
X159620166Y-60761609D01*
X159618482Y-60758459D01*
X159618097Y-60756613D01*
X159617836Y-60755982D01*
X159617955Y-60755932D01*
X159604236Y-60690057D01*
X159618482Y-60641541D01*
X159620163Y-60638394D01*
X159620167Y-60638389D01*
X159689933Y-60469958D01*
X159701572Y-60411445D01*
X159725500Y-60291156D01*
X159725500Y-60108843D01*
X159689934Y-59930047D01*
X159689933Y-59930046D01*
X159689933Y-59930042D01*
X159671347Y-59885170D01*
X159620169Y-59761615D01*
X159618482Y-59758459D01*
X159618097Y-59756613D01*
X159617836Y-59755982D01*
X159617955Y-59755932D01*
X159604236Y-59690057D01*
X159618482Y-59641541D01*
X159620163Y-59638394D01*
X159620167Y-59638389D01*
X159689933Y-59469958D01*
X159714530Y-59346304D01*
X159725500Y-59291156D01*
X159725500Y-59108843D01*
X159689934Y-58930047D01*
X159689933Y-58930046D01*
X159689933Y-58930042D01*
X159679773Y-58905513D01*
X159620169Y-58761615D01*
X159618482Y-58758459D01*
X159618097Y-58756613D01*
X159617836Y-58755982D01*
X159617955Y-58755932D01*
X159604236Y-58690057D01*
X159618482Y-58641541D01*
X159620163Y-58638394D01*
X159620167Y-58638389D01*
X159689933Y-58469958D01*
X159712734Y-58355334D01*
X159725500Y-58291156D01*
X159725500Y-58108843D01*
X159689934Y-57930047D01*
X159689933Y-57930046D01*
X159689933Y-57930042D01*
X159644968Y-57821486D01*
X159620169Y-57761615D01*
X159618482Y-57758459D01*
X159618097Y-57756613D01*
X159617836Y-57755982D01*
X159617955Y-57755932D01*
X159604236Y-57690057D01*
X159618482Y-57641541D01*
X159620163Y-57638394D01*
X159620167Y-57638389D01*
X159689933Y-57469958D01*
X159707989Y-57379185D01*
X159725500Y-57291156D01*
X159725500Y-57108843D01*
X159689934Y-56930047D01*
X159689933Y-56930046D01*
X159689933Y-56930042D01*
X159687638Y-56924501D01*
X159620169Y-56761615D01*
X159618482Y-56758459D01*
X159618097Y-56756613D01*
X159617836Y-56755982D01*
X159617955Y-56755932D01*
X159604236Y-56690057D01*
X159618482Y-56641541D01*
X159620163Y-56638394D01*
X159620167Y-56638389D01*
X159689933Y-56469958D01*
X159725500Y-56291154D01*
X159725500Y-56108846D01*
X159725500Y-56108843D01*
X159689934Y-55930047D01*
X159689933Y-55930046D01*
X159689933Y-55930042D01*
X159669529Y-55880781D01*
X159620169Y-55761615D01*
X159618482Y-55758459D01*
X159618097Y-55756613D01*
X159617836Y-55755982D01*
X159617955Y-55755932D01*
X159604236Y-55690057D01*
X159618482Y-55641541D01*
X159620163Y-55638394D01*
X159620167Y-55638389D01*
X159689933Y-55469958D01*
X159706230Y-55388028D01*
X159725500Y-55291156D01*
X159725500Y-55108843D01*
X159689934Y-54930047D01*
X159689933Y-54930046D01*
X159689933Y-54930042D01*
X159686164Y-54920943D01*
X159620169Y-54761615D01*
X159618482Y-54758459D01*
X159618097Y-54756613D01*
X159617836Y-54755982D01*
X159617955Y-54755932D01*
X159604236Y-54690057D01*
X159618482Y-54641541D01*
X159620163Y-54638394D01*
X159620167Y-54638389D01*
X159689933Y-54469958D01*
X159709383Y-54372179D01*
X159725500Y-54291156D01*
X159725500Y-54108843D01*
X159689934Y-53930047D01*
X159689933Y-53930046D01*
X159689933Y-53930042D01*
X159668727Y-53878846D01*
X159620168Y-53761612D01*
X159620166Y-53761608D01*
X159518886Y-53610032D01*
X159518880Y-53610024D01*
X159389975Y-53481119D01*
X159389967Y-53481113D01*
X159238391Y-53379833D01*
X159238387Y-53379831D01*
X159069962Y-53310068D01*
X159069952Y-53310065D01*
X158891156Y-53274500D01*
X158891154Y-53274500D01*
X158708846Y-53274500D01*
X158708844Y-53274500D01*
X158530047Y-53310065D01*
X158530037Y-53310068D01*
X158361612Y-53379831D01*
X158361608Y-53379833D01*
X158210032Y-53481113D01*
X158210030Y-53481114D01*
X158168997Y-53522147D01*
X158127962Y-53563182D01*
X158066642Y-53596666D01*
X158040283Y-53599500D01*
X154904500Y-53599500D01*
X154837461Y-53579815D01*
X154791706Y-53527011D01*
X154780500Y-53475500D01*
X154780500Y-51994301D01*
X154780501Y-51994288D01*
X154780501Y-51826187D01*
X154780501Y-51826185D01*
X154739577Y-51673457D01*
X154703995Y-51611827D01*
X154660520Y-51536526D01*
X154548716Y-51424722D01*
X154548715Y-51424721D01*
X154544385Y-51420391D01*
X154544374Y-51420381D01*
X153636819Y-50512826D01*
X153603334Y-50451503D01*
X153600500Y-50425145D01*
X153600500Y-49089060D01*
X153600501Y-49089047D01*
X153600501Y-48920944D01*
X153559576Y-48768214D01*
X153559573Y-48768209D01*
X153480524Y-48631290D01*
X153480518Y-48631282D01*
X151852750Y-47003514D01*
X151838046Y-46976586D01*
X151821454Y-46950768D01*
X151820562Y-46944567D01*
X151819265Y-46942191D01*
X151816431Y-46915833D01*
X151816431Y-46758406D01*
X151816432Y-46758393D01*
X151816432Y-46590290D01*
X151807702Y-46557710D01*
X151775508Y-46437562D01*
X151769300Y-46426809D01*
X151696455Y-46300636D01*
X151696449Y-46300628D01*
X151636819Y-46240998D01*
X151603334Y-46179675D01*
X151600500Y-46153317D01*
X151600500Y-45393444D01*
X151600500Y-45393443D01*
X151599102Y-45388227D01*
X151599102Y-45388215D01*
X151599099Y-45388216D01*
X151588993Y-45350500D01*
X151583510Y-45330037D01*
X151559577Y-45240716D01*
X151559575Y-45240712D01*
X151559574Y-45240709D01*
X151480524Y-45103790D01*
X151480521Y-45103786D01*
X151480520Y-45103784D01*
X151368716Y-44991980D01*
X151368715Y-44991979D01*
X151364385Y-44987649D01*
X151364374Y-44987639D01*
X150388916Y-44012181D01*
X150355431Y-43950858D01*
X150360415Y-43881166D01*
X150402287Y-43825233D01*
X150467751Y-43800816D01*
X150476597Y-43800500D01*
X154899903Y-43800500D01*
X154966942Y-43820185D01*
X154987584Y-43836819D01*
X157838181Y-46687416D01*
X157871666Y-46748739D01*
X157874500Y-46775097D01*
X157874500Y-47072869D01*
X157874501Y-47072876D01*
X157880908Y-47132483D01*
X157931202Y-47267328D01*
X157931206Y-47267335D01*
X158017452Y-47382544D01*
X158017455Y-47382547D01*
X158132664Y-47468793D01*
X158132671Y-47468797D01*
X158267517Y-47519091D01*
X158267516Y-47519091D01*
X158274444Y-47519835D01*
X158327127Y-47525500D01*
X159272872Y-47525499D01*
X159332483Y-47519091D01*
X159467331Y-47468796D01*
X159582546Y-47382546D01*
X159668796Y-47267331D01*
X159719091Y-47132483D01*
X159725500Y-47072873D01*
X159725499Y-46127128D01*
X159719091Y-46067517D01*
X159683551Y-45972231D01*
X159678568Y-45902542D01*
X159685173Y-45881447D01*
X159689933Y-45869958D01*
X159725500Y-45691154D01*
X159725500Y-45508846D01*
X159725500Y-45508843D01*
X159689934Y-45330047D01*
X159689933Y-45330046D01*
X159689933Y-45330042D01*
X159663195Y-45265490D01*
X159620169Y-45161615D01*
X159618482Y-45158459D01*
X159618097Y-45156613D01*
X159617836Y-45155982D01*
X159617955Y-45155932D01*
X159604236Y-45090057D01*
X159618482Y-45041541D01*
X159620163Y-45038394D01*
X159620167Y-45038389D01*
X159689933Y-44869958D01*
X159725500Y-44691154D01*
X159725500Y-44508846D01*
X159725500Y-44508843D01*
X159689934Y-44330047D01*
X159689933Y-44330046D01*
X159689933Y-44330042D01*
X159689931Y-44330037D01*
X159620169Y-44161615D01*
X159618482Y-44158459D01*
X159618097Y-44156613D01*
X159617836Y-44155982D01*
X159617955Y-44155932D01*
X159604236Y-44090057D01*
X159618482Y-44041541D01*
X159620163Y-44038394D01*
X159620167Y-44038389D01*
X159689933Y-43869958D01*
X159710884Y-43764631D01*
X159725500Y-43691156D01*
X159725500Y-43508843D01*
X159689934Y-43330047D01*
X159689933Y-43330046D01*
X159689933Y-43330042D01*
X159620167Y-43161611D01*
X159620166Y-43161609D01*
X159618482Y-43158459D01*
X159618097Y-43156613D01*
X159617836Y-43155982D01*
X159617955Y-43155932D01*
X159604236Y-43090057D01*
X159618482Y-43041541D01*
X159620163Y-43038394D01*
X159620167Y-43038389D01*
X159689933Y-42869958D01*
X159707628Y-42781002D01*
X159725500Y-42691156D01*
X159725500Y-42508843D01*
X159689934Y-42330047D01*
X159689933Y-42330046D01*
X159689933Y-42330042D01*
X159689931Y-42330037D01*
X159620169Y-42161615D01*
X159618482Y-42158459D01*
X159618097Y-42156613D01*
X159617836Y-42155982D01*
X159617955Y-42155932D01*
X159604236Y-42090057D01*
X159618482Y-42041541D01*
X159620163Y-42038394D01*
X159620167Y-42038389D01*
X159689933Y-41869958D01*
X159715768Y-41740078D01*
X159725500Y-41691156D01*
X159725500Y-41508843D01*
X159689934Y-41330047D01*
X159689933Y-41330046D01*
X159689933Y-41330042D01*
X159677282Y-41299500D01*
X159620169Y-41161615D01*
X159618482Y-41158459D01*
X159618097Y-41156613D01*
X159617836Y-41155982D01*
X159617955Y-41155932D01*
X159604236Y-41090057D01*
X159618482Y-41041541D01*
X159620163Y-41038394D01*
X159620167Y-41038389D01*
X159689933Y-40869958D01*
X159725500Y-40691154D01*
X159725500Y-40508846D01*
X159725500Y-40508843D01*
X159689934Y-40330047D01*
X159689933Y-40330046D01*
X159689933Y-40330042D01*
X159689931Y-40330037D01*
X159620169Y-40161615D01*
X159618482Y-40158459D01*
X159618097Y-40156613D01*
X159617836Y-40155982D01*
X159617955Y-40155932D01*
X159604236Y-40090057D01*
X159618482Y-40041541D01*
X159620163Y-40038394D01*
X159620167Y-40038389D01*
X159689933Y-39869958D01*
X159725500Y-39691154D01*
X159725500Y-39508846D01*
X159725500Y-39508843D01*
X159689934Y-39330047D01*
X159689933Y-39330046D01*
X159689933Y-39330042D01*
X159620167Y-39161611D01*
X159620166Y-39161609D01*
X159618482Y-39158459D01*
X159618097Y-39156613D01*
X159617836Y-39155982D01*
X159617955Y-39155932D01*
X159604236Y-39090057D01*
X159618482Y-39041541D01*
X159620163Y-39038394D01*
X159620167Y-39038389D01*
X159689933Y-38869958D01*
X159701572Y-38811445D01*
X159725500Y-38691156D01*
X159725500Y-38508843D01*
X159689934Y-38330047D01*
X159689933Y-38330046D01*
X159689933Y-38330042D01*
X159653968Y-38243215D01*
X159620169Y-38161615D01*
X159618482Y-38158459D01*
X159618097Y-38156613D01*
X159617836Y-38155982D01*
X159617955Y-38155932D01*
X159604236Y-38090057D01*
X159618482Y-38041541D01*
X159620163Y-38038394D01*
X159620167Y-38038389D01*
X159689933Y-37869958D01*
X159725089Y-37693221D01*
X159725500Y-37691156D01*
X159725500Y-37508843D01*
X159689934Y-37330047D01*
X159689933Y-37330046D01*
X159689933Y-37330042D01*
X159674074Y-37291754D01*
X159620168Y-37161612D01*
X159620166Y-37161608D01*
X159518886Y-37010032D01*
X159518880Y-37010024D01*
X159389975Y-36881119D01*
X159389967Y-36881113D01*
X159238391Y-36779833D01*
X159238387Y-36779831D01*
X159069962Y-36710068D01*
X159069952Y-36710065D01*
X158891156Y-36674500D01*
X158891154Y-36674500D01*
X158708846Y-36674500D01*
X158708844Y-36674500D01*
X158530047Y-36710065D01*
X158530037Y-36710068D01*
X158361612Y-36779831D01*
X158361608Y-36779833D01*
X158210032Y-36881113D01*
X158210030Y-36881114D01*
X158168997Y-36922147D01*
X158127962Y-36963182D01*
X158066642Y-36996666D01*
X158040283Y-36999500D01*
X154900097Y-36999500D01*
X154833058Y-36979815D01*
X154812416Y-36963181D01*
X153987590Y-36138355D01*
X153987588Y-36138352D01*
X153868717Y-36019481D01*
X153868716Y-36019480D01*
X153845708Y-36006196D01*
X153790643Y-35974405D01*
X153790641Y-35974404D01*
X153781904Y-35969360D01*
X153731785Y-35940423D01*
X153624845Y-35911767D01*
X153619079Y-35909589D01*
X153615906Y-35907193D01*
X153600904Y-35900979D01*
X153591049Y-35895289D01*
X153522123Y-35855495D01*
X153475233Y-35828423D01*
X153322505Y-35787499D01*
X153164391Y-35787499D01*
X153156795Y-35787499D01*
X153156779Y-35787500D01*
X143270945Y-35787500D01*
X143270929Y-35787499D01*
X143263333Y-35787499D01*
X143105219Y-35787499D01*
X142952491Y-35828423D01*
X142905601Y-35855495D01*
X142815563Y-35907477D01*
X142815558Y-35907481D01*
X141319479Y-37403560D01*
X141306813Y-37425500D01*
X141292058Y-37451057D01*
X141240423Y-37540491D01*
X141199499Y-37693219D01*
X141199499Y-37693221D01*
X141199499Y-37861322D01*
X141199500Y-37861335D01*
X141199500Y-38000500D01*
X141179815Y-38067539D01*
X141127011Y-38113294D01*
X141075500Y-38124500D01*
X140842289Y-38124500D01*
X140754631Y-38135026D01*
X140754630Y-38135027D01*
X140635489Y-38182010D01*
X140565903Y-38188291D01*
X140544511Y-38182010D01*
X140425369Y-38135027D01*
X140425368Y-38135026D01*
X140337711Y-38124500D01*
X140337710Y-38124500D01*
X140042290Y-38124500D01*
X140042289Y-38124500D01*
X139954631Y-38135026D01*
X139954630Y-38135027D01*
X139830489Y-38183981D01*
X139760902Y-38190262D01*
X139739511Y-38183981D01*
X139615369Y-38135027D01*
X139615368Y-38135026D01*
X139527711Y-38124500D01*
X139527710Y-38124500D01*
X139232290Y-38124500D01*
X139232289Y-38124500D01*
X139144631Y-38135026D01*
X139144630Y-38135027D01*
X139025489Y-38182010D01*
X138955903Y-38188291D01*
X138934511Y-38182010D01*
X138815369Y-38135027D01*
X138815368Y-38135026D01*
X138727711Y-38124500D01*
X138727710Y-38124500D01*
X138432290Y-38124500D01*
X138432289Y-38124500D01*
X138344631Y-38135026D01*
X138344630Y-38135027D01*
X138205130Y-38190038D01*
X138205128Y-38190039D01*
X138085647Y-38280647D01*
X137995039Y-38400128D01*
X137995038Y-38400130D01*
X137940027Y-38539630D01*
X137940026Y-38539631D01*
X137929500Y-38627289D01*
X137929500Y-40572710D01*
X137940026Y-40660368D01*
X137940027Y-40660369D01*
X137995038Y-40799869D01*
X137995039Y-40799871D01*
X138015052Y-40826261D01*
X138085647Y-40919353D01*
X138205131Y-41009962D01*
X138344631Y-41064973D01*
X138432289Y-41075500D01*
X138432290Y-41075500D01*
X138727711Y-41075500D01*
X138771539Y-41070236D01*
X138815369Y-41064973D01*
X138934511Y-41017989D01*
X139004097Y-41011708D01*
X139025485Y-41017988D01*
X139144631Y-41064973D01*
X139232289Y-41075500D01*
X139232290Y-41075500D01*
X139527711Y-41075500D01*
X139556929Y-41071991D01*
X139615369Y-41064973D01*
X139739512Y-41016017D01*
X139809097Y-41009737D01*
X139830482Y-41016015D01*
X139954631Y-41064973D01*
X140042289Y-41075500D01*
X140042290Y-41075500D01*
X140337711Y-41075500D01*
X140381539Y-41070236D01*
X140425369Y-41064973D01*
X140544511Y-41017989D01*
X140614097Y-41011708D01*
X140635485Y-41017988D01*
X140754631Y-41064973D01*
X140842289Y-41075500D01*
X140842290Y-41075500D01*
X141137711Y-41075500D01*
X141166929Y-41071991D01*
X141225369Y-41064973D01*
X141349512Y-41016017D01*
X141419097Y-41009737D01*
X141440482Y-41016015D01*
X141564631Y-41064973D01*
X141652289Y-41075500D01*
X141652290Y-41075500D01*
X141947711Y-41075500D01*
X141991539Y-41070236D01*
X142035369Y-41064973D01*
X142154511Y-41017989D01*
X142224097Y-41011708D01*
X142245485Y-41017988D01*
X142364631Y-41064973D01*
X142452289Y-41075500D01*
X142452290Y-41075500D01*
X142747711Y-41075500D01*
X142776929Y-41071991D01*
X142835369Y-41064973D01*
X142949513Y-41019960D01*
X143019097Y-41013680D01*
X143040478Y-41019957D01*
X143154631Y-41064973D01*
X143242289Y-41075500D01*
X143242290Y-41075500D01*
X143537711Y-41075500D01*
X143581539Y-41070236D01*
X143625369Y-41064973D01*
X143744511Y-41017989D01*
X143814097Y-41011708D01*
X143835485Y-41017988D01*
X143954631Y-41064973D01*
X144042289Y-41075500D01*
X144042290Y-41075500D01*
X144337711Y-41075500D01*
X144366929Y-41071991D01*
X144425369Y-41064973D01*
X144549512Y-41016017D01*
X144619097Y-41009737D01*
X144640482Y-41016015D01*
X144764631Y-41064973D01*
X144852289Y-41075500D01*
X144852290Y-41075500D01*
X145147711Y-41075500D01*
X145191539Y-41070236D01*
X145235369Y-41064973D01*
X145354511Y-41017989D01*
X145424097Y-41011708D01*
X145445485Y-41017988D01*
X145564631Y-41064973D01*
X145652289Y-41075500D01*
X145652290Y-41075500D01*
X145947711Y-41075500D01*
X145976929Y-41071991D01*
X146035369Y-41064973D01*
X146159512Y-41016017D01*
X146229097Y-41009737D01*
X146250482Y-41016015D01*
X146374631Y-41064973D01*
X146462289Y-41075500D01*
X146462290Y-41075500D01*
X146757711Y-41075500D01*
X146801539Y-41070236D01*
X146845369Y-41064973D01*
X146984869Y-41009962D01*
X147104353Y-40919353D01*
X147194962Y-40799869D01*
X147249973Y-40660369D01*
X147260500Y-40572710D01*
X147260500Y-39080500D01*
X147280185Y-39013461D01*
X147332989Y-38967706D01*
X147384500Y-38956500D01*
X152055903Y-38956500D01*
X152122942Y-38976185D01*
X152143584Y-38992819D01*
X154338584Y-41187819D01*
X154372069Y-41249142D01*
X154367085Y-41318834D01*
X154325213Y-41374767D01*
X154259749Y-41399184D01*
X154250903Y-41399500D01*
X150800098Y-41399500D01*
X150733059Y-41379815D01*
X150712417Y-41363181D01*
X150458717Y-41109481D01*
X150458709Y-41109475D01*
X150335583Y-41038389D01*
X150335580Y-41038388D01*
X150321785Y-41030423D01*
X150169057Y-40989499D01*
X150010943Y-40989499D01*
X150003347Y-40989499D01*
X150003331Y-40989500D01*
X149764033Y-40989500D01*
X149718544Y-40980855D01*
X149674643Y-40963543D01*
X149640369Y-40950027D01*
X149640368Y-40950026D01*
X149552711Y-40939500D01*
X149552710Y-40939500D01*
X147607290Y-40939500D01*
X147607289Y-40939500D01*
X147519631Y-40950026D01*
X147519630Y-40950027D01*
X147380130Y-41005038D01*
X147380128Y-41005039D01*
X147302988Y-41063537D01*
X147302981Y-41063543D01*
X147260647Y-41095647D01*
X147235843Y-41128354D01*
X147235837Y-41128361D01*
X147170039Y-41215128D01*
X147170038Y-41215130D01*
X147115027Y-41354630D01*
X147115026Y-41354631D01*
X147104500Y-41442289D01*
X147104500Y-41737710D01*
X147115026Y-41825368D01*
X147115027Y-41825369D01*
X147144331Y-41899681D01*
X147162010Y-41944511D01*
X147168291Y-42014097D01*
X147162010Y-42035489D01*
X147115027Y-42154630D01*
X147115026Y-42154631D01*
X147104500Y-42242289D01*
X147104500Y-42537710D01*
X147115026Y-42625368D01*
X147115027Y-42625369D01*
X147163981Y-42749511D01*
X147170262Y-42819098D01*
X147163981Y-42840489D01*
X147115027Y-42964630D01*
X147115026Y-42964631D01*
X147104500Y-43052289D01*
X147104500Y-43347710D01*
X147115026Y-43435368D01*
X147115027Y-43435369D01*
X147156142Y-43539632D01*
X147162010Y-43554511D01*
X147168291Y-43624097D01*
X147162010Y-43645489D01*
X147115027Y-43764630D01*
X147115026Y-43764631D01*
X147104500Y-43852289D01*
X147104500Y-44147710D01*
X147115026Y-44235368D01*
X147115027Y-44235369D01*
X147163981Y-44359511D01*
X147170262Y-44429098D01*
X147163981Y-44450489D01*
X147115027Y-44574630D01*
X147115026Y-44574631D01*
X147104500Y-44662289D01*
X147104500Y-44957710D01*
X147115026Y-45045368D01*
X147115027Y-45045369D01*
X147162010Y-45164511D01*
X147168291Y-45234097D01*
X147162010Y-45255489D01*
X147115027Y-45374630D01*
X147115026Y-45374631D01*
X147104500Y-45462289D01*
X147104500Y-45757710D01*
X147115026Y-45845368D01*
X147115027Y-45845369D01*
X147160038Y-45959511D01*
X147166319Y-46029098D01*
X147160038Y-46050489D01*
X147115027Y-46164630D01*
X147115026Y-46164631D01*
X147104500Y-46252289D01*
X147104500Y-46547710D01*
X147115026Y-46635368D01*
X147115027Y-46635369D01*
X147147582Y-46717925D01*
X147162010Y-46754511D01*
X147168291Y-46824097D01*
X147162010Y-46845489D01*
X147115027Y-46964630D01*
X147115026Y-46964631D01*
X147104500Y-47052289D01*
X147104500Y-47347710D01*
X147115026Y-47435368D01*
X147115027Y-47435369D01*
X147163981Y-47559511D01*
X147170262Y-47629098D01*
X147163981Y-47650489D01*
X147115027Y-47774630D01*
X147115026Y-47774631D01*
X147104500Y-47862289D01*
X147104500Y-48157710D01*
X147115026Y-48245368D01*
X147115027Y-48245369D01*
X147162010Y-48364511D01*
X147168291Y-48434097D01*
X147162010Y-48455489D01*
X147115027Y-48574630D01*
X147115026Y-48574631D01*
X147104500Y-48662289D01*
X147104500Y-48957710D01*
X147115026Y-49045368D01*
X147115027Y-49045369D01*
X147163981Y-49169511D01*
X147170262Y-49239098D01*
X147163981Y-49260489D01*
X147115027Y-49384630D01*
X147115026Y-49384631D01*
X147104500Y-49472289D01*
X147104500Y-49767710D01*
X147115026Y-49855368D01*
X147115027Y-49855369D01*
X147170038Y-49994869D01*
X147170039Y-49994871D01*
X147218430Y-50058683D01*
X147260647Y-50114353D01*
X147380131Y-50204962D01*
X147519631Y-50259973D01*
X147607289Y-50270500D01*
X147607290Y-50270500D01*
X149552711Y-50270500D01*
X149596539Y-50265236D01*
X149640369Y-50259973D01*
X149718544Y-50229144D01*
X149725527Y-50227817D01*
X149729098Y-50225523D01*
X149764033Y-50220500D01*
X149856041Y-50220500D01*
X149923080Y-50240185D01*
X149943722Y-50256819D01*
X150035181Y-50348278D01*
X150068666Y-50409601D01*
X150071500Y-50435959D01*
X150071500Y-51557606D01*
X150071499Y-51557624D01*
X150071499Y-51723330D01*
X150071498Y-51723330D01*
X150100794Y-51832664D01*
X150112423Y-51876061D01*
X150136088Y-51917049D01*
X150174914Y-51984299D01*
X150175608Y-51985500D01*
X150192081Y-52053400D01*
X150169228Y-52119427D01*
X150114307Y-52162618D01*
X150068221Y-52171500D01*
X148082097Y-52171500D01*
X148015058Y-52151815D01*
X147994416Y-52135181D01*
X147296819Y-51437584D01*
X147263334Y-51376261D01*
X147260500Y-51349903D01*
X147260500Y-50627289D01*
X147249973Y-50539631D01*
X147194962Y-50400131D01*
X147104353Y-50280647D01*
X147043595Y-50234572D01*
X147043593Y-50234570D01*
X146984871Y-50190039D01*
X146984869Y-50190038D01*
X146845369Y-50135027D01*
X146845368Y-50135026D01*
X146757711Y-50124500D01*
X146757710Y-50124500D01*
X146462290Y-50124500D01*
X146462289Y-50124500D01*
X146374631Y-50135026D01*
X146374630Y-50135027D01*
X146250489Y-50183981D01*
X146180902Y-50190262D01*
X146159511Y-50183981D01*
X146035369Y-50135027D01*
X146035368Y-50135026D01*
X145947711Y-50124500D01*
X145947710Y-50124500D01*
X145652290Y-50124500D01*
X145652289Y-50124500D01*
X145564631Y-50135026D01*
X145564630Y-50135027D01*
X145445489Y-50182010D01*
X145375903Y-50188291D01*
X145354511Y-50182010D01*
X145235369Y-50135027D01*
X145235368Y-50135026D01*
X145147711Y-50124500D01*
X145147710Y-50124500D01*
X144852290Y-50124500D01*
X144852289Y-50124500D01*
X144764631Y-50135026D01*
X144764630Y-50135027D01*
X144640489Y-50183981D01*
X144570902Y-50190262D01*
X144549511Y-50183981D01*
X144425369Y-50135027D01*
X144425368Y-50135026D01*
X144337711Y-50124500D01*
X144337710Y-50124500D01*
X144042290Y-50124500D01*
X144042289Y-50124500D01*
X143954631Y-50135026D01*
X143954630Y-50135027D01*
X143835489Y-50182010D01*
X143765903Y-50188291D01*
X143744511Y-50182010D01*
X143625369Y-50135027D01*
X143625368Y-50135026D01*
X143537711Y-50124500D01*
X143537710Y-50124500D01*
X143242290Y-50124500D01*
X143242289Y-50124500D01*
X143154631Y-50135026D01*
X143154630Y-50135027D01*
X143040489Y-50180038D01*
X142970902Y-50186319D01*
X142949511Y-50180038D01*
X142835369Y-50135027D01*
X142835368Y-50135026D01*
X142747711Y-50124500D01*
X142747710Y-50124500D01*
X142452290Y-50124500D01*
X142452289Y-50124500D01*
X142364631Y-50135026D01*
X142364630Y-50135027D01*
X142245489Y-50182010D01*
X142175903Y-50188291D01*
X142154511Y-50182010D01*
X142035369Y-50135027D01*
X142035368Y-50135026D01*
X141947711Y-50124500D01*
X141947710Y-50124500D01*
X141652290Y-50124500D01*
X141652289Y-50124500D01*
X141564631Y-50135026D01*
X141564630Y-50135027D01*
X141440489Y-50183981D01*
X141370902Y-50190262D01*
X141349511Y-50183981D01*
X141225369Y-50135027D01*
X141225368Y-50135026D01*
X141137711Y-50124500D01*
X141137710Y-50124500D01*
X140842290Y-50124500D01*
X140842289Y-50124500D01*
X140754631Y-50135026D01*
X140754630Y-50135027D01*
X140635489Y-50182010D01*
X140565903Y-50188291D01*
X140544511Y-50182010D01*
X140425369Y-50135027D01*
X140425368Y-50135026D01*
X140337711Y-50124500D01*
X140337710Y-50124500D01*
X140042290Y-50124500D01*
X140042289Y-50124500D01*
X139954631Y-50135026D01*
X139954630Y-50135027D01*
X139830489Y-50183981D01*
X139760902Y-50190262D01*
X139739511Y-50183981D01*
X139615369Y-50135027D01*
X139615368Y-50135026D01*
X139527711Y-50124500D01*
X139527710Y-50124500D01*
X139232290Y-50124500D01*
X139232289Y-50124500D01*
X139144631Y-50135026D01*
X139144630Y-50135027D01*
X139025489Y-50182010D01*
X138955903Y-50188291D01*
X138934511Y-50182010D01*
X138815369Y-50135027D01*
X138815368Y-50135026D01*
X138727711Y-50124500D01*
X138727710Y-50124500D01*
X138432290Y-50124500D01*
X138432289Y-50124500D01*
X138344631Y-50135026D01*
X138344630Y-50135027D01*
X138205130Y-50190038D01*
X138205128Y-50190039D01*
X138085647Y-50280647D01*
X137995039Y-50400128D01*
X137995038Y-50400130D01*
X137940027Y-50539630D01*
X137940026Y-50539631D01*
X137929500Y-50627289D01*
X137929500Y-51223230D01*
X137909815Y-51290269D01*
X137857011Y-51336024D01*
X137787853Y-51345968D01*
X137724297Y-51316943D01*
X137717819Y-51310911D01*
X136899088Y-50492181D01*
X136865603Y-50430858D01*
X136870587Y-50361167D01*
X136912459Y-50305233D01*
X136977923Y-50280816D01*
X136986769Y-50280500D01*
X137052711Y-50280500D01*
X137096539Y-50275236D01*
X137140369Y-50269973D01*
X137279869Y-50214962D01*
X137399353Y-50124353D01*
X137489962Y-50004869D01*
X137544973Y-49865369D01*
X137555500Y-49777710D01*
X137555500Y-49482290D01*
X137544973Y-49394631D01*
X137496017Y-49270487D01*
X137489737Y-49200903D01*
X137496015Y-49179517D01*
X137544973Y-49055369D01*
X137555500Y-48967710D01*
X137555500Y-48672290D01*
X137544973Y-48584631D01*
X137497989Y-48465488D01*
X137491708Y-48395903D01*
X137497990Y-48374510D01*
X137511804Y-48339481D01*
X137544973Y-48255369D01*
X137555500Y-48167710D01*
X137555500Y-47872290D01*
X137544973Y-47784631D01*
X137495748Y-47659805D01*
X137489467Y-47590220D01*
X137495749Y-47568826D01*
X137544481Y-47445252D01*
X137544482Y-47445247D01*
X137554720Y-47360000D01*
X134605281Y-47360000D01*
X134615517Y-47445247D01*
X134664251Y-47568827D01*
X134670532Y-47638414D01*
X134664251Y-47659806D01*
X134615027Y-47784630D01*
X134615026Y-47784631D01*
X134604500Y-47872289D01*
X134604500Y-48095500D01*
X134584815Y-48162539D01*
X134532011Y-48208294D01*
X134480500Y-48219500D01*
X133600940Y-48219500D01*
X133560019Y-48230464D01*
X133560019Y-48230465D01*
X133522751Y-48240451D01*
X133448214Y-48260423D01*
X133448209Y-48260426D01*
X133311290Y-48339475D01*
X133311282Y-48339481D01*
X133019481Y-48631282D01*
X133019475Y-48631290D01*
X132973168Y-48711498D01*
X132973168Y-48711499D01*
X132940423Y-48768214D01*
X132940423Y-48768215D01*
X132899499Y-48920943D01*
X132899499Y-48920944D01*
X132899499Y-48920945D01*
X132899499Y-49089046D01*
X132899500Y-49089059D01*
X132899500Y-51250903D01*
X132879815Y-51317942D01*
X132827011Y-51363697D01*
X132757853Y-51373641D01*
X132694297Y-51344616D01*
X132687819Y-51338584D01*
X132287590Y-50938355D01*
X132287588Y-50938352D01*
X132168717Y-50819481D01*
X132168709Y-50819475D01*
X132059062Y-50756171D01*
X132059061Y-50756170D01*
X132059061Y-50756171D01*
X132031785Y-50740423D01*
X132029128Y-50739711D01*
X131879057Y-50699499D01*
X131720943Y-50699499D01*
X131713347Y-50699499D01*
X131713331Y-50699500D01*
X126529602Y-50699500D01*
X126462563Y-50679815D01*
X126419117Y-50631795D01*
X126417291Y-50628211D01*
X126412287Y-50618390D01*
X126412285Y-50618387D01*
X126412284Y-50618385D01*
X126291971Y-50452786D01*
X126147213Y-50308028D01*
X125981614Y-50187715D01*
X125928060Y-50160428D01*
X125888917Y-50140483D01*
X125838123Y-50092511D01*
X125821328Y-50024690D01*
X125843865Y-49958555D01*
X125888917Y-49919516D01*
X125981610Y-49872287D01*
X126004897Y-49855368D01*
X126147213Y-49751971D01*
X126147215Y-49751968D01*
X126147219Y-49751966D01*
X126291966Y-49607219D01*
X126291968Y-49607215D01*
X126291971Y-49607213D01*
X126382732Y-49482289D01*
X126412287Y-49441610D01*
X126505220Y-49259219D01*
X126568477Y-49064534D01*
X126600500Y-48862352D01*
X126600500Y-48657648D01*
X126568477Y-48455466D01*
X126568476Y-48455462D01*
X126568476Y-48455461D01*
X126514780Y-48290202D01*
X126512785Y-48220361D01*
X126545028Y-48164205D01*
X127662416Y-47046819D01*
X127723739Y-47013334D01*
X127750097Y-47010500D01*
X134505610Y-47010500D01*
X134572649Y-47030185D01*
X134598372Y-47052212D01*
X134605281Y-47060000D01*
X135095711Y-47060000D01*
X135103586Y-47060470D01*
X135103598Y-47060279D01*
X135107289Y-47060500D01*
X135107290Y-47060500D01*
X137052711Y-47060500D01*
X137056402Y-47060279D01*
X137056413Y-47060470D01*
X137064289Y-47060000D01*
X137554718Y-47060000D01*
X137544481Y-46974748D01*
X137497721Y-46856172D01*
X137491439Y-46786585D01*
X137497719Y-46765197D01*
X137544973Y-46645369D01*
X137555500Y-46557710D01*
X137555500Y-46262290D01*
X137544973Y-46174631D01*
X137499960Y-46060486D01*
X137493680Y-45990903D01*
X137499957Y-45969521D01*
X137544973Y-45855369D01*
X137555500Y-45767710D01*
X137555500Y-45472290D01*
X137544973Y-45384631D01*
X137497989Y-45265488D01*
X137491708Y-45195903D01*
X137497990Y-45174510D01*
X137503076Y-45161615D01*
X137544973Y-45055369D01*
X137555500Y-44967710D01*
X137555500Y-44672290D01*
X137544973Y-44584631D01*
X137496017Y-44460487D01*
X137489737Y-44390903D01*
X137496018Y-44369511D01*
X137544973Y-44245369D01*
X137555500Y-44157710D01*
X137555500Y-43862290D01*
X137544973Y-43774631D01*
X137497989Y-43655488D01*
X137491708Y-43585903D01*
X137497990Y-43564510D01*
X137507111Y-43541382D01*
X137544973Y-43445369D01*
X137555500Y-43357710D01*
X137555500Y-43062290D01*
X137544973Y-42974631D01*
X137496017Y-42850487D01*
X137489737Y-42780903D01*
X137496018Y-42759511D01*
X137544973Y-42635369D01*
X137555500Y-42547710D01*
X137555500Y-42252290D01*
X137544973Y-42164631D01*
X137497989Y-42045488D01*
X137491708Y-41975903D01*
X137497990Y-41954510D01*
X137505290Y-41936000D01*
X137544973Y-41835369D01*
X137555500Y-41747710D01*
X137555500Y-41452290D01*
X137549122Y-41399184D01*
X137544973Y-41364631D01*
X137489962Y-41225131D01*
X137487045Y-41221285D01*
X137460629Y-41186450D01*
X137399353Y-41105647D01*
X137314818Y-41041541D01*
X137279871Y-41015039D01*
X137279869Y-41015038D01*
X137140369Y-40960027D01*
X137140368Y-40960026D01*
X137052711Y-40949500D01*
X137052710Y-40949500D01*
X135107290Y-40949500D01*
X135107289Y-40949500D01*
X135019631Y-40960026D01*
X135019630Y-40960027D01*
X134880130Y-41015038D01*
X134880128Y-41015039D01*
X134760647Y-41105647D01*
X134670039Y-41225128D01*
X134670038Y-41225130D01*
X134615027Y-41364630D01*
X134615026Y-41364631D01*
X134604500Y-41452289D01*
X134604500Y-41747710D01*
X134615026Y-41835368D01*
X134615027Y-41835369D01*
X134662010Y-41954511D01*
X134668291Y-42024097D01*
X134662010Y-42045489D01*
X134615027Y-42164630D01*
X134615026Y-42164631D01*
X134604500Y-42252289D01*
X134604500Y-42547710D01*
X134615026Y-42635368D01*
X134615027Y-42635369D01*
X134663981Y-42759511D01*
X134670262Y-42829098D01*
X134663981Y-42850489D01*
X134615027Y-42974630D01*
X134615026Y-42974631D01*
X134604500Y-43062289D01*
X134604500Y-43357710D01*
X134615026Y-43445368D01*
X134615027Y-43445369D01*
X134662010Y-43564511D01*
X134668291Y-43634097D01*
X134662010Y-43655489D01*
X134615027Y-43774630D01*
X134615026Y-43774631D01*
X134604500Y-43862289D01*
X134604500Y-44157710D01*
X134615026Y-44245368D01*
X134615027Y-44245369D01*
X134663981Y-44369511D01*
X134670262Y-44439098D01*
X134663981Y-44460489D01*
X134615027Y-44584630D01*
X134615026Y-44584631D01*
X134604500Y-44672289D01*
X134604500Y-44895500D01*
X134584815Y-44962539D01*
X134532011Y-45008294D01*
X134480500Y-45019500D01*
X125833386Y-45019500D01*
X125795068Y-45013431D01*
X125604536Y-44951523D01*
X125469746Y-44930174D01*
X125402352Y-44919500D01*
X124797648Y-44919500D01*
X124773329Y-44923351D01*
X124595465Y-44951522D01*
X124400776Y-45014781D01*
X124218386Y-45107715D01*
X124052786Y-45228028D01*
X123908028Y-45372786D01*
X123787715Y-45538386D01*
X123694781Y-45720776D01*
X123631522Y-45915465D01*
X123610137Y-46050489D01*
X123599500Y-46117648D01*
X123599500Y-46322352D01*
X123603878Y-46349995D01*
X123631522Y-46524534D01*
X123694781Y-46719223D01*
X123735940Y-46800000D01*
X123772014Y-46870800D01*
X123787715Y-46901613D01*
X123908028Y-47067213D01*
X124052786Y-47211971D01*
X124207749Y-47324556D01*
X124218390Y-47332287D01*
X124291425Y-47369500D01*
X124311080Y-47379515D01*
X124361876Y-47427490D01*
X124378671Y-47495311D01*
X124356134Y-47561446D01*
X124311080Y-47600485D01*
X124218386Y-47647715D01*
X124052786Y-47768028D01*
X123908028Y-47912786D01*
X123787715Y-48078386D01*
X123694781Y-48260776D01*
X123631522Y-48455465D01*
X123599500Y-48657648D01*
X123599500Y-48862351D01*
X123631522Y-49064534D01*
X123694781Y-49259223D01*
X123758680Y-49384630D01*
X123763776Y-49394632D01*
X123787715Y-49441613D01*
X123908028Y-49607213D01*
X124052786Y-49751971D01*
X124195103Y-49855368D01*
X124218390Y-49872287D01*
X124309840Y-49918883D01*
X124311080Y-49919515D01*
X124361876Y-49967490D01*
X124378671Y-50035311D01*
X124356134Y-50101446D01*
X124311080Y-50140485D01*
X124218386Y-50187715D01*
X124052786Y-50308028D01*
X123908028Y-50452786D01*
X123787715Y-50618386D01*
X123694781Y-50800776D01*
X123631522Y-50995465D01*
X123599500Y-51197648D01*
X123599500Y-51402351D01*
X123631522Y-51604534D01*
X123694781Y-51799223D01*
X123745876Y-51899500D01*
X123780532Y-51967517D01*
X123787715Y-51981613D01*
X123908028Y-52147213D01*
X124052786Y-52291971D01*
X124207749Y-52404556D01*
X124218390Y-52412287D01*
X124309840Y-52458883D01*
X124311080Y-52459515D01*
X124361876Y-52507490D01*
X124378671Y-52575311D01*
X124356134Y-52641446D01*
X124311080Y-52680485D01*
X124218386Y-52727715D01*
X124052786Y-52848028D01*
X123908028Y-52992786D01*
X123787715Y-53158385D01*
X123780883Y-53171795D01*
X123732909Y-53222591D01*
X123670398Y-53239500D01*
X114222941Y-53239500D01*
X114155902Y-53219815D01*
X114135260Y-53203181D01*
X114110292Y-53178213D01*
X114110288Y-53178210D01*
X113979185Y-53090609D01*
X113979172Y-53090602D01*
X113833501Y-53030264D01*
X113833489Y-53030261D01*
X113678845Y-52999500D01*
X113678842Y-52999500D01*
X113521158Y-52999500D01*
X113521155Y-52999500D01*
X113366510Y-53030261D01*
X113366498Y-53030264D01*
X113220827Y-53090602D01*
X113220814Y-53090609D01*
X113089711Y-53178210D01*
X113089707Y-53178213D01*
X112978213Y-53289707D01*
X112978210Y-53289711D01*
X112890609Y-53420814D01*
X112890602Y-53420827D01*
X112830264Y-53566498D01*
X112830261Y-53566510D01*
X112799500Y-53721153D01*
X112799500Y-53878846D01*
X112830261Y-54033489D01*
X112830264Y-54033501D01*
X112890602Y-54179172D01*
X112890609Y-54179185D01*
X112978210Y-54310288D01*
X112978213Y-54310292D01*
X113089707Y-54421786D01*
X113089711Y-54421789D01*
X113220814Y-54509390D01*
X113220827Y-54509397D01*
X113353908Y-54564520D01*
X113366503Y-54569737D01*
X113521153Y-54600499D01*
X113521156Y-54600500D01*
X113521158Y-54600500D01*
X113678844Y-54600500D01*
X113678845Y-54600499D01*
X113833497Y-54569737D01*
X113949677Y-54521614D01*
X113979172Y-54509397D01*
X113979172Y-54509396D01*
X113979179Y-54509394D01*
X114051010Y-54461398D01*
X114117687Y-54440520D01*
X114119901Y-54440500D01*
X123670398Y-54440500D01*
X123737437Y-54460185D01*
X123780883Y-54508205D01*
X123787715Y-54521614D01*
X123908028Y-54687213D01*
X124052786Y-54831971D01*
X124175248Y-54920943D01*
X124218390Y-54952287D01*
X124309840Y-54998883D01*
X124311080Y-54999515D01*
X124361876Y-55047490D01*
X124378671Y-55115311D01*
X124356134Y-55181446D01*
X124311080Y-55220485D01*
X124218386Y-55267715D01*
X124052786Y-55388028D01*
X123908028Y-55532786D01*
X123787715Y-55698385D01*
X123780883Y-55711795D01*
X123732909Y-55762591D01*
X123670398Y-55779500D01*
X107680098Y-55779500D01*
X107613059Y-55759815D01*
X107592417Y-55743181D01*
X106636819Y-54787583D01*
X106603334Y-54726260D01*
X106600500Y-54699902D01*
X106600500Y-36420945D01*
X106600500Y-36420943D01*
X106559577Y-36268216D01*
X106559573Y-36268209D01*
X106480524Y-36131290D01*
X106480518Y-36131282D01*
X106368717Y-36019481D01*
X106368709Y-36019475D01*
X106231790Y-35940426D01*
X106231786Y-35940424D01*
X106231784Y-35940423D01*
X106079057Y-35899500D01*
X106079056Y-35899500D01*
X85002500Y-35899500D01*
X84935461Y-35879815D01*
X84889706Y-35827011D01*
X84878500Y-35775500D01*
X84878500Y-34767945D01*
X84878500Y-34767943D01*
X84837577Y-34615216D01*
X84837573Y-34615209D01*
X84758524Y-34478290D01*
X84758518Y-34478282D01*
X84646717Y-34366481D01*
X84646709Y-34366475D01*
X84509790Y-34287426D01*
X84509786Y-34287424D01*
X84509784Y-34287423D01*
X84357057Y-34246500D01*
X84357056Y-34246500D01*
X46139670Y-34246500D01*
X46139654Y-34246499D01*
X46132058Y-34246499D01*
X45973943Y-34246499D01*
X45821215Y-34287423D01*
X45821213Y-34287423D01*
X45821213Y-34287424D01*
X45684281Y-34366482D01*
X41944481Y-38106282D01*
X41944475Y-38106290D01*
X41901620Y-38180519D01*
X41901620Y-38180520D01*
X41865423Y-38243215D01*
X41824499Y-38395943D01*
X41824499Y-38395945D01*
X41824499Y-38564046D01*
X41824500Y-38564059D01*
X41824500Y-39250500D01*
X41804815Y-39317539D01*
X41752011Y-39363294D01*
X41700500Y-39374500D01*
X41424984Y-39374500D01*
X41322204Y-39385000D01*
X41322203Y-39385001D01*
X41155664Y-39440186D01*
X41155662Y-39440187D01*
X41006348Y-39532286D01*
X41006344Y-39532289D01*
X40882289Y-39656344D01*
X40882286Y-39656348D01*
X40790187Y-39805662D01*
X40790186Y-39805664D01*
X40735001Y-39972203D01*
X40735000Y-39972204D01*
X40724500Y-40074984D01*
X36500500Y-40074984D01*
X36500500Y-32870551D01*
X36520185Y-32803512D01*
X36572989Y-32757757D01*
X36642147Y-32747813D01*
X36705703Y-32776838D01*
X36724815Y-32797662D01*
X36855483Y-32977510D01*
X37022490Y-33144517D01*
X37213567Y-33283343D01*
X37312991Y-33334002D01*
X37424003Y-33390566D01*
X37424005Y-33390566D01*
X37424008Y-33390568D01*
X37544412Y-33429689D01*
X37648631Y-33463553D01*
X37881903Y-33500500D01*
X37881908Y-33500500D01*
X38118097Y-33500500D01*
X38351368Y-33463553D01*
X38575992Y-33390568D01*
X38786433Y-33283343D01*
X38977510Y-33144517D01*
X39144517Y-32977510D01*
X39283343Y-32786433D01*
X39390568Y-32575992D01*
X39463553Y-32351368D01*
X39488929Y-32191150D01*
X39500500Y-32118097D01*
X39500500Y-31881902D01*
X39463553Y-31648631D01*
X39390566Y-31424003D01*
X39299358Y-31244999D01*
X39283343Y-31213567D01*
X39144517Y-31022490D01*
X38977510Y-30855483D01*
X38797664Y-30724816D01*
X38755000Y-30669488D01*
X38749021Y-30599874D01*
X38781627Y-30538080D01*
X38842466Y-30503722D01*
X38870551Y-30500500D01*
X160129449Y-30500500D01*
X160196488Y-30520185D01*
G37*
%TD.AperFunction*%
%TD*%
M02*
