%TF.GenerationSoftware,KiCad,Pcbnew,9.0.7*%
%TF.CreationDate,2026-02-16T12:42:13+01:00*%
%TF.ProjectId,mjctest,6d6a6374-6573-4742-9e6b-696361645f70,rev?*%
%TF.SameCoordinates,Original*%
%TF.FileFunction,Paste,Top*%
%TF.FilePolarity,Positive*%
%FSLAX46Y46*%
G04 Gerber Fmt 4.6, Leading zero omitted, Abs format (unit mm)*
G04 Created by KiCad (PCBNEW 9.0.7) date 2026-02-16 12:42:13*
%MOMM*%
%LPD*%
G01*
G04 APERTURE LIST*
G04 Aperture macros list*
%AMRoundRect*
0 Rectangle with rounded corners*
0 $1 Rounding radius*
0 $2 $3 $4 $5 $6 $7 $8 $9 X,Y pos of 4 corners*
0 Add a 4 corners polygon primitive as box body*
4,1,4,$2,$3,$4,$5,$6,$7,$8,$9,$2,$3,0*
0 Add four circle primitives for the rounded corners*
1,1,$1+$1,$2,$3*
1,1,$1+$1,$4,$5*
1,1,$1+$1,$6,$7*
1,1,$1+$1,$8,$9*
0 Add four rect primitives between the rounded corners*
20,1,$1+$1,$2,$3,$4,$5,0*
20,1,$1+$1,$4,$5,$6,$7,0*
20,1,$1+$1,$6,$7,$8,$9,0*
20,1,$1+$1,$8,$9,$2,$3,0*%
G04 Aperture macros list end*
%ADD10RoundRect,0.045000X0.930000X-0.105000X0.930000X0.105000X-0.930000X0.105000X-0.930000X-0.105000X0*%
%ADD11RoundRect,0.045000X0.105000X0.930000X-0.105000X0.930000X-0.105000X-0.930000X0.105000X-0.930000X0*%
%ADD12RoundRect,0.045000X-0.105000X-0.930000X0.105000X-0.930000X0.105000X0.930000X-0.105000X0.930000X0*%
G04 APERTURE END LIST*
D10*
%TO.C,HV2*%
X148580000Y-49620000D03*
X148580000Y-48810000D03*
X148580000Y-48010000D03*
X148580000Y-47200000D03*
X148580000Y-46400000D03*
X148580000Y-45610000D03*
X148580000Y-44810000D03*
X148580000Y-44000000D03*
X148580000Y-43200000D03*
X148580000Y-42390000D03*
X148580000Y-41590000D03*
D11*
X146610000Y-39600000D03*
X145800000Y-39600000D03*
X145000000Y-39600000D03*
X144190000Y-39600000D03*
X143390000Y-39600000D03*
X142600000Y-39600000D03*
X141800000Y-39600000D03*
X140990000Y-39600000D03*
X140190000Y-39600000D03*
X139380000Y-39600000D03*
X138580000Y-39600000D03*
D10*
X136080000Y-41600000D03*
X136080000Y-42400000D03*
X136080000Y-43210000D03*
X136080000Y-44010000D03*
X136080000Y-44820000D03*
X136080000Y-45620000D03*
X136080000Y-46410000D03*
X136080000Y-47210000D03*
X136080000Y-48020000D03*
X136080000Y-48820000D03*
X136080000Y-49630000D03*
D11*
X138580000Y-51600000D03*
X139380000Y-51600000D03*
X140190000Y-51600000D03*
X140990000Y-51600000D03*
X141800000Y-51600000D03*
X142600000Y-51600000D03*
X143390000Y-51600000D03*
X144190000Y-51600000D03*
X145000000Y-51600000D03*
X145800000Y-51600000D03*
X146610000Y-51600000D03*
%TD*%
D12*
%TO.C,HV1*%
X138390000Y-73100000D03*
X139200000Y-73100000D03*
X140000000Y-73100000D03*
X140810000Y-73100000D03*
X141610000Y-73100000D03*
X142400000Y-73100000D03*
X143200000Y-73100000D03*
X144010000Y-73100000D03*
X144810000Y-73100000D03*
X145620000Y-73100000D03*
X146420000Y-73100000D03*
D10*
X148410000Y-71130000D03*
X148410000Y-70320000D03*
X148410000Y-69520000D03*
X148410000Y-68710000D03*
X148410000Y-67910000D03*
X148410000Y-67120000D03*
X148410000Y-66320000D03*
X148410000Y-65510000D03*
X148410000Y-64710000D03*
X148410000Y-63900000D03*
X148410000Y-63100000D03*
D12*
X146410000Y-60600000D03*
X145610000Y-60600000D03*
X144800000Y-60600000D03*
X144000000Y-60600000D03*
X143190000Y-60600000D03*
X142390000Y-60600000D03*
X141600000Y-60600000D03*
X140800000Y-60600000D03*
X139990000Y-60600000D03*
X139190000Y-60600000D03*
X138380000Y-60600000D03*
D10*
X136410000Y-63100000D03*
X136410000Y-63900000D03*
X136410000Y-64710000D03*
X136410000Y-65510000D03*
X136410000Y-66320000D03*
X136410000Y-67120000D03*
X136410000Y-67910000D03*
X136410000Y-68710000D03*
X136410000Y-69520000D03*
X136410000Y-70320000D03*
X136410000Y-71130000D03*
%TD*%
M02*
