M48
; DRILL file {KiCad 9.0.7} date 2026-02-16T12:40:46+0100
; FORMAT={-:-/ absolute / metric / decimal}
; #@! TF.CreationDate,2026-02-16T12:40:46+01:00
; #@! TF.GenerationSoftware,Kicad,Pcbnew,9.0.7
; #@! TF.FileFunction,Plated,1,4,PTH
FMAT,2
METRIC
; #@! TA.AperFunction,Plated,PTH,ViaDrill
T1C0.300
; #@! TA.AperFunction,Plated,PTH,ComponentDrill
T2C0.500
; #@! TA.AperFunction,Plated,PTH,ComponentDrill
T3C0.700
; #@! TA.AperFunction,Plated,PTH,ComponentDrill
T4C0.900
; #@! TA.AperFunction,Plated,PTH,ComponentDrill
T5C1.200
; #@! TA.AperFunction,Plated,PTH,ComponentDrill
T6C1.500
%
G90
G05
T1
X106.0Y-57.0
X113.6Y-53.8
X134.05Y-51.45
X134.75Y-51.25
X140.8Y-62.8
X144.2Y-66.4
X144.9Y-65.5
X145.9Y-64.7
X149.3Y-76.0
X150.3Y-76.0
X151.3Y-76.0
T2
X83.625Y-35.5
X83.625Y-36.5
X83.625Y-52.5
X83.625Y-53.5
X83.625Y-70.0
X83.625Y-71.0
X105.8Y-82.6
X106.8Y-82.6
X107.8Y-82.6
X108.8Y-82.6
X109.8Y-82.6
X110.8Y-82.6
X111.8Y-82.6
X112.8Y-82.6
X113.8Y-82.6
X114.8Y-82.6
X123.8Y-82.6
X124.8Y-82.6
X125.8Y-82.6
X126.8Y-82.6
X127.8Y-82.6
X128.8Y-82.6
X129.8Y-82.6
X130.8Y-82.6
X131.8Y-82.6
X132.8Y-82.6
X142.3Y-82.6
X143.3Y-82.6
X144.3Y-82.6
X145.3Y-82.6
X146.3Y-82.6
X147.3Y-82.6
X148.3Y-82.6
X149.3Y-82.6
X150.3Y-82.6
X151.3Y-82.6
X158.8Y-37.6
X158.8Y-38.6
X158.8Y-39.6
X158.8Y-40.6
X158.8Y-41.6
X158.8Y-42.6
X158.8Y-43.6
X158.8Y-44.6
X158.8Y-45.6
X158.8Y-46.6
X158.8Y-54.2
X158.8Y-55.2
X158.8Y-56.2
X158.8Y-57.2
X158.8Y-58.2
X158.8Y-59.2
X158.8Y-60.2
X158.8Y-61.2
X158.8Y-62.2
X158.8Y-63.2
X158.8Y-69.6
X158.8Y-70.6
X158.8Y-71.6
X158.8Y-72.6
X158.8Y-73.6
X158.8Y-74.6
X158.8Y-75.6
X158.8Y-76.6
X158.8Y-77.6
X158.8Y-78.6
T3
X83.38Y-59.0
X83.38Y-76.5
X83.38Y-81.5
X83.5Y-42.5
X83.5Y-47.5
X83.5Y-64.0
X91.0Y-59.0
X91.0Y-76.5
X91.0Y-81.5
X91.12Y-42.5
X91.12Y-47.5
X91.12Y-64.0
T4
X102.24Y-46.22
X102.24Y-48.76
X102.24Y-51.3
X102.24Y-53.84
X102.24Y-56.38
X102.24Y-58.92
X102.24Y-61.46
X102.24Y-64.0
X125.1Y-46.22
X125.1Y-48.76
X125.1Y-51.3
X125.1Y-53.84
X125.1Y-56.38
X125.1Y-58.92
X125.1Y-61.46
X125.1Y-64.0
T5
X42.425Y-41.075
X42.425Y-58.625
X42.425Y-76.175
X77.425Y-41.075
X77.425Y-58.625
X77.425Y-76.175
T6
X50.3Y-92.5
X52.8Y-92.5
X55.3Y-92.5
X57.8Y-92.5
M30
